<?xml version="1.0" encoding="iso-8859-1"?>
<!-- Generator: Adobe Illustrator 19.0.0, SVG Export Plug-In . SVG Version: 6.00 Build 0)  -->
<svg version="1.1" id="Capa_1" xmlns="http://www.w3.org/2000/svg" xmlns:xlink="http://www.w3.org/1999/xlink" x="0px" y="0px"
	 viewBox="0 0 512 512" style="enable-background:new 0 0 512 512;" xml:space="preserve">
<g>
	<g>
		<g>
			<path d="M246.857,420.571H64v54.857h182.857V420.571z M97.92,454.491c-2.616,2.619-6.563,3.379-9.964,1.92
				c-1.108-0.462-2.129-1.112-3.018-1.92c-0.803-0.912-1.482-1.927-2.018-3.018c-0.438-1.105-0.653-2.285-0.634-3.474
				c-0.033-1.199,0.217-2.389,0.732-3.473c0.462-1.108,1.112-2.129,1.92-3.018c0.433-0.393,0.889-0.76,1.366-1.098
				c0.511-0.348,1.066-0.624,1.652-0.821c0.518-0.264,1.071-0.45,1.643-0.554c1.172-0.268,2.39-0.268,3.563,0
				c0.607,0.089,1.194,0.276,1.741,0.554c0.583,0.197,1.135,0.474,1.643,0.821c0.48,0.338,0.939,0.705,1.375,1.098
				c0.808,0.889,1.458,1.909,1.92,3.018C101.3,447.928,100.539,451.876,97.92,454.491z M134.491,454.491
				c-2.616,2.619-6.563,3.379-9.964,1.92c-1.108-0.462-2.129-1.112-3.018-1.92c-0.803-0.912-1.482-1.927-2.018-3.018
				c-0.438-1.105-0.653-2.285-0.634-3.474c-0.033-1.199,0.217-2.389,0.732-3.473c0.462-1.108,1.112-2.129,1.92-3.018
				c0.433-0.393,0.889-0.76,1.366-1.098c0.511-0.348,1.066-0.624,1.652-0.821c0.518-0.264,1.071-0.45,1.643-0.554
				c1.172-0.268,2.39-0.268,3.563,0c0.606,0.089,1.194,0.276,1.741,0.554c0.583,0.197,1.135,0.474,1.643,0.821
				c0.48,0.338,0.939,0.705,1.375,1.098c0.808,0.889,1.458,1.909,1.92,3.018C137.871,447.928,137.11,451.876,134.491,454.491z
				 M219.429,457.143h-54.857c-5.049,0-9.143-4.093-9.143-9.143c0-5.049,4.093-9.143,9.143-9.143h54.857
				c5.049,0,9.143,4.093,9.143,9.143C228.571,453.049,224.478,457.143,219.429,457.143z"/>
			<polygon points="256,493.714 91.429,493.714 91.429,512 420.59,512 420.581,493.714 			"/>
			<path d="M265.143,402.286H448v-54.857H265.143V402.286z M412.161,371.384c0.441-1.12,1.093-2.144,1.92-3.018
				c3.666-3.384,9.316-3.384,12.982,0c0.808,0.889,1.458,1.909,1.92,3.018c0.976,2.213,0.976,4.734,0,6.946
				c-0.832,2.296-2.641,4.105-4.937,4.937c-2.213,0.976-4.734,0.976-6.946,0c-1.119-0.441-2.144-1.093-3.018-1.92
				c-0.803-0.912-1.482-1.927-2.018-3.018c-0.438-1.104-0.654-2.284-0.635-3.472C411.395,373.658,411.646,372.468,412.161,371.384z
				 M375.589,371.384c0.441-1.12,1.093-2.144,1.92-3.018c0.433-0.393,0.889-0.76,1.366-1.098c0.511-0.348,1.066-0.624,1.652-0.821
				c0.518-0.264,1.071-0.45,1.643-0.554c1.172-0.268,2.39-0.268,3.563,0c0.606,0.089,1.194,0.276,1.741,0.554
				c0.583,0.197,1.135,0.474,1.643,0.821c0.48,0.338,0.939,0.705,1.375,1.098c0.827,0.874,1.479,1.898,1.92,3.018
				c0.976,2.213,0.976,4.734,0,6.946c-0.832,2.296-2.641,4.105-4.937,4.937c-2.213,0.976-4.734,0.976-6.946,0
				c-1.12-0.441-2.144-1.093-3.018-1.92c-0.806-0.89-1.455-1.911-1.92-3.018c-0.976-2.213-0.976-4.734,0-6.946L375.589,371.384z
				 M292.571,365.714h54.857c5.049,0,9.143,4.093,9.143,9.143c0,5.049-4.093,9.143-9.143,9.143h-54.857
				c-5.049,0-9.143-4.093-9.143-9.143C283.429,369.808,287.522,365.714,292.571,365.714z"/>
			<path d="M265.143,475.429H448v-54.857H265.143V475.429z M412.161,444.527c0.463-1.108,1.112-2.129,1.92-3.018
				c3.666-3.384,9.316-3.384,12.982,0c0.808,0.889,1.458,1.909,1.92,3.018c1.459,3.401,0.699,7.349-1.92,9.965
				c-0.89,0.806-1.911,1.455-3.018,1.92c-2.812,1.204-6.041,0.907-8.586-0.789s-4.061-4.564-4.03-7.622
				C411.395,446.801,411.646,445.611,412.161,444.527z M375.589,444.527c0.463-1.108,1.112-2.129,1.92-3.018
				c3.666-3.384,9.316-3.384,12.982,0c0.808,0.889,1.458,1.909,1.92,3.018c1.459,3.401,0.699,7.349-1.92,9.965
				c-0.89,0.806-1.91,1.455-3.018,1.92c-2.812,1.204-6.041,0.907-8.586-0.789s-4.061-4.564-4.031-7.622
				C374.824,446.801,375.075,445.611,375.589,444.527z M292.571,438.857h54.857c5.049,0,9.143,4.093,9.143,9.143
				c0,5.049-4.093,9.143-9.143,9.143h-54.857c-5.049,0-9.143-4.093-9.143-9.143C283.429,442.951,287.522,438.857,292.571,438.857z"
				/>
			<path d="M246.857,347.429H64v54.857h182.857V347.429z M99.839,378.33c-0.832,2.296-2.641,4.105-4.937,4.937
				c-3.401,1.46-7.349,0.7-9.965-1.919c-0.806-0.89-1.455-1.911-1.92-3.018c-0.976-2.213-0.976-4.734,0-6.946
				c0.441-1.12,1.093-2.144,1.92-3.018c0.433-0.393,0.889-0.76,1.366-1.098c0.511-0.348,1.066-0.624,1.652-0.821
				c0.543-0.277,1.128-0.464,1.732-0.554c1.142-0.268,2.331-0.268,3.473,0c0.607,0.089,1.194,0.276,1.741,0.554
				c0.583,0.197,1.135,0.474,1.643,0.821c0.48,0.338,0.939,0.705,1.376,1.097c1.669,1.753,2.616,4.071,2.651,6.491
				C100.557,376.052,100.308,377.232,99.839,378.33z M136.411,378.33c-0.832,2.296-2.641,4.105-4.937,4.937
				c-2.213,0.976-4.734,0.976-6.946,0c-1.12-0.441-2.144-1.093-3.018-1.92c-0.803-0.912-1.482-1.927-2.018-3.018
				c-0.438-1.105-0.653-2.284-0.634-3.472c-0.033-1.199,0.217-2.389,0.732-3.473c0.441-1.12,1.093-2.144,1.92-3.018
				c2.626-2.599,6.561-3.358,9.964-1.92c1.107,0.465,2.128,1.114,3.018,1.92c1.669,1.753,2.616,4.071,2.651,6.491
				C137.128,376.052,136.879,377.232,136.411,378.33z M219.429,384h-54.857c-5.049,0-9.143-4.093-9.143-9.143
				c0-5.049,4.093-9.143,9.143-9.143h54.857c5.049,0,9.143,4.093,9.143,9.143C228.571,379.907,224.478,384,219.429,384z"/>
			<path d="M246.857,54.857H64v54.857h182.857V54.857z M99.84,85.759L99.84,85.759c-0.465,1.108-1.115,2.128-1.921,3.018
				c-3.605,3.536-9.377,3.536-12.982,0c-0.806-0.89-1.455-1.911-1.92-3.018c-0.976-2.213-0.976-4.734,0-6.946
				c0.441-1.119,1.093-2.144,1.92-3.018c0.433-0.393,0.889-0.76,1.366-1.098c0.511-0.348,1.066-0.624,1.652-0.821
				c0.543-0.277,1.128-0.464,1.732-0.554c2.985-0.598,6.071,0.33,8.233,2.473c0.808,0.889,1.458,1.909,1.92,3.018
				C100.816,81.025,100.816,83.546,99.84,85.759z M136.411,85.759c-0.465,1.107-1.114,2.128-1.92,3.018
				c-2.616,2.619-6.563,3.379-9.964,1.92c-1.12-0.441-2.144-1.093-3.018-1.92c-0.806-0.89-1.455-1.911-1.92-3.018
				c-0.976-2.213-0.976-4.734,0-6.946c0.441-1.119,1.093-2.144,1.92-3.018c3.666-3.384,9.316-3.384,12.982,0
				c0.808,0.889,1.458,1.909,1.92,3.018C137.387,81.025,137.387,83.546,136.411,85.759z M219.429,91.429h-54.857
				c-5.049,0-9.143-4.093-9.143-9.143c0-5.049,4.093-9.143,9.143-9.143h54.857c5.049,0,9.143,4.093,9.143,9.143
				C228.571,87.335,224.478,91.429,219.429,91.429z"/>
			<path d="M246.857,201.143H64V256h182.857V201.143z M97.92,235.063c-0.89,0.806-1.911,1.455-3.018,1.92
				c-2.213,0.976-4.734,0.976-6.946,0c-1.12-0.441-2.144-1.093-3.018-1.92c-1.721-1.719-2.677-4.059-2.652-6.491
				c-0.033-1.199,0.217-2.389,0.732-3.473c0.441-1.12,1.093-2.144,1.92-3.018c0.433-0.393,0.889-0.76,1.366-1.098
				c0.511-0.348,1.066-0.624,1.652-0.821c0.518-0.264,1.071-0.45,1.643-0.554c3.012-0.611,6.131,0.316,8.321,2.473
				c0.827,0.874,1.479,1.898,1.92,3.018C101.3,228.499,100.539,232.447,97.92,235.063z M134.491,235.063
				c-0.89,0.806-1.91,1.455-3.018,1.92c-2.213,0.976-4.734,0.976-6.946,0c-1.108-0.462-2.129-1.112-3.018-1.92
				c-1.721-1.719-2.677-4.059-2.652-6.491c-0.033-1.199,0.217-2.389,0.732-3.473c0.441-1.12,1.093-2.144,1.92-3.018
				c0.433-0.393,0.889-0.76,1.366-1.098c0.511-0.348,1.066-0.624,1.652-0.821c0.518-0.264,1.071-0.45,1.643-0.554
				c3.012-0.611,6.131,0.316,8.321,2.473c0.827,0.874,1.479,1.898,1.92,3.018C137.871,228.499,137.11,232.447,134.491,235.063z
				 M219.429,237.714h-54.857c-5.049,0-9.143-4.093-9.143-9.143c0-5.049,4.093-9.143,9.143-9.143h54.857
				c5.049,0,9.143,4.093,9.143,9.143C228.571,233.621,224.478,237.714,219.429,237.714z"/>
			<path d="M246.857,155.429V128H64v54.857h182.857V155.429z M97.92,161.92c-2.616,2.637-6.567,3.43-9.998,2.006
				c-3.431-1.424-5.658-4.783-5.637-8.497c-0.033-1.199,0.217-2.389,0.732-3.473c0.441-1.12,1.093-2.144,1.92-3.018
				c0.433-0.393,0.889-0.76,1.366-1.098c0.511-0.348,1.066-0.624,1.652-0.821c0.518-0.264,1.071-0.45,1.643-0.554
				c4.305-0.977,8.673,1.365,10.241,5.491C101.299,155.357,100.539,159.304,97.92,161.92z M134.491,161.92
				c-0.89,0.806-1.91,1.455-3.018,1.92c-2.213,0.976-4.734,0.976-6.946,0c-1.108-0.463-2.129-1.112-3.018-1.92
				c-2.619-2.616-3.379-6.563-1.92-9.964c0.832-2.296,2.641-4.105,4.937-4.937c1.667-0.733,3.521-0.927,5.304-0.554
				c0.571,0.105,1.125,0.291,1.643,0.554c0.583,0.197,1.135,0.474,1.643,0.821c0.48,0.338,0.939,0.704,1.376,1.097
				c0.827,0.874,1.479,1.898,1.92,3.018C137.871,155.357,137.11,159.304,134.491,161.92z M219.429,164.571h-54.857
				c-5.049,0-9.143-4.093-9.143-9.143s4.093-9.143,9.143-9.143h54.857c5.049,0,9.143,4.093,9.143,9.143
				S224.478,164.571,219.429,164.571z"/>
			<path d="M246.857,301.714v-27.429H64v54.857h182.857V301.714z M99.839,305.188c-0.465,1.107-1.114,2.128-1.92,3.018
				c-3.605,3.536-9.377,3.536-12.982,0c-0.806-0.89-1.455-1.911-1.92-3.018c-0.976-2.213-0.976-4.734,0-6.946
				c0.441-1.12,1.093-2.144,1.92-3.018c3.666-3.384,9.316-3.384,12.982,0c0.827,0.874,1.479,1.898,1.92,3.018
				C100.816,300.454,100.816,302.975,99.839,305.188z M136.411,305.187L136.411,305.187c-0.832,2.297-2.641,4.105-4.937,4.938
				c-2.213,0.976-4.734,0.976-6.946,0c-1.108-0.462-2.129-1.112-3.018-1.92c-0.803-0.912-1.482-1.927-2.018-3.018
				c-0.438-1.105-0.653-2.285-0.634-3.472c0.032-2.421,0.979-4.74,2.651-6.491c0.859-0.846,1.888-1.501,3.018-1.92
				c3.404-1.437,7.338-0.679,9.964,1.92c0.827,0.874,1.479,1.898,1.92,3.018C137.387,300.453,137.387,302.975,136.411,305.187z
				 M219.429,310.857h-54.857c-5.049,0-9.143-4.093-9.143-9.143s4.093-9.143,9.143-9.143h54.857c5.049,0,9.143,4.093,9.143,9.143
				S224.478,310.857,219.429,310.857z"/>
			<path d="M265.143,164.571v128h146.286v-128H265.143z M286.107,194.679l9.143-9.143c2.302-2.344,5.686-3.273,8.862-2.432
				s5.657,3.322,6.498,6.498s-0.088,6.56-2.432,8.862l-9.143,9.143c-3.579,3.515-9.322,3.489-12.87-0.058
				C282.618,204.001,282.592,198.258,286.107,194.679z M353.893,198.464l-54.857,54.857c-3.579,3.515-9.322,3.489-12.87-0.058
				c-3.547-3.547-3.573-9.29-0.058-12.87l54.857-54.857c2.302-2.344,5.686-3.273,8.862-2.432s5.657,3.322,6.498,6.498
				C357.165,192.778,356.237,196.162,353.893,198.464z"/>
			<path d="M265.143,146.286h155.429c2.425-0.001,4.752,0.961,6.467,2.676c1.715,1.715,2.678,4.041,2.676,6.466v146.286
				c0.001,2.425-0.961,4.752-2.676,6.467c-1.715,1.715-4.041,2.678-6.467,2.676H265.143v18.286H448V128H265.143V146.286z"/>
			<path d="M265.143,109.714H448V54.857H265.143V109.714z M412.161,78.813c0.832-2.296,2.641-4.105,4.937-4.937
				c1.634-0.728,3.455-0.921,5.205-0.554c0.606,0.089,1.194,0.276,1.741,0.554c0.562,0.18,1.088,0.458,1.554,0.821
				c0.525,0.315,1.016,0.683,1.465,1.098c0.808,0.889,1.458,1.909,1.92,3.018c0.976,2.213,0.976,4.734,0,6.946
				c-0.465,1.107-1.114,2.128-1.92,3.018c-3.605,3.536-9.377,3.536-12.982,0c-0.833-0.889-1.514-1.909-2.018-3.018
				c-0.438-1.105-0.653-2.285-0.634-3.473C411.395,81.086,411.646,79.896,412.161,78.813z M375.589,78.813
				c0.463-1.108,1.112-2.129,1.92-3.018c2.189-2.158,5.309-3.085,8.321-2.473c0.571,0.105,1.125,0.291,1.643,0.554
				c0.583,0.197,1.135,0.474,1.643,0.821c0.48,0.338,0.939,0.705,1.375,1.098c0.808,0.889,1.458,1.909,1.92,3.018
				c0.976,2.213,0.976,4.734,0,6.946c-0.832,2.296-2.641,4.105-4.937,4.937c-3.401,1.46-7.349,0.7-9.966-1.919
				c-0.833-0.889-1.514-1.909-2.018-3.018c-0.438-1.105-0.653-2.285-0.634-3.474C374.824,81.086,375.075,79.896,375.589,78.813z
				 M292.571,73.143h54.857c5.049,0,9.143,4.093,9.143,9.143c0,5.049-4.093,9.143-9.143,9.143h-54.857
				c-5.049,0-9.143-4.093-9.143-9.143C283.429,77.236,287.522,73.143,292.571,73.143z"/>
			<polygon points="64,0 64,36.571 256,36.571 448,36.571 448,0 			"/>
		</g>
	</g>
</g>
<g>
</g>
<g>
</g>
<g>
</g>
<g>
</g>
<g>
</g>
<g>
</g>
<g>
</g>
<g>
</g>
<g>
</g>
<g>
</g>
<g>
</g>
<g>
</g>
<g>
</g>
<g>
</g>
<g>
</g>
</svg>
