<?xml version="1.0" encoding="iso-8859-1"?>
<!-- Generator: Adobe Illustrator 19.0.0, SVG Export Plug-In . SVG Version: 6.00 Build 0)  -->
<svg version="1.1" id="Capa_1" xmlns="http://www.w3.org/2000/svg" xmlns:xlink="http://www.w3.org/1999/xlink" x="0px" y="0px"
	 viewBox="0 0 512 512" style="enable-background:new 0 0 512 512;" xml:space="preserve">
<g>
	<g>
		<g>
			<path d="M100.571,210.286v164.571c0.063,55.518,45.053,100.509,100.571,100.571h109.714
				c55.518-0.063,100.509-45.053,100.571-100.571V237.714h-18.286v137.143c-0.05,45.425-36.861,82.236-82.286,82.286H201.143
				c-45.425-0.05-82.236-36.861-82.286-82.286V210.286H100.571z"/>
			<rect x="18.286" y="73.143" width="182.857" height="82.286"/>
			<rect y="173.714" width="219.429" height="18.286"/>
			<rect x="301.714" width="182.857" height="45.714"/>
			<path d="M502.857,64H283.429c-5.049,0-9.143,4.093-9.143,9.143c0,5.049,4.093,9.143,9.143,9.143h219.429
				c5.049,0,9.143-4.093,9.143-9.143C512,68.093,507.907,64,502.857,64z"/>
			<rect x="27.429" width="164.571" height="54.857"/>
			<rect x="301.714" y="100.571" width="137.143" height="118.857"/>
			<path d="M429.714,374.857c-0.076,65.612-53.246,118.781-118.857,118.857H201.143c-65.612-0.076-118.781-53.246-118.857-118.857
				V210.286H64v164.571c0.083,75.708,61.435,137.06,137.143,137.143h109.714c75.708-0.083,137.06-61.435,137.143-137.143V237.714
				h-18.286V374.857z"/>
			<rect x="457.143" y="100.571" width="27.429" height="118.857"/>
			<path d="M155.429,374.857V210.286h-18.286v164.571c0.043,35.328,28.672,63.957,64,64h109.714c35.328-0.043,63.957-28.672,64-64
				V237.714h-18.286v137.143c-0.03,25.235-20.479,45.685-45.714,45.714H201.143C175.908,420.542,155.458,400.092,155.429,374.857z"
				/>
		</g>
	</g>
</g>
<g>
</g>
<g>
</g>
<g>
</g>
<g>
</g>
<g>
</g>
<g>
</g>
<g>
</g>
<g>
</g>
<g>
</g>
<g>
</g>
<g>
</g>
<g>
</g>
<g>
</g>
<g>
</g>
<g>
</g>
</svg>
