<?xml version="1.0" encoding="iso-8859-1"?>
<!-- Generator: Adobe Illustrator 19.0.0, SVG Export Plug-In . SVG Version: 6.00 Build 0)  -->
<svg version="1.1" id="Capa_1" xmlns="http://www.w3.org/2000/svg" xmlns:xlink="http://www.w3.org/1999/xlink" x="0px" y="0px"
	 viewBox="0 0 512.018 512.018" style="enable-background:new 0 0 512.018 512.018;" xml:space="preserve">
<g>
	<g>
		<g>
			<polygon points="164.571,173.723 347.429,173.723 347.429,118.866 320,118.866 283.429,118.866 164.571,118.866 			"/>
			<path d="M356.571,54.866c0-5.049,4.093-9.143,9.143-9.143s9.143,4.093,9.143,9.143v45.714h18.286V54.866
				c0-5.049,4.093-9.143,9.143-9.143c5.049,0,9.143,4.093,9.143,9.143v45.714h27.429V27.438H329.143v73.143h27.429V54.866z"/>
			<rect x="457.143" y="0.009" width="36.571" height="100.571"/>
			<path d="M91.429,54.866c0-5.049,4.093-9.143,9.143-9.143c5.049,0,9.143,4.093,9.143,9.143v45.714H128V54.866
				c0-5.049,4.093-9.143,9.143-9.143c5.049,0,9.143,4.093,9.143,9.143v45.714h18.286V54.866c0-5.049,4.093-9.143,9.143-9.143
				s9.143,4.093,9.143,9.143v45.714h18.286V54.866c0-5.049,4.093-9.143,9.143-9.143c5.049,0,9.143,4.093,9.143,9.143v45.714h18.286
				V54.866c0-5.049,4.093-9.143,9.143-9.143c5.049,0,9.143,4.093,9.143,9.143v45.714h18.286V27.438H73.143v73.143h18.286V54.866z"/>
			<path d="M36.571,265.152v18.286h246.857v219.429c0,5.049,4.093,9.143,9.143,9.143c5.049,0,9.143-4.093,9.143-9.143V283.438
				h36.571v219.429c0,5.049,4.093,9.143,9.143,9.143s9.143-4.093,9.143-9.143V283.438h36.571v219.429
				c0,5.049,4.093,9.143,9.143,9.143c5.049,0,9.143-4.093,9.143-9.143V283.438h64.018l-0.009-18.286H36.571z"/>
			<polygon points="0,228.581 0,246.866 27.429,246.866 484.571,246.866 512.018,246.866 512.018,228.581 			"/>
			<rect x="118.857" y="301.723" width="109.714" height="210.286"/>
			<rect x="18.286" y="0.009" width="36.571" height="100.571"/>
			<path d="M512,118.866H365.714v64c0.001,2.425-0.961,4.752-2.676,6.466c-1.715,1.715-4.041,2.678-6.466,2.676H155.429
				c-2.425,0.001-4.752-0.961-6.466-2.676s-2.678-4.041-2.676-6.466v-64H0v91.429h512.013L512,118.866z"/>
		</g>
	</g>
</g>
<g>
</g>
<g>
</g>
<g>
</g>
<g>
</g>
<g>
</g>
<g>
</g>
<g>
</g>
<g>
</g>
<g>
</g>
<g>
</g>
<g>
</g>
<g>
</g>
<g>
</g>
<g>
</g>
<g>
</g>
</svg>
