<?xml version="1.0" encoding="iso-8859-1"?>
<!-- Generator: Adobe Illustrator 19.0.0, SVG Export Plug-In . SVG Version: 6.00 Build 0)  -->
<svg version="1.1" id="Capa_1" xmlns="http://www.w3.org/2000/svg" xmlns:xlink="http://www.w3.org/1999/xlink" x="0px" y="0px"
	 viewBox="0 0 512 512" style="enable-background:new 0 0 512 512;" xml:space="preserve">
<g>
	<g>
		<g>
			<path d="M400.732,128h10.696V55.161L356.518,0H106.607c-3.332,0.002-6.033,2.703-6.036,6.036v48.821h10.696
				c9.236,0.013,16.72,7.496,16.732,16.732v103.768c-0.013,9.236-7.496,16.72-16.732,16.732h-10.696v185.875
				c0.002,3.333,2.703,6.034,6.036,6.036h48.821v-45.714c0.017-15.141,12.287-27.412,27.429-27.429h164.571
				c15.142,0.017,27.412,12.287,27.429,27.429V384h30.536c3.333-0.002,6.034-2.703,6.036-6.036V192h-10.696
				c-9.236-0.012-16.72-7.496-16.732-16.732v-30.536C384.013,135.496,391.496,128.013,400.732,128z M365.714,265.143
				c-0.017,15.142-12.287,27.412-27.429,27.429H173.714c-15.142-0.016-27.412-12.287-27.429-27.429V64
				c0.017-15.142,12.287-27.412,27.429-27.429h164.571c15.142,0.017,27.412,12.287,27.429,27.429V265.143z"/>
			<path d="M313.536,472.75c-1.715-1.714-2.679-4.039-2.679-6.464v-27.429c-0.001-2.425,0.961-4.752,2.676-6.467
				c1.715-1.715,4.041-2.678,6.466-2.676h9.143v-11.143l-29.643-7.42c-4.071-1.015-6.928-4.671-6.929-8.866v-36.571h-73.143V512
				h109.733l-0.018-23.643L313.536,472.75z"/>
			<path d="M347.429,329.143H182.857c-5.048,0.003-9.139,4.095-9.143,9.143v27.429h27.429c0.013-10.094,8.192-18.273,18.286-18.286
				h73.143c10.094,0.013,18.273,8.192,18.286,18.286h45.714v-27.429C356.568,333.238,352.477,329.146,347.429,329.143z"/>
			<path d="M338.286,54.857H173.714c-5.048,0.003-9.139,4.095-9.143,9.143v201.143c0.003,5.048,4.095,9.139,9.143,9.143h164.571
				c5.048-0.003,9.139-4.095,9.143-9.143V64C347.425,58.952,343.334,54.861,338.286,54.857z M192,73.143h73.143
				c5.049,0,9.143,4.093,9.143,9.143c0,5.049-4.093,9.143-9.143,9.143H192c-5.049,0-9.143-4.093-9.143-9.143
				C182.857,77.236,186.951,73.143,192,73.143z M201.143,128H192c-5.049,0-9.143-4.093-9.143-9.143c0-5.049,4.093-9.143,9.143-9.143
				h9.143c5.049,0,9.143,4.093,9.143,9.143C210.286,123.907,206.192,128,201.143,128z M320,128h-82.286
				c-5.049,0-9.143-4.093-9.143-9.143c0-5.049,4.093-9.143,9.143-9.143H320c5.049,0,9.143,4.093,9.143,9.143
				C329.143,123.907,325.049,128,320,128z M320,91.429h-18.286c-5.049,0-9.143-4.093-9.143-9.143c0-5.049,4.093-9.143,9.143-9.143
				H320c5.049,0,9.143,4.093,9.143,9.143C329.143,87.335,325.049,91.429,320,91.429z"/>
		</g>
	</g>
</g>
<g>
</g>
<g>
</g>
<g>
</g>
<g>
</g>
<g>
</g>
<g>
</g>
<g>
</g>
<g>
</g>
<g>
</g>
<g>
</g>
<g>
</g>
<g>
</g>
<g>
</g>
<g>
</g>
<g>
</g>
</svg>
