<?xml version="1.0" encoding="iso-8859-1"?>
<!-- Generator: Adobe Illustrator 19.0.0, SVG Export Plug-In . SVG Version: 6.00 Build 0)  -->
<svg version="1.1" id="Capa_1" xmlns="http://www.w3.org/2000/svg" xmlns:xlink="http://www.w3.org/1999/xlink" x="0px" y="0px"
	 viewBox="0 0 512 512" style="enable-background:new 0 0 512 512;" xml:space="preserve">
<g>
	<g>
		<g>
			<path d="M36.571,218.984l33.21,12.911c10.649,4.104,20.934,9.098,30.746,14.929l0.045-128.036
				c-20.761,8.581-42.157,15.536-63.995,20.804L36.571,218.984z"/>
			<path d="M256,100.574c-35.346,0-64,28.654-64,64c0,35.346,28.654,64,64,64c35.346,0,64-28.654,64-64
				C319.959,129.245,291.329,100.615,256,100.574z M229.438,157.717c-1.042,4.035-4.681,6.854-8.848,6.857
				c-0.773,0.002-1.543-0.097-2.29-0.295c-2.348-0.605-4.358-2.118-5.59-4.206c-1.232-2.088-1.583-4.58-0.977-6.927
				c5.213-20.185,23.421-34.287,44.268-34.286c5.049,0,9.143,4.093,9.143,9.143s-4.093,9.143-9.143,9.143
				C243.491,137.143,232.565,145.605,229.438,157.717z M301.424,176.002c-5.213,20.185-23.421,34.287-44.268,34.286
				c-5.049,0-9.143-4.093-9.143-9.143c0-5.049,4.093-9.143,9.143-9.143c12.509,0.002,23.435-8.459,26.563-20.571
				c1.262-4.889,6.249-7.829,11.138-6.567C299.746,166.126,302.686,171.113,301.424,176.002z"/>
			<path d="M260.187,64.083c-1.411-0.054-2.821-0.08-4.223-0.08c-36.378,0.032-69.906,19.696-87.691,51.43
				c-17.785,31.734-17.056,70.596,1.905,101.642c19.648,30.977,30.363,66.777,30.964,103.455v72.616
				c-0.015,14.836,5.986,29.044,16.632,39.377c10.646,10.333,25.026,15.909,39.855,15.453c30.267-1.821,53.73-27.156,53.228-57.473
				V319.36c0.584-36.165,11.225-71.453,30.732-101.911c18.747-30.398,19.979-68.456,3.235-100.003
				C328.08,85.9,295.87,65.591,260.187,64.083z M265.143,429.717h-18.286c-5.049,0-9.143-4.093-9.143-9.143
				c0-5.049,4.093-9.143,9.143-9.143h18.286c5.049,0,9.143,4.093,9.143,9.143C274.286,425.623,270.192,429.717,265.143,429.717z
				 M283.429,393.145h-54.857c-5.049,0-9.143-4.093-9.143-9.143c0-5.049,4.093-9.143,9.143-9.143h54.857
				c5.049,0,9.143,4.093,9.143,9.143C292.571,389.052,288.478,393.145,283.429,393.145z M256,246.86
				c-45.445,0-82.286-36.841-82.286-82.286c0-45.445,36.841-82.286,82.286-82.286s82.286,36.841,82.286,82.286
				C338.235,209.998,301.424,246.808,256,246.86z"/>
			<path d="M411.429,118.824v128.08c9.818-5.88,20.124-10.904,30.804-15.018l33.196-12.902v-79.455
				c-21.798-5.203-43.155-12.105-63.875-20.643L411.429,118.824z"/>
			<path d="M498.107,105.297l-0.313-0.062c-66.093-14.369-128.098-43.45-181.406-85.08c-35.777-26.869-85.004-26.869-120.781,0
				c-53.309,41.633-115.318,70.714-181.415,85.08l-0.299,0.062C5.824,106.927,0.016,114.011,0,122.243v105.857
				c0.04,7.531,4.659,14.281,11.665,17.045L56.5,262.583c65.35,25.09,108.373,87.981,108.071,157.982
				c-0.003,50.495,40.929,91.431,91.424,91.433c50.495,0.002,91.431-40.929,91.433-91.424
				c-0.304-70.004,42.719-132.899,108.071-157.991l44.839-17.438c7.047-2.711,11.687-9.494,11.661-17.045V122.243
				C511.986,114.011,506.177,106.926,498.107,105.297z M118.857,246.904c0.049,6.554-3.467,12.617-9.179,15.83
				c-2.761,1.572-5.885,2.397-9.063,2.393c-3.314-0.001-6.567-0.892-9.42-2.58c-8.943-5.31-18.315-9.861-28.018-13.607
				l-33.232-12.92c-7.008-2.756-11.628-9.505-11.661-17.036v-79.455c-0.004-8.442,5.801-15.778,14.018-17.714
				c20.881-5.043,41.345-11.675,61.214-19.839c5.641-2.356,12.086-1.738,17.176,1.647s8.153,9.089,8.163,15.201V246.904z
				 M357.134,227.074c-17.712,27.569-27.404,59.523-27.991,92.286v71.143c0.435,40.185-30.858,73.582-70.987,75.759
				c-0.728,0.018-1.46,0.027-2.183,0.027c-19.397,0.003-38-7.703-51.714-21.421s-21.413-32.324-21.403-51.721v-72.616
				c-0.607-33.305-10.388-65.797-28.268-93.902c-30.511-49.911-20.168-114.602,24.384-152.512
				c44.552-37.91,110.065-37.765,154.449,0.34C377.807,112.561,387.864,177.298,357.134,227.074z M493.714,218.984
				c0.029,7.552-4.612,14.335-11.661,17.045l-33.214,12.902c-9.704,3.749-19.079,8.3-28.027,13.607
				c-2.855,1.695-6.113,2.589-9.433,2.589c-3.176,0.004-6.298-0.821-9.058-2.393c-5.712-3.214-9.227-9.277-9.179-15.83v-128.08
				c-0.007-6.074,3.018-11.751,8.063-15.134c5.114-3.422,11.599-4.065,17.286-1.714c19.862,8.164,40.321,14.793,61.196,19.83
				c8.22,1.94,14.027,9.278,14.027,17.723V218.984z"/>
		</g>
	</g>
</g>
<g>
</g>
<g>
</g>
<g>
</g>
<g>
</g>
<g>
</g>
<g>
</g>
<g>
</g>
<g>
</g>
<g>
</g>
<g>
</g>
<g>
</g>
<g>
</g>
<g>
</g>
<g>
</g>
<g>
</g>
</svg>
