<?xml version="1.0" encoding="iso-8859-1"?>
<!-- Generator: Adobe Illustrator 19.0.0, SVG Export Plug-In . SVG Version: 6.00 Build 0)  -->
<svg version="1.1" id="Capa_1" xmlns="http://www.w3.org/2000/svg" xmlns:xlink="http://www.w3.org/1999/xlink" x="0px" y="0px"
	 viewBox="0 0 512 512" style="enable-background:new 0 0 512 512;" xml:space="preserve">
<g>
	<g>
		<g>
			<path d="M164.571,73.143H9.143C4.095,73.148,0.005,77.238,0,82.286v9.143h164.571V73.143z"/>
			<path d="M411.429,365.714c5.047-0.005,9.138-4.095,9.143-9.143v-9.143H0v9.143c0.005,5.047,4.095,9.138,9.143,9.143H256H411.429z
				"/>
			<rect x="182.857" y="73.143" width="54.857" height="18.286"/>
			<path d="M420.571,109.714H0v219.429h420.571V109.714z M73.87,133.67L73.87,133.67c0.464-1.109,1.115-2.13,1.924-3.019
				c0.91-0.804,1.923-1.483,3.013-2.018c1.689-0.653,3.528-0.811,5.304-0.455c0.559,0.114,1.109,0.266,1.647,0.455
				c0.568,0.272,1.118,0.579,1.647,0.92c0.478,0.34,0.935,0.706,1.371,1.098c0.826,0.875,1.477,1.899,1.92,3.018
				c0.469,1.099,0.717,2.279,0.731,3.474c0.031,1.199-0.22,2.389-0.732,3.473c-0.466,1.107-1.115,2.127-1.92,3.018
				c-0.889,0.807-1.91,1.456-3.018,1.92c-3.401,1.459-7.349,0.699-9.964-1.92c-0.807-0.89-1.458-1.91-1.924-3.018
				C72.9,138.403,72.9,135.884,73.87,133.67z M21.023,198.406c-3.547-3.547-3.573-9.29-0.058-12.87l27.429-27.429
				c3.579-3.515,9.322-3.489,12.87,0.058c3.547,3.547,3.573,9.29,0.058,12.87l-27.429,27.429
				C30.313,201.979,24.57,201.953,21.023,198.406z M143.607,143.607L43.035,244.178c-3.579,3.515-9.322,3.489-12.87-0.058
				c-3.547-3.547-3.573-9.29-0.058-12.87l100.571-100.571c3.579-3.515,9.322-3.489,12.87,0.058
				C147.096,134.284,147.122,140.028,143.607,143.607z"/>
			<path d="M210.286,54.857c15.148,0,27.429-12.28,27.429-27.429S225.434,0,210.286,0s-27.429,12.28-27.429,27.429
				C182.874,42.57,195.144,54.841,210.286,54.857z M203.794,20.937c0.888-0.807,1.907-1.456,3.013-1.92
				c3.406-1.428,7.337-0.671,9.969,1.92c1.669,1.753,2.616,4.071,2.651,6.491c0,5.049-4.093,9.143-9.143,9.143
				c-5.049,0-9.143-4.093-9.143-9.143C201.177,25.008,202.124,22.689,203.794,20.937z"/>
			<path d="M420.571,82.286c-0.005-5.047-4.096-9.138-9.143-9.143H256v18.286h164.571V82.286z"/>
			<path d="M475.429,192c-0.017-15.142-12.287-27.412-27.429-27.429c-3.129,0.062-6.224,0.671-9.143,1.801v51.255
				c2.919,1.13,6.013,1.739,9.143,1.801C463.142,219.412,475.412,207.142,475.429,192z"/>
			<rect x="384" y="420.571" width="128" height="18.286"/>
			<rect x="384" y="457.143" width="128" height="18.286"/>
			<rect x="384" y="493.714" width="128" height="18.286"/>
			<path d="M438.857,100.571v46.753c3.004-0.658,6.068-1.006,9.143-1.039c25.247,0,45.714,20.467,45.714,45.714
				S473.247,237.714,448,237.714c-3.075-0.033-6.139-0.381-9.143-1.039v28.468h27.429c5.049,0,9.143,4.093,9.143,9.143
				c0,5.049-4.093,9.143-9.143,9.143h-27.429v73.143c-0.017,15.141-12.287,27.412-27.429,27.429H384v18.286h128V100.571H438.857z"/>
			<path d="M292.571,493.714H128c-5.047,0.005-9.138,4.096-9.143,9.143V512h182.857v-9.143
				C301.709,497.81,297.619,493.719,292.571,493.714z"/>
			<rect x="173.714" y="384" width="73.143" height="91.429"/>
		</g>
	</g>
</g>
<g>
</g>
<g>
</g>
<g>
</g>
<g>
</g>
<g>
</g>
<g>
</g>
<g>
</g>
<g>
</g>
<g>
</g>
<g>
</g>
<g>
</g>
<g>
</g>
<g>
</g>
<g>
</g>
<g>
</g>
</svg>
