<?xml version="1.0" encoding="iso-8859-1"?>
<!-- Generator: Adobe Illustrator 19.0.0, SVG Export Plug-In . SVG Version: 6.00 Build 0)  -->
<svg version="1.1" id="Capa_1" xmlns="http://www.w3.org/2000/svg" xmlns:xlink="http://www.w3.org/1999/xlink" x="0px" y="0px"
	 viewBox="0 0 512 512" style="enable-background:new 0 0 512 512;" xml:space="preserve">
<g>
	<g>
		<g>
			<path d="M384,448c0.041,35.329,28.671,63.959,64,64c35.329-0.041,63.959-28.671,64-64v-91.429H384V448z"/>
			<path d="M484.571,274.286h-27.429v64H512v-36.571C511.984,286.573,499.713,274.302,484.571,274.286z"/>
			<path d="M438.857,274.286h-27.429c-15.142,0.017-27.412,12.287-27.429,27.429v36.571h54.857V274.286z"/>
			<rect x="109.714" y="73.143" width="18.286" height="18.286"/>
			<rect x="36.571" y="73.143" width="18.286" height="18.286"/>
			<rect x="182.857" y="73.143" width="54.857" height="18.286"/>
			<rect width="18.286" height="18.286"/>
			<rect x="73.143" width="18.286" height="18.286"/>
			<rect x="36.571" y="146.286" width="18.286" height="18.286"/>
			<rect x="146.286" width="18.286" height="18.286"/>
			<polygon points="429.714,82.277 393.143,82.286 393.143,91.429 393.143,155.429 393.143,164.571 429.714,164.571 			"/>
			<path d="M27.429,466.286V265.143c-0.005-5.047-4.096-9.138-9.143-9.143H0v219.429h18.286
				C23.333,475.424,27.424,471.333,27.429,466.286z"/>
			<path d="M329.143,0h-36.571v173.714c-0.03,25.235-20.479,45.685-45.714,45.714H0v18.286h18.286
				c15.142,0.017,27.412,12.287,27.429,27.429v201.143c-0.017,15.142-12.287,27.412-27.429,27.429H0V512h296.924
				c18.95-1.296,33.322-17.61,32.219-36.571V0z"/>
			<path d="M274.286,173.714V0H256v18.286c-0.012,10.094-8.192,18.274-18.286,18.286h-18.286
				c-10.094-0.012-18.274-8.192-18.286-18.286V0h-18.286v18.286c-0.012,10.094-8.192,18.274-18.286,18.286h-18.286
				C136.192,36.56,128.012,28.38,128,18.286V0h-18.286v18.286c-0.012,10.094-8.192,18.274-18.286,18.286H73.143
				C63.049,36.56,54.869,28.38,54.857,18.286V0H36.571v18.286C36.56,28.38,28.38,36.56,18.286,36.571H0v164.571h246.857
				C261.999,201.126,274.269,188.856,274.286,173.714z M73.143,164.571c-0.012,10.094-8.192,18.274-18.286,18.286H36.571
				c-10.094-0.012-18.274-8.192-18.286-18.286v-18.286c0.012-10.094,8.192-18.274,18.286-18.286h18.286
				c10.094,0.012,18.274,8.192,18.286,18.286V164.571z M73.143,91.429c-0.012,10.094-8.192,18.274-18.286,18.286H36.571
				c-10.094-0.012-18.274-8.192-18.286-18.286V73.143c0.012-10.094,8.192-18.274,18.286-18.286h18.286
				c10.094,0.012,18.274,8.192,18.286,18.286V91.429z M164.571,73.143c0.012-10.094,8.192-18.274,18.286-18.286h54.857
				c10.094,0.012,18.274,8.192,18.286,18.286v18.286c-0.012,10.094-8.192,18.274-18.286,18.286h-54.857
				c-10.094-0.012-18.274-8.192-18.286-18.286V73.143z M91.429,73.143c0.012-10.094,8.192-18.274,18.286-18.286H128
				c10.094,0.012,18.274,8.192,18.286,18.286v18.286c-0.012,10.094-8.192,18.274-18.286,18.286h-18.286
				c-10.094-0.012-18.274-8.192-18.286-18.286V73.143z M109.714,182.857c-10.094-0.012-18.274-8.192-18.286-18.286v-18.286
				c0.012-10.094,8.192-18.274,18.286-18.286h128c10.094,0.012,18.274,8.192,18.286,18.286v18.286
				c-0.012,10.094-8.192,18.274-18.286,18.286H109.714z"/>
			<rect x="219.429" width="18.286" height="18.286"/>
			<rect x="347.429" y="100.571" width="27.429" height="45.714"/>
			<rect x="109.714" y="146.286" width="128" height="18.286"/>
		</g>
	</g>
</g>
<g>
</g>
<g>
</g>
<g>
</g>
<g>
</g>
<g>
</g>
<g>
</g>
<g>
</g>
<g>
</g>
<g>
</g>
<g>
</g>
<g>
</g>
<g>
</g>
<g>
</g>
<g>
</g>
<g>
</g>
</svg>
