<?xml version="1.0" encoding="iso-8859-1"?>
<!-- Generator: Adobe Illustrator 19.0.0, SVG Export Plug-In . SVG Version: 6.00 Build 0)  -->
<svg version="1.1" id="Capa_1" xmlns="http://www.w3.org/2000/svg" xmlns:xlink="http://www.w3.org/1999/xlink" x="0px" y="0px"
	 viewBox="0 0 512 512" style="enable-background:new 0 0 512 512;" xml:space="preserve">
<g>
	<g>
		<g>
			<path d="M164.565,0h-18.286v9.143c0,15.148-12.28,27.429-27.429,27.429c-15.148,0-27.429-12.28-27.429-27.429V0H73.136v64h91.429
				V0z"/>
			<polygon points="201.136,64 201.136,0 182.85,0 182.85,64 191.993,64 			"/>
			<rect x="54.85" y="82.286" width="128" height="91.429"/>
			<polygon points="54.85,64 54.85,0 36.565,0 36.565,64 45.708,64 			"/>
			<path d="M118.85,18.286c5.047-0.005,9.138-4.095,9.143-9.143V0h-18.286v9.143C109.713,14.19,113.803,18.281,118.85,18.286z"/>
			<path d="M201.136,82.286v100.571c0.001,2.425-0.962,4.751-2.677,6.466c-1.715,1.715-4.041,2.678-6.466,2.677H45.708
				c-2.425,0.001-4.751-0.962-6.466-2.677c-1.715-1.715-2.678-4.041-2.677-6.466V82.286H18.279v201.143h201.156l-0.013-201.143
				H201.136z M191.993,265.143H45.708c-5.049,0-9.143-4.093-9.143-9.143s4.093-9.143,9.143-9.143h146.286
				c5.049,0,9.143,4.093,9.143,9.143S197.043,265.143,191.993,265.143z M191.993,228.571H45.708c-5.049,0-9.143-4.093-9.143-9.143
				s4.093-9.143,9.143-9.143h146.286c5.049,0,9.143,4.093,9.143,9.143S197.043,228.571,191.993,228.571z"/>
			<rect x="73.136" y="338.286" width="91.429" height="173.714"/>
			<polygon points="54.85,301.714 54.85,320 63.993,320 173.708,320 182.86,320 182.85,301.714 			"/>
			<polygon points="329.136,64 329.136,0 310.85,0 310.85,64 319.993,64 			"/>
			<rect x="329.136" y="82.286" width="128" height="91.429"/>
			<path d="M438.85,0h-18.286v9.143c0,15.148-12.28,27.429-27.429,27.429s-27.429-12.28-27.429-27.429V0h-18.286v64h91.429V0z"/>
			<rect x="347.422" y="338.286" width="91.429" height="173.714"/>
			<path d="M493.708,82.286h-18.286v100.571c0.001,2.425-0.962,4.751-2.677,6.466c-1.715,1.715-4.041,2.678-6.466,2.677H319.993
				c-2.425,0.001-4.751-0.962-6.466-2.677c-1.715-1.715-2.678-4.041-2.677-6.466V82.286h-18.286v201.143h201.156L493.708,82.286z
				 M466.279,265.143H319.993c-5.049,0-9.143-4.093-9.143-9.143s4.093-9.143,9.143-9.143h146.286c5.049,0,9.143,4.093,9.143,9.143
				S471.329,265.143,466.279,265.143z M466.279,228.571H319.993c-5.049,0-9.143-4.093-9.143-9.143s4.093-9.143,9.143-9.143h146.286
				c5.049,0,9.143,4.093,9.143,9.143S471.329,228.571,466.279,228.571z"/>
			<path d="M393.136,18.286c5.047-0.005,9.138-4.095,9.143-9.143V0h-18.286v9.143C383.998,14.19,388.089,18.281,393.136,18.286z"/>
			<polygon points="475.422,64 475.422,0 457.136,0 457.136,64 466.279,64 			"/>
			<polygon points="329.136,301.714 329.136,320 338.279,320 447.993,320 457.145,320 457.136,301.714 			"/>
		</g>
	</g>
</g>
<g>
</g>
<g>
</g>
<g>
</g>
<g>
</g>
<g>
</g>
<g>
</g>
<g>
</g>
<g>
</g>
<g>
</g>
<g>
</g>
<g>
</g>
<g>
</g>
<g>
</g>
<g>
</g>
<g>
</g>
</svg>
