<?xml version="1.0" encoding="iso-8859-1"?>
<!-- Generator: Adobe Illustrator 19.0.0, SVG Export Plug-In . SVG Version: 6.00 Build 0)  -->
<svg version="1.1" id="Capa_1" xmlns="http://www.w3.org/2000/svg" xmlns:xlink="http://www.w3.org/1999/xlink" x="0px" y="0px"
	 viewBox="0 0 512 512" style="enable-background:new 0 0 512 512;" xml:space="preserve">
<g>
	<g>
		<g>
			<circle cx="219.429" cy="365.714" r="9.143"/>
			<circle cx="338.286" cy="164.571" r="9.143"/>
			<circle cx="365.714" cy="265.143" r="9.143"/>
			<circle cx="292.571" cy="365.714" r="9.143"/>
			<circle cx="146.286" cy="265.143" r="9.143"/>
			<circle cx="173.714" cy="164.571" r="9.143"/>
			<rect x="246.857" y="146.286" width="18.286" height="54.857"/>
			<path d="M256,36.571C134.813,36.571,36.571,134.813,36.571,256S134.813,475.429,256,475.429S475.429,377.187,475.429,256
				C475.29,134.87,377.13,36.71,256,36.571z M426.026,362.775c-0.095,0.103-0.161,0.222-0.26,0.319
				c-0.741,0.708-1.597,1.284-2.531,1.705c-0.228,0.107-0.453,0.19-0.69,0.277c-1.007,0.401-2.077,0.617-3.16,0.638h-62.813v59.063
				c-0.021,1.083-0.238,2.154-0.638,3.161c-0.098,0.266-0.203,0.509-0.324,0.761c-0.401,0.858-0.933,1.647-1.578,2.341
				c-0.07,0.075-0.116,0.166-0.188,0.238c-0.604,0.602-1.289,1.116-2.035,1.527c-59.75,32.452-131.866,32.452-191.616,0
				c-0.746-0.411-1.43-0.925-2.034-1.526c-0.074-0.073-0.12-0.166-0.192-0.242c-0.643-0.692-1.174-1.48-1.574-2.336
				c-0.122-0.253-0.227-0.498-0.325-0.763c-0.4-1.007-0.616-2.077-0.638-3.16v-59.063H92.616c-1.083-0.021-2.153-0.237-3.159-0.638
				c-0.238-0.087-0.464-0.17-0.692-0.277c-0.933-0.421-1.789-0.997-2.53-1.704c-0.101-0.099-0.167-0.22-0.263-0.323
				c-0.417-0.419-0.792-0.878-1.119-1.37c-33.804-54.695-39.376-122.269-14.988-181.762
				C94.252,120.146,145.652,75.926,208.12,60.696c2.726-0.663,5.606-0.037,7.812,1.696c2.206,1.733,3.495,4.383,3.496,7.188v21.848
				h73.143V69.58c0.002-2.805,1.29-5.455,3.496-7.188c2.206-1.733,5.085-2.358,7.812-1.696
				c62.468,15.23,113.868,59.45,138.256,118.943c24.388,59.494,18.816,127.067-14.988,181.762
				C426.819,361.895,426.444,362.355,426.026,362.775z"/>
			<path d="M256,0C114.615,0,0,114.615,0,256s114.615,256,256,256s256-114.615,256-256C511.841,114.681,397.319,0.159,256,0z
				 M256,493.714C124.714,493.714,18.286,387.286,18.286,256S124.714,18.286,256,18.286S493.714,124.714,493.714,256
				C493.567,387.225,387.225,493.567,256,493.714z"/>
			<path d="M310.857,81.607v18.964c0.001,2.425-0.962,4.751-2.677,6.466c-1.715,1.715-4.041,2.678-6.466,2.677h-91.429
				c-2.425,0.001-4.751-0.962-6.466-2.677c-1.715-1.715-2.678-4.041-2.677-6.466V81.607
				c-52.948,16.585-95.481,56.348-115.589,108.061S69.945,299.432,97.781,347.429h66.79c2.425-0.001,4.751,0.962,6.466,2.677
				c1.715,1.715,2.678,4.041,2.677,6.466v62.688c51.852,25.678,112.719,25.678,164.571,0v-62.688
				c-0.001-2.425,0.962-4.751,2.677-6.466c1.715-1.715,4.041-2.678,6.466-2.677h66.79c27.836-47.997,32.335-106.048,12.227-157.761
				S363.805,98.192,310.857,81.607z M146.286,292.571c-15.148,0-27.429-12.28-27.429-27.429s12.28-27.429,27.429-27.429
				s27.429,12.28,27.429,27.429C173.698,280.284,161.427,292.555,146.286,292.571z M146.286,164.571
				c0-15.148,12.28-27.429,27.429-27.429s27.429,12.28,27.429,27.429c0,15.148-12.28,27.429-27.429,27.429
				C158.573,191.983,146.302,179.713,146.286,164.571z M219.429,393.143c-15.148,0-27.429-12.28-27.429-27.429
				s12.28-27.429,27.429-27.429s27.429,12.28,27.429,27.429C246.841,380.856,234.57,393.126,219.429,393.143z M246.857,219.429
				c-10.094-0.012-18.274-8.192-18.286-18.286v-54.857c0.012-10.094,8.192-18.274,18.286-18.286h18.286
				c10.094,0.012,18.274,8.192,18.286,18.286v54.857c-0.012,10.094-8.192,18.274-18.286,18.286H246.857z M292.571,393.143
				c-15.148,0-27.429-12.28-27.429-27.429s12.28-27.429,27.429-27.429c15.148,0,27.429,12.28,27.429,27.429
				C319.983,380.856,307.713,393.126,292.571,393.143z M310.857,164.571c0-15.148,12.28-27.429,27.429-27.429
				c15.148,0,27.429,12.28,27.429,27.429c0,15.148-12.28,27.429-27.429,27.429C323.144,191.983,310.874,179.713,310.857,164.571z
				 M365.714,292.571c-15.148,0-27.429-12.28-27.429-27.429s12.28-27.429,27.429-27.429s27.429,12.28,27.429,27.429
				C393.126,280.284,380.856,292.555,365.714,292.571z"/>
		</g>
	</g>
</g>
<g>
</g>
<g>
</g>
<g>
</g>
<g>
</g>
<g>
</g>
<g>
</g>
<g>
</g>
<g>
</g>
<g>
</g>
<g>
</g>
<g>
</g>
<g>
</g>
<g>
</g>
<g>
</g>
<g>
</g>
</svg>
