<?xml version="1.0" encoding="iso-8859-1"?>
<!-- Generator: Adobe Illustrator 19.0.0, SVG Export Plug-In . SVG Version: 6.00 Build 0)  -->
<svg version="1.1" id="Capa_1" xmlns="http://www.w3.org/2000/svg" xmlns:xlink="http://www.w3.org/1999/xlink" x="0px" y="0px"
	 viewBox="0 0 512 512" style="enable-background:new 0 0 512 512;" xml:space="preserve">
<g transform="translate(-1)">
	<g>
		<g>
			<path d="M261.622,475.429h18.286c5.049,0,9.143,4.093,9.143,9.143c0,5.049-4.093,9.143-9.143,9.143h-18.286V512h73.143v-18.286
				h-18.286c-5.049,0-9.143-4.093-9.143-9.143c0-5.049,4.093-9.143,9.143-9.143h18.286v-36.571h-73.143V475.429z"/>
			<polygon points="179.336,256 179.345,255.927 179.336,36.571 159.551,36.571 151.789,329.143 179.354,329.143 179.354,292.654 
				179.336,292.571 			"/>
			<polygon points="179.336,0 160.52,0 160.035,18.286 179.336,18.286 			"/>
			<rect x="197.622" y="265.143" width="18.286" height="18.286"/>
			<rect x="270.765" y="219.429" width="54.857" height="91.429"/>
			<path d="M362.193,118.857c-0.02-20.19-16.382-36.551-36.571-36.571h-54.857c-20.19,0.02-36.551,16.382-36.571,36.571v301.714
				h128.018L362.193,118.857z M343.907,356.571c-0.013,10.094-8.192,18.273-18.286,18.286h-54.857
				c-10.094-0.013-18.273-8.192-18.286-18.286V219.429c0.013-10.094,8.192-18.273,18.286-18.286h54.857
				c10.094,0.013,18.273,8.192,18.286,18.286V356.571z"/>
			<rect x="270.765" y="329.143" width="54.857" height="27.429"/>
		</g>
	</g>
</g>
<g>
</g>
<g>
</g>
<g>
</g>
<g>
</g>
<g>
</g>
<g>
</g>
<g>
</g>
<g>
</g>
<g>
</g>
<g>
</g>
<g>
</g>
<g>
</g>
<g>
</g>
<g>
</g>
<g>
</g>
</svg>
