<?xml version="1.0" encoding="iso-8859-1"?>
<!-- Generator: Adobe Illustrator 19.0.0, SVG Export Plug-In . SVG Version: 6.00 Build 0)  -->
<svg version="1.1" id="Capa_1" xmlns="http://www.w3.org/2000/svg" xmlns:xlink="http://www.w3.org/1999/xlink" x="0px" y="0px"
	 viewBox="0 0 510.69 510.69" style="enable-background:new 0 0 510.69 510.69;" xml:space="preserve">
<g>
	<g>
		<g>
			<rect x="39.385" y="383.345" width="19.692" height="19.692"/>
			<polygon points="0,363.653 19.692,363.653 19.692,294.73 19.692,176.576 19.692,107.653 0,107.653 			"/>
			<rect x="118.154" y="383.345" width="39.385" height="19.692"/>
			<path d="M231.389,304.576H39.385v59.077h236.313L231.389,304.576z M77.981,337.855c-0.479,1.175-1.181,2.246-2.068,3.154
				c-1.818,1.913-4.351,2.983-6.99,2.952c-1.28,0.017-2.551-0.218-3.74-0.692c-1.215-0.544-2.317-1.31-3.25-2.26
				c-0.885-0.931-1.618-1.995-2.173-3.154c-0.471-1.19-0.703-2.461-0.682-3.74c0-5.438,4.408-9.846,9.846-9.846
				s9.846,4.408,9.846,9.846C78.753,335.401,78.486,336.672,77.981,337.855z M213.76,341.009L213.76,341.009
				c-1.819,1.913-4.352,2.983-6.991,2.952c-1.28,0.017-2.551-0.218-3.74-0.692c-1.201-0.568-2.3-1.331-3.25-2.26
				c-0.887-0.908-1.589-1.979-2.068-3.154c-0.554-1.167-0.824-2.449-0.788-3.74c0-5.438,4.408-9.846,9.846-9.846
				s9.846,4.408,9.846,9.846C216.655,336.708,215.622,339.203,213.76,341.009z"/>
			<polygon points="510.69,166.73 503.306,107.653 452.923,107.653 497.231,166.73 			"/>
			<path d="M275.697,107.653H39.385v59.077h192.005L275.697,107.653z M75.914,144.182c-0.959,0.868-2.057,1.567-3.25,2.068
				c-2.383,1.051-5.098,1.051-7.481,0c-1.194-0.498-2.293-1.197-3.25-2.068c-0.868-0.958-1.567-2.057-2.068-3.25
				c-0.554-1.167-0.825-2.449-0.789-3.741c-0.093-4.009,2.354-7.64,6.106-9.058c2.375-1.086,5.105-1.086,7.481,0
				c1.193,0.5,2.292,1.2,3.25,2.068c1.814,1.877,2.837,4.38,2.856,6.99C78.773,139.806,77.748,142.318,75.914,144.182z
				 M215.828,140.932c-0.896,2.473-2.844,4.421-5.317,5.317c-2.383,1.051-5.098,1.051-7.481,0c-1.194-0.498-2.293-1.197-3.25-2.068
				c-1.853-1.851-2.883-4.371-2.857-6.99c0.016-0.661,0.081-1.32,0.192-1.971c0.111-0.616,0.312-1.212,0.596-1.769
				c0.212-0.63,0.51-1.229,0.885-1.779l1.182-1.471l1.471-1.183c0.55-0.375,1.148-0.672,1.779-0.885
				c0.557-0.284,1.153-0.485,1.769-0.596c1.263-0.289,2.574-0.289,3.837,0c0.653,0.096,1.286,0.297,1.875,0.596
				c0.627,0.213,1.223,0.51,1.769,0.885c0.49,0.394,0.99,0.788,1.481,1.183c1.815,1.877,2.837,4.38,2.856,6.991
				C216.6,138.478,216.332,139.748,215.828,140.932L215.828,140.932z"/>
			<path d="M207.279,238.768c-0.683-2.021-0.683-4.21,0-6.231l2.243-6.731H39.385v19.692h170.137L207.279,238.768z"/>
			<rect x="216.615" y="383.345" width="128" height="19.692"/>
			<polygon points="222.651,186.422 39.385,186.422 39.385,206.114 216.084,206.114 			"/>
			<polygon points="216.084,265.191 39.385,265.191 39.385,284.884 222.651,284.884 			"/>
			<path d="M501.625,235.653l-18.15-54.449l-55.162-73.551h-128.01l-55.162,73.551l-12.843,38.528l-0.03,0.088l-5.277,15.833
				l5.278,15.832l0.03,0.091l12.843,38.526l55.162,73.551h128.01l55.162-73.551L501.625,235.653z M286.327,153.144L286.327,153.144
				c0.475-1.206,1.177-2.309,2.068-3.25c0.466-0.423,0.958-0.818,1.471-1.183c0.55-0.375,1.148-0.672,1.779-0.885
				c0.557-0.284,1.154-0.485,1.769-0.596c1.92-0.396,3.915-0.188,5.712,0.596c0.606,0.194,1.172,0.493,1.673,0.885
				c0.565,0.339,1.093,0.735,1.577,1.182c1.797,1.888,2.817,4.384,2.855,6.991c0.022,2.619-1.006,5.137-2.855,6.991
				c-0.943,0.889-2.046,1.59-3.25,2.068c-2.383,1.051-5.098,1.051-7.481,0c-1.194-0.498-2.293-1.197-3.25-2.068
				C285.575,161.058,284.756,156.807,286.327,153.144z M302.375,321.413c-2.817,2.84-7.072,3.694-10.767,2.16
				c-3.694-1.534-6.094-5.151-6.07-9.151c0-5.438,4.408-9.846,9.846-9.846s9.846,4.408,9.846,9.846
				C305.253,317.041,304.225,319.559,302.375,321.413z M440.222,321.413c-0.958,0.868-2.057,1.567-3.25,2.068
				c-1.169,0.55-2.45,0.819-3.741,0.788c-2.619,0.026-5.139-1.003-6.991-2.855c-0.868-0.958-1.567-2.057-2.068-3.25
				c-0.554-1.167-0.824-2.449-0.788-3.741c0.034-2.607,1.054-5.105,2.855-6.991c0.466-0.423,0.958-0.818,1.471-1.183
				c0.55-0.375,1.148-0.672,1.779-0.885c0.557-0.284,1.153-0.485,1.769-0.596c1.919-0.402,3.916-0.193,5.712,0.596
				c1.193,0.5,2.292,1.2,3.25,2.068c1.797,1.888,2.817,4.384,2.856,6.99C443.055,317.032,442.033,319.534,440.222,321.413z
				 M364.308,314.422c-43.503,0-78.769-35.266-78.769-78.769s35.266-78.769,78.769-78.769c43.503,0,78.769,35.266,78.769,78.769
				C443.027,279.135,407.79,314.372,364.308,314.422z M440.222,163.874c-1.854,1.849-4.372,2.878-6.991,2.855
				c-1.291,0.031-2.572-0.239-3.74-0.789c-1.194-0.498-2.293-1.197-3.25-2.068c-1.853-1.851-2.882-4.371-2.856-6.99
				c0.034-2.607,1.054-5.105,2.855-6.991c2.324-2.308,5.644-3.307,8.856-2.663c0.653,0.096,1.286,0.297,1.875,0.596
				c0.606,0.194,1.172,0.493,1.673,0.885c0.565,0.339,1.094,0.736,1.578,1.183c1.797,1.888,2.817,4.384,2.855,6.991
				C443.099,159.502,442.071,162.02,440.222,163.874z"/>
			<polygon points="452.923,363.653 503.306,363.653 510.69,304.576 497.231,304.576 			"/>
			<path d="M364.308,176.576c-32.627,0-59.077,26.45-59.077,59.077c0,32.627,26.45,59.077,59.077,59.077
				c32.627,0,59.077-26.45,59.077-59.077C423.349,203.04,396.92,176.612,364.308,176.576z M364.308,275.038
				c-21.752,0-39.385-17.633-39.385-39.385s17.633-39.385,39.385-39.385c21.752,0,39.385,17.633,39.385,39.385
				C403.671,257.395,386.05,275.016,364.308,275.038z"/>
			<circle cx="364.308" cy="235.653" r="19.692"/>
		</g>
	</g>
</g>
<g>
</g>
<g>
</g>
<g>
</g>
<g>
</g>
<g>
</g>
<g>
</g>
<g>
</g>
<g>
</g>
<g>
</g>
<g>
</g>
<g>
</g>
<g>
</g>
<g>
</g>
<g>
</g>
<g>
</g>
</svg>
