<?xml version="1.0" encoding="iso-8859-1"?>
<!-- Generator: Adobe Illustrator 19.0.0, SVG Export Plug-In . SVG Version: 6.00 Build 0)  -->
<svg version="1.1" id="Capa_1" xmlns="http://www.w3.org/2000/svg" xmlns:xlink="http://www.w3.org/1999/xlink" x="0px" y="0px"
	 viewBox="0 0 512 512" style="enable-background:new 0 0 512 512;" xml:space="preserve">
<g>
	<g>
		<g>
			<rect x="210.286" y="274.286" width="18.286" height="18.286"/>
			<rect x="173.714" y="347.428" width="18.286" height="18.286"/>
			<rect x="137.143" y="274.286" width="18.286" height="18.286"/>
			<rect x="64" y="274.286" width="18.286" height="18.286"/>
			<rect x="64" y="420.571" width="18.286" height="18.286"/>
			<rect x="356.571" y="274.286" width="18.286" height="18.286"/>
			<rect x="100.571" y="347.428" width="18.286" height="18.286"/>
			<path d="M230.256,219.428h51.488c-3.849-10.927-14.158-18.25-25.744-18.286C244.415,201.178,234.105,208.501,230.256,219.428z"/>
			<rect x="283.429" y="274.286" width="18.286" height="18.286"/>
			<rect x="246.857" y="347.428" width="18.286" height="18.286"/>
			<rect x="320" y="347.428" width="18.286" height="18.286"/>
			<rect x="429.714" y="274.286" width="18.286" height="18.286"/>
			<path d="M493.714,237.714H18.286C8.192,237.727,0.013,245.906,0,256v201.143c0.013,10.094,8.192,18.273,18.286,18.286h475.429
				c10.094-0.013,18.273-8.192,18.286-18.286V256C511.987,245.906,503.808,237.727,493.714,237.714z M338.286,274.286
				c0.013-10.094,8.192-18.273,18.286-18.286h18.286c10.094,0.013,18.273,8.192,18.286,18.286v18.286
				c-0.013,10.094-8.192,18.273-18.286,18.286h-18.286c-10.094-0.013-18.273-8.192-18.286-18.286V274.286z M356.571,347.428v18.286
				c-0.013,10.094-8.192,18.273-18.286,18.286H320c-10.094-0.013-18.273-8.192-18.286-18.286v-18.286
				c0.013-10.094,8.192-18.273,18.286-18.286h18.286C348.379,329.156,356.558,337.335,356.571,347.428z M265.143,274.286
				c0.013-10.094,8.192-18.273,18.286-18.286h18.286c10.094,0.013,18.273,8.192,18.286,18.286v18.286
				c-0.013,10.094-8.192,18.273-18.286,18.286h-18.286c-10.094-0.013-18.273-8.192-18.286-18.286V274.286z M283.429,347.428v18.286
				c-0.013,10.094-8.192,18.273-18.286,18.286h-18.286c-10.094-0.013-18.273-8.192-18.286-18.286v-18.286
				c0.013-10.094,8.192-18.273,18.286-18.286h18.286C275.236,329.156,283.415,337.335,283.429,347.428z M192,274.286
				c0.013-10.094,8.192-18.273,18.286-18.286h18.286c10.094,0.013,18.273,8.192,18.286,18.286v18.286
				c-0.013,10.094-8.192,18.273-18.286,18.286h-18.286c-10.093-0.013-18.273-8.192-18.286-18.286V274.286z M210.286,347.428v18.286
				C210.273,375.808,202.094,383.987,192,384h-18.286c-10.094-0.013-18.273-8.192-18.286-18.286v-18.286
				c0.013-10.094,8.192-18.273,18.286-18.286H192C202.094,329.156,210.273,337.335,210.286,347.428z M118.857,274.286
				c0.013-10.094,8.192-18.273,18.286-18.286h18.286c10.094,0.013,18.273,8.192,18.286,18.286v18.286
				c-0.013,10.094-8.192,18.273-18.286,18.286h-18.286c-10.094-0.013-18.273-8.192-18.286-18.286V274.286z M45.714,274.286
				C45.727,264.192,53.906,256.013,64,256h18.286c10.094,0.013,18.273,8.192,18.286,18.286v18.286
				c-0.013,10.094-8.192,18.273-18.286,18.286H64c-10.094-0.013-18.273-8.192-18.286-18.286V274.286z M100.571,438.857
				c-0.013,10.094-8.192,18.273-18.286,18.286H64c-10.094-0.013-18.273-8.192-18.286-18.286v-18.286
				c0.013-10.094,8.192-18.273,18.286-18.286h18.286c10.094,0.013,18.273,8.192,18.286,18.286V438.857z M82.286,365.714v-18.286
				c0.013-10.094,8.192-18.273,18.286-18.286h18.286c10.093,0.013,18.273,8.192,18.286,18.286v18.286
				c-0.013,10.094-8.192,18.273-18.286,18.286h-18.286C90.478,383.987,82.299,375.808,82.286,365.714z M393.143,438.857
				c-0.013,10.094-8.192,18.273-18.286,18.286H137.143c-10.094-0.013-18.273-8.192-18.286-18.286v-18.286
				c0.013-10.094,8.192-18.273,18.286-18.286h237.714c10.094,0.013,18.273,8.192,18.286,18.286V438.857z M374.857,365.714v-18.286
				c0.013-10.094,8.192-18.273,18.286-18.286h18.286c10.094,0.013,18.273,8.192,18.286,18.286v18.286
				c-0.013,10.094-8.192,18.273-18.286,18.286h-18.286C383.049,383.987,374.87,375.808,374.857,365.714z M466.286,438.857
				c-0.013,10.094-8.192,18.273-18.286,18.286h-18.286c-10.094-0.013-18.273-8.192-18.286-18.286v-18.286
				c0.013-10.094,8.192-18.273,18.286-18.286H448c10.094,0.013,18.273,8.192,18.286,18.286V438.857z M466.286,292.571
				c-0.013,10.094-8.192,18.273-18.286,18.286h-18.286c-10.094-0.013-18.273-8.192-18.286-18.286v-18.286
				c0.013-10.094,8.192-18.273,18.286-18.286H448c10.094,0.013,18.273,8.192,18.286,18.286V292.571z"/>
			<rect x="429.714" y="420.571" width="18.286" height="18.286"/>
			<rect x="393.143" y="347.428" width="18.286" height="18.286"/>
			<rect x="137.143" y="420.571" width="237.714" height="18.286"/>
			<path d="M169.304,79.187L169.304,79.187c53.245-32.44,120.147-32.44,173.392,0c4.308,2.609,9.915,1.244,12.541-3.054
				c2.626-4.298,1.283-9.91-3.005-12.553c-59.101-36.012-133.363-36.012-192.464,0c-4.287,2.643-5.631,8.255-3.005,12.553
				C159.389,80.431,164.996,81.796,169.304,79.187z"/>
			<path d="M289.188,133.902c4.436,0.001,8.232-3.183,9.004-7.552c0.772-4.368-1.703-8.661-5.87-10.181
				c-23.468-8.5-49.175-8.5-72.643,0c-4.744,1.731-7.186,6.98-5.455,11.723c1.731,4.744,6.979,7.186,11.723,5.455
				c19.418-7.036,40.689-7.036,60.107,0C287.058,133.714,288.119,133.901,289.188,133.902z"/>
			<path d="M318.759,106.768c4.217,0.004,7.889-2.877,8.889-6.974s-0.931-8.345-4.675-10.286
				c-41.988-21.798-91.958-21.798-133.947,0c-2.91,1.496-4.799,4.435-4.951,7.704c-0.152,3.269,1.454,6.37,4.213,8.131
				c2.759,1.761,6.248,1.912,9.149,0.398c36.739-18.964,80.386-18.964,117.125,0C315.859,106.414,317.298,106.766,318.759,106.768z"
				/>
			<path d="M252.527,163.839c3.38,1.382,7.259,0.628,9.875-1.92c0.862-0.864,1.545-1.889,2.009-3.018
				c1.4-3.423,0.608-7.352-2.009-9.965c-3.632-3.384-9.262-3.384-12.893,0c-0.808,0.889-1.458,1.909-1.92,3.018
				c-0.469,1.099-0.717,2.279-0.731,3.474c-0.033,1.199,0.217,2.389,0.732,3.473c0.465,1.107,1.114,2.128,1.92,3.018
				C250.398,162.728,251.419,163.377,252.527,163.839z"/>
		</g>
	</g>
</g>
<g>
</g>
<g>
</g>
<g>
</g>
<g>
</g>
<g>
</g>
<g>
</g>
<g>
</g>
<g>
</g>
<g>
</g>
<g>
</g>
<g>
</g>
<g>
</g>
<g>
</g>
<g>
</g>
<g>
</g>
</svg>
