<?xml version="1.0" encoding="iso-8859-1"?>
<!-- Generator: Adobe Illustrator 19.0.0, SVG Export Plug-In . SVG Version: 6.00 Build 0)  -->
<svg version="1.1" id="Capa_1" xmlns="http://www.w3.org/2000/svg" xmlns:xlink="http://www.w3.org/1999/xlink" x="0px" y="0px"
	 viewBox="0 0 512.005 512.005" style="enable-background:new 0 0 512.005 512.005;" xml:space="preserve">
<g>
	<g>
		<g>
			<path d="M33.612,316.03c-44.816,44.816-44.816,117.477,0,162.293l0.069,0.069c44.816,44.816,117.477,44.816,162.293,0
				l112.442-112.438L146.049,203.589L33.612,316.03z"/>
			<path d="M358.367,166.121l-31.233,31.233l0.004,0.004c6.888,6.896,6.888,18.069,0,24.966l-18.715,18.716l-0.018,0.026
				l-0.026,0.018l-18.715,18.716c-3.297,3.321-7.786,5.184-12.466,5.172h-0.018c-4.685,0.013-9.18-1.85-12.483-5.172l-0.004-0.004
				l-18.737,18.737l74.942,74.942l68.713-68.709c24.087-24.154,24.087-63.243,0.001-87.397L358.367,166.121z"/>
			
				<rect x="293.329" y="201.007" transform="matrix(0.7071 0.7071 -0.7071 0.7071 236.8824 -152.199)" width="17.665" height="17.672"/>
			<path d="M252.21,247.311l-0.004-0.004c-3.313-3.312-5.174-7.805-5.172-12.489c0.002-4.684,1.866-9.176,5.181-12.485
				l18.707-18.707l0.018-0.026l0.026-0.018l18.716-18.715c6.9-6.879,18.065-6.879,24.965,0l0.004,0.004l31.233-31.233
				l-31.246-31.246c-24.156-24.08-63.241-24.08-87.397,0l-68.71,68.713l74.942,74.942L252.21,247.311z"/>
			<polygon points="264.689,234.823 270.913,241.047 270.939,241.065 270.957,241.091 277.19,247.324 289.682,234.825 
				277.185,222.328 			"/>
			<path d="M511.759,131.651C496,66.709,445.295,16.004,380.353,0.246c-4.74-1.137-9.504,1.781-10.646,6.519
				c-1.142,4.739,1.771,9.506,6.508,10.653c58.502,14.192,104.179,59.869,118.371,118.371c0.958,3.962,4.502,6.754,8.578,6.759
				c0.7,0,1.397-0.081,2.078-0.241C509.981,141.161,512.897,136.393,511.759,131.651z"/>
			<path d="M412.293,99.712c-8.452-8.465-18.326-15.378-29.172-20.422c-4.418-2.057-9.667-0.142-11.724,4.276
				s-0.142,9.667,4.276,11.724c18.078,8.434,32.609,22.965,41.043,41.043c2.057,4.418,7.306,6.333,11.724,4.276
				s6.333-7.306,4.276-11.724C427.671,118.038,420.758,108.163,412.293,99.712z"/>
			<path d="M439.517,72.487c-15.884-15.953-35.402-27.812-56.879-34.56c-4.647-1.476-9.61,1.095-11.086,5.741
				c-1.476,4.647,1.095,9.61,5.741,11.086c38.08,12.046,67.911,41.877,79.957,79.957c0.955,3.006,3.441,5.274,6.521,5.95
				c3.081,0.676,6.288-0.343,8.414-2.672s2.847-5.617,1.893-8.623C467.33,107.89,455.47,88.371,439.517,72.487z"/>
			<path d="M383.293,137.539c2.358-0.012,4.614-0.965,6.268-2.647c0.821-0.81,1.48-1.77,1.94-2.828c0.828-2.159,0.828-4.548,0-6.707
				c-0.433-1.098-1.094-2.091-1.94-2.914c-2.087-2.069-5.067-2.965-7.948-2.388c-0.57,0.095-1.13,0.242-1.672,0.44
				c-0.53,0.242-1.033,0.54-1.5,0.888c-0.516,0.25-0.97,0.612-1.328,1.06c-1.671,1.661-2.621,3.912-2.647,6.268
				c0.03,2.329,0.982,4.552,2.647,6.181c0.785,0.85,1.751,1.513,2.827,1.939C381,137.285,382.14,137.525,383.293,137.539z"/>
		</g>
	</g>
</g>
<g>
</g>
<g>
</g>
<g>
</g>
<g>
</g>
<g>
</g>
<g>
</g>
<g>
</g>
<g>
</g>
<g>
</g>
<g>
</g>
<g>
</g>
<g>
</g>
<g>
</g>
<g>
</g>
<g>
</g>
</svg>
