<?xml version="1.0" encoding="iso-8859-1"?>
<!-- Generator: Adobe Illustrator 19.0.0, SVG Export Plug-In . SVG Version: 6.00 Build 0)  -->
<svg version="1.1" id="Capa_1" xmlns="http://www.w3.org/2000/svg" xmlns:xlink="http://www.w3.org/1999/xlink" x="0px" y="0px"
	 viewBox="0 0 512 512" style="enable-background:new 0 0 512 512;" xml:space="preserve">
<g>
	<g>
		<g>
			<path d="M237.714,493.714H0V512h237.714c2.382,0.022,4.67-0.926,6.339-2.625c1.794-1.693,2.809-4.051,2.804-6.518
				C246.854,497.809,242.763,493.718,237.714,493.714z"/>
			<path d="M0,384h347.429c5.048-0.003,9.139-4.095,9.143-9.143v-36.571H0V384z"/>
			<path d="M137.65,402.286H63.493c-1.455,28.689-15.228,55.353-37.783,73.143h149.724
				C152.879,457.639,139.106,430.975,137.65,402.286z"/>
			<rect x="374.857" y="82.286" width="18.286" height="36.571"/>
			<path d="M374.857,208.089v84.482h18.286v-6.562c-0.01-6.454,5.207-11.698,11.661-11.723h40.679
				c6.454,0.025,11.67,5.269,11.661,11.723v6.562H512V192H396.206L374.857,208.089z"/>
			<path d="M512,100.571c-0.016-15.142-12.287-27.412-27.429-27.429h-73.143V128h73.143
				C499.713,127.983,511.984,115.713,512,100.571z"/>
			<path d="M347.429,0H0v320h356.571V9.143C356.568,4.095,352.477,0.003,347.429,0z M265.875,23.955
				c0.462-1.109,1.111-2.129,1.919-3.018c0.433-0.393,0.889-0.76,1.366-1.098c0.511-0.348,1.066-0.624,1.652-0.821
				c0.518-0.264,1.071-0.45,1.643-0.554c1.172-0.268,2.39-0.268,3.563,0c0.606,0.089,1.194,0.276,1.741,0.554
				c0.562,0.18,1.088,0.458,1.554,0.821c0.525,0.315,1.016,0.683,1.465,1.098c0.808,0.889,1.458,1.909,1.92,3.018
				c1.46,3.402,0.699,7.349-1.92,9.965c-0.89,0.806-1.911,1.455-3.018,1.92c-2.213,0.976-4.734,0.976-6.946,0
				c-1.109-0.462-2.13-1.112-3.019-1.92c-1.721-1.719-2.676-4.059-2.651-6.491C265.11,26.229,265.361,25.039,265.875,23.955z
				 M326.464,134.464c-1.714,1.715-4.04,2.679-6.464,2.679c-2.425,0-4.75-0.964-6.464-2.679L212.964,33.893
				c-3.532-3.577-3.513-9.334,0.041-12.888c3.554-3.554,9.311-3.572,12.888-0.04l100.571,100.571
				c1.715,1.714,2.678,4.039,2.678,6.464S328.179,132.75,326.464,134.464z M335.607,88.75c-1.714,1.715-4.039,2.679-6.464,2.679
				c-2.425,0-4.75-0.964-6.464-2.679L295.25,61.321c-3.532-3.577-3.513-9.334,0.041-12.888c3.554-3.554,9.311-3.572,12.888-0.04
				l27.429,27.429c1.715,1.714,2.678,4.039,2.678,6.464S337.322,87.036,335.607,88.75z"/>
		</g>
	</g>
</g>
<g>
</g>
<g>
</g>
<g>
</g>
<g>
</g>
<g>
</g>
<g>
</g>
<g>
</g>
<g>
</g>
<g>
</g>
<g>
</g>
<g>
</g>
<g>
</g>
<g>
</g>
<g>
</g>
<g>
</g>
</svg>
