<?xml version="1.0" encoding="iso-8859-1"?>
<!-- Generator: Adobe Illustrator 19.0.0, SVG Export Plug-In . SVG Version: 6.00 Build 0)  -->
<svg version="1.1" id="Capa_1" xmlns="http://www.w3.org/2000/svg" xmlns:xlink="http://www.w3.org/1999/xlink" x="0px" y="0px"
	 viewBox="0 0 512.018 512.018" style="enable-background:new 0 0 512.018 512.018;" xml:space="preserve">
<g>
	<g>
		<g>
			<path d="M230.272,177.554c1.563-2.188,4.008-3.579,6.687-3.803c2.677-0.205,5.311,0.763,7.219,2.651l20.965,20.964l11.822-11.822
				c1.952-1.913,4.644-2.875,7.366-2.634c2.725,0.27,5.186,1.748,6.705,4.027l33.857,50.786h4.25V91.438H182.857v146.286h4.437
				L230.272,177.554z M283.429,109.723c15.148,0,27.429,12.28,27.429,27.429s-12.28,27.429-27.429,27.429S256,152.3,256,137.152
				C256.017,122.01,268.287,109.74,283.429,109.723z"/>
			<path d="M128,36.581H0v256h128V36.581z M19.013,87.965c0.443-1.12,1.096-2.145,1.924-3.019c0.888-0.807,1.907-1.456,3.013-1.92
				c2.226-0.92,4.725-0.92,6.951,0c2.296,0.832,4.105,2.641,4.937,4.937c0.976,2.213,0.976,4.734,0,6.946l0.001,0.001
				c-0.466,1.107-1.115,2.127-1.92,3.018c-0.889,0.807-1.91,1.456-3.018,1.92c-2.214,0.976-4.737,0.976-6.951,0
				c-1.107-0.464-2.126-1.113-3.014-1.92c-0.807-0.89-1.458-1.91-1.924-3.018C18.043,92.697,18.043,90.179,19.013,87.965z
				 M36.571,237.723c0,5.049-4.093,9.143-9.143,9.143c-5.049,0-9.143-4.093-9.143-9.143v-73.143c0-5.049,4.093-9.143,9.143-9.143
				c5.049,0,9.143,4.093,9.143,9.143V237.723z M33.92,134.501c-1.721,1.718-4.06,2.674-6.491,2.651
				c-1.2,0.029-2.391-0.221-3.478-0.732c-1.107-0.463-2.126-1.112-3.014-1.919c-1.721-1.719-2.676-4.059-2.651-6.491
				c0.034-2.421,0.981-4.739,2.651-6.491c2.626-2.599,6.561-3.357,9.964-1.92c1.108,0.464,2.129,1.113,3.018,1.92
				c1.669,1.753,2.616,4.071,2.652,6.491C36.594,130.441,35.639,132.78,33.92,134.501z M100.571,246.866H64
				c-5.049,0-9.143-4.093-9.143-9.143s4.093-9.143,9.143-9.143h36.571c5.049,0,9.143,4.093,9.143,9.143
				S105.621,246.866,100.571,246.866z M100.571,210.295H64c-5.049,0-9.143-4.093-9.143-9.143c0-5.049,4.093-9.143,9.143-9.143
				h36.571c5.049,0,9.143,4.093,9.143,9.143C109.714,206.201,105.621,210.295,100.571,210.295z M100.571,173.723H64
				c-5.049,0-9.143-4.093-9.143-9.143c0-5.049,4.093-9.143,9.143-9.143h36.571c5.049,0,9.143,4.093,9.143,9.143
				C109.714,169.63,105.621,173.723,100.571,173.723z M82.286,137.152c-15.148,0-27.429-12.28-27.429-27.429
				s12.28-27.429,27.429-27.429s27.429,12.28,27.429,27.429C109.698,124.865,97.427,137.135,82.286,137.152z"/>
			<circle cx="429.714" cy="109.723" r="9.143"/>
			<circle cx="82.286" cy="109.723" r="9.143"/>
			<rect y="0.009" width="512" height="18.286"/>
			<circle cx="283.429" cy="137.152" r="9.143"/>
			<path d="M271.607,216.759c-1.714,1.715-4.039,2.679-6.464,2.679c-2.425,0-4.75-0.964-6.464-2.679l-19.799-19.794l-29.112,40.759
				h93.151l-20.908-31.366L271.607,216.759z"/>
			<path d="M365.714,292.581v-256H146.286v256H365.714z M164.571,82.295c-0.001-2.425,0.962-4.751,2.677-6.466
				c1.715-1.715,4.041-2.678,6.466-2.677h164.571c2.425-0.001,4.751,0.962,6.466,2.677c1.715,1.715,2.678,4.041,2.677,6.466v164.571
				c0.001,2.425-0.962,4.751-2.677,6.466c-1.715,1.715-4.041,2.678-6.466,2.677H173.714c-2.425,0.001-4.751-0.962-6.466-2.677
				c-1.715-1.715-2.678-4.041-2.677-6.466V82.295z"/>
			<path d="M384,292.581h128.016l-0.013-256H384V292.581z M476.16,124.536c0.441-1.119,1.093-2.144,1.92-3.018l1.366-1.098
				c0.511-0.348,1.066-0.624,1.652-0.821c0.518-0.264,1.071-0.45,1.643-0.554c1.782-0.373,3.637-0.179,5.304,0.554
				c1.118,0.443,2.142,1.095,3.018,1.92c1.669,1.753,2.616,4.071,2.652,6.491c0.021,2.431-0.934,4.77-2.651,6.491
				c-0.89,0.806-1.911,1.455-3.018,1.92c-1.085,0.51-2.275,0.761-3.474,0.731c-3.059,0.032-5.927-1.484-7.624-4.029
				C475.251,130.577,474.955,127.347,476.16,124.536L476.16,124.536z M478.08,84.946c0.874-0.827,1.898-1.479,3.018-1.92
				c2.224-0.92,4.722-0.92,6.946,0c1.107,0.465,2.128,1.114,3.018,1.92c0.827,0.874,1.479,1.898,1.92,3.018
				c1.46,3.401,0.699,7.349-1.919,9.965c-1.745,1.682-4.068,2.631-6.491,2.651c-1.194-0.015-2.374-0.263-3.473-0.732
				c-1.108-0.463-2.129-1.112-3.018-1.92c-1.721-1.719-2.676-4.059-2.652-6.491C475.46,89.017,476.408,86.697,478.08,84.946z
				 M475.429,164.581c0-5.049,4.093-9.143,9.143-9.143c5.049,0,9.143,4.093,9.143,9.143v73.143c0,5.049-4.093,9.143-9.143,9.143
				c-5.049,0-9.143-4.093-9.143-9.143V164.581z M429.714,82.295c15.148,0,27.429,12.28,27.429,27.429s-12.28,27.429-27.429,27.429
				s-27.429-12.28-27.429-27.429C402.302,94.582,414.573,82.311,429.714,82.295z M411.429,155.438H448
				c5.049,0,9.143,4.093,9.143,9.143c0,5.049-4.093,9.143-9.143,9.143h-36.571c-5.049,0-9.143-4.093-9.143-9.143
				C402.286,159.531,406.379,155.438,411.429,155.438z M411.429,192.009H448c5.049,0,9.143,4.093,9.143,9.143
				c0,5.049-4.093,9.143-9.143,9.143h-36.571c-5.049,0-9.143-4.093-9.143-9.143C402.286,196.103,406.379,192.009,411.429,192.009z
				 M411.429,228.581H448c5.049,0,9.143,4.093,9.143,9.143s-4.093,9.143-9.143,9.143h-36.571c-5.049,0-9.143-4.093-9.143-9.143
				S406.379,228.581,411.429,228.581z"/>
			<rect x="45.714" y="457.152" width="36.571" height="18.286"/>
			<polygon points="0,310.866 0,329.152 36.571,329.152 91.429,329.152 420.571,329.152 475.429,329.152 512.018,329.152 
				512.018,310.866 			"/>
			<path d="M29.317,438.866h69.366c2.518-5.835,2.518-12.451,0-18.286H29.317C26.799,426.416,26.799,433.031,29.317,438.866z"/>
			<path d="M484.571,493.723H27.429c-11.62,0.013-21.975,7.335-25.862,18.286h508.87
				C506.548,501.059,496.192,493.738,484.571,493.723z"/>
			<rect x="45.714" y="347.438" width="36.571" height="54.857"/>
			<rect x="429.714" y="347.438" width="36.571" height="54.857"/>
			<path d="M413.313,438.866h69.375c2.512-5.836,2.512-12.449,0-18.286h-69.375C410.801,426.417,410.801,433.03,413.313,438.866z"/>
			<rect x="429.714" y="457.152" width="36.571" height="18.286"/>
		</g>
	</g>
</g>
<g>
</g>
<g>
</g>
<g>
</g>
<g>
</g>
<g>
</g>
<g>
</g>
<g>
</g>
<g>
</g>
<g>
</g>
<g>
</g>
<g>
</g>
<g>
</g>
<g>
</g>
<g>
</g>
<g>
</g>
</svg>
