<?xml version="1.0" encoding="iso-8859-1"?>
<!-- Generator: Adobe Illustrator 19.0.0, SVG Export Plug-In . SVG Version: 6.00 Build 0)  -->
<svg version="1.1" id="Capa_1" xmlns="http://www.w3.org/2000/svg" xmlns:xlink="http://www.w3.org/1999/xlink" x="0px" y="0px"
	 viewBox="0 0 512 512" style="enable-background:new 0 0 512 512;" xml:space="preserve">
<g>
	<g>
		<g>
			<rect x="91.429" y="420.571" width="219.429" height="18.286"/>
			<path d="M292.571,228.571c-3.697-0.001-7.03-2.228-8.445-5.644c-1.415-3.416-0.633-7.348,1.981-9.963l11.821-11.822h-74.714
				l11.822,11.822c2.334,2.305,3.254,5.683,2.412,8.852c-0.842,3.17-3.318,5.645-6.488,6.488c-3.17,0.842-6.548-0.078-8.852-2.412
				l-11.822-11.821v138.714l11.822-11.822c3.577-3.532,9.334-3.513,12.888,0.041c3.554,3.554,3.572,9.311,0.04,12.888
				l-11.821,11.822h74.714l-11.822-11.822c-3.532-3.577-3.513-9.334,0.041-12.888c3.554-3.554,9.311-3.572,12.888-0.04
				l11.822,11.821V214.071l-11.822,11.822C297.323,227.61,294.997,228.574,292.571,228.571z M260.571,310.857
				c-17.673,0-32-14.327-32-32c0-17.673,14.327-32,32-32c17.673,0,32,14.327,32,32C292.55,296.521,278.236,310.836,260.571,310.857z
				"/>
			<circle cx="260.571" cy="278.857" r="13.714"/>
			<rect x="91.429" y="384" width="219.429" height="18.286"/>
			<path d="M192,201.143H91.429v164.571H192V201.143z M110.442,225.098c0.464-1.109,1.115-2.13,1.924-3.018
				c3.666-3.384,9.316-3.384,12.982,0c0.807,0.89,1.456,1.91,1.92,3.018c0.976,2.213,0.976,4.734,0,6.946
				c-0.446,1.09-1.098,2.085-1.92,2.929c-1.687,1.778-4.04,2.771-6.491,2.741c-3.695-0.011-7.018-2.25-8.415-5.67
				c-0.509-1.085-0.758-2.275-0.728-3.473C109.727,227.377,109.975,226.197,110.442,225.098z M128,338.286
				c0,5.049-4.093,9.143-9.143,9.143c-5.049,0-9.143-4.093-9.143-9.143V320c0-5.049,4.093-9.143,9.143-9.143
				c5.049,0,9.143,4.093,9.143,9.143V338.286z M128,283.429c0,5.049-4.093,9.143-9.143,9.143c-5.049,0-9.143-4.093-9.143-9.143
				v-18.286c0-5.049,4.093-9.143,9.143-9.143c5.049,0,9.143,4.093,9.143,9.143c5.049,0,9.143,4.093,9.143,9.143
				C137.143,279.335,133.049,283.429,128,283.429z M164.571,338.286c0,5.049-4.093,9.143-9.143,9.143
				c-5.049,0-9.143-4.093-9.143-9.143V320c0-5.049,4.093-9.143,9.143-9.143c5.049,0,9.143,4.093,9.143,9.143V338.286z
				 M163.839,232.044L163.839,232.044c-1.433,3.389-4.732,5.613-8.411,5.67c-2.451,0.03-4.804-0.963-6.491-2.741
				c-1.732-1.675-2.693-3.993-2.651-6.402c0.013-1.194,0.26-2.374,0.728-3.473c0.464-1.109,1.115-2.13,1.924-3.018
				c3.666-3.384,9.316-3.384,12.982,0c0.807,0.89,1.456,1.91,1.92,3.018C164.816,227.31,164.816,229.832,163.839,232.044z"/>
			<rect x="91.429" y="457.143" width="219.429" height="18.286"/>
			<circle cx="237.714" cy="109.714" r="36.571"/>
			<path d="M91.429,182.857h219.429V36.571H91.429V182.857z M237.714,54.857c30.297,0,54.857,24.56,54.857,54.857
				s-24.56,54.857-54.857,54.857s-54.857-24.56-54.857-54.857C182.89,79.431,207.431,54.89,237.714,54.857z M128,64h18.286
				c5.049,0,9.143,4.093,9.143,9.143c0,5.049-4.093,9.143-9.143,9.143H128c-5.049,0-9.143-4.093-9.143-9.143
				C118.857,68.093,122.951,64,128,64z M109.714,118.857c-0.001-2.425,0.962-4.751,2.677-6.466c1.715-1.715,4.041-2.678,6.466-2.677
				h36.571c2.425-0.001,4.751,0.962,6.466,2.677c1.715,1.715,2.678,4.041,2.677,6.466v27.429c0,3.463-1.957,6.629-5.054,8.179
				l-18.286,9.143c-2.575,1.286-5.604,1.286-8.179,0l-18.286-9.143c-3.097-1.55-5.053-4.716-5.054-8.179V118.857z"/>
			<path d="M329.143,0h-256C63.049,0.012,54.869,8.192,54.857,18.286v475.429c0.012,10.094,8.192,18.274,18.286,18.286h256
				c10.094-0.012,18.274-8.192,18.286-18.286V18.286C347.417,8.192,339.237,0.012,329.143,0z M329.143,374.857v109.714
				c0.001,2.425-0.962,4.751-2.677,6.466c-1.715,1.715-4.041,2.678-6.466,2.677H82.286c-2.425,0.001-4.751-0.962-6.466-2.677
				c-1.715-1.715-2.678-4.041-2.677-6.466v-448c0.012-10.094,8.192-18.274,18.286-18.286h219.429
				c10.094,0.012,18.274,8.192,18.286,18.286V374.857z"/>
			<polygon points="146.286,140.635 146.286,128 128,128 128,140.635 137.143,145.207 			"/>
			<path d="M438.857,0h-78.229c3.294,5.533,5.05,11.846,5.087,18.286v475.429c-0.036,6.44-1.792,12.752-5.087,18.286h78.229
				c10.094-0.012,18.274-8.192,18.286-18.286V18.286C457.131,8.192,448.951,0.012,438.857,0z"/>
		</g>
	</g>
</g>
<g>
</g>
<g>
</g>
<g>
</g>
<g>
</g>
<g>
</g>
<g>
</g>
<g>
</g>
<g>
</g>
<g>
</g>
<g>
</g>
<g>
</g>
<g>
</g>
<g>
</g>
<g>
</g>
<g>
</g>
</svg>
