<?xml version="1.0" encoding="iso-8859-1"?>
<!-- Generator: Adobe Illustrator 19.0.0, SVG Export Plug-In . SVG Version: 6.00 Build 0)  -->
<svg version="1.1" id="Capa_1" xmlns="http://www.w3.org/2000/svg" xmlns:xlink="http://www.w3.org/1999/xlink" x="0px" y="0px"
	 viewBox="0 0 512.001 512.001" style="enable-background:new 0 0 512.001 512.001;" xml:space="preserve">
<g>
	<g>
		<g>
			<path d="M393.143,164.571c-0.015-5.043-4.099-9.128-9.143-9.143c-5.049,0-9.143,4.093-9.143,9.143
				c0,5.049,4.093,9.143,9.143,9.143C389.05,173.714,393.143,169.621,393.143,164.571z"/>
			<path d="M137.692,402.286h-74.24c-1.444,28.687-15.209,55.352-37.76,73.143h149.76
				C152.902,457.638,139.136,430.973,137.692,402.286z"/>
			<path d="M429.715,164.571c0-25.247-20.467-45.714-45.714-45.714c-3.072,0.059-6.132,0.395-9.143,1.006v18.925
				c11.386-4.133,24.135-0.308,31.365,9.41c7.23,9.718,7.23,23.028,0,32.746c-7.23,9.718-19.979,13.543-31.365,9.41v18.925
				c3.011,0.61,6.071,0.947,9.143,1.006C409.248,210.286,429.715,189.819,429.715,164.571z"/>
			<path d="M237.715,493.714H0.001V512h237.714c2.382,0.04,4.671-0.922,6.309-2.651c1.826-1.662,2.857-4.023,2.834-6.491
				C246.843,497.814,242.758,493.729,237.715,493.714z"/>
			<path d="M384.001,36.571c-3.017,0-6.126,0.091-9.143,0.366v64.457c3.023-0.504,6.079-0.779,9.143-0.823c35.346,0,64,28.654,64,64
				c0,35.346-28.654,64-64,64c-3.064-0.043-6.12-0.318-9.143-0.824v64.458c3.017,0.274,6.126,0.366,9.143,0.366
				c70.692,0,128-57.307,128-128S454.693,36.571,384.001,36.571z M460.618,114.743c-13.682-20.982-35.354-35.452-59.977-40.047
				c-4.957-0.959-8.219-5.729-7.314-10.696c0.423-2.383,1.782-4.498,3.775-5.872s4.453-1.893,6.831-1.442
				c29.52,5.534,55.507,22.869,71.954,48c1.856,2.799,2.024,6.392,0.439,9.352c-1.585,2.961-4.669,4.812-8.027,4.819
				C465.207,118.87,462.319,117.323,460.618,114.743z M484.572,173.714c-5.043-0.015-9.128-4.099-9.143-9.143
				c-0.014-5.582-0.535-11.152-1.554-16.641c-0.901-4.97,2.394-9.731,7.363-10.638c4.969-0.908,9.734,2.381,10.649,7.348
				c1.206,6.575,1.818,13.246,1.829,19.931C493.7,169.615,489.615,173.7,484.572,173.714z"/>
			<path d="M0.001,384h347.429c5.043-0.015,9.128-4.099,9.143-9.143v-36.571H0.001V384z"/>
			<path d="M347.429,0H0.001v320h356.571V9.143C356.557,4.099,352.473,0.015,347.429,0z M265.875,23.954
				c0.442-1.119,1.094-2.143,1.92-3.017c2.628-2.597,6.561-3.355,9.966-1.92c1.119,0.442,2.143,1.094,3.017,1.921
				c0.807,0.889,1.456,1.91,1.92,3.017c0.512,1.085,0.763,2.274,0.731,3.474c0.025,2.432-0.931,4.772-2.651,6.491
				c-0.889,0.807-1.909,1.457-3.017,1.92c-3.402,1.459-7.349,0.698-9.966-1.92c-0.807-0.889-1.456-1.909-1.92-3.017
				C264.899,28.689,264.899,26.168,265.875,23.954z M326.492,134.491c-3.606,3.535-9.377,3.535-12.983,0L212.938,33.92
				c-2.319-2.319-3.225-5.699-2.376-8.867c0.849-3.168,3.323-5.643,6.491-6.491s6.548,0.057,8.867,2.376l100.571,100.571
				C330.058,125.102,330.058,130.898,326.492,134.491z M335.635,88.777c-3.606,3.535-9.377,3.535-12.983,0l-27.429-27.429
				c-3.585-3.585-3.585-9.398,0-12.983c3.585-3.585,9.398-3.585,12.983,0l27.429,27.429
				C339.201,79.387,339.201,85.184,335.635,88.777z"/>
		</g>
	</g>
</g>
<g>
</g>
<g>
</g>
<g>
</g>
<g>
</g>
<g>
</g>
<g>
</g>
<g>
</g>
<g>
</g>
<g>
</g>
<g>
</g>
<g>
</g>
<g>
</g>
<g>
</g>
<g>
</g>
<g>
</g>
</svg>
