<?xml version="1.0" encoding="iso-8859-1"?>
<!-- Generator: Adobe Illustrator 19.0.0, SVG Export Plug-In . SVG Version: 6.00 Build 0)  -->
<svg version="1.1" id="Capa_1" xmlns="http://www.w3.org/2000/svg" xmlns:xlink="http://www.w3.org/1999/xlink" x="0px" y="0px"
	 viewBox="0 0 512 512" style="enable-background:new 0 0 512 512;" xml:space="preserve">
<g>
	<g>
		<g>
			<rect y="420.571" width="18.286" height="91.429"/>
			<path d="M251.429,73.143C212.206,73.143,192,85.942,192,91.429s20.206,18.286,59.429,18.286c39.223,0,59.429-12.8,59.429-18.286
				S290.651,73.143,251.429,73.143z"/>
			<path d="M325.486,50.103c-23.581-9.247-48.73-13.842-74.057-13.531c-61.989,0-114.286,25.143-114.286,54.857
				s52.297,54.857,114.286,54.857s114.286-25.143,114.286-54.857V0h-19.749l-7.863,43.337c-0.142,0.531-0.325,1.051-0.549,1.554
				c-0.091,0.091,0,0.274-0.091,0.366c0,0.091-0.091,0.091-0.091,0.183c-0.439,0.94-1.026,1.805-1.737,2.56l-0.274,0.274
				c-0.818,0.743-1.742,1.359-2.743,1.829c-0.07,0.007-0.135,0.039-0.183,0.091c-1.051,0.406-2.165,0.622-3.291,0.641h-0.183
				c-0.492-0.021-0.981-0.082-1.463-0.183c-0.286-0.05-0.564-0.142-0.823-0.274C326.309,50.194,325.851,50.286,325.486,50.103z
				 M329.143,91.429c0,24.046-39.131,36.571-77.714,36.571c-38.583,0-77.714-12.526-77.714-36.571s39.131-36.571,77.714-36.571
				C290.011,54.857,329.143,67.383,329.143,91.429z"/>
			<rect y="310.857" width="18.286" height="91.429"/>
			<path d="M468.114,0H384v91.429c0,41.051-58.24,73.143-132.571,73.143S118.857,132.48,118.857,91.429
				c0-41.051,58.24-73.143,132.571-73.143c23.987-0.167,47.836,3.633,70.583,11.246L327.314,0H43.886l-41.6,182.857h507.429
				L468.114,0z M43.063,161.92c-0.889,0.807-1.909,1.457-3.017,1.92c-1.085,0.513-2.275,0.763-3.474,0.731
				c-2.432,0.024-4.771-0.932-6.491-2.651c-1.72-1.72-2.675-4.059-2.651-6.491c0.035-2.42,0.982-4.739,2.651-6.491
				c2.628-2.597,6.561-3.355,9.966-1.92c1.108,0.464,2.128,1.114,3.017,1.921c1.669,1.753,2.616,4.07,2.651,6.491
				C45.739,157.861,44.783,160.201,43.063,161.92z M70.491,33.92c-0.889,0.807-1.909,1.457-3.017,1.92
				c-2.213,0.976-4.735,0.976-6.949,0c-1.108-0.463-2.128-1.113-3.017-1.92c-0.807-0.889-1.456-1.909-1.92-3.017
				c-0.975-2.213-0.975-4.735,0-6.949c0.464-1.108,1.113-2.128,1.92-3.017c2.628-2.597,6.561-3.355,9.966-1.92
				c1.119,0.442,2.143,1.094,3.017,1.92c0.807,0.889,1.456,1.91,1.92,3.017c0.512,1.085,0.763,2.275,0.731,3.474
				C73.168,29.861,72.212,32.201,70.491,33.92z M454.491,33.92c-0.889,0.807-1.909,1.457-3.017,1.92
				c-2.213,0.976-4.735,0.976-6.949,0c-1.108-0.463-2.128-1.113-3.017-1.92c-2.618-2.617-3.378-6.564-1.92-9.966
				c0.464-1.108,1.113-2.128,1.92-3.017c0.434-0.393,0.892-0.76,1.371-1.098c0.51-0.346,1.063-0.623,1.646-0.823
				c0.518-0.263,1.073-0.448,1.646-0.547c3.011-0.6,6.124,0.323,8.32,2.469c0.807,0.889,1.456,1.91,1.92,3.017
				C457.87,27.356,457.109,31.303,454.491,33.92z M478.903,163.839L478.903,163.839c-2.213,0.977-4.735,0.977-6.949,0.001
				c-1.108-0.463-2.128-1.113-3.017-1.92c-2.618-2.617-3.379-6.564-1.92-9.966c0.442-1.119,1.093-2.143,1.92-3.017
				c0.889-0.807,1.909-1.457,3.017-1.921c3.405-1.435,7.338-0.677,9.966,1.921c1.67,1.753,2.617,4.071,2.651,6.491
				c0.025,2.432-0.931,4.772-2.651,6.491C481.031,162.727,480.011,163.376,478.903,163.839z"/>
			<rect x="484.571" y="310.857" width="27.429" height="91.429"/>
			<path d="M82.286,237.714c-5.049,0-9.143,4.093-9.143,9.143c0,5.049,4.093,9.143,9.143,9.143c5.049,0,9.143-4.093,9.143-9.143
				C91.414,241.814,87.329,237.729,82.286,237.714z"/>
			<rect x="484.571" y="420.571" width="27.429" height="91.429"/>
			<rect y="201.143" width="18.286" height="91.429"/>
			<rect x="484.571" y="201.143" width="27.429" height="91.429"/>
			<path d="M36.571,201.143v91.429h329.143h100.571v-91.429H365.714H36.571z M82.286,274.286c-15.148,0-27.429-12.28-27.429-27.429
				c0-15.148,12.28-27.429,27.429-27.429s27.429,12.28,27.429,27.429C109.67,261.987,97.416,274.241,82.286,274.286z
				 M228.571,265.143c0,5.049-4.093,9.143-9.143,9.143s-9.143-4.093-9.143-9.143v-36.571c0-5.049,4.093-9.143,9.143-9.143
				s9.143,4.093,9.143,9.143V265.143z M265.143,265.143c0,5.049-4.093,9.143-9.143,9.143s-9.143-4.093-9.143-9.143v-36.571
				c0-5.049,4.093-9.143,9.143-9.143s9.143,4.093,9.143,9.143V265.143z M301.714,265.143c0,5.049-4.093,9.143-9.143,9.143
				c-5.049,0-9.143-4.093-9.143-9.143v-36.571c0-5.049,4.093-9.143,9.143-9.143c5.049,0,9.143,4.093,9.143,9.143V265.143z
				 M338.286,265.143c0,5.049-4.093,9.143-9.143,9.143S320,270.192,320,265.143v-36.571c0-5.049,4.093-9.143,9.143-9.143
				s9.143,4.093,9.143,9.143V265.143z M374.857,265.143c-0.015,5.043-4.099,9.128-9.143,9.143c-5.049,0-9.143-4.093-9.143-9.143
				v-36.571c0-5.049,4.093-9.143,9.143-9.143c5.043,0.015,9.128,4.099,9.143,9.143V265.143z"/>
			<path d="M36.571,512h429.714v-91.429H36.571V512z M356.571,448c0-5.049,4.093-9.143,9.143-9.143s9.143,4.093,9.143,9.143v36.571
				c0,5.049-4.093,9.143-9.143,9.143s-9.143-4.093-9.143-9.143V448z M320,448c0-5.049,4.093-9.143,9.143-9.143
				s9.143,4.093,9.143,9.143v36.571c0,5.049-4.093,9.143-9.143,9.143S320,489.621,320,484.571V448z M283.429,448
				c0-5.049,4.093-9.143,9.143-9.143c5.049,0,9.143,4.093,9.143,9.143v36.571c0,5.049-4.093,9.143-9.143,9.143
				c-5.049,0-9.143-4.093-9.143-9.143V448z M246.857,448c0-5.049,4.093-9.143,9.143-9.143s9.143,4.093,9.143,9.143v36.571
				c0,5.049-4.093,9.143-9.143,9.143s-9.143-4.093-9.143-9.143V448z M210.286,448c0-5.049,4.093-9.143,9.143-9.143
				s9.143,4.093,9.143,9.143v36.571c0,5.049-4.093,9.143-9.143,9.143s-9.143-4.093-9.143-9.143V448z M82.286,438.857
				c15.148,0,27.429,12.28,27.429,27.429c-0.045,15.13-12.299,27.384-27.429,27.429c-15.148,0-27.429-12.28-27.429-27.429
				C54.857,451.137,67.137,438.857,82.286,438.857z"/>
			<path d="M36.571,310.857v91.429h329.143h100.571v-91.429H365.714H36.571z M82.286,384c-15.148,0-27.429-12.28-27.429-27.429
				c0-15.148,12.28-27.429,27.429-27.429s27.429,12.28,27.429,27.429C109.67,371.701,97.416,383.956,82.286,384z M228.571,374.857
				c0,5.049-4.093,9.143-9.143,9.143s-9.143-4.093-9.143-9.143v-36.571c0-5.049,4.093-9.143,9.143-9.143s9.143,4.093,9.143,9.143
				V374.857z M265.143,374.857c0,5.049-4.093,9.143-9.143,9.143s-9.143-4.093-9.143-9.143v-36.571c0-5.049,4.093-9.143,9.143-9.143
				s9.143,4.093,9.143,9.143V374.857z M301.714,374.857c0,5.049-4.093,9.143-9.143,9.143c-5.049,0-9.143-4.093-9.143-9.143v-36.571
				c0-5.049,4.093-9.143,9.143-9.143c5.049,0,9.143,4.093,9.143,9.143V374.857z M338.286,374.857c0,5.049-4.093,9.143-9.143,9.143
				S320,379.907,320,374.857v-36.571c0-5.049,4.093-9.143,9.143-9.143s9.143,4.093,9.143,9.143V374.857z M374.857,374.857
				c-0.015,5.043-4.099,9.128-9.143,9.143c-5.049,0-9.143-4.093-9.143-9.143v-36.571c0-5.049,4.093-9.143,9.143-9.143
				c5.043,0.015,9.128,4.099,9.143,9.143V374.857z"/>
			<path d="M82.286,475.429c5.049,0,9.143-4.093,9.143-9.143c-0.015-5.043-4.099-9.128-9.143-9.143
				c-5.049,0-9.143,4.093-9.143,9.143C73.143,471.335,77.236,475.429,82.286,475.429z"/>
			<path d="M82.286,347.429c-5.049,0-9.143,4.093-9.143,9.143c0,5.049,4.093,9.143,9.143,9.143c5.049,0,9.143-4.093,9.143-9.143
				C91.414,351.528,87.329,347.443,82.286,347.429z"/>
		</g>
	</g>
</g>
<g>
</g>
<g>
</g>
<g>
</g>
<g>
</g>
<g>
</g>
<g>
</g>
<g>
</g>
<g>
</g>
<g>
</g>
<g>
</g>
<g>
</g>
<g>
</g>
<g>
</g>
<g>
</g>
<g>
</g>
</svg>
