<?xml version="1.0" encoding="iso-8859-1"?>
<!-- Generator: Adobe Illustrator 19.0.0, SVG Export Plug-In . SVG Version: 6.00 Build 0)  -->
<svg version="1.1" id="Capa_1" xmlns="http://www.w3.org/2000/svg" xmlns:xlink="http://www.w3.org/1999/xlink" x="0px" y="0px"
	 viewBox="0 0 512.013 512.013" style="enable-background:new 0 0 512.013 512.013;" xml:space="preserve">
<g>
	<g>
		<g>
			<path d="M466.286,173.721H45.714c-5.047,0.005-9.138,4.095-9.143,9.143v9.143h9.143c2.425-0.001,4.751,0.962,6.466,2.677
				c1.715,1.715,2.678,4.041,2.677,6.466v109.714c0.001,2.425-0.962,4.751-2.677,6.466c-1.715,1.715-4.041,2.678-6.466,2.677h-9.143
				v9.143c0.005,5.047,4.096,9.138,9.143,9.143h420.571c5.047-0.005,9.138-4.095,9.143-9.143v-9.143h-9.143
				c-2.425,0.001-4.751-0.962-6.466-2.677c-1.715-1.715-2.678-4.041-2.677-6.466V201.15c-0.001-2.425,0.962-4.751,2.677-6.466
				s4.041-2.678,6.466-2.677h9.143v-9.143C475.424,177.816,471.333,173.726,466.286,173.721z M438.857,310.864
				c0.001,2.425-0.962,4.751-2.677,6.466c-1.715,1.715-4.041,2.678-6.466,2.677H82.286c-2.425,0.001-4.751-0.962-6.466-2.677
				c-1.715-1.715-2.678-4.041-2.677-6.466V201.15c-0.001-2.425,0.962-4.751,2.677-6.466c1.715-1.715,4.041-2.678,6.466-2.677
				h347.429c2.425-0.001,4.751,0.962,6.466,2.677c1.715,1.715,2.678,4.041,2.677,6.466V310.864z"/>
			<path d="M91.429,301.721h329.143v-91.429H91.429V301.721z M173.714,228.579c2.425,0,4.75,0.963,6.464,2.678
				c1.715,1.714,2.679,4.039,2.679,6.464c0,2.425-0.964,4.75-2.679,6.464l-36.571,36.571c-3.577,3.532-9.334,3.514-12.888-0.041
				c-3.554-3.554-3.572-9.311-0.04-12.888l36.571-36.571C168.964,229.542,171.29,228.579,173.714,228.579z M112.393,240.4
				l9.143-9.143c3.576-3.532,9.333-3.514,12.888,0.04c3.554,3.554,3.573,9.311,0.041,12.888l-9.143,9.143
				c-3.579,3.515-9.322,3.489-12.87-0.058C108.904,249.722,108.878,243.979,112.393,240.4L112.393,240.4z"/>
			<path d="M512,100.578H292.571v27.429c0,5.049-4.093,9.143-9.143,9.143s-9.143-4.093-9.143-9.143v-27.429H256v27.429
				c0,5.049-4.093,9.143-9.143,9.143c-5.049,0-9.143-4.093-9.143-9.143v-27.429h-18.286v27.429c0,5.049-4.093,9.143-9.143,9.143
				c-5.049,0-9.143-4.093-9.143-9.143v-27.429h-18.286v27.429c0,5.049-4.093,9.143-9.143,9.143s-9.143-4.093-9.143-9.143v-27.429
				h-18.286v27.429c0,5.049-4.093,9.143-9.143,9.143c-5.049,0-9.143-4.093-9.143-9.143v-27.429h-18.286v27.429
				c0,5.049-4.093,9.143-9.143,9.143c-5.049,0-9.143-4.093-9.143-9.143v-27.429H73.143v27.429c0,5.049-4.093,9.143-9.143,9.143
				s-9.143-4.093-9.143-9.143v-27.429H0v310.857h512.013L512,100.578z M19.013,124.534L19.013,124.534
				c0.836-2.294,2.643-4.102,4.938-4.938c2.207-1.009,4.744-1.009,6.951,0c1.108,0.464,2.129,1.113,3.018,1.92
				c0.826,0.875,1.477,1.899,1.92,3.018c1.204,2.811,0.907,6.04-0.79,8.585c-1.696,2.544-4.563,4.06-7.621,4.031
				c-1.2,0.029-2.391-0.221-3.478-0.732c-1.107-0.463-2.126-1.112-3.014-1.919C18.322,131.881,17.56,127.937,19.013,124.534z
				 M33.92,390.409c-3.044,3.157-7.908,3.691-11.564,1.268c-3.656-2.422-5.062-7.109-3.342-11.143
				c0.464-1.109,1.114-2.13,1.923-3.018c2.137-2.22,5.26-3.194,8.279-2.582c3.02,0.612,5.518,2.724,6.622,5.6
				c0.469,1.099,0.718,2.279,0.732,3.474C36.61,386.415,35.651,388.733,33.92,390.409z M491.063,390.409
				c-3.044,3.157-7.908,3.691-11.564,1.268c-3.656-2.422-5.062-7.109-3.342-11.143c0.464-1.109,1.114-2.13,1.923-3.018
				c2.137-2.22,5.26-3.194,8.279-2.582c3.02,0.612,5.518,2.724,6.622,5.6c0.469,1.099,0.718,2.279,0.732,3.474
				C493.753,386.415,492.794,388.733,491.063,390.409z M493.714,201.15c0.001,2.425-0.962,4.751-2.677,6.466
				c-1.715,1.715-4.041,2.678-6.466,2.677h-9.143v91.429h9.143c2.425-0.001,4.751,0.962,6.466,2.677
				c1.715,1.715,2.678,4.041,2.677,6.466v18.286c-0.017,15.142-12.287,27.412-27.429,27.429H45.714
				c-15.142-0.016-27.412-12.287-27.429-27.429v-18.286c-0.001-2.425,0.962-4.751,2.677-6.466c1.715-1.715,4.041-2.678,6.466-2.677
				h9.143v-91.429h-9.143c-2.425,0.001-4.751-0.962-6.466-2.677c-1.715-1.715-2.678-4.041-2.677-6.466v-18.286
				c0.017-15.141,12.287-27.412,27.429-27.429h420.571c15.142,0.017,27.412,12.287,27.429,27.429V201.15z M491.063,134.498
				c-0.889,0.807-1.91,1.456-3.018,1.92c-1.085,0.51-2.275,0.761-3.474,0.731c-3.058,0.029-5.924-1.487-7.621-4.031
				s-1.996-5.772-0.794-8.585c0.442-1.12,1.095-2.144,1.924-3.018c0.888-0.807,1.907-1.456,3.013-1.92
				c2.207-1.009,4.744-1.009,6.951,0c1.119,0.442,2.143,1.094,3.018,1.92c1.669,1.753,2.616,4.071,2.652,6.491
				C493.737,130.439,492.782,132.778,491.063,134.498z"/>
		</g>
	</g>
</g>
<g>
</g>
<g>
</g>
<g>
</g>
<g>
</g>
<g>
</g>
<g>
</g>
<g>
</g>
<g>
</g>
<g>
</g>
<g>
</g>
<g>
</g>
<g>
</g>
<g>
</g>
<g>
</g>
<g>
</g>
</svg>
