<?xml version="1.0" encoding="iso-8859-1"?>
<!-- Generator: Adobe Illustrator 19.0.0, SVG Export Plug-In . SVG Version: 6.00 Build 0)  -->
<svg version="1.1" id="Capa_1" xmlns="http://www.w3.org/2000/svg" xmlns:xlink="http://www.w3.org/1999/xlink" x="0px" y="0px"
	 viewBox="0 0 512 512" style="enable-background:new 0 0 512 512;" xml:space="preserve">
<g>
	<g>
		<g>
			<path d="M447.991,365.714V100.571h-384v265.143h91.892c4.702-51.78,48.115-91.429,100.108-91.429s95.406,39.649,100.108,91.429
				h82.749H447.991z"/>
			<rect x="356.562" y="384" width="73.143" height="64"/>
			<rect x="54.848" width="402.286" height="82.286"/>
			<path d="M255.991,292.571c-45.445,0-82.286,36.841-82.286,82.286v36.571h164.571v-36.571
				C338.277,329.412,301.436,292.571,255.991,292.571z"/>
			<polygon points="484.562,466.286 319.991,466.286 319.991,512 484.581,512 			"/>
			<path d="M338.277,448v-18.286H173.705V448h18.286c10.094,0.013,18.273,8.192,18.286,18.286v18.286h91.429v-18.286
				c0.013-10.094,8.192-18.273,18.286-18.286H338.277z"/>
			<polygon points="191.991,493.714 192.002,493.661 191.991,466.286 27.419,466.286 27.419,512 192.009,512 192.002,493.768 			"/>
			<rect x="82.277" y="384" width="73.143" height="64"/>
		</g>
	</g>
</g>
<g>
</g>
<g>
</g>
<g>
</g>
<g>
</g>
<g>
</g>
<g>
</g>
<g>
</g>
<g>
</g>
<g>
</g>
<g>
</g>
<g>
</g>
<g>
</g>
<g>
</g>
<g>
</g>
<g>
</g>
</svg>
