<?xml version="1.0" encoding="iso-8859-1"?>
<!-- Generator: Adobe Illustrator 19.0.0, SVG Export Plug-In . SVG Version: 6.00 Build 0)  -->
<svg version="1.1" id="Capa_1" xmlns="http://www.w3.org/2000/svg" xmlns:xlink="http://www.w3.org/1999/xlink" x="0px" y="0px"
	 viewBox="0 0 512 512" style="enable-background:new 0 0 512 512;" xml:space="preserve">
<g>
	<g>
		<g>
			<path d="M265.143,173.714c-0.014-5.043-4.099-9.128-9.143-9.143c-5.049,0-9.143,4.093-9.143,9.143s4.093,9.143,9.143,9.143
				C261.049,182.857,265.143,178.764,265.143,173.714z"/>
			<path d="M164.571,91.429c5.049,0,9.143-4.093,9.143-9.143V54.857c-0.014-5.043-4.099-9.128-9.143-9.143
				c-5.043,0.014-9.128,4.099-9.143,9.143v27.429C155.429,87.335,159.522,91.429,164.571,91.429z"/>
			<rect x="228.571" y="45.714" width="54.857" height="18.286"/>
			<path d="M301.714,173.714C301.714,148.467,281.247,128,256,128s-45.714,20.467-45.714,45.714s20.467,45.714,45.714,45.714
				S301.714,198.962,301.714,173.714z M228.571,173.714c0-15.148,12.28-27.429,27.429-27.429c15.148,0,27.429,12.28,27.429,27.429
				c-0.045,15.13-12.299,27.384-27.429,27.429C240.852,201.143,228.571,188.863,228.571,173.714z"/>
			<path d="M347.429,91.429c5.049,0,9.143-4.093,9.143-9.143V54.857c-0.014-5.043-4.099-9.128-9.143-9.143
				c-5.043,0.014-9.128,4.099-9.143,9.143v27.429C338.286,87.335,342.379,91.429,347.429,91.429z"/>
			<path d="M73.143,82.286c0,13.008-6.981,25.015-18.286,31.451V256h192v-19.018c-33.224-4.795-57.097-34.445-54.693-67.927
				c2.404-33.482,30.268-59.417,63.836-59.417s61.432,25.935,63.836,59.417c2.404,33.482-21.469,63.131-54.693,67.927V256h192
				V113.737c-11.305-6.436-18.286-18.443-18.286-31.451c0-13.008,6.981-25.015,18.286-31.451V9.143
				C457.128,4.099,453.043,0.015,448,0H64c-5.043,0.015-9.128,4.099-9.143,9.143v41.692C66.162,57.27,73.143,69.278,73.143,82.286z
				 M378.389,165.21c2.249,0.934,4.013,2.753,4.879,5.029c0.976,2.213,0.976,4.735,0,6.949v0.001
				c-0.833,2.296-2.641,4.104-4.936,4.936c-2.213,0.976-4.735,0.976-6.949,0c-1.119-0.441-2.143-1.093-3.017-1.92
				c-1.72-1.719-2.676-4.059-2.651-6.491c0.035-2.421,0.982-4.739,2.651-6.491c0.859-0.846,1.887-1.501,3.017-1.921
				C373.606,164.309,376.14,164.276,378.389,165.21z M320,54.857c0-15.148,12.28-27.429,27.429-27.429s27.429,12.28,27.429,27.429
				v27.429c0,15.148-12.28,27.429-27.429,27.429S320,97.434,320,82.286V54.857z M210.286,36.571
				c0.014-5.043,4.099-9.128,9.143-9.143h73.143c5.043,0.014,9.128,4.099,9.143,9.143v36.571c-0.014,5.043-4.099,9.128-9.143,9.143
				h-73.143c-5.043-0.014-9.128-4.099-9.143-9.143V36.571z M137.143,54.857c0-15.148,12.28-27.429,27.429-27.429
				S192,39.709,192,54.857v27.429c0,15.148-12.28,27.429-27.429,27.429s-27.429-12.28-27.429-27.429V54.857z M91.429,109.714H128
				c10.087,0.029,18.256,8.199,18.286,18.286v91.429c-0.03,10.087-8.199,18.256-18.286,18.286H91.429
				c-10.087-0.03-18.256-8.199-18.286-18.286V128C73.172,117.913,81.342,109.744,91.429,109.714z"/>
			<path d="M36.571,27.429H18.286v23.406c5.521-3.326,11.84-5.095,18.286-5.121V27.429z"/>
			<path d="M128,128H91.429v18.286h9.143c5.049,0,9.143,4.093,9.143,9.143s-4.093,9.143-9.143,9.143h-9.143v18.286h9.143
				c5.049,0,9.143,4.093,9.143,9.143s-4.093,9.143-9.143,9.143h-9.143v18.286H128V128z"/>
			<path d="M475.429,438.857h18.286v-87.406c-5.521,3.326-11.84,5.095-18.286,5.121V438.857z"/>
			<rect x="365.714" y="365.714" width="54.857" height="36.571"/>
			<path d="M438.857,320c0-13.008,6.981-25.015,18.286-31.451v-14.263H54.857v78.263c11.305,6.435,18.286,18.443,18.286,31.451
				c0,13.008-6.981,25.015-18.286,31.451v41.692h402.286V351.451C445.838,345.015,438.857,333.008,438.857,320z M374.857,292.571
				h36.571c5.049,0,9.143,4.093,9.143,9.143s-4.093,9.143-9.143,9.143h-36.571c-5.049,0-9.143-4.093-9.143-9.143
				S369.808,292.571,374.857,292.571z M99.839,424.046c-0.463,1.13-1.146,2.156-2.011,3.017c-0.84,0.825-1.834,1.478-2.925,1.92
				c-2.213,0.976-4.735,0.976-6.949,0c-1.108-0.463-2.128-1.112-3.017-1.92c-1.721-1.719-2.676-4.059-2.651-6.491
				c0.035-2.421,0.982-4.739,2.651-6.491c0.874-0.827,1.898-1.479,3.017-1.921c1.636-0.725,3.459-0.917,5.211-0.548
				c0.606,0.086,1.193,0.271,1.738,0.549c0.562,0.182,1.088,0.461,1.554,0.823c0.492,0.32,0.951,0.688,1.371,1.097
				c1.731,1.72,2.716,4.051,2.743,6.491C100.558,421.766,100.309,422.947,99.839,424.046z M155.429,429.714H128
				c-5.049,0-9.143-4.093-9.143-9.143c0-5.049,4.093-9.143,9.143-9.143h27.429c5.049,0,9.143,4.093,9.143,9.143
				C164.571,425.621,160.478,429.714,155.429,429.714z M155.429,347.429h-9.143v9.143c-0.014,5.043-4.099,9.128-9.143,9.143H128
				v9.143c0,5.049-4.093,9.143-9.143,9.143c-5.049,0-9.143-4.093-9.143-9.143v-9.143h-9.143c-5.043-0.014-9.128-4.099-9.143-9.143
				v-9.143h-9.143c-5.049,0-9.143-4.093-9.143-9.143c0-5.049,4.093-9.143,9.143-9.143h9.143V320
				c0.014-5.043,4.099-9.128,9.143-9.143h9.143v-9.143c0-5.049,4.093-9.143,9.143-9.143c5.049,0,9.143,4.093,9.143,9.143v9.143
				h9.143c5.043,0.014,9.128,4.099,9.143,9.143v9.143h9.143c5.049,0,9.143,4.093,9.143,9.143
				C164.571,343.335,160.478,347.429,155.429,347.429z M320,356.571c5.049,0,9.143,4.093,9.143,9.143s-4.093,9.143-9.143,9.143
				h-9.143v18.286H320c5.049,0,9.143,4.093,9.143,9.143c0,5.049-4.093,9.143-9.143,9.143h-9.143
				c-0.014,5.043-4.099,9.128-9.143,9.143v9.143c0,5.049-4.093,9.143-9.143,9.143c-5.049,0-9.143-4.093-9.143-9.143v-9.143h-18.286
				v9.143c0,5.049-4.093,9.143-9.143,9.143c-5.049,0-9.143-4.093-9.143-9.143v-9.143h-18.286v9.143c0,5.049-4.093,9.143-9.143,9.143
				c-5.049,0-9.143-4.093-9.143-9.143v-9.143c-5.043-0.015-9.128-4.099-9.143-9.143H192c-5.049,0-9.143-4.093-9.143-9.143
				c0-5.049,4.093-9.143,9.143-9.143h9.143v-18.286H192c-5.049,0-9.143-4.093-9.143-9.143s4.093-9.143,9.143-9.143h9.143v-18.286
				H192c-5.049,0-9.143-4.093-9.143-9.143S186.951,320,192,320h9.143c0.014-5.043,4.099-9.128,9.143-9.143v-9.143
				c0-5.049,4.093-9.143,9.143-9.143c5.049,0,9.143,4.093,9.143,9.143v9.143h18.286v-9.143c0-5.049,4.093-9.143,9.143-9.143
				c5.049,0,9.143,4.093,9.143,9.143v9.143h18.286v-9.143c0-5.049,4.093-9.143,9.143-9.143c5.049,0,9.143,4.093,9.143,9.143v9.143
				c5.043,0.014,9.128,4.099,9.143,9.143H320c5.049,0,9.143,4.093,9.143,9.143s-4.093,9.143-9.143,9.143h-9.143v18.286H320z
				 M438.857,411.429c-0.015,5.043-4.099,9.128-9.143,9.143h-9.143v9.143c0,5.049-4.093,9.143-9.143,9.143s-9.143-4.093-9.143-9.143
				v-9.143H384v9.143c0,5.049-4.093,9.143-9.143,9.143c-5.049,0-9.143-4.093-9.143-9.143v-9.143h-9.143
				c-5.043-0.015-9.128-4.099-9.143-9.143v-54.857c0.014-5.043,4.099-9.128,9.143-9.143h9.143v-9.143
				c0-5.049,4.093-9.143,9.143-9.143c5.049,0,9.143,4.093,9.143,9.143v9.143h18.286v-9.143c0-5.049,4.093-9.143,9.143-9.143
				s9.143,4.093,9.143,9.143v9.143h9.143c5.043,0.014,9.128,4.099,9.143,9.143V411.429z"/>
			<path d="M475.429,301.714c-10.099,0-18.286,8.187-18.286,18.286c0,10.099,8.187,18.286,18.286,18.286
				c10.099,0,18.286-8.187,18.286-18.286C493.685,309.913,485.515,301.744,475.429,301.714z"/>
			<path d="M475.429,27.429v18.286c6.446,0.025,12.764,1.794,18.286,5.121V27.429H475.429z"/>
			<path d="M475.429,283.429c6.446,0.025,12.764,1.794,18.286,5.121V113.737c-5.521,3.326-11.84,5.095-18.286,5.121V283.429z"/>
			<path d="M475.429,64c-10.099,0-18.286,8.187-18.286,18.286s8.187,18.286,18.286,18.286c10.099,0,18.286-8.187,18.286-18.286
				C493.685,72.199,485.515,64.029,475.429,64z"/>
			<path d="M36.571,100.571c10.099,0,18.286-8.187,18.286-18.286C54.828,72.199,46.658,64.029,36.571,64
				c-10.099,0-18.286,8.187-18.286,18.286S26.472,100.571,36.571,100.571z"/>
			<rect x="219.429" y="329.143" width="73.143" height="73.143"/>
			<path d="M36.571,365.714c-10.099,0-18.286,8.187-18.286,18.286c0,10.099,8.187,18.286,18.286,18.286S54.857,394.099,54.857,384
				C54.828,373.913,46.658,365.744,36.571,365.714z"/>
			<path d="M36.571,118.857c-6.446-0.025-12.764-1.795-18.286-5.121v238.813c5.521-3.326,11.84-5.095,18.286-5.121V118.857z"/>
			<path d="M18.286,438.857h18.286v-18.286c-6.446-0.025-12.764-1.795-18.286-5.121V438.857z"/>
			<path d="M54.857,502.857c0.014,5.043,4.099,9.128,9.143,9.143h384c5.043-0.014,9.128-4.099,9.143-9.143v-27.429H54.857V502.857z"
				/>
			<rect x="109.714" y="329.143" width="18.286" height="18.286"/>
		</g>
	</g>
</g>
<g>
</g>
<g>
</g>
<g>
</g>
<g>
</g>
<g>
</g>
<g>
</g>
<g>
</g>
<g>
</g>
<g>
</g>
<g>
</g>
<g>
</g>
<g>
</g>
<g>
</g>
<g>
</g>
<g>
</g>
</svg>
