<?xml version="1.0" encoding="iso-8859-1"?>
<!-- Generator: Adobe Illustrator 19.0.0, SVG Export Plug-In . SVG Version: 6.00 Build 0)  -->
<svg version="1.1" id="Capa_1" xmlns="http://www.w3.org/2000/svg" xmlns:xlink="http://www.w3.org/1999/xlink" x="0px" y="0px"
	 viewBox="0 0 503.105 503.105" style="enable-background:new 0 0 503.105 503.105;" xml:space="preserve">
<g>
	<g>
		<g>
			<path d="M35.974,36.018h98.807c0.023-6.019,0.525-12.026,1.5-17.965H35.974c-2.34-0.022-4.588,0.909-6.228,2.579
				c-1.762,1.663-2.759,3.98-2.754,6.404C26.995,31.995,31.014,36.014,35.974,36.018z"/>
			<path d="M152.868,40.026c0.067,1.726,0.183,3.364,0.321,4.954l0.004,0.02l-0.002,0.01c0.297,8.703,2.674,17.209,6.932,24.806
				c0.529,0.824,1.202,1.546,1.987,2.132h179.118c-0.096-0.079,0.667-0.605,1.807-2.202c4.231-7.581,6.59-16.064,6.878-24.741
				L349.912,45l0.002-0.009c0.116-1.4,0.223-2.818,0.279-4.316c0.138-1.549,0.194-3.103,0.167-4.658
				c0.281-10.618-1.673-21.177-5.737-30.991c-0.497-1.004-1.066-1.972-1.702-2.895c-0.521-0.857-1.229-1.586-2.07-2.132
				L161.877,0.088c0.096,0.079-0.667,0.605-1.807,2.202c-0.579,0.859-1.101,1.756-1.561,2.684
				c-4.081,9.828-6.044,20.406-5.763,31.044C152.715,37.355,152.756,38.693,152.868,40.026z"/>
			<path d="M432.281,155.421l14.254-14.246c3.453-3.516,3.428-9.159-0.057-12.644s-9.127-3.511-12.644-0.057l-14.246,14.245
				c-1.685,1.684-2.632,3.969-2.632,6.351c0,2.382,0.947,4.667,2.632,6.351C423.137,158.816,428.731,158.816,432.281,155.421z"/>
			<path d="M70.816,155.421c3.55,3.404,9.152,3.404,12.702,0c1.685-1.682,2.632-3.966,2.632-6.346c0-2.381-0.947-4.664-2.632-6.346
				l-14.246-14.254c-3.516-3.453-9.159-3.428-12.644,0.057s-3.511,9.128-0.057,12.644L70.816,155.421z"/>
			<path d="M35.974,215.667v251.509H467.15l-0.018-251.509H35.974z M422.939,248.184c0.454-1.089,1.092-2.092,1.886-2.965
				c3.602-3.325,9.153-3.325,12.754,0c0.794,0.873,1.432,1.876,1.886,2.965c1.434,3.342,0.687,7.22-1.886,9.79
				c-2.57,2.591-6.452,3.37-9.822,1.97c-3.37-1.399-5.559-4.699-5.538-8.348C422.186,250.418,422.433,249.249,422.939,248.184z
				 M424.824,281.149c0.426-0.386,0.874-0.746,1.342-1.079c0.502-0.342,1.048-0.613,1.623-0.807
				c0.509-0.259,1.052-0.442,1.614-0.544c2.96-0.6,6.024,0.311,8.176,2.43c1.64,1.722,2.57,4,2.605,6.378
				c0.02,2.389-0.918,4.686-2.605,6.378c-0.874,0.792-1.877,1.43-2.965,1.886c-2.174,0.959-4.651,0.959-6.825,0
				c-1.089-0.454-2.092-1.092-2.965-1.886c-1.691-1.689-2.63-3.988-2.606-6.378C422.232,285.144,423.166,282.859,424.824,281.149z
				 M437.579,329.834c-2.57,2.573-6.448,3.32-9.789,1.886c-1.089-0.454-2.092-1.092-2.965-1.886c-2.573-2.57-3.32-6.448-1.886-9.789
				c0.433-1.1,1.074-2.106,1.886-2.965c2.12-2.105,5.149-3.017,8.079-2.43c0.596,0.088,1.173,0.271,1.711,0.544
				c0.552,0.177,1.069,0.45,1.526,0.807c0.535,0.359,0.991,0.719,1.439,1.079c0.813,0.859,1.453,1.865,1.886,2.965
				C440.899,323.386,440.152,327.264,437.579,329.834z M351.079,248.184c0.454-1.089,1.092-2.092,1.886-2.965
				c0.859-0.813,1.865-1.453,2.965-1.886c3.345-1.402,7.205-0.658,9.789,1.886c0.813,0.859,1.453,1.865,1.886,2.965
				c1.434,3.342,0.686,7.22-1.886,9.79c-0.874,0.792-1.877,1.43-2.965,1.886c-2.762,1.183-5.935,0.891-8.435-0.775
				s-3.99-4.484-3.96-7.488C350.327,250.418,350.573,249.249,351.079,248.184z M352.965,281.149
				c0.426-0.386,0.874-0.746,1.342-1.079c0.502-0.342,1.048-0.613,1.623-0.807c0.509-0.259,1.052-0.442,1.614-0.544
				c2.96-0.6,6.024,0.311,8.176,2.43c1.64,1.722,2.57,4,2.605,6.378c0.02,2.389-0.918,4.686-2.605,6.378
				c-2.57,2.591-6.452,3.37-9.822,1.971c-3.37-1.399-5.559-4.699-5.538-8.348C350.373,285.144,351.306,282.859,352.965,281.149z
				 M279.22,248.185c0.454-1.089,1.092-2.092,1.886-2.965l1.342-1.079c0.502-0.342,1.048-0.613,1.623-0.807
				c0.508-0.259,1.052-0.442,1.614-0.544c2.959-0.6,6.023,0.31,8.175,2.429c0.794,0.873,1.432,1.876,1.886,2.965
				c1.434,3.342,0.687,7.22-1.886,9.79c-0.874,0.792-1.877,1.43-2.965,1.886c-3.342,1.433-7.22,0.687-9.791-1.884
				C278.533,255.405,277.786,251.527,279.22,248.185z M281.105,281.149c0.859-0.813,1.865-1.453,2.965-1.886
				c3.345-1.402,7.205-0.658,9.789,1.886c1.64,1.722,2.57,4,2.606,6.378c0.02,2.389-0.918,4.686-2.605,6.378
				c-0.874,0.792-1.877,1.43-2.965,1.886c-2.174,0.959-4.651,0.959-6.825,0c-1.089-0.454-2.092-1.092-2.965-1.886
				c-1.691-1.689-2.63-3.988-2.606-6.378C278.531,285.148,279.462,282.869,281.105,281.149z M279.219,320.044
				c0.818-2.256,2.594-4.033,4.851-4.851c3.345-1.402,7.205-0.658,9.789,1.886c0.813,0.859,1.453,1.865,1.886,2.965
				c1.434,3.341,0.687,7.219-1.886,9.789c-0.874,0.792-1.877,1.43-2.965,1.886c-2.174,0.959-4.651,0.959-6.825,0
				c-1.089-0.454-2.092-1.092-2.965-1.886c-1.691-1.689-2.63-3.988-2.606-6.378C278.467,322.278,278.714,321.109,279.219,320.044z
				 M243.29,248.185c0.454-1.089,1.092-2.092,1.886-2.965c3.602-3.325,9.153-3.325,12.754,0c0.794,0.873,1.432,1.876,1.886,2.965
				c1.434,3.342,0.686,7.22-1.886,9.789c-0.874,0.792-1.877,1.43-2.965,1.886c-2.174,0.959-4.651,0.959-6.825,0
				c-1.089-0.454-2.092-1.092-2.965-1.886C242.603,255.404,241.856,251.526,243.29,248.185z M245.175,281.149
				c2.58-2.554,6.445-3.299,9.789-1.886c1.088,0.456,2.09,1.094,2.965,1.886c1.64,1.722,2.57,4,2.606,6.378
				c0.02,2.389-0.918,4.686-2.605,6.378c-2.57,2.573-6.448,3.32-9.789,1.886c-1.089-0.454-2.092-1.092-2.965-1.886
				c-1.691-1.689-2.63-3.988-2.606-6.378C242.601,285.148,243.532,282.869,245.175,281.149z M257.93,329.834
				c-2.57,2.573-6.448,3.32-9.789,1.886c-1.1-0.433-2.106-1.074-2.965-1.886c-2.573-2.57-3.32-6.448-1.886-9.789
				c0.433-1.1,1.074-2.106,1.886-2.965l1.342-1.079c0.502-0.342,1.048-0.613,1.623-0.807c0.509-0.259,1.052-0.442,1.614-0.544
				c2.96-0.6,6.024,0.31,8.175,2.429c0.813,0.859,1.453,1.865,1.886,2.965C261.25,323.386,260.503,327.264,257.93,329.834z
				 M207.36,248.185c0.454-1.089,1.092-2.092,1.886-2.965c3.602-3.325,9.153-3.325,12.754,0c0.794,0.873,1.432,1.876,1.886,2.965
				c1.434,3.342,0.686,7.22-1.886,9.789c-0.874,0.792-1.877,1.43-2.965,1.886c-2.174,0.959-4.651,0.959-6.825,0
				c-1.089-0.454-2.092-1.092-2.965-1.886C206.673,255.404,205.926,251.526,207.36,248.185z M209.245,281.149
				c0.426-0.386,0.874-0.746,1.342-1.079c0.502-0.342,1.048-0.613,1.623-0.807c0.508-0.259,1.052-0.442,1.614-0.544
				c1.152-0.263,2.348-0.263,3.5,0c0.596,0.088,1.173,0.271,1.711,0.544c0.552,0.177,1.069,0.45,1.526,0.807
				c0.515,0.31,0.998,0.671,1.439,1.079c1.64,1.722,2.57,4,2.605,6.378c0.02,2.389-0.918,4.686-2.605,6.378
				c-2.57,2.591-6.452,3.37-9.822,1.971c-3.37-1.399-5.559-4.699-5.538-8.348C206.671,285.148,207.602,282.869,209.245,281.149z
				 M207.36,320.044c0.433-1.1,1.074-2.106,1.886-2.965c3.602-3.325,9.153-3.325,12.754,0c0.813,0.859,1.453,1.865,1.886,2.965
				c1.434,3.342,0.686,7.22-1.886,9.79c-2.57,2.591-6.452,3.37-9.822,1.971c-3.37-1.399-5.559-4.699-5.538-8.348
				C206.608,322.278,206.854,321.109,207.36,320.044z M171.43,248.185c0.454-1.089,1.092-2.092,1.886-2.965
				c3.602-3.325,9.153-3.325,12.754,0c0.794,0.873,1.432,1.876,1.886,2.965c1.434,3.342,0.686,7.22-1.886,9.789
				c-0.874,0.792-1.877,1.43-2.965,1.886c-2.174,0.959-4.651,0.959-6.825,0c-1.089-0.454-2.092-1.092-2.965-1.886
				C170.744,255.404,169.996,251.526,171.43,248.185z M176.248,279.178c3.37-1.399,7.252-0.621,9.822,1.971
				c1.655,1.712,2.588,3.996,2.605,6.378c0.02,2.389-0.918,4.686-2.605,6.378c-3.542,3.474-9.212,3.474-12.754,0
				c-0.792-0.874-1.43-1.877-1.886-2.965c-0.506-1.065-0.752-2.234-0.719-3.413C170.689,283.877,172.878,280.578,176.248,279.178z
				 M186.071,329.834c-0.874,0.792-1.877,1.43-2.965,1.886c-2.174,0.959-4.651,0.959-6.825,0c-1.089-0.454-2.092-1.092-2.965-1.886
				c-2.573-2.57-3.32-6.448-1.886-9.789c0.433-1.1,1.074-2.106,1.886-2.965c3.602-3.325,9.153-3.325,12.754,0
				c0.813,0.859,1.453,1.865,1.886,2.965C189.39,323.386,188.643,327.264,186.071,329.834z M135.5,248.185
				c0.433-1.1,1.074-2.106,1.886-2.965c2.151-2.12,5.216-3.031,8.175-2.43c0.561,0.103,1.105,0.286,1.614,0.544
				c0.572,0.194,1.115,0.465,1.614,0.807c0.447,0.359,0.904,0.719,1.351,1.079c0.794,0.873,1.432,1.876,1.886,2.965
				c1.433,3.342,0.686,7.219-1.887,9.789c-0.874,0.792-1.877,1.43-2.965,1.886c-3.342,1.433-7.22,0.687-9.791-1.884
				C134.813,255.405,134.067,251.527,135.5,248.185z M137.386,281.149c0.859-0.813,1.865-1.453,2.965-1.886
				c1.605-0.715,3.395-0.905,5.114-0.544c0.596,0.088,1.174,0.271,1.711,0.544c0.552,0.177,1.069,0.45,1.526,0.807
				c0.515,0.31,0.998,0.671,1.439,1.079c1.64,1.722,2.57,4,2.605,6.378c0.02,2.389-0.918,4.686-2.605,6.378
				c-0.874,0.792-1.877,1.43-2.965,1.886c-2.762,1.183-5.935,0.891-8.435-0.775c-2.5-1.667-3.99-4.484-3.96-7.488
				C134.812,285.148,135.743,282.869,137.386,281.149z M150.141,329.834c-0.874,0.792-1.877,1.43-2.965,1.886
				c-2.174,0.959-4.651,0.959-6.824,0c-1.1-0.433-2.106-1.074-2.965-1.886c-2.573-2.57-3.32-6.448-1.886-9.789
				c0.433-1.1,1.074-2.106,1.886-2.965l1.342-1.079c0.502-0.342,1.048-0.613,1.623-0.807c0.508-0.259,1.052-0.442,1.614-0.544
				c1.152-0.263,2.348-0.263,3.5,0c0.596,0.088,1.174,0.271,1.711,0.544c0.552,0.177,1.069,0.45,1.526,0.807
				c0.535,0.359,0.991,0.719,1.439,1.079c0.813,0.859,1.453,1.865,1.886,2.965C153.461,323.386,152.713,327.264,150.141,329.834z
				 M99.57,248.184c0.454-1.089,1.092-2.092,1.886-2.965l1.342-1.079c0.502-0.342,1.048-0.613,1.623-0.807
				c0.508-0.259,1.052-0.442,1.614-0.544c1.751-0.366,3.573-0.176,5.211,0.544c1.088,0.456,2.091,1.094,2.965,1.886
				c0.813,0.859,1.453,1.865,1.886,2.965c1.434,3.342,0.686,7.22-1.886,9.789c-0.874,0.792-1.877,1.43-2.965,1.886
				c-2.762,1.183-5.935,0.891-8.435-0.775c-2.5-1.667-3.99-4.484-3.96-7.488C98.818,250.418,99.065,249.249,99.57,248.184z
				 M107.833,278.544c4.961,0,8.982,4.022,8.982,8.982c0.02,2.389-0.918,4.686-2.605,6.378c-0.874,0.792-1.877,1.43-2.965,1.886
				c-2.174,0.959-4.651,0.959-6.824,0c-1.089-0.454-2.092-1.092-2.965-1.886c-1.691-1.689-2.63-3.988-2.606-6.378
				C98.851,282.566,102.872,278.544,107.833,278.544z M99.57,320.044c0.818-2.256,2.594-4.033,4.851-4.851
				c3.345-1.402,7.205-0.658,9.789,1.886c0.813,0.859,1.453,1.865,1.886,2.965c1.434,3.341,0.687,7.219-1.886,9.789
				c-2.57,2.591-6.452,3.37-9.822,1.971c-3.37-1.399-5.559-4.699-5.538-8.348C98.818,322.278,99.065,321.109,99.57,320.044z
				 M63.544,248.185c0.503-1.085,1.172-2.086,1.982-2.966c2.584-2.546,6.445-3.29,9.789-1.886c1.088,0.456,2.091,1.094,2.965,1.886
				c0.794,0.873,1.432,1.876,1.886,2.965c1.434,3.342,0.687,7.22-1.886,9.79c-2.57,2.573-6.448,3.32-9.789,1.886
				c-1.1-0.433-2.107-1.074-2.966-1.886C63.015,255.375,62.242,251.555,63.544,248.185z M71.904,278.544
				c4.961,0,8.982,4.022,8.982,8.982c0.02,2.389-0.918,4.686-2.605,6.378c-2.57,2.573-6.448,3.32-9.789,1.886
				c-1.089-0.454-2.092-1.092-2.966-1.886c-1.69-1.689-2.629-3.988-2.605-6.378C62.921,282.566,66.943,278.544,71.904,278.544z
				 M78.281,437.623c-3.016,3.079-7.798,3.574-11.381,1.178c-3.583-2.396-4.953-7.003-3.26-10.967
				c0.454-1.089,1.092-2.092,1.885-2.966c0.859-0.813,1.865-1.453,2.965-1.886c1.605-0.715,3.395-0.905,5.114-0.544
				c0.596,0.088,1.173,0.271,1.711,0.544c0.552,0.177,1.069,0.45,1.526,0.807c0.515,0.31,0.998,0.671,1.439,1.079
				c0.794,0.873,1.432,1.876,1.886,2.965C81.601,431.175,80.854,435.053,78.281,437.623z M78.281,401.693
				c-0.874,0.792-1.877,1.43-2.965,1.886c-2.174,0.959-4.651,0.959-6.825,0c-1.089-0.454-2.092-1.092-2.966-1.886
				c-1.69-1.689-2.629-3.988-2.605-6.378c0.031-2.379,0.962-4.657,2.605-6.378l1.342-1.079c0.502-0.342,1.048-0.613,1.623-0.807
				c0.509-0.259,1.052-0.442,1.614-0.544c1.184-0.263,2.412-0.263,3.597,0c0.561,0.103,1.105,0.286,1.614,0.544
				c0.572,0.194,1.115,0.465,1.614,0.807c0.447,0.359,0.904,0.719,1.351,1.079c1.64,1.722,2.57,4,2.606,6.378
				C80.906,397.705,79.968,400.002,78.281,401.693z M80.167,362.798L80.167,362.798c-0.456,1.089-1.094,2.091-1.886,2.966
				c-3.542,3.474-9.212,3.474-12.754,0c-0.792-0.874-1.43-1.877-1.886-2.965c-0.959-2.174-0.959-4.651,0-6.825
				c0.433-1.1,1.073-2.107,1.886-2.966c3.602-3.325,9.153-3.325,12.754,0c0.813,0.859,1.453,1.865,1.886,2.965
				C81.126,358.147,81.126,360.624,80.167,362.798z M80.167,326.868L80.167,326.868c-0.456,1.089-1.094,2.091-1.886,2.966
				c-3.016,3.079-7.798,3.574-11.381,1.178c-3.583-2.396-4.953-7.003-3.26-10.967c0.433-1.1,1.073-2.107,1.885-2.966
				c3.602-3.325,9.153-3.325,12.754,0c0.813,0.859,1.453,1.865,1.886,2.965C81.126,322.217,81.126,324.694,80.167,326.868z
				 M114.211,437.623c-0.874,0.792-1.877,1.43-2.965,1.886c-2.174,0.959-4.651,0.959-6.824,0c-1.089-0.454-2.092-1.092-2.965-1.886
				c-1.677-1.698-2.613-3.991-2.606-6.378c-0.019-1.167,0.193-2.327,0.623-3.412c0.524-1.073,1.191-2.071,1.982-2.965
				c2.127-2.093,5.15-3.002,8.079-2.43c0.596,0.088,1.173,0.271,1.711,0.544c0.552,0.177,1.069,0.45,1.526,0.807
				c0.515,0.31,0.998,0.671,1.439,1.079c0.794,0.873,1.432,1.876,1.886,2.965C117.531,431.175,116.784,435.053,114.211,437.623z
				 M114.211,401.693c-0.874,0.792-1.877,1.43-2.965,1.886c-2.762,1.183-5.935,0.891-8.435-0.775c-2.5-1.667-3.99-4.484-3.96-7.488
				c0.031-2.379,0.962-4.657,2.605-6.378c3.579-3.381,9.175-3.381,12.754,0c1.64,1.722,2.57,4,2.606,6.378
				C116.836,397.705,115.898,400.002,114.211,401.693z M116.097,362.798L116.097,362.798c-0.456,1.088-1.094,2.091-1.886,2.965
				c-3.542,3.474-9.212,3.474-12.754,0c-0.789-0.896-1.456-1.893-1.982-2.965c-0.43-1.086-0.642-2.245-0.623-3.413
				c-0.033-1.178,0.214-2.348,0.719-3.412c0.433-1.1,1.074-2.106,1.886-2.965c3.602-3.325,9.153-3.325,12.754,0
				c0.813,0.859,1.453,1.865,1.886,2.965C117.056,358.147,117.056,360.625,116.097,362.798z M150.141,437.623
				c-0.874,0.792-1.877,1.43-2.965,1.886c-2.174,0.959-4.651,0.959-6.824,0c-1.089-0.454-2.092-1.092-2.965-1.886
				c-1.691-1.689-2.63-3.988-2.606-6.378c-0.033-1.178,0.214-2.348,0.719-3.412c0.454-1.089,1.092-2.092,1.886-2.965
				c0.426-0.386,0.874-0.746,1.342-1.079c0.502-0.342,1.048-0.613,1.623-0.807c0.508-0.259,1.052-0.442,1.614-0.544
				c1.152-0.263,2.348-0.263,3.5,0c0.596,0.088,1.174,0.271,1.711,0.544c0.552,0.177,1.069,0.45,1.526,0.807
				c0.515,0.309,0.997,0.671,1.439,1.079c0.794,0.873,1.432,1.876,1.886,2.965C153.461,431.175,152.714,435.053,150.141,437.623z
				 M152.026,398.728L152.026,398.728c-0.817,2.256-2.594,4.033-4.85,4.851c-2.174,0.959-4.651,0.959-6.824,0
				c-1.089-0.454-2.092-1.092-2.965-1.886c-1.691-1.689-2.63-3.987-2.606-6.377c0.031-2.379,0.962-4.657,2.605-6.378
				c2.12-2.105,5.149-3.017,8.079-2.43c0.596,0.088,1.174,0.271,1.711,0.544c0.552,0.177,1.069,0.45,1.526,0.807
				c0.535,0.359,0.991,0.719,1.439,1.079c1.64,1.722,2.57,4,2.606,6.378C152.731,396.489,152.487,397.649,152.026,398.728z
				 M152.027,362.799c-0.456,1.088-1.094,2.091-1.886,2.965c-3.542,3.474-9.212,3.474-12.754,0c-0.792-0.874-1.43-1.877-1.886-2.965
				c-0.959-2.174-0.959-4.651,0-6.825c0.433-1.1,1.074-2.106,1.886-2.965c3.602-3.325,9.153-3.325,12.754,0
				c0.813,0.859,1.453,1.865,1.886,2.965C152.986,358.148,152.986,360.625,152.027,362.799z M187.957,434.658
				c-0.818,2.256-2.594,4.033-4.851,4.851c-2.174,0.959-4.651,0.959-6.824,0c-1.089-0.454-2.092-1.092-2.965-1.886
				c-1.691-1.689-2.63-3.987-2.606-6.377c-0.033-1.178,0.214-2.348,0.719-3.412c0.454-1.089,1.092-2.092,1.886-2.965
				c0.426-0.386,0.874-0.746,1.342-1.079c0.502-0.342,1.048-0.613,1.623-0.807c0.509-0.259,1.052-0.442,1.614-0.544
				c1.751-0.366,3.573-0.176,5.211,0.544c1.088,0.456,2.09,1.094,2.965,1.886c0.794,0.873,1.432,1.876,1.886,2.965
				C188.916,430.008,188.916,432.485,187.957,434.658z M170.711,395.316c0.031-2.379,0.962-4.657,2.605-6.378l1.342-1.079
				c0.502-0.342,1.048-0.613,1.623-0.807c0.509-0.259,1.052-0.442,1.614-0.544c1.184-0.263,2.412-0.263,3.597,0
				c0.561,0.103,1.105,0.286,1.614,0.544c0.572,0.194,1.115,0.465,1.614,0.807c0.447,0.359,0.904,0.719,1.351,1.079
				c1.64,1.722,2.57,4,2.606,6.378c0.02,2.389-0.918,4.686-2.605,6.378c-0.874,0.792-1.877,1.43-2.965,1.886
				c-2.174,0.959-4.651,0.959-6.825,0c-1.089-0.454-2.092-1.092-2.965-1.886C171.626,400.004,170.686,397.706,170.711,395.316z
				 M187.957,362.798L187.957,362.798c-0.818,2.257-2.594,4.034-4.851,4.851c-2.174,0.959-4.651,0.959-6.824,0
				c-1.089-0.454-2.092-1.092-2.965-1.886c-0.818-0.873-1.488-1.875-1.982-2.965c-0.43-1.085-0.642-2.245-0.624-3.412
				c-0.033-1.178,0.214-2.348,0.719-3.412c0.433-1.1,1.074-2.106,1.886-2.965c2.12-2.105,5.149-3.017,8.079-2.43
				c0.596,0.088,1.174,0.271,1.711,0.544c0.552,0.177,1.069,0.45,1.526,0.807c0.515,0.309,0.997,0.671,1.439,1.079
				c0.813,0.859,1.453,1.865,1.886,2.965C188.916,358.147,188.916,360.624,187.957,362.798z M222,437.623
				c-0.874,0.792-1.877,1.43-2.965,1.886c-3.342,1.434-7.22,0.687-9.79-1.886c-0.792-0.874-1.43-1.877-1.886-2.965
				c-0.959-2.174-0.959-4.651,0-6.825c0.454-1.089,1.092-2.092,1.886-2.965c0.426-0.386,0.874-0.746,1.342-1.079
				c0.502-0.342,1.048-0.613,1.623-0.807c0.508-0.259,1.052-0.442,1.614-0.544c2.959-0.587,6.018,0.321,8.176,2.429
				c1.64,1.722,2.57,4,2.605,6.378C224.626,433.634,223.687,435.932,222,437.623z M222,401.693c-0.874,0.792-1.877,1.43-2.965,1.886
				c-2.762,1.183-5.935,0.891-8.435-0.775c-2.5-1.667-3.99-4.484-3.96-7.488c0.031-2.379,0.962-4.657,2.605-6.378
				c3.579-3.381,9.175-3.381,12.754,0c1.64,1.722,2.57,4,2.606,6.378C224.626,397.705,223.687,400.002,222,401.693z
				 M223.887,362.799c-0.456,1.088-1.094,2.091-1.886,2.965c-2.57,2.573-6.448,3.32-9.789,1.886
				c-1.089-0.454-2.092-1.092-2.965-1.886c-0.792-0.874-1.43-1.877-1.886-2.965c-0.959-2.174-0.959-4.651,0-6.825
				c0.433-1.1,1.074-2.106,1.886-2.965c3.602-3.325,9.153-3.325,12.754,0c0.813,0.859,1.453,1.865,1.886,2.965
				C224.846,358.148,224.846,360.625,223.887,362.799z M257.842,437.623c-3.015,3.048-7.771,3.522-11.328,1.129
				c-3.557-2.393-4.911-6.977-3.224-10.918c0.454-1.089,1.092-2.092,1.886-2.965c0.859-0.813,1.865-1.453,2.965-1.886
				c3.315-1.421,7.161-0.673,9.702,1.886c1.681,1.702,2.644,3.985,2.692,6.377C260.563,433.653,259.587,435.964,257.842,437.623
				L257.842,437.623z M259.816,398.728L259.816,398.728c-0.817,2.256-2.594,4.033-4.85,4.851c-2.174,0.959-4.651,0.959-6.825,0
				c-1.089-0.454-2.092-1.092-2.965-1.886c-1.691-1.689-2.63-3.987-2.606-6.377c0.031-2.379,0.962-4.657,2.605-6.378
				c2.12-2.105,5.149-3.017,8.079-2.43c0.596,0.088,1.173,0.271,1.711,0.544c0.552,0.177,1.069,0.45,1.526,0.807
				c0.535,0.359,0.991,0.719,1.439,1.079c1.64,1.722,2.57,4,2.606,6.378C260.521,396.489,260.276,397.649,259.816,398.728z
				 M259.816,362.798L259.816,362.798c-0.818,2.257-2.595,4.034-4.851,4.851c-2.174,0.959-4.651,0.959-6.825,0
				c-1.089-0.454-2.092-1.092-2.965-1.886c-0.818-0.873-1.488-1.875-1.982-2.965c-0.43-1.085-0.642-2.245-0.624-3.412
				c-0.033-1.178,0.214-2.348,0.719-3.412c0.433-1.1,1.074-2.106,1.886-2.965c2.12-2.105,5.149-3.017,8.079-2.43
				c0.596,0.088,1.173,0.271,1.711,0.544c0.552,0.177,1.069,0.45,1.526,0.807c0.515,0.309,0.997,0.671,1.439,1.079
				c0.813,0.859,1.453,1.865,1.886,2.965C260.776,358.147,260.776,360.624,259.816,362.798z M295.746,434.658L295.746,434.658
				c-0.818,2.257-2.594,4.034-4.851,4.851c-2.174,0.959-4.651,0.959-6.825,0c-1.1-0.433-2.106-1.074-2.965-1.886
				c-2.573-2.57-3.32-6.448-1.886-9.789c0.454-1.089,1.092-2.092,1.886-2.965c0.859-0.813,1.865-1.453,2.965-1.886
				c1.638-0.72,3.459-0.91,5.211-0.544c0.561,0.103,1.105,0.286,1.614,0.544c0.552,0.177,1.069,0.45,1.526,0.807
				c0.515,0.31,0.997,0.671,1.438,1.079c0.794,0.873,1.432,1.876,1.886,2.965C296.705,430.007,296.705,432.484,295.746,434.658z
				 M278.5,395.316c0.031-2.379,0.962-4.657,2.605-6.378l1.342-1.079c0.502-0.342,1.048-0.613,1.623-0.807
				c0.509-0.259,1.052-0.442,1.614-0.544c2.96-0.6,6.024,0.311,8.176,2.43c1.64,1.722,2.57,4,2.605,6.378
				c0.02,2.389-0.918,4.686-2.605,6.378c-0.874,0.792-1.877,1.43-2.965,1.886c-2.174,0.959-4.651,0.959-6.825,0
				c-1.089-0.454-2.092-1.092-2.965-1.886C279.415,400.004,278.476,397.706,278.5,395.316z M295.746,362.798L295.746,362.798
				c-0.456,1.089-1.094,2.091-1.886,2.966c-2.57,2.573-6.448,3.32-9.789,1.886c-1.089-0.454-2.092-1.092-2.965-1.886
				c-0.792-0.874-1.43-1.877-1.886-2.965c-0.959-2.174-0.959-4.651,0-6.825c0.433-1.1,1.074-2.106,1.886-2.965
				c2.12-2.105,5.149-3.017,8.079-2.43c0.596,0.088,1.173,0.271,1.711,0.544c0.552,0.177,1.069,0.45,1.526,0.807
				c0.515,0.309,0.997,0.671,1.439,1.078c0.813,0.859,1.453,1.865,1.886,2.965C296.705,358.147,296.705,360.624,295.746,362.798z
				 M329.79,437.623c-0.874,0.792-1.877,1.43-2.965,1.886c-2.174,0.959-4.651,0.959-6.825,0c-1.089-0.454-2.092-1.092-2.965-1.886
				c-0.818-0.873-1.488-1.875-1.982-2.965c-0.43-1.086-0.642-2.245-0.623-3.413c-0.033-1.178,0.214-2.348,0.719-3.412
				c0.454-1.089,1.092-2.092,1.886-2.965c0.859-0.813,1.865-1.453,2.965-1.886c1.605-0.715,3.395-0.905,5.114-0.544
				c0.596,0.088,1.173,0.271,1.711,0.544c0.552,0.177,1.069,0.45,1.526,0.807c0.515,0.31,0.997,0.671,1.439,1.079
				c0.794,0.873,1.432,1.876,1.886,2.965C333.11,431.175,332.363,435.053,329.79,437.623z M315.052,320.044
				c0.503-1.085,1.172-2.086,1.982-2.966c2.12-2.105,5.149-3.017,8.079-2.43c0.596,0.088,1.173,0.271,1.711,0.544
				c0.552,0.177,1.069,0.45,1.526,0.807c0.535,0.359,0.991,0.719,1.439,1.079c0.813,0.859,1.453,1.865,1.886,2.965
				c1.434,3.342,0.687,7.22-1.886,9.79c-0.874,0.792-1.877,1.43-2.965,1.886c-3.342,1.434-7.22,0.687-9.79-1.886
				c-0.789-0.896-1.456-1.893-1.982-2.965C314.222,324.67,314.222,322.243,315.052,320.044z M329.79,401.693
				c-0.874,0.792-1.877,1.43-2.965,1.886c-2.762,1.183-5.935,0.891-8.435-0.775c-2.5-1.667-3.99-4.484-3.96-7.488
				c0.031-2.379,0.962-4.657,2.605-6.378c3.579-3.381,9.175-3.381,12.754,0c1.64,1.722,2.57,4,2.606,6.378
				C332.415,397.705,331.477,400.002,329.79,401.693z M331.675,362.799L331.675,362.799c-0.817,2.256-2.594,4.033-4.85,4.85
				c-2.174,0.959-4.651,0.959-6.825,0c-1.089-0.454-2.092-1.092-2.965-1.886c-0.818-0.873-1.488-1.875-1.982-2.965
				c-0.43-1.085-0.642-2.245-0.624-3.412c-0.033-1.178,0.214-2.348,0.719-3.412c0.818-2.256,2.594-4.033,4.851-4.851
				c2.167-0.991,4.658-0.991,6.825,0c1.088,0.456,2.091,1.094,2.965,1.886c0.813,0.859,1.453,1.865,1.886,2.965
				C332.634,358.148,332.634,360.625,331.675,362.799z M329.79,293.904c-2.57,2.591-6.452,3.37-9.822,1.971
				c-3.37-1.399-5.559-4.699-5.538-8.348c0.031-2.379,0.962-4.657,2.605-6.378c2.12-2.105,5.149-3.017,8.079-2.43
				c0.596,0.088,1.173,0.271,1.711,0.544c0.552,0.177,1.069,0.45,1.526,0.807c0.515,0.31,0.998,0.671,1.439,1.079
				c1.64,1.722,2.57,4,2.605,6.378C332.415,289.915,331.477,292.212,329.79,293.904z M329.79,257.974
				c-3.016,3.079-7.798,3.574-11.381,1.178c-3.583-2.396-4.952-7.003-3.26-10.967c0.818-2.256,2.594-4.033,4.851-4.851
				c1.605-0.715,3.395-0.905,5.114-0.544c0.596,0.088,1.174,0.271,1.711,0.544c0.552,0.177,1.069,0.45,1.526,0.807
				c0.535,0.359,0.991,0.719,1.439,1.079c0.794,0.873,1.432,1.876,1.886,2.965c0.501,1.066,0.747,2.234,0.719,3.411
				C332.415,253.985,331.477,256.283,329.79,257.974z M365.72,437.623c-0.874,0.792-1.877,1.43-2.965,1.886
				c-2.174,0.959-4.651,0.959-6.825,0c-1.089-0.454-2.092-1.092-2.965-1.886c-1.691-1.689-2.63-3.988-2.606-6.378
				c-0.033-1.178,0.214-2.348,0.719-3.412c0.454-1.089,1.092-2.092,1.886-2.965c0.426-0.386,0.874-0.746,1.342-1.079
				c0.502-0.342,1.048-0.613,1.623-0.807c0.509-0.259,1.052-0.442,1.614-0.544c1.152-0.263,2.348-0.263,3.5,0
				c0.596,0.088,1.173,0.271,1.711,0.544c0.572,0.194,1.115,0.466,1.614,0.807c0.471,0.332,0.922,0.693,1.351,1.079
				c0.794,0.873,1.432,1.876,1.886,2.965C369.04,431.175,368.293,435.053,365.72,437.623z M365.72,401.693
				c-0.874,0.792-1.877,1.43-2.965,1.886c-2.174,0.959-4.651,0.959-6.825,0c-1.089-0.454-2.092-1.092-2.965-1.886
				c-1.691-1.689-2.63-3.988-2.606-6.378c0.031-2.379,0.962-4.657,2.605-6.378c2.12-2.105,5.149-3.017,8.079-2.43
				c0.596,0.088,1.173,0.271,1.711,0.544c0.552,0.177,1.069,0.45,1.526,0.807c0.535,0.359,0.991,0.719,1.439,1.079
				c1.64,1.722,2.57,4,2.606,6.378C368.345,397.705,367.407,400.002,365.72,401.693z M367.606,362.798L367.606,362.798
				c-0.456,1.089-1.094,2.091-1.886,2.966c-2.57,2.573-6.448,3.32-9.789,1.886c-1.089-0.454-2.092-1.092-2.965-1.886
				c-0.792-0.874-1.43-1.877-1.886-2.965c-0.959-2.174-0.959-4.651,0-6.825c0.433-1.1,1.074-2.106,1.886-2.965
				c0.426-0.386,0.874-0.746,1.342-1.079c0.502-0.342,1.048-0.613,1.623-0.807c0.509-0.259,1.052-0.442,1.614-0.544
				c1.152-0.263,2.348-0.263,3.5,0c0.596,0.088,1.173,0.271,1.711,0.544c0.552,0.177,1.069,0.45,1.526,0.807
				c0.515,0.309,0.997,0.671,1.439,1.078c0.813,0.859,1.453,1.865,1.886,2.965C368.565,358.147,368.565,360.624,367.606,362.798z
				 M367.606,326.868L367.606,326.868c-0.456,1.089-1.094,2.091-1.886,2.966c-2.57,2.573-6.448,3.32-9.789,1.886
				c-1.089-0.454-2.092-1.092-2.965-1.886c-2.573-2.57-3.32-6.448-1.886-9.789c0.433-1.1,1.074-2.106,1.886-2.965l1.342-1.079
				c0.502-0.342,1.048-0.613,1.623-0.807c0.509-0.259,1.052-0.442,1.614-0.544c2.96-0.6,6.024,0.31,8.175,2.429
				c0.813,0.859,1.453,1.865,1.886,2.965C368.565,322.217,368.565,324.694,367.606,326.868z M401.65,437.623
				c-0.874,0.792-1.877,1.43-2.965,1.886c-2.174,0.959-4.651,0.959-6.825,0c-1.1-0.433-2.106-1.074-2.965-1.886
				c-1.691-1.689-2.63-3.988-2.606-6.378c-0.033-1.178,0.214-2.348,0.719-3.412c0.454-1.089,1.092-2.092,1.886-2.965
				c0.426-0.386,0.874-0.746,1.342-1.079c0.502-0.342,1.048-0.613,1.623-0.807c0.509-0.259,1.052-0.442,1.614-0.544
				c2.959-0.587,6.017,0.322,8.175,2.43c0.794,0.873,1.432,1.876,1.886,2.965c0.501,1.066,0.747,2.235,0.719,3.413
				C404.258,433.631,403.322,435.922,401.65,437.623z M401.65,401.693c-0.874,0.792-1.877,1.43-2.965,1.886
				c-2.174,0.959-4.651,0.959-6.825,0c-1.089-0.454-2.092-1.092-2.965-1.886c-1.691-1.689-2.63-3.988-2.606-6.378
				c0.031-2.379,0.962-4.657,2.605-6.378l1.342-1.079c0.502-0.342,1.048-0.613,1.623-0.807c0.508-0.259,1.052-0.442,1.614-0.544
				c2.96-0.6,6.024,0.311,8.176,2.43c1.64,1.722,2.57,4,2.605,6.378C404.275,397.705,403.336,400.002,401.65,401.693z
				 M401.65,365.764c-0.874,0.792-1.877,1.43-2.965,1.886c-2.174,0.959-4.651,0.959-6.825,0c-1.089-0.454-2.092-1.092-2.965-1.886
				c-0.818-0.874-1.488-1.875-1.982-2.965c-0.43-1.086-0.642-2.245-0.623-3.413c-0.033-1.178,0.214-2.348,0.719-3.412
				c0.818-2.256,2.594-4.033,4.851-4.851c3.345-1.402,7.205-0.658,9.789,1.886c0.813,0.859,1.453,1.865,1.886,2.965
				c0.46,1.079,0.705,2.238,0.719,3.411C404.258,361.772,403.322,364.063,401.65,365.764z M386.289,323.456
				c-0.033-1.178,0.214-2.348,0.719-3.412c0.818-2.256,2.594-4.033,4.851-4.851c1.638-0.72,3.459-0.91,5.211-0.544
				c0.561,0.103,1.105,0.286,1.614,0.544c0.572,0.194,1.115,0.466,1.614,0.807c0.447,0.359,0.904,0.719,1.351,1.079
				c0.813,0.859,1.453,1.865,1.886,2.965c1.434,3.342,0.687,7.22-1.886,9.789c-2.57,2.591-6.452,3.37-9.822,1.971
				C388.457,330.405,386.268,327.105,386.289,323.456z M401.65,293.904c-2.57,2.573-6.448,3.32-9.789,1.886
				c-1.089-0.454-2.092-1.092-2.965-1.886c-1.691-1.689-2.63-3.988-2.606-6.378c0-4.961,4.022-8.982,8.982-8.982
				s8.982,4.022,8.982,8.982C404.275,289.915,403.336,292.212,401.65,293.904z M401.65,257.974c-2.57,2.591-6.452,3.37-9.822,1.97
				c-3.37-1.399-5.559-4.699-5.538-8.348c-0.033-1.178,0.214-2.347,0.719-3.412c0.454-1.089,1.092-2.092,1.886-2.965l1.342-1.079
				c0.502-0.342,1.048-0.613,1.623-0.807c0.534-0.272,1.109-0.456,1.702-0.544c2.932-0.587,5.964,0.324,8.088,2.43
				c0.794,0.873,1.432,1.876,1.886,2.965c0.46,1.08,0.704,2.239,0.719,3.413C404.258,253.982,403.322,256.273,401.65,257.974z
				 M437.579,437.623c-3.016,3.079-7.798,3.574-11.381,1.178c-3.583-2.396-4.952-7.003-3.26-10.967
				c0.454-1.089,1.092-2.092,1.886-2.965c0.426-0.386,0.874-0.746,1.342-1.079c0.502-0.342,1.048-0.613,1.623-0.807
				c0.534-0.272,1.109-0.456,1.702-0.544c2.931-0.574,5.957,0.335,8.087,2.429c0.794,0.873,1.432,1.876,1.886,2.965
				C440.9,431.175,440.152,435.053,437.579,437.623z M437.579,401.693c-0.874,0.792-1.877,1.43-2.965,1.886
				c-2.762,1.183-5.935,0.891-8.435-0.775c-2.5-1.667-3.99-4.484-3.96-7.488c0.031-2.379,0.962-4.657,2.605-6.378
				c3.579-3.381,9.175-3.381,12.754,0c1.64,1.722,2.57,4,2.606,6.378C440.205,397.705,439.266,400.002,437.579,401.693z
				 M439.466,362.798L439.466,362.798c-0.456,1.089-1.094,2.091-1.886,2.966c-2.57,2.573-6.448,3.32-9.789,1.886
				c-1.089-0.454-2.092-1.092-2.965-1.886c-0.792-0.874-1.43-1.877-1.886-2.965c-0.959-2.174-0.959-4.651,0-6.825
				c0.433-1.1,1.074-2.106,1.886-2.965c0.426-0.386,0.874-0.746,1.342-1.079c0.502-0.342,1.048-0.613,1.623-0.807
				c0.508-0.259,1.052-0.442,1.614-0.544c1.152-0.263,2.348-0.263,3.5,0c0.596,0.088,1.173,0.271,1.711,0.544
				c0.552,0.177,1.069,0.45,1.526,0.807c0.515,0.309,0.997,0.671,1.439,1.078c0.813,0.859,1.453,1.865,1.886,2.965
				C440.425,358.147,440.425,360.624,439.466,362.798z"/>
			<path d="M440.184,36.018V18.053h-73.359c0.974,5.939,1.476,11.946,1.499,17.965H440.184z"/>
			<path d="M494.079,89.912H9.026c-4.96,0.003-8.979,4.023-8.982,8.982v395.228c0.003,4.96,4.023,8.979,8.982,8.982h485.053
				c4.96-0.003,8.979-4.023,8.982-8.982V98.895C503.058,93.935,499.038,89.916,494.079,89.912z M406.886,130.009l14.246-14.237
				c6.807-6.807,16.728-9.465,26.026-6.974c9.298,2.491,16.561,9.754,19.053,19.053c2.492,9.298-0.167,19.22-6.974,26.026
				l-14.246,14.246c-10.525,10.522-27.587,10.52-38.109-0.004C396.359,157.593,396.361,140.531,406.886,130.009z M43.868,115.772
				L43.868,115.772c10.528-10.509,27.577-10.509,38.105,0l14.245,14.246c10.522,10.525,10.52,27.587-0.004,38.109
				c-10.525,10.522-27.587,10.52-38.109-0.004l-14.237-14.246C33.36,143.349,33.36,126.3,43.868,115.772z M485.097,467.176
				c-0.013,9.916-8.049,17.952-17.965,17.965H35.974c-9.916-0.013-17.952-8.048-17.965-17.965V215.667
				c0.013-9.916,8.049-17.952,17.965-17.965h431.158c9.916,0.013,17.952,8.049,17.965,17.965V467.176z"/>
			<path d="M491.325,33.439c1.762-1.663,2.759-3.98,2.754-6.404c-0.003-4.959-4.023-8.979-8.982-8.982h-26.947v17.965h26.947
				C487.437,36.039,489.685,35.108,491.325,33.439z"/>
		</g>
	</g>
</g>
<g>
</g>
<g>
</g>
<g>
</g>
<g>
</g>
<g>
</g>
<g>
</g>
<g>
</g>
<g>
</g>
<g>
</g>
<g>
</g>
<g>
</g>
<g>
</g>
<g>
</g>
<g>
</g>
<g>
</g>
</svg>
