<?xml version="1.0" encoding="iso-8859-1"?>
<!-- Generator: Adobe Illustrator 19.0.0, SVG Export Plug-In . SVG Version: 6.00 Build 0)  -->
<svg version="1.1" id="Capa_1" xmlns="http://www.w3.org/2000/svg" xmlns:xlink="http://www.w3.org/1999/xlink" x="0px" y="0px"
	 viewBox="0 0 512.018 512.018" style="enable-background:new 0 0 512.018 512.018;" xml:space="preserve">
<g>
	<g>
		<g>
			<path d="M128,411.456l256-0.018V100.581H128V411.456z M163.839,387.482c-0.465,1.107-1.114,2.128-1.92,3.018
				c-3.605,3.536-9.377,3.536-12.982,0c-0.803-0.912-1.482-1.927-2.018-3.018c-0.845-2.238-0.845-4.708,0-6.946h0
				c0.512-1.105,1.193-2.123,2.018-3.018c0.874-0.827,1.898-1.479,3.018-1.92c3.405-1.427,7.334-0.67,9.964,1.92
				c0.827,0.874,1.479,1.898,1.92,3.018C164.815,382.748,164.815,385.269,163.839,387.482z M163.839,350.91
				c-0.832,2.296-2.641,4.105-4.937,4.937c-2.811,1.204-6.04,0.907-8.585-0.789c-2.545-1.696-4.061-4.563-4.031-7.621
				c-0.033-1.199,0.217-2.389,0.732-3.473l-0.001,0c0.462-1.108,1.112-2.129,1.92-3.018c0.874-0.827,1.898-1.479,3.018-1.92
				c1.667-0.733,3.521-0.927,5.304-0.554c0.571,0.105,1.125,0.291,1.643,0.554c0.583,0.197,1.135,0.474,1.643,0.821
				c0.455,0.366,0.92,0.732,1.375,1.098c0.808,0.889,1.457,1.909,1.92,3.018C164.815,346.176,164.815,348.698,163.839,350.91z
				 M148.937,304.375c2.189-2.158,5.309-3.085,8.321-2.473c0.571,0.105,1.125,0.291,1.643,0.554
				c0.583,0.197,1.135,0.474,1.643,0.821c0.455,0.366,0.92,0.732,1.375,1.098c1.669,1.753,2.616,4.071,2.652,6.491
				c-0.015,1.194-0.263,2.374-0.732,3.473c-0.465,1.107-1.114,2.128-1.92,3.018c-2.616,2.619-6.563,3.379-9.964,1.92
				c-1.108-0.463-2.129-1.112-3.018-1.92c-0.803-0.912-1.482-1.927-2.018-3.018c-0.437-1.105-0.653-2.285-0.634-3.473
				C146.317,308.445,147.265,306.126,148.937,304.375z M146.286,274.295c0.032-2.421,0.979-4.74,2.651-6.491
				c2.616-2.637,6.567-3.43,9.998-2.006s5.658,4.783,5.637,8.497c-0.015,1.194-0.263,2.374-0.732,3.473
				c-0.465,1.107-1.114,2.128-1.92,3.018c-3.605,3.536-9.377,3.536-12.982,0c-0.803-0.912-1.482-1.927-2.018-3.018
				C146.482,276.663,146.267,275.483,146.286,274.295z M163.839,241.196c-0.465,1.107-1.114,2.128-1.92,3.018
				c-3.605,3.536-9.377,3.536-12.982,0c-0.803-0.912-1.482-1.927-2.018-3.018c-0.437-1.105-0.653-2.285-0.634-3.473
				c-0.033-1.199,0.217-2.389,0.732-3.473l-0.001,0c0.462-1.108,1.112-2.129,1.92-3.018c3.666-3.384,9.316-3.384,12.982,0
				c0.808,0.889,1.457,1.909,1.92,3.018C164.815,236.462,164.815,238.984,163.839,241.196z M183.589,343.964
				c0.463-1.108,1.112-2.129,1.92-3.018c0.874-0.827,1.898-1.479,3.018-1.92c2.215-0.964,4.731-0.964,6.946,0
				c1.107,0.465,2.128,1.114,3.018,1.92c0.808,0.889,1.458,1.909,1.92,3.018c0.976,2.213,0.976,4.734,0,6.946
				c-0.832,2.296-2.641,4.105-4.937,4.937c-3.401,1.46-7.349,0.7-9.965-1.919c-0.804-0.912-1.482-1.927-2.018-3.018
				c-0.437-1.105-0.653-2.285-0.634-3.474C182.824,346.238,183.075,345.048,183.589,343.964L183.589,343.964z M200.411,314.339
				c-0.832,2.296-2.641,4.105-4.937,4.937c-2.213,0.976-4.734,0.976-6.946,0c-1.108-0.463-2.129-1.112-3.018-1.92
				c-0.806-0.89-1.455-1.91-1.92-3.018c-0.469-1.098-0.717-2.278-0.732-3.472c0.032-2.421,0.979-4.74,2.651-6.491
				c2.616-2.637,6.567-3.43,9.997-2.006s5.658,4.783,5.637,8.497C201.128,312.061,200.879,313.241,200.411,314.339z
				 M200.411,277.768c-0.465,1.107-1.114,2.128-1.92,3.018c-2.616,2.637-6.567,3.429-9.997,2.005s-5.658-4.782-5.637-8.496
				c0.032-2.421,0.979-4.74,2.651-6.491c0.433-0.393,0.889-0.76,1.366-1.098c0.511-0.348,1.066-0.624,1.652-0.821
				c0.518-0.264,1.071-0.45,1.643-0.554c3.013-0.611,6.132,0.316,8.322,2.473c1.669,1.753,2.616,4.071,2.651,6.491
				C201.128,275.489,200.879,276.669,200.411,277.768z M364.982,387.482c-0.832,2.296-2.641,4.105-4.937,4.937
				c-3.401,1.46-7.349,0.7-9.965-1.919c-0.803-0.912-1.482-1.927-2.018-3.018c-0.845-2.238-0.845-4.708,0-6.946l0-0.001
				c0.512-1.105,1.193-2.123,2.018-3.018c0.874-0.827,1.898-1.479,3.018-1.92c3.405-1.427,7.333-0.67,9.964,1.92
				c0.827,0.874,1.479,1.898,1.92,3.018C365.958,382.748,365.958,385.269,364.982,387.482z M364.982,350.911
				c-0.465,1.107-1.114,2.128-1.92,3.018c-2.616,2.619-6.563,3.379-9.964,1.92c-1.108-0.463-2.129-1.112-3.018-1.92
				c-0.803-0.912-1.482-1.927-2.018-3.018c-0.437-1.105-0.653-2.285-0.634-3.473c-0.033-1.199,0.217-2.389,0.732-3.473l-0.001,0
				c0.441-1.12,1.093-2.144,1.92-3.018c2.647-2.559,6.556-3.312,9.964-1.92c1.118,0.443,2.143,1.095,3.018,1.92
				c0.808,0.889,1.458,1.909,1.92,3.018C365.958,346.177,365.958,348.698,364.982,350.911z M348.161,124.536
				c0.463-1.108,1.112-2.129,1.92-3.018c3.666-3.384,9.316-3.384,12.982,0c0.808,0.889,1.458,1.909,1.92,3.018
				c1.652,4.025,0.24,8.657-3.377,11.076c-3.617,2.419-8.437,1.954-11.526-1.111c-0.803-0.912-1.482-1.927-2.018-3.018
				c-0.437-1.105-0.653-2.285-0.634-3.474C347.395,126.81,347.646,125.62,348.161,124.536z M350.08,158.089
				c2.616-2.637,6.567-3.43,9.998-2.006s5.658,4.783,5.637,8.497c0.029,1.199-0.222,2.388-0.732,3.473
				c-0.465,1.107-1.114,2.128-1.92,3.018c-3.605,3.536-9.377,3.536-12.982,0c-1.72-1.719-2.676-4.059-2.651-6.491
				C347.46,162.159,348.408,159.84,350.08,158.089z M348.161,197.679L348.161,197.679c0.462-1.109,1.111-2.13,1.919-3.018
				c2.197-2.145,5.31-3.071,8.321-2.473c0.571,0.105,1.125,0.291,1.643,0.554c0.583,0.197,1.135,0.474,1.643,0.821
				c0.48,0.338,0.939,0.705,1.376,1.098c0.808,0.889,1.458,1.909,1.92,3.018c0.976,2.213,0.976,4.734,0,6.946
				c-0.465,1.107-1.114,2.128-1.92,3.018c-3.605,3.536-9.377,3.536-12.982,0c-0.833-0.889-1.514-1.909-2.018-3.018
				c-0.438-1.105-0.653-2.285-0.634-3.473C347.395,199.953,347.646,198.763,348.161,197.679z M348.16,234.25
				c0.462-1.108,1.112-2.129,1.92-3.018l1.366-1.098c0.511-0.348,1.066-0.624,1.652-0.821c0.518-0.264,1.071-0.45,1.643-0.554
				c1.172-0.268,2.39-0.268,3.563,0c0.606,0.089,1.194,0.276,1.741,0.554c0.583,0.197,1.135,0.474,1.643,0.821
				c0.455,0.366,0.92,0.732,1.375,1.098c0.827,0.874,1.479,1.898,1.92,3.018c0.976,2.213,0.976,4.734,0,6.946
				c-0.465,1.107-1.114,2.128-1.92,3.018c-3.605,3.536-9.377,3.536-12.982,0c-0.806-0.89-1.455-1.911-1.92-3.018
				C347.184,238.984,347.184,236.462,348.16,234.25z M365.714,274.295c-0.015,1.194-0.263,2.374-0.732,3.473
				c-0.465,1.107-1.114,2.128-1.92,3.018c-3.605,3.536-9.377,3.536-12.982,0c-0.806-0.89-1.455-1.911-1.92-3.018
				c-0.514-1.084-0.765-2.274-0.731-3.473c0.032-2.421,0.979-4.74,2.651-6.491c2.616-2.637,6.567-3.43,9.998-2.006
				S365.736,270.58,365.714,274.295z M348.16,307.393L348.16,307.393c0.441-1.12,1.093-2.144,1.92-3.018
				c2.158-2.143,5.241-3.07,8.223-2.473c0.606,0.089,1.194,0.276,1.741,0.554c0.562,0.18,1.088,0.458,1.554,0.821
				c0.545,0.366,1.009,0.732,1.464,1.098c1.669,1.753,2.616,4.071,2.652,6.491c-0.015,1.194-0.263,2.374-0.732,3.473
				c-0.465,1.107-1.114,2.128-1.92,3.018c-3.605,3.536-9.377,3.536-12.982,0c-0.806-0.89-1.455-1.91-1.92-3.018
				C347.184,312.127,347.184,309.606,348.16,307.393z M311.589,124.536c0.462-1.108,1.112-2.129,1.92-3.018
				c2.626-2.599,6.561-3.358,9.964-1.92c0.583,0.197,1.135,0.474,1.643,0.821c0.48,0.339,0.939,0.705,1.376,1.099
				c0.827,0.874,1.479,1.898,1.92,3.018c0.469,1.099,0.717,2.279,0.731,3.474c-0.021,2.423-0.97,4.747-2.651,6.491
				c-2.616,2.637-6.567,3.43-9.998,2.006s-5.658-4.783-5.637-8.497C310.824,126.81,311.075,125.62,311.589,124.536L311.589,124.536z
				 M313.509,158.089c2.616-2.637,6.567-3.43,9.997-2.006c3.431,1.424,5.658,4.783,5.637,8.497c0.021,2.432-0.934,4.77-2.651,6.491
				c-3.605,3.536-9.377,3.536-12.982,0c-1.721-1.719-2.677-4.059-2.652-6.491C310.889,162.159,311.836,159.84,313.509,158.089z
				 M311.589,197.678L311.589,197.678c0.462-1.108,1.111-2.129,1.919-3.018c0.433-0.393,0.889-0.76,1.366-1.098
				c0.511-0.348,1.066-0.624,1.652-0.821c0.518-0.264,1.071-0.45,1.643-0.554c3.012-0.598,6.125,0.328,8.322,2.473
				c0.808,0.889,1.458,1.909,1.92,3.018c0.976,2.213,0.976,4.734,0,6.946c-0.465,1.107-1.114,2.128-1.92,3.018
				c-3.605,3.536-9.377,3.536-12.982,0c-0.806-0.89-1.455-1.911-1.92-3.018C310.613,202.412,310.613,199.891,311.589,197.678z
				 M311.589,234.25L311.589,234.25c0.462-1.109,1.111-2.13,1.919-3.018c2.626-2.599,6.561-3.358,9.964-1.92
				c1.107,0.465,2.128,1.114,3.018,1.92c0.808,0.889,1.458,1.909,1.92,3.018c0.976,2.213,0.976,4.734,0,6.946
				c-0.465,1.107-1.114,2.128-1.92,3.018c-3.605,3.536-9.377,3.536-12.982,0c-0.833-0.889-1.514-1.909-2.018-3.018
				c-0.437-1.105-0.653-2.285-0.634-3.473C310.824,236.524,311.075,235.334,311.589,234.25z M313.509,267.803
				c2.189-2.158,5.309-3.085,8.321-2.473c0.571,0.105,1.125,0.291,1.643,0.554c0.583,0.197,1.135,0.474,1.643,0.821
				c0.48,0.338,0.939,0.705,1.376,1.098c1.669,1.753,2.616,4.071,2.651,6.491c0.021,2.432-0.934,4.77-2.651,6.491
				c-0.89,0.806-1.911,1.455-3.018,1.92c-2.213,0.976-4.734,0.976-6.946,0c-1.108-0.462-2.129-1.112-3.018-1.92
				c-0.806-0.89-1.455-1.911-1.92-3.018c-0.469-1.099-0.718-2.279-0.732-3.474C310.889,271.874,311.836,269.554,313.509,267.803z
				 M313.509,304.375l1.366-1.098c0.511-0.348,1.066-0.624,1.652-0.821c0.518-0.264,1.071-0.45,1.643-0.554
				c3.013-0.611,6.132,0.316,8.322,2.473c0.827,0.874,1.479,1.898,1.92,3.018c0.976,2.213,0.976,4.734,0,6.946
				c-0.465,1.107-1.114,2.128-1.92,3.018c-3.605,3.536-9.377,3.536-12.982,0c-0.806-0.89-1.455-1.911-1.92-3.018
				c-0.469-1.099-0.717-2.279-0.732-3.473C310.889,308.445,311.836,306.126,313.509,304.375z M311.589,343.965L311.589,343.965
				c0.462-1.109,1.111-2.13,1.919-3.018c3.666-3.384,9.316-3.384,12.982,0c0.808,0.889,1.458,1.909,1.92,3.018
				c1.459,3.402,0.699,7.349-1.918,9.966c-2.617,2.617-6.564,3.377-9.966,1.918c-1.108-0.462-2.129-1.112-3.018-1.92
				c-0.803-0.912-1.482-1.927-2.018-3.018c-0.437-1.105-0.653-2.285-0.634-3.472C310.824,346.238,311.075,345.048,311.589,343.965z
				 M311.589,380.536L311.589,380.536c0.832-2.297,2.64-4.105,4.936-4.938c3.405-1.427,7.334-0.67,9.964,1.92
				c0.827,0.874,1.479,1.898,1.92,3.018c0.976,2.213,0.976,4.734,0,6.946c-0.465,1.107-1.114,2.128-1.92,3.018
				c-3.605,3.536-9.377,3.536-12.982,0c-0.833-0.889-1.514-1.909-2.018-3.018c-0.437-1.105-0.652-2.285-0.633-3.474
				C310.824,382.81,311.075,381.62,311.589,380.536z M183.589,124.536c0.463-1.108,1.112-2.129,1.92-3.018
				c2.165-2.131,5.242-3.056,8.223-2.473c0.606,0.089,1.194,0.276,1.741,0.554c0.562,0.18,1.088,0.458,1.554,0.821
				c0.512,0.293,0.976,0.663,1.375,1.098c0.883,0.846,1.569,1.877,2.009,3.018c0.976,2.213,0.976,4.734,0,6.946
				c-0.464,1.129-1.147,2.154-2.009,3.018c-0.863,0.822-1.851,1.5-2.929,2.009c-3.419,1.431-7.364,0.647-9.975-1.984
				C182.887,131.895,182.132,127.944,183.589,124.536L183.589,124.536z M185.509,158.089c2.616-2.637,6.567-3.43,9.997-2.006
				s5.658,4.783,5.637,8.497c0.021,2.432-0.934,4.77-2.651,6.491c-0.89,0.806-1.911,1.455-3.018,1.92
				c-1.099,0.469-2.279,0.717-3.474,0.731c-2.424-0.017-4.748-0.967-6.491-2.651c-1.721-1.719-2.676-4.059-2.651-6.491
				C182.889,162.159,183.836,159.84,185.509,158.089z M183.589,197.679L183.589,197.679c0.462-1.109,1.111-2.13,1.919-3.018
				c2.158-2.143,5.241-3.07,8.223-2.473c0.606,0.089,1.194,0.276,1.741,0.554c0.562,0.18,1.088,0.458,1.554,0.821
				c0.525,0.315,1.016,0.683,1.465,1.098c0.808,0.889,1.458,1.909,1.92,3.018c0.976,2.213,0.976,4.734,0,6.946
				c-0.465,1.107-1.114,2.128-1.92,3.018c-3.605,3.536-9.377,3.536-12.982,0c-0.806-0.89-1.455-1.911-1.92-3.018
				c-0.515-1.084-0.766-2.274-0.732-3.473C182.872,199.958,183.121,198.778,183.589,197.679z M183.589,234.251L183.589,234.251
				c0.441-1.12,1.093-2.145,1.92-3.019c3.666-3.384,9.316-3.384,12.982,0c0.808,0.889,1.458,1.909,1.92,3.018
				c0.976,2.213,0.976,4.734,0,6.946c-0.465,1.107-1.114,2.128-1.92,3.018c-2.642,2.561-6.536,3.346-9.964,2.009
				c-1.094-0.527-2.109-1.203-3.018-2.008c-0.806-0.89-1.455-1.91-1.92-3.018C182.612,238.984,182.612,236.463,183.589,234.251z
				 M183.589,380.536L183.589,380.536c0.832-2.297,2.641-4.106,4.937-4.938c3.405-1.427,7.333-0.67,9.964,1.92
				c0.827,0.874,1.479,1.898,1.92,3.018c0.976,2.213,0.976,4.734,0,6.946c-0.832,2.296-2.641,4.105-4.937,4.937
				c-3.401,1.459-7.348,0.699-9.964-1.919c-0.806-0.89-1.455-1.911-1.92-3.018C182.612,385.27,182.612,382.749,183.589,380.536z
				 M147.017,124.536c0.462-1.108,1.112-2.129,1.92-3.018c3.666-3.384,9.316-3.384,12.982,0c0.827,0.874,1.479,1.898,1.92,3.018
				c1.46,3.401,0.699,7.349-1.919,9.965c-0.91,0.804-1.925,1.479-3.018,2.009c-3.419,1.431-7.364,0.647-9.975-1.984
				s-3.366-6.582-1.909-9.99L147.017,124.536z M148.937,158.089c2.626-2.599,6.561-3.358,9.964-1.92
				c1.107,0.465,2.128,1.114,3.018,1.92c1.669,1.753,2.616,4.071,2.652,6.491c0.021,2.432-0.934,4.77-2.651,6.491
				c-3.605,3.536-9.377,3.536-12.982,0c-1.721-1.719-2.677-4.059-2.652-6.491C146.317,162.159,147.265,159.84,148.937,158.089z
				 M147.017,197.678c0.462-1.108,1.112-2.129,1.92-3.018c3.666-3.384,9.316-3.384,12.982,0c0.808,0.889,1.457,1.909,1.92,3.018
				c0.976,2.213,0.976,4.734,0,6.946c-0.465,1.107-1.114,2.128-1.92,3.018c-2.616,2.619-6.563,3.379-9.964,1.92
				c-1.108-0.463-2.129-1.112-3.018-1.92c-0.806-0.89-1.455-1.911-1.92-3.018C146.041,202.412,146.041,199.891,147.017,197.678z"/>
			<path d="M512,0.009H0v512h512.018L512,0.009z M36.571,493.723h-9.143c-5.049,0-9.143-4.093-9.143-9.143
				c0-5.049,4.093-9.143,9.143-9.143h9.143c5.049,0,9.143,4.093,9.143,9.143C45.714,489.63,41.621,493.723,36.571,493.723z
				 M36.571,448.009h-9.143c-5.049,0-9.143-4.093-9.143-9.143c0-5.049,4.093-9.143,9.143-9.143h9.143
				c5.049,0,9.143,4.093,9.143,9.143C45.714,443.916,41.621,448.009,36.571,448.009z M36.571,402.295h-9.143
				c-5.049,0-9.143-4.093-9.143-9.143s4.093-9.143,9.143-9.143h9.143c5.049,0,9.143,4.093,9.143,9.143
				S41.621,402.295,36.571,402.295z M36.571,356.581h-9.143c-5.049,0-9.143-4.093-9.143-9.143s4.093-9.143,9.143-9.143h9.143
				c5.049,0,9.143,4.093,9.143,9.143S41.621,356.581,36.571,356.581z M36.571,310.866h-9.143c-5.049,0-9.143-4.093-9.143-9.143
				s4.093-9.143,9.143-9.143h9.143c5.049,0,9.143,4.093,9.143,9.143S41.621,310.866,36.571,310.866z M36.571,265.152h-9.143
				c-5.049,0-9.143-4.093-9.143-9.143c0-5.049,4.093-9.143,9.143-9.143h9.143c5.049,0,9.143,4.093,9.143,9.143
				C45.714,261.059,41.621,265.152,36.571,265.152z M36.571,219.438h-9.143c-5.049,0-9.143-4.093-9.143-9.143
				c0-5.049,4.093-9.143,9.143-9.143h9.143c5.049,0,9.143,4.093,9.143,9.143C45.714,215.344,41.621,219.438,36.571,219.438z
				 M36.571,173.723h-9.143c-5.049,0-9.143-4.093-9.143-9.143c0-5.049,4.093-9.143,9.143-9.143h9.143
				c5.049,0,9.143,4.093,9.143,9.143C45.714,169.63,41.621,173.723,36.571,173.723z M36.571,128.009h-9.143
				c-5.049,0-9.143-4.093-9.143-9.143c0-5.049,4.093-9.143,9.143-9.143h9.143c5.049,0,9.143,4.093,9.143,9.143
				C45.714,123.916,41.621,128.009,36.571,128.009z M36.571,82.295h-9.143c-5.049,0-9.143-4.093-9.143-9.143
				c0-5.049,4.093-9.143,9.143-9.143h9.143c5.049,0,9.143,4.093,9.143,9.143C45.714,78.201,41.621,82.295,36.571,82.295z
				 M36.571,36.581h-9.143c-5.049,0-9.143-4.093-9.143-9.143c0-5.049,4.093-9.143,9.143-9.143h9.143
				c5.049,0,9.143,4.093,9.143,9.143C45.714,32.487,41.621,36.581,36.571,36.581z M82.286,493.723h-9.143
				c-5.049,0-9.143-4.093-9.143-9.143c0-5.049,4.093-9.143,9.143-9.143h9.143c5.049,0,9.143,4.093,9.143,9.143
				C91.429,489.63,87.335,493.723,82.286,493.723z M82.286,448.009h-9.143c-5.049,0-9.143-4.093-9.143-9.143
				c0-5.049,4.093-9.143,9.143-9.143h9.143c5.049,0,9.143,4.093,9.143,9.143C91.429,443.916,87.335,448.009,82.286,448.009z
				 M82.286,402.295h-9.143c-5.049,0-9.143-4.093-9.143-9.143s4.093-9.143,9.143-9.143h9.143c5.049,0,9.143,4.093,9.143,9.143
				S87.335,402.295,82.286,402.295z M82.286,356.581h-9.143c-5.049,0-9.143-4.093-9.143-9.143s4.093-9.143,9.143-9.143h9.143
				c5.049,0,9.143,4.093,9.143,9.143S87.335,356.581,82.286,356.581z M82.286,310.866h-9.143c-5.049,0-9.143-4.093-9.143-9.143
				s4.093-9.143,9.143-9.143h9.143c5.049,0,9.143,4.093,9.143,9.143S87.335,310.866,82.286,310.866z M82.286,265.152h-9.143
				c-5.049,0-9.143-4.093-9.143-9.143c0-5.049,4.093-9.143,9.143-9.143h9.143c5.049,0,9.143,4.093,9.143,9.143
				C91.429,261.059,87.335,265.152,82.286,265.152z M82.286,219.438h-9.143c-5.049,0-9.143-4.093-9.143-9.143
				c0-5.049,4.093-9.143,9.143-9.143h9.143c5.049,0,9.143,4.093,9.143,9.143C91.429,215.344,87.335,219.438,82.286,219.438z
				 M82.286,173.723h-9.143c-5.049,0-9.143-4.093-9.143-9.143c0-5.049,4.093-9.143,9.143-9.143h9.143
				c5.049,0,9.143,4.093,9.143,9.143C91.429,169.63,87.335,173.723,82.286,173.723z M82.286,128.009h-9.143
				c-5.049,0-9.143-4.093-9.143-9.143c0-5.049,4.093-9.143,9.143-9.143h9.143c5.049,0,9.143,4.093,9.143,9.143
				C91.429,123.916,87.335,128.009,82.286,128.009z M82.286,82.295h-9.143c-5.049,0-9.143-4.093-9.143-9.143
				c0-5.049,4.093-9.143,9.143-9.143h9.143c5.049,0,9.143,4.093,9.143,9.143C91.429,78.201,87.335,82.295,82.286,82.295z
				 M82.286,36.581h-9.143c-5.049,0-9.143-4.093-9.143-9.143c0-5.049,4.093-9.143,9.143-9.143h9.143
				c5.049,0,9.143,4.093,9.143,9.143C91.429,32.487,87.335,36.581,82.286,36.581z M402.286,411.438
				c-0.013,10.094-8.192,18.273-18.286,18.286H128c-10.094-0.013-18.273-8.192-18.286-18.286V100.581
				c0.013-10.093,8.192-18.273,18.286-18.286h256c10.094,0.013,18.273,8.192,18.286,18.286V411.438z M438.857,493.723h-9.143
				c-5.049,0-9.143-4.093-9.143-9.143c0-5.049,4.093-9.143,9.143-9.143h9.143c5.049,0,9.143,4.093,9.143,9.143
				C448,489.63,443.907,493.723,438.857,493.723z M438.857,448.009h-9.143c-5.049,0-9.143-4.093-9.143-9.143
				c0-5.049,4.093-9.143,9.143-9.143h9.143c5.049,0,9.143,4.093,9.143,9.143C448,443.916,443.907,448.009,438.857,448.009z
				 M438.857,402.295h-9.143c-5.049,0-9.143-4.093-9.143-9.143s4.093-9.143,9.143-9.143h9.143c5.049,0,9.143,4.093,9.143,9.143
				S443.907,402.295,438.857,402.295z M438.857,356.581h-9.143c-5.049,0-9.143-4.093-9.143-9.143s4.093-9.143,9.143-9.143h9.143
				c5.049,0,9.143,4.093,9.143,9.143S443.907,356.581,438.857,356.581z M438.857,310.866h-9.143c-5.049,0-9.143-4.093-9.143-9.143
				s4.093-9.143,9.143-9.143h9.143c5.049,0,9.143,4.093,9.143,9.143S443.907,310.866,438.857,310.866z M438.857,265.152h-9.143
				c-5.049,0-9.143-4.093-9.143-9.143c0-5.049,4.093-9.143,9.143-9.143h9.143c5.049,0,9.143,4.093,9.143,9.143
				C448,261.059,443.907,265.152,438.857,265.152z M438.857,219.438h-9.143c-5.049,0-9.143-4.093-9.143-9.143
				c0-5.049,4.093-9.143,9.143-9.143h9.143c5.049,0,9.143,4.093,9.143,9.143C448,215.344,443.907,219.438,438.857,219.438z
				 M438.857,173.723h-9.143c-5.049,0-9.143-4.093-9.143-9.143c0-5.049,4.093-9.143,9.143-9.143h9.143
				c5.049,0,9.143,4.093,9.143,9.143C448,169.63,443.907,173.723,438.857,173.723z M438.857,128.009h-9.143
				c-5.049,0-9.143-4.093-9.143-9.143c0-5.049,4.093-9.143,9.143-9.143h9.143c5.049,0,9.143,4.093,9.143,9.143
				C448,123.916,443.907,128.009,438.857,128.009z M438.857,82.295h-9.143c-5.049,0-9.143-4.093-9.143-9.143
				c0-5.049,4.093-9.143,9.143-9.143h9.143c5.049,0,9.143,4.093,9.143,9.143C448,78.201,443.907,82.295,438.857,82.295z
				 M438.857,36.581h-9.143c-5.049,0-9.143-4.093-9.143-9.143c0-5.049,4.093-9.143,9.143-9.143h9.143
				c5.049,0,9.143,4.093,9.143,9.143C448,32.487,443.907,36.581,438.857,36.581z M484.571,493.723h-9.143
				c-5.049,0-9.143-4.093-9.143-9.143c0-5.049,4.093-9.143,9.143-9.143h9.143c5.049,0,9.143,4.093,9.143,9.143
				C493.714,489.63,489.621,493.723,484.571,493.723z M484.571,448.009h-9.143c-5.049,0-9.143-4.093-9.143-9.143
				c0-5.049,4.093-9.143,9.143-9.143h9.143c5.049,0,9.143,4.093,9.143,9.143C493.714,443.916,489.621,448.009,484.571,448.009z
				 M484.571,402.295h-9.143c-5.049,0-9.143-4.093-9.143-9.143s4.093-9.143,9.143-9.143h9.143c5.049,0,9.143,4.093,9.143,9.143
				S489.621,402.295,484.571,402.295z M484.571,356.581h-9.143c-5.049,0-9.143-4.093-9.143-9.143s4.093-9.143,9.143-9.143h9.143
				c5.049,0,9.143,4.093,9.143,9.143S489.621,356.581,484.571,356.581z M484.571,310.866h-9.143c-5.049,0-9.143-4.093-9.143-9.143
				s4.093-9.143,9.143-9.143h9.143c5.049,0,9.143,4.093,9.143,9.143S489.621,310.866,484.571,310.866z M484.571,265.152h-9.143
				c-5.049,0-9.143-4.093-9.143-9.143c0-5.049,4.093-9.143,9.143-9.143h9.143c5.049,0,9.143,4.093,9.143,9.143
				C493.714,261.059,489.621,265.152,484.571,265.152z M484.571,219.438h-9.143c-5.049,0-9.143-4.093-9.143-9.143
				c0-5.049,4.093-9.143,9.143-9.143h9.143c5.049,0,9.143,4.093,9.143,9.143C493.714,215.344,489.621,219.438,484.571,219.438z
				 M484.571,173.723h-9.143c-5.049,0-9.143-4.093-9.143-9.143c0-5.049,4.093-9.143,9.143-9.143h9.143
				c5.049,0,9.143,4.093,9.143,9.143C493.714,169.63,489.621,173.723,484.571,173.723z M484.571,128.009h-9.143
				c-5.049,0-9.143-4.093-9.143-9.143c0-5.049,4.093-9.143,9.143-9.143h9.143c5.049,0,9.143,4.093,9.143,9.143
				C493.714,123.916,489.621,128.009,484.571,128.009z M484.571,82.295h-9.143c-5.049,0-9.143-4.093-9.143-9.143
				c0-5.049,4.093-9.143,9.143-9.143h9.143c5.049,0,9.143,4.093,9.143,9.143C493.714,78.201,489.621,82.295,484.571,82.295z
				 M484.571,36.581h-9.143c-5.049,0-9.143-4.093-9.143-9.143c0-5.049,4.093-9.143,9.143-9.143h9.143
				c5.049,0,9.143,4.093,9.143,9.143C493.714,32.487,489.621,36.581,484.571,36.581z"/>
		</g>
	</g>
</g>
<g>
</g>
<g>
</g>
<g>
</g>
<g>
</g>
<g>
</g>
<g>
</g>
<g>
</g>
<g>
</g>
<g>
</g>
<g>
</g>
<g>
</g>
<g>
</g>
<g>
</g>
<g>
</g>
<g>
</g>
</svg>
