<?xml version="1.0" encoding="iso-8859-1"?>
<!-- Generator: Adobe Illustrator 19.0.0, SVG Export Plug-In . SVG Version: 6.00 Build 0)  -->
<svg version="1.1" id="Capa_1" xmlns="http://www.w3.org/2000/svg" xmlns:xlink="http://www.w3.org/1999/xlink" x="0px" y="0px"
	 viewBox="0 0 512 512" style="enable-background:new 0 0 512 512;" xml:space="preserve">
<g>
	<g>
		<g>
			<rect y="484.571" width="27.429" height="27.429"/>
			<path d="M320,109.714H192v128h128.018L320,109.714z M219.429,128h45.714c5.049,0,9.143,4.093,9.143,9.143
				c0,5.049-4.093,9.143-9.143,9.143h-45.714c-5.049,0-9.143-4.093-9.143-9.143C210.286,132.093,214.379,128,219.429,128z
				 M228.571,219.429h-9.143c-5.049,0-9.143-4.093-9.143-9.143c0-5.049,4.093-9.143,9.143-9.143h9.143
				c5.049,0,9.143,4.093,9.143,9.143C237.714,215.335,233.621,219.429,228.571,219.429z M292.571,182.857h-73.143
				c-5.049,0-9.143-4.093-9.143-9.143s4.093-9.143,9.143-9.143h73.143c5.049,0,9.143,4.093,9.143,9.143
				S297.621,182.857,292.571,182.857z"/>
			<rect x="210.286" y="457.143" width="192" height="18.286"/>
			<rect x="228.571" y="493.714" width="36.571" height="18.286"/>
			<path d="M45.714,475.429V512h109.714v-45.714c0-5.049,4.093-9.143,9.143-9.143c5.049,0,9.143,4.093,9.143,9.143V512h36.571
				v-18.286c-10.093-0.013-18.273-8.192-18.286-18.286v-18.286c0.013-10.094,8.192-18.273,18.286-18.286h192
				c10.094,0.013,18.273,8.192,18.286,18.286v18.286c-0.013,10.094-8.192,18.273-18.286,18.286h-64V512h128v-91.429H45.714V475.429z
				"/>
			<rect x="283.429" y="493.714" width="36.571" height="18.286"/>
			<path d="M45.714,18.286h27.429c2.425-0.001,4.752,0.961,6.466,2.676c1.715,1.715,2.678,4.041,2.676,6.466v347.429
				c0.001,2.425-0.961,4.752-2.676,6.466c-1.715,1.715-4.041,2.678-6.466,2.676H64c-10.094,0.013-18.273,8.192-18.286,18.286
				h420.571C466.273,392.192,458.094,384.013,448,384h-9.143c-2.425,0.001-4.752-0.961-6.467-2.676
				c-1.715-1.715-2.678-4.041-2.676-6.466V27.429c-0.001-2.425,0.961-4.752,2.676-6.466c1.715-1.715,4.041-2.678,6.467-2.676h27.429
				V0H45.714V18.286z M137.874,243.384c0.463-1.108,1.112-2.129,1.92-3.018c3.666-3.384,9.316-3.384,12.982,0
				c0.827,0.874,1.479,1.898,1.92,3.018c0.469,1.099,0.718,2.279,0.732,3.474c-0.021,2.423-0.97,4.747-2.651,6.491
				c-0.89,0.806-1.911,1.455-3.018,1.92c-2.213,0.976-4.734,0.976-6.946,0c-1.109-0.462-2.129-1.112-3.018-1.92
				C137.176,250.733,136.416,246.786,137.874,243.384L137.874,243.384z M191.269,360.044c-0.832,2.296-2.641,4.105-4.937,4.937
				c-2.213,0.976-4.734,0.976-6.946,0c-1.12-0.441-2.144-1.093-3.018-1.92c-0.806-0.89-1.455-1.911-1.92-3.018
				c-0.976-2.213-0.976-4.734,0-6.946l-0.001,0.001c0.441-1.12,1.093-2.144,1.92-3.018c0.433-0.393,0.889-0.76,1.366-1.098
				c0.511-0.348,1.066-0.624,1.652-0.821c0.518-0.264,1.071-0.45,1.643-0.554c1.172-0.268,2.39-0.268,3.563,0
				c0.607,0.089,1.194,0.276,1.741,0.554c0.562,0.18,1.088,0.458,1.554,0.821c0.525,0.315,1.016,0.683,1.465,1.098
				c0.827,0.874,1.479,1.898,1.92,3.018C192.245,355.31,192.245,357.832,191.269,360.044z M174.446,316.526
				c0.441-1.119,1.093-2.144,1.92-3.018c3.666-3.384,9.316-3.384,12.982,0c0.827,0.874,1.479,1.898,1.92,3.018
				c1.459,3.402,0.699,7.349-1.918,9.966c-2.617,2.617-6.564,3.377-9.966,1.918c-1.108-0.462-2.129-1.112-3.018-1.92
				C173.747,323.875,172.987,319.927,174.446,316.526L174.446,316.526z M227.84,360.044L227.84,360.044
				c-0.833,2.297-2.642,4.105-4.938,4.938c-3.401,1.46-7.349,0.7-9.965-1.919c-0.806-0.89-1.455-1.911-1.92-3.018
				c-0.976-2.213-0.976-4.734,0-6.946c0.832-2.296,2.641-4.105,4.937-4.937c1.667-0.733,3.521-0.927,5.304-0.554
				c0.571,0.105,1.125,0.291,1.643,0.554c0.583,0.197,1.135,0.474,1.643,0.821c0.48,0.338,0.94,0.704,1.376,1.097
				c0.827,0.874,1.479,1.898,1.92,3.018C228.816,355.31,228.816,357.832,227.84,360.044z M225.92,289.92
				c-3.605,3.536-9.377,3.536-12.982,0c-0.803-0.912-1.482-1.927-2.018-3.018c-0.438-1.105-0.653-2.285-0.634-3.474
				c0.032-2.421,0.979-4.74,2.651-6.491c0.433-0.393,0.889-0.76,1.366-1.098c0.511-0.348,1.066-0.624,1.652-0.821
				c0.544-0.277,1.129-0.464,1.732-0.554c1.142-0.268,2.331-0.268,3.473,0c0.606,0.089,1.194,0.276,1.741,0.554
				c0.562,0.18,1.088,0.458,1.554,0.821c0.525,0.315,1.016,0.683,1.465,1.098c1.669,1.753,2.616,4.071,2.651,6.491
				C228.551,285.852,227.602,288.175,225.92,289.92z M225.92,326.491c-0.89,0.806-1.91,1.455-3.018,1.92
				c-2.213,0.976-4.734,0.976-6.946,0c-1.108-0.462-2.129-1.112-3.018-1.92c-2.619-2.616-3.379-6.563-1.92-9.964
				c0.441-1.119,1.093-2.144,1.92-3.018c2.158-2.143,5.241-3.07,8.223-2.473c0.606,0.089,1.194,0.276,1.741,0.554
				c0.562,0.18,1.088,0.458,1.554,0.821c0.545,0.366,1.009,0.732,1.464,1.098c0.827,0.874,1.479,1.898,1.92,3.018
				C229.299,319.929,228.539,323.876,225.92,326.491z M264.411,360.045c-0.832,2.296-2.641,4.105-4.937,4.937
				c-2.213,0.976-4.734,0.976-6.946,0c-1.108-0.463-2.129-1.112-3.018-1.92c-0.803-0.912-1.482-1.927-2.018-3.018
				c-0.438-1.105-0.654-2.285-0.635-3.473c-0.033-1.199,0.217-2.389,0.732-3.473c0.832-2.296,2.641-4.105,4.937-4.937
				c3.405-1.427,7.333-0.67,9.964,1.92c0.827,0.874,1.479,1.898,1.92,3.018C265.387,355.312,265.387,357.833,264.411,360.045
				L264.411,360.045z M246.857,320c-0.033-1.199,0.217-2.389,0.732-3.473c0.832-2.296,2.641-4.105,4.937-4.937
				c3.404-1.437,7.338-0.679,9.964,1.92c0.827,0.874,1.479,1.898,1.92,3.018c1.459,3.401,0.699,7.348-1.919,9.964
				c-2.616,2.637-6.567,3.43-9.998,2.006S246.836,323.714,246.857,320z M264.411,286.902L264.411,286.902
				c-0.464,1.108-1.113,2.128-1.919,3.018c-2.616,2.619-6.563,3.379-9.964,1.92c-1.108-0.463-2.129-1.112-3.018-1.92
				c-0.806-0.89-1.455-1.91-1.92-3.018c-0.469-1.099-0.718-2.279-0.732-3.474c0.032-2.421,0.979-4.74,2.651-6.491
				c0.433-0.393,0.889-0.76,1.366-1.098c0.511-0.348,1.066-0.624,1.652-0.821c0.518-0.264,1.071-0.45,1.643-0.554
				c1.782-0.373,3.637-0.179,5.304,0.554c1.107,0.465,2.128,1.114,3.018,1.92c1.669,1.753,2.616,4.071,2.652,6.491
				C265.128,284.623,264.879,285.803,264.411,286.902z M300.983,286.902c-0.832,2.296-2.641,4.105-4.937,4.937
				c-3.402,1.46-7.35,0.7-9.966-1.919c-0.803-0.912-1.482-1.927-2.018-3.018c-0.437-1.105-0.653-2.285-0.634-3.474
				c0.032-2.421,0.979-4.74,2.651-6.491c0.874-0.827,1.898-1.479,3.018-1.92c3.405-1.427,7.333-0.67,9.964,1.92
				c1.669,1.753,2.616,4.071,2.652,6.491C301.7,284.623,301.451,285.803,300.983,286.902L300.983,286.902z M300.983,360.044
				L300.983,360.044c-0.832,2.297-2.641,4.106-4.937,4.938c-2.213,0.976-4.734,0.976-6.946,0c-1.109-0.463-2.129-1.112-3.018-1.92
				c-0.806-0.89-1.455-1.911-1.92-3.018c-0.976-2.213-0.976-4.734,0-6.946c0.441-1.12,1.093-2.144,1.92-3.018
				c0.433-0.393,0.889-0.76,1.366-1.098c0.511-0.348,1.066-0.624,1.652-0.821c0.518-0.264,1.071-0.45,1.643-0.554
				c3.012-0.61,6.131,0.317,8.321,2.473c0.827,0.874,1.479,1.898,1.92,3.018C301.959,355.31,301.959,357.832,300.983,360.044z
				 M300.983,323.473L300.983,323.473c-0.465,1.108-1.114,2.129-1.92,3.019c-2.616,2.619-6.563,3.379-9.964,1.92
				c-1.109-0.462-2.129-1.112-3.018-1.92c-2.619-2.616-3.379-6.563-1.92-9.964c0.441-1.119,1.093-2.144,1.92-3.018l1.366-1.098
				c0.511-0.348,1.066-0.624,1.652-0.821c0.518-0.264,1.071-0.45,1.643-0.554c3.012-0.611,6.131,0.316,8.321,2.473
				c0.827,0.874,1.479,1.898,1.92,3.018C301.959,318.739,301.959,321.26,300.983,323.473z M337.554,286.902
				c-0.465,1.107-1.114,2.128-1.92,3.018c-2.616,2.637-6.567,3.43-9.997,2.006c-3.431-1.424-5.658-4.783-5.637-8.497
				c0.013-2.425,0.963-4.751,2.651-6.491c0.433-0.393,0.889-0.76,1.366-1.098c0.511-0.348,1.066-0.624,1.652-0.821
				c0.518-0.264,1.071-0.45,1.643-0.554c3.013-0.611,6.132,0.316,8.322,2.473c1.669,1.753,2.616,4.071,2.651,6.491
				C338.271,284.623,338.022,285.803,337.554,286.902L337.554,286.902z M320.732,316.527c0.832-2.296,2.641-4.105,4.937-4.937
				c3.405-1.427,7.334-0.67,9.964,1.92c0.827,0.874,1.479,1.898,1.92,3.018c1.459,3.401,0.699,7.348-1.919,9.964
				c-2.616,2.637-6.567,3.43-9.997,2.006S319.978,323.714,320,320C319.967,318.801,320.218,317.611,320.732,316.527z
				 M395.794,20.937c2.158-2.143,5.241-3.07,8.223-2.473c0.606,0.089,1.194,0.276,1.741,0.554c0.562,0.18,1.088,0.458,1.554,0.821
				c0.525,0.315,1.016,0.683,1.465,1.098c1.669,1.753,2.616,4.071,2.651,6.491c-0.015,1.194-0.263,2.374-0.732,3.473
				c-0.465,1.107-1.114,2.128-1.92,3.018c-3.605,3.536-9.377,3.536-12.982,0c-0.806-0.89-1.455-1.91-1.92-3.018
				c-0.514-1.084-0.765-2.274-0.731-3.473C393.175,25.007,394.122,22.688,395.794,20.937z M410.696,67.473
				c-0.465,1.107-1.114,2.128-1.92,3.018c-3.07,3.134-7.937,3.638-11.584,1.199c-3.647-2.439-5.041-7.128-3.318-11.163h0
				c1.337-3.482,4.681-5.779,8.411-5.779s7.073,2.298,8.411,5.779C411.672,62.739,411.672,65.26,410.696,67.473z M395.794,94.08
				c2.647-2.559,6.556-3.312,9.964-1.92c3.484,1.316,5.757,4.688,5.67,8.411c0.032,3.059-1.484,5.927-4.029,7.624
				c-2.545,1.697-5.775,1.993-8.587,0.787c-1.12-0.441-2.144-1.093-3.018-1.92c-0.806-0.89-1.455-1.911-1.92-3.018
				c-0.469-1.099-0.717-2.279-0.732-3.473C393.175,98.15,394.122,95.831,395.794,94.08z M395.794,130.651
				c3.666-3.384,9.316-3.384,12.982,0c1.685,1.743,2.635,4.067,2.652,6.491c0.021,2.431-0.934,4.77-2.651,6.491
				c-0.89,0.806-1.911,1.455-3.018,1.92c-2.812,1.204-6.041,0.907-8.586-0.789c-2.545-1.697-4.061-4.564-4.03-7.622
				C393.175,134.722,394.122,132.402,395.794,130.651z M395.794,167.223c2.616-2.637,6.567-3.43,9.997-2.006
				c3.431,1.424,5.658,4.783,5.637,8.497c-0.015,1.194-0.263,2.374-0.732,3.473c-0.465,1.107-1.114,2.128-1.92,3.018
				c-3.605,3.536-9.377,3.536-12.982,0c-0.833-0.889-1.514-1.909-2.018-3.018c-0.437-1.105-0.653-2.285-0.634-3.473
				C393.175,171.293,394.122,168.974,395.794,167.223z M393.875,206.813L393.875,206.813c0.462-1.109,1.111-2.13,1.919-3.018
				c2.197-2.146,5.31-3.071,8.321-2.473c0.571,0.105,1.125,0.291,1.643,0.554c0.583,0.197,1.135,0.474,1.643,0.821
				c0.48,0.338,0.939,0.705,1.376,1.098c0.808,0.889,1.458,1.909,1.92,3.018c0.976,2.213,0.976,4.734,0,6.946
				c-0.832,2.296-2.641,4.105-4.937,4.937c-2.213,0.976-4.734,0.976-6.946,0c-1.12-0.441-2.144-1.093-3.018-1.92
				c-0.833-0.889-1.514-1.909-2.018-3.018c-0.438-1.104-0.654-2.284-0.635-3.472C393.109,209.086,393.36,207.896,393.875,206.813z
				 M393.874,243.384c0.462-1.108,1.112-2.129,1.92-3.018c3.666-3.384,9.316-3.384,12.982,0c0.827,0.874,1.479,1.898,1.92,3.018
				c0.469,1.099,0.718,2.279,0.732,3.474c0.087,3.723-2.186,7.095-5.67,8.411c-2.213,0.976-4.734,0.976-6.946,0
				c-1.108-0.462-2.129-1.112-3.018-1.92C393.176,250.732,392.416,246.785,393.874,243.384L393.874,243.384z M395.794,276.937
				c2.616-2.637,6.567-3.43,9.997-2.006c3.431,1.424,5.658,4.783,5.637,8.497c-0.015,1.194-0.263,2.374-0.732,3.473
				c-0.465,1.107-1.114,2.128-1.92,3.018c-3.605,3.536-9.377,3.536-12.982,0c-0.806-0.89-1.455-1.911-1.92-3.018
				c-0.514-1.084-0.765-2.274-0.731-3.473C393.175,281.007,394.122,278.688,395.794,276.937z M395.794,313.509
				c2.158-2.143,5.241-3.07,8.223-2.473c0.606,0.089,1.194,0.276,1.741,0.554c0.562,0.18,1.088,0.458,1.554,0.821
				c0.545,0.366,1.009,0.732,1.464,1.098c0.827,0.874,1.479,1.898,1.92,3.018c1.46,3.401,0.699,7.349-1.919,9.965
				c-0.89,0.806-1.911,1.455-3.018,1.92c-3.402,1.459-7.349,0.699-9.965-1.92c-0.803-0.912-1.482-1.927-2.018-3.018
				c-0.437-1.105-0.653-2.285-0.634-3.474C393.133,317.571,394.087,315.237,395.794,313.509z M393.875,353.098L393.875,353.098
				c0.44-1.12,1.092-2.144,1.919-3.018c2.158-2.143,5.241-3.07,8.223-2.473c0.606,0.089,1.194,0.276,1.741,0.554
				c0.562,0.18,1.088,0.458,1.554,0.821c0.525,0.315,1.016,0.683,1.465,1.098c0.827,0.874,1.479,1.898,1.92,3.018
				c0.976,2.213,0.976,4.734,0,6.946c-0.832,2.296-2.641,4.105-4.937,4.937c-2.213,0.976-4.734,0.976-6.946,0
				c-1.109-0.463-2.129-1.112-3.018-1.92c-0.803-0.912-1.482-1.927-2.018-3.018c-0.438-1.104-0.654-2.284-0.635-3.472
				C393.109,355.372,393.36,354.182,393.875,353.098z M359.223,20.937c2.616-2.637,6.567-3.43,9.997-2.006s5.658,4.783,5.637,8.497
				c0.021,2.431-0.934,4.77-2.651,6.491c-0.89,0.806-1.911,1.455-3.018,1.92c-2.213,0.976-4.734,0.976-6.946,0
				c-1.12-0.441-2.144-1.093-3.019-1.92c-1.721-1.719-2.676-4.059-2.651-6.491C356.603,25.007,357.55,22.688,359.223,20.937z
				 M357.304,60.527L357.304,60.527c0.44-1.12,1.092-2.144,1.919-3.018c3.666-3.384,9.316-3.384,12.982,0
				c0.827,0.874,1.479,1.898,1.92,3.018c1.432,3.417,0.658,7.361-1.96,9.982c-2.618,2.622-6.56,3.402-9.979,1.975
				s-5.637-4.779-5.614-8.484C356.538,62.801,356.789,61.611,357.304,60.527z M359.223,94.08c2.616-2.637,6.567-3.43,9.997-2.006
				s5.658,4.783,5.637,8.497c0.032,3.059-1.484,5.927-4.029,7.624s-5.775,1.993-8.587,0.787c-1.12-0.441-2.144-1.093-3.018-1.92
				c-1.721-1.719-2.676-4.059-2.652-6.491C356.603,98.15,357.55,95.831,359.223,94.08z M359.223,130.651
				c2.616-2.637,6.567-3.43,9.997-2.006s5.658,4.783,5.637,8.497c0,5.049-4.093,9.143-9.143,9.143s-9.143-4.093-9.143-9.143
				C356.603,134.722,357.55,132.402,359.223,130.651z M359.223,167.223c2.616-2.637,6.567-3.43,9.997-2.006
				c3.431,1.424,5.658,4.783,5.637,8.497c-0.015,1.194-0.263,2.374-0.732,3.473c-0.465,1.107-1.114,2.128-1.92,3.018
				c-3.605,3.536-9.377,3.536-12.982,0c-0.833-0.889-1.514-1.909-2.018-3.018c-0.437-1.105-0.653-2.285-0.634-3.473
				C356.603,171.293,357.55,168.974,359.223,167.223z M357.304,206.813L357.304,206.813c0.462-1.109,1.111-2.13,1.919-3.018
				c2.63-2.592,6.56-3.349,9.964-1.92c1.107,0.465,2.128,1.114,3.018,1.92c0.808,0.889,1.458,1.909,1.92,3.018
				c0.976,2.213,0.976,4.734,0,6.946c-0.465,1.107-1.114,2.128-1.92,3.018c-3.605,3.536-9.377,3.536-12.982,0
				c-0.833-0.889-1.514-1.909-2.018-3.018c-0.437-1.105-0.653-2.285-0.634-3.473C356.538,209.086,356.789,207.896,357.304,206.813z
				 M357.303,243.384c0.441-1.12,1.093-2.144,1.92-3.018c3.666-3.384,9.316-3.384,12.982,0c0.808,0.889,1.458,1.909,1.92,3.018
				c1.46,3.401,0.699,7.349-1.919,9.965c-0.89,0.806-1.911,1.455-3.018,1.92c-3.402,1.459-7.349,0.699-9.966-1.918
				s-3.377-6.564-1.918-9.966L357.303,243.384z M359.223,276.937c0.433-0.393,0.889-0.76,1.366-1.098
				c0.511-0.348,1.066-0.624,1.652-0.821c0.518-0.264,1.071-0.45,1.643-0.554c3.013-0.611,6.132,0.316,8.322,2.473
				c1.669,1.753,2.616,4.071,2.651,6.491c-0.015,1.194-0.263,2.374-0.732,3.473c-0.465,1.107-1.114,2.128-1.92,3.018
				c-2.616,2.619-6.563,3.379-9.964,1.92c-1.108-0.463-2.129-1.112-3.018-1.92c-1.721-1.719-2.676-4.059-2.651-6.491
				C356.603,281.007,357.55,278.688,359.223,276.937z M357.303,316.526c0.441-1.119,1.093-2.144,1.92-3.018
				c3.666-3.384,9.316-3.384,12.982,0c0.827,0.874,1.479,1.898,1.92,3.018c1.46,3.401,0.699,7.349-1.919,9.965
				c-0.89,0.806-1.911,1.455-3.018,1.92c-2.213,0.976-4.734,0.976-6.946,0c-1.108-0.462-2.129-1.112-3.018-1.92
				C356.605,323.876,355.844,319.929,357.303,316.526L357.303,316.526z M357.304,353.098L357.304,353.098
				c0.832-2.297,2.64-4.105,4.936-4.938c2.206-1.009,4.741-1.009,6.946,0c1.107,0.465,2.128,1.114,3.018,1.92
				c0.827,0.874,1.479,1.898,1.92,3.018c0.976,2.213,0.976,4.734,0,6.946c-0.832,2.296-2.641,4.105-4.937,4.937
				c-3.401,1.459-7.348,0.699-9.964-1.919c-0.833-0.889-1.514-1.909-2.018-3.018c-0.438-1.105-0.653-2.285-0.634-3.474
				C356.538,355.372,356.789,354.182,357.304,353.098z M337.554,360.044L337.554,360.044c-0.832,2.297-2.641,4.106-4.937,4.938
				c-2.213,0.976-4.734,0.976-6.946,0c-1.108-0.463-2.129-1.112-3.018-1.92c-0.806-0.89-1.455-1.911-1.92-3.018
				c-0.976-2.213-0.976-4.734,0-6.946c0.441-1.12,1.093-2.144,1.92-3.018c2.158-2.143,5.241-3.07,8.223-2.473
				c0.606,0.089,1.194,0.276,1.741,0.554c0.562,0.18,1.088,0.458,1.554,0.821c0.524,0.315,1.015,0.683,1.464,1.098
				c0.827,0.874,1.479,1.898,1.92,3.018C338.531,355.31,338.531,357.832,337.554,360.044z M322.651,20.937
				c3.666-3.384,9.316-3.384,12.982,0c1.685,1.743,2.635,4.067,2.652,6.491c-0.015,1.194-0.263,2.374-0.732,3.473
				c-0.465,1.107-1.114,2.128-1.92,3.018c-3.605,3.536-9.377,3.536-12.982,0c-0.803-0.912-1.482-1.927-2.018-3.018
				c-0.437-1.105-0.653-2.285-0.634-3.473C320.032,25.007,320.979,22.688,322.651,20.937z M320.731,60.527L320.731,60.527
				c0.441-1.12,1.093-2.145,1.92-3.019c3.666-3.384,9.316-3.384,12.982,0c0.827,0.874,1.479,1.898,1.92,3.018
				c1.459,3.402,0.699,7.349-1.918,9.966c-2.617,2.617-6.564,3.377-9.966,1.918c-1.12-0.441-2.144-1.092-3.018-1.919
				c-0.806-0.89-1.455-1.911-1.92-3.018C319.755,65.261,319.755,62.74,320.731,60.527z M286.08,20.937
				c0.859-0.846,1.888-1.501,3.018-1.92c3.405-1.427,7.334-0.67,9.965,1.92c1.669,1.753,2.616,4.071,2.651,6.491
				c-0.015,3.697-2.245,7.024-5.66,8.442c-3.414,1.418-7.346,0.649-9.975-1.951c-0.833-0.889-1.514-1.909-2.018-3.018
				c-0.437-1.105-0.653-2.285-0.634-3.474C283.46,25.007,284.408,22.688,286.08,20.937z M284.161,60.527L284.161,60.527
				c1.094-2.862,3.575-4.965,6.577-5.576s6.108,0.353,8.235,2.558c0.883,0.846,1.569,1.877,2.009,3.018
				c0.469,1.099,0.718,2.279,0.732,3.474c-0.035,5.035-4.108,9.108-9.143,9.143c-2.432,0.024-4.771-0.932-6.491-2.652
				c-1.72-1.72-2.675-4.059-2.652-6.491C283.395,62.801,283.646,61.611,284.161,60.527z M249.509,20.937
				c0.874-0.827,1.898-1.479,3.018-1.92c1.634-0.728,3.455-0.921,5.205-0.554c0.606,0.089,1.194,0.276,1.741,0.554
				c0.562,0.18,1.088,0.458,1.554,0.821c0.525,0.315,1.016,0.683,1.465,1.099c1.669,1.753,2.616,4.071,2.651,6.491
				c-0.015,3.697-2.245,7.024-5.66,8.442c-3.414,1.418-7.346,0.649-9.975-1.951c-0.806-0.89-1.455-1.91-1.92-3.018
				c-0.469-1.099-0.717-2.279-0.731-3.474C246.889,25.007,247.836,22.688,249.509,20.937z M247.589,60.527L247.589,60.527
				c0.44-1.12,1.092-2.144,1.919-3.018c3.666-3.384,9.316-3.384,12.982,0c0.827,0.874,1.479,1.898,1.92,3.018
				c0.976,2.213,0.976,4.734,0,6.946c-0.465,1.107-1.114,2.128-1.92,3.018c-3.605,3.536-9.377,3.536-12.982,0
				c-0.804-0.912-1.482-1.927-2.018-3.018c-0.437-1.105-0.653-2.285-0.634-3.473C246.824,62.801,247.075,61.611,247.589,60.527z
				 M211.017,60.526c0.441-1.12,1.093-2.144,1.92-3.018c2.158-2.143,5.241-3.07,8.223-2.473c0.606,0.089,1.194,0.276,1.741,0.554
				c0.562,0.18,1.088,0.458,1.554,0.821c0.525,0.315,1.016,0.683,1.465,1.098c0.827,0.874,1.479,1.898,1.92,3.018
				c0.976,2.213,0.976,4.734,0,6.946c-0.465,1.107-1.114,2.128-1.92,3.018c-3.07,3.134-7.937,3.638-11.584,1.199
				c-3.647-2.439-5.041-7.128-3.318-11.163H211.017z M212.937,20.937c2.616-2.637,6.567-3.43,9.998-2.006s5.658,4.783,5.637,8.497
				c-0.015,1.194-0.263,2.374-0.732,3.473c-0.465,1.107-1.114,2.128-1.92,3.018c-2.616,2.637-6.567,3.429-9.997,2.005
				c-3.43-1.424-5.658-4.782-5.637-8.496C210.317,25.007,211.265,22.688,212.937,20.937z M176.366,20.937
				c2.616-2.637,6.567-3.43,9.998-2.006s5.658,4.783,5.637,8.497c0,5.049-4.093,9.143-9.143,9.143c-5.049,0-9.143-4.093-9.143-9.143
				C173.746,25.007,174.693,22.688,176.366,20.937z M176.366,57.509c0.433-0.393,0.889-0.76,1.366-1.098
				c0.511-0.348,1.066-0.624,1.652-0.821c2.224-0.92,4.722-0.92,6.946,0c1.107,0.465,2.128,1.114,3.018,1.92
				c0.827,0.874,1.479,1.898,1.92,3.018c1.652,4.025,0.239,8.656-3.377,11.074c-3.617,2.418-8.436,1.954-11.525-1.11
				c-0.806-0.89-1.455-1.911-1.92-3.018c-0.515-1.084-0.765-2.274-0.731-3.474C173.746,61.579,174.693,59.26,176.366,57.509z
				 M173.714,109.714c0.013-10.094,8.192-18.273,18.286-18.286h128c10.094,0.013,18.273,8.192,18.286,18.286v128
				C338.273,247.808,330.094,255.987,320,256H192c-10.094-0.013-18.273-8.192-18.286-18.286V109.714z M176.366,276.937
				c2.626-2.599,6.561-3.358,9.964-1.92c1.107,0.465,2.128,1.114,3.018,1.92c1.685,1.743,2.635,4.067,2.652,6.491
				c0.021,2.431-0.934,4.77-2.651,6.491c-0.89,0.806-1.911,1.455-3.018,1.92c-2.213,0.976-4.734,0.976-6.946,0
				c-1.108-0.463-2.129-1.112-3.018-1.92c-0.806-0.89-1.455-1.91-1.92-3.018c-0.469-1.099-0.718-2.279-0.732-3.474
				C173.746,281.007,174.693,278.688,176.366,276.937z M139.794,20.937c2.158-2.143,5.241-3.07,8.223-2.473
				c0.606,0.089,1.194,0.276,1.741,0.554c0.562,0.18,1.088,0.458,1.554,0.821c0.525,0.315,1.016,0.683,1.465,1.098
				c1.669,1.753,2.616,4.071,2.651,6.491c-0.015,1.194-0.263,2.374-0.732,3.473c-0.465,1.107-1.114,2.128-1.92,3.018
				c-3.605,3.536-9.377,3.536-12.982,0c-0.806-0.89-1.455-1.91-1.92-3.018c-0.514-1.084-0.765-2.274-0.731-3.473
				C137.175,25.007,138.122,22.688,139.794,20.937z M154.696,67.473c-0.465,1.107-1.114,2.128-1.92,3.018
				c-3.07,3.134-7.937,3.638-11.584,1.199c-3.647-2.439-5.041-7.128-3.318-11.163h0c1.337-3.482,4.681-5.779,8.411-5.779
				c3.73,0,7.074,2.298,8.411,5.779C155.672,62.739,155.672,65.26,154.696,67.473z M139.794,94.08c3.666-3.384,9.316-3.384,12.982,0
				c1.685,1.743,2.635,4.067,2.652,6.491c0.032,3.059-1.484,5.927-4.029,7.624c-2.545,1.697-5.775,1.993-8.587,0.787
				c-1.12-0.441-2.144-1.093-3.018-1.92c-1.721-1.719-2.676-4.059-2.652-6.491C137.175,98.15,138.122,95.831,139.794,94.08z
				 M139.794,130.651c2.616-2.637,6.567-3.43,9.998-2.006c3.43,1.424,5.658,4.783,5.637,8.497c-0.015,1.194-0.263,2.374-0.732,3.473
				c-0.832,2.296-2.641,4.105-4.937,4.937c-2.811,1.204-6.041,0.907-8.585-0.789s-4.061-4.563-4.031-7.621
				C137.175,134.722,138.122,132.402,139.794,130.651z M139.794,167.223c2.616-2.637,6.567-3.43,9.998-2.006
				c3.43,1.424,5.658,4.783,5.637,8.497c-0.015,1.194-0.263,2.374-0.732,3.473c-0.465,1.107-1.114,2.128-1.92,3.018
				c-3.605,3.536-9.377,3.536-12.982,0c-0.833-0.889-1.514-1.909-2.018-3.018c-0.437-1.105-0.653-2.285-0.634-3.473
				C137.175,171.293,138.122,168.974,139.794,167.223z M137.875,206.813L137.875,206.813c0.462-1.109,1.111-2.13,1.919-3.018
				c2.197-2.146,5.31-3.071,8.321-2.473c0.571,0.105,1.125,0.291,1.643,0.554c0.583,0.197,1.135,0.474,1.643,0.821
				c0.48,0.338,0.939,0.705,1.376,1.098c0.808,0.889,1.458,1.909,1.92,3.018c0.976,2.213,0.976,4.734,0,6.946
				c-0.832,2.296-2.641,4.105-4.937,4.937c-2.213,0.976-4.734,0.976-6.946,0c-1.12-0.441-2.144-1.093-3.018-1.92
				c-0.833-0.889-1.514-1.909-2.018-3.018c-0.438-1.104-0.654-2.284-0.635-3.472C137.109,209.086,137.36,207.896,137.875,206.813z
				 M139.794,276.937c3.666-3.384,9.316-3.384,12.982,0c1.685,1.743,2.635,4.067,2.652,6.491c-0.015,1.194-0.263,2.374-0.732,3.473
				c-0.465,1.107-1.114,2.128-1.92,3.018c-2.616,2.637-6.567,3.429-9.997,2.005c-3.43-1.424-5.658-4.782-5.637-8.496
				C137.175,281.007,138.122,278.688,139.794,276.937z M137.874,316.527L137.874,316.527c0.441-1.12,1.093-2.145,1.92-3.019
				c2.158-2.143,5.241-3.07,8.223-2.473c0.606,0.089,1.194,0.276,1.741,0.554c0.562,0.18,1.088,0.458,1.554,0.821
				c0.545,0.366,1.009,0.732,1.464,1.098c0.827,0.874,1.479,1.898,1.92,3.018c1.46,3.401,0.699,7.349-1.919,9.965
				c-0.89,0.806-1.911,1.455-3.018,1.92c-3.402,1.459-7.349,0.699-9.965-1.92c-0.806-0.89-1.455-1.911-1.92-3.018
				C136.898,321.261,136.898,318.74,137.874,316.527z M137.874,353.098c0.441-1.12,1.093-2.144,1.92-3.018
				c3.666-3.384,9.316-3.384,12.982,0c0.827,0.874,1.479,1.898,1.92,3.018c0.976,2.213,0.976,4.734,0,6.946
				c-0.465,1.107-1.114,2.128-1.92,3.018c-2.616,2.619-6.563,3.379-9.964,1.92c-1.109-0.463-2.129-1.112-3.018-1.92
				c-0.806-0.89-1.455-1.911-1.92-3.018C136.898,357.832,136.898,355.31,137.874,353.098z M115.306,327.348
				c-3.293,2.545-7.89,2.545-11.183,0c-3.293-2.545-4.452-6.993-2.819-10.822h-0.001c0.441-1.119,1.093-2.144,1.92-3.018
				l1.366-1.098c0.511-0.348,1.066-0.624,1.652-0.821c0.518-0.264,1.071-0.45,1.643-0.554c3.013-0.611,6.132,0.316,8.322,2.473
				c0.827,0.874,1.479,1.898,1.92,3.018C119.758,320.355,118.6,324.803,115.306,327.348z M103.223,20.937
				c2.616-2.637,6.567-3.43,9.998-2.006s5.658,4.783,5.637,8.497c0.021,2.431-0.934,4.77-2.651,6.491
				c-0.89,0.806-1.911,1.455-3.018,1.92c-2.812,1.204-6.041,0.907-8.586-0.789c-2.545-1.697-4.061-4.564-4.031-7.622
				C100.603,25.007,101.55,22.688,103.223,20.937z M101.304,60.527L101.304,60.527c0.44-1.12,1.092-2.144,1.919-3.018
				c3.666-3.384,9.316-3.384,12.982,0c0.827,0.874,1.479,1.898,1.92,3.018c1.432,3.417,0.658,7.361-1.96,9.982
				c-2.618,2.622-6.56,3.402-9.979,1.975s-5.637-4.779-5.614-8.484C100.538,62.801,100.789,61.611,101.304,60.527z M103.223,94.08
				c2.616-2.637,6.567-3.43,9.998-2.006s5.658,4.783,5.637,8.497c0.032,3.059-1.484,5.927-4.029,7.624
				c-2.545,1.697-5.775,1.993-8.587,0.787c-1.12-0.441-2.144-1.093-3.018-1.92c-1.721-1.719-2.676-4.059-2.652-6.491
				C100.603,98.15,101.55,95.831,103.223,94.08z M103.223,130.651c2.616-2.637,6.567-3.43,9.998-2.006s5.658,4.783,5.637,8.497
				c0,5.049-4.093,9.143-9.143,9.143s-9.143-4.093-9.143-9.143C100.585,134.718,101.535,132.392,103.223,130.651z M103.223,167.223
				c2.616-2.637,6.567-3.43,9.998-2.006c3.431,1.424,5.658,4.783,5.637,8.497c-0.015,1.194-0.263,2.374-0.732,3.473
				c-0.465,1.107-1.114,2.128-1.92,3.018c-3.605,3.536-9.377,3.536-12.982,0c-0.833-0.889-1.514-1.909-2.018-3.018
				c-0.437-1.105-0.653-2.285-0.634-3.473C100.603,171.293,101.55,168.974,103.223,167.223z M101.304,206.813L101.304,206.813
				c0.462-1.109,1.111-2.13,1.919-3.018c2.626-2.599,6.561-3.358,9.964-1.92c1.107,0.465,2.128,1.114,3.018,1.92
				c0.808,0.889,1.458,1.909,1.92,3.018c0.976,2.213,0.976,4.734,0,6.946c-0.465,1.107-1.114,2.128-1.92,3.018
				c-3.605,3.536-9.377,3.536-12.982,0c-0.833-0.889-1.514-1.909-2.018-3.018c-0.437-1.105-0.653-2.285-0.634-3.473
				C100.538,209.086,100.789,207.896,101.304,206.813z M101.304,243.384L101.304,243.384c0.462-1.109,1.111-2.13,1.919-3.018
				l1.366-1.098c0.511-0.348,1.066-0.624,1.652-0.821c0.518-0.264,1.071-0.45,1.643-0.554c1.206-0.268,2.455-0.268,3.661,0
				c0.571,0.105,1.125,0.291,1.643,0.554c0.583,0.197,1.135,0.474,1.643,0.821c0.455,0.366,0.92,0.732,1.375,1.098
				c0.808,0.889,1.458,1.909,1.92,3.018c1.46,3.401,0.699,7.349-1.919,9.965c-0.89,0.806-1.911,1.455-3.018,1.92
				c-2.812,1.204-6.041,0.907-8.586-0.789s-4.061-4.564-4.031-7.622C100.538,245.658,100.789,244.468,101.304,243.384z
				 M103.223,276.937c2.616-2.637,6.567-3.43,9.998-2.006s5.658,4.783,5.637,8.497c0.032,3.059-1.484,5.927-4.029,7.623
				c-2.545,1.697-5.775,1.993-8.587,0.787c-1.108-0.463-2.129-1.112-3.018-1.92c-1.721-1.719-2.676-4.059-2.652-6.491
				C100.603,281.007,101.55,278.688,103.223,276.937z"/>
			<rect x="484.571" y="484.571" width="27.429" height="27.429"/>
		</g>
	</g>
</g>
<g>
</g>
<g>
</g>
<g>
</g>
<g>
</g>
<g>
</g>
<g>
</g>
<g>
</g>
<g>
</g>
<g>
</g>
<g>
</g>
<g>
</g>
<g>
</g>
<g>
</g>
<g>
</g>
<g>
</g>
</svg>
