<?xml version="1.0" encoding="iso-8859-1"?>
<!-- Generator: Adobe Illustrator 19.0.0, SVG Export Plug-In . SVG Version: 6.00 Build 0)  -->
<svg version="1.1" id="Capa_1" xmlns="http://www.w3.org/2000/svg" xmlns:xlink="http://www.w3.org/1999/xlink" x="0px" y="0px"
	 viewBox="0 0 512.018 512.018" style="enable-background:new 0 0 512.018 512.018;" xml:space="preserve">
<g>
	<g>
		<g>
			<path d="M91.429,429.723c-5.049,0-9.143-4.093-9.143-9.143c0-5.049,4.093-9.143,9.143-9.143h18.293l-0.002-18.286H91.429
				c-5.049,0-9.143-4.093-9.143-9.143c0-5.049,4.093-9.143,9.143-9.143h18.289l-0.003-18.286H18.286v18.286h18.286
				c5.049,0,9.143,4.093,9.143,9.143c0,5.049-4.093,9.143-9.143,9.143H18.286v18.286h18.286c5.049,0,9.143,4.093,9.143,9.143
				c0,5.049-4.093,9.143-9.143,9.143H18.286v18.286h91.442l-0.003-18.286H91.429z"/>
			<polygon points="45.714,466.295 45.714,512.009 82.299,512.009 82.286,466.295 			"/>
			<polygon points="0,146.295 0,338.295 118.857,338.295 128.013,338.295 128,146.295 			"/>
			<path d="M73.143,9.152c0.025-2.383-0.925-4.673-2.63-6.339C68.823,1.018,66.465,0.003,64,0.009
				c-5.047,0.005-9.138,4.095-9.143,9.143v82.286h18.286V9.152z"/>
			<polygon points="109.714,109.714 82.317,109.717 82.286,109.723 45.714,109.723 45.701,109.721 18.286,109.723 18.286,128.009 
				109.714,128.009 			"/>
			<path d="M283.429,429.723c-5.049,0-9.143-4.093-9.143-9.143c0-5.049,4.093-9.143,9.143-9.143h18.294l-0.002-18.286h-18.291
				c-5.049,0-9.143-4.093-9.143-9.143c0-5.049,4.093-9.143,9.143-9.143h18.289l-0.003-18.286h-91.429v18.286h18.286
				c5.049,0,9.143,4.093,9.143,9.143c0,5.049-4.093,9.143-9.143,9.143h-18.286v18.286h18.286c5.049,0,9.143,4.093,9.143,9.143
				c0,5.049-4.093,9.143-9.143,9.143h-18.286v18.286h91.442l-0.003-18.286H283.429z"/>
			<polygon points="192,146.295 192,338.295 310.857,338.295 320.013,338.295 320,146.295 			"/>
			<path d="M265.143,9.152c0.025-2.383-0.925-4.673-2.63-6.339c-1.69-1.794-4.048-2.809-6.513-2.804
				c-5.047,0.005-9.138,4.095-9.143,9.143v82.286h18.286V9.152z"/>
			<polygon points="237.714,466.295 237.714,512.009 274.299,512.009 274.286,466.295 			"/>
			<polygon points="301.714,109.714 274.317,109.717 274.286,109.723 237.714,109.723 237.701,109.721 210.286,109.723 
				210.286,128.009 301.714,128.009 			"/>
			<polygon points="493.714,109.706 466.348,109.711 466.286,109.723 429.714,109.723 429.688,109.718 402.286,109.723 
				402.286,128.009 493.714,128.009 			"/>
			<path d="M457.143,9.152c0.022-2.382-0.926-4.67-2.625-6.339c-1.693-1.794-4.051-2.809-6.518-2.804
				c-5.048,0.003-9.139,4.095-9.143,9.143v82.286h18.286V9.152z"/>
			<polygon points="429.714,466.295 429.714,512.009 466.304,512.009 466.286,466.295 			"/>
			<polygon points="512,146.295 384,146.295 384,338.295 502.857,338.295 512.018,338.295 			"/>
			<path d="M475.429,429.723c-5.049,0-9.143-4.093-9.143-9.143c0-5.049,4.093-9.143,9.143-9.143h18.296l-0.003-18.286h-18.293
				c-5.049,0-9.143-4.093-9.143-9.143c0-5.049,4.093-9.143,9.143-9.143h18.29l-0.004-18.286h-91.429v18.286h18.286
				c5.049,0,9.143,4.093,9.143,9.143c0,5.049-4.093,9.143-9.143,9.143h-18.286v18.286h18.286c5.049,0,9.143,4.093,9.143,9.143
				c0,5.049-4.093,9.143-9.143,9.143h-18.286v18.286h91.446l-0.003-18.286H475.429z"/>
		</g>
	</g>
</g>
<g>
</g>
<g>
</g>
<g>
</g>
<g>
</g>
<g>
</g>
<g>
</g>
<g>
</g>
<g>
</g>
<g>
</g>
<g>
</g>
<g>
</g>
<g>
</g>
<g>
</g>
<g>
</g>
<g>
</g>
</svg>
