<?xml version="1.0" encoding="iso-8859-1"?>
<!-- Generator: Adobe Illustrator 19.0.0, SVG Export Plug-In . SVG Version: 6.00 Build 0)  -->
<svg version="1.1" id="Capa_1" xmlns="http://www.w3.org/2000/svg" xmlns:xlink="http://www.w3.org/1999/xlink" x="0px" y="0px"
	 viewBox="0 0 512 512" style="enable-background:new 0 0 512 512;" xml:space="preserve">
<g>
	<g>
		<g>
			<path d="M160.982,390.08c0.031-0.087,0.104-0.143,0.137-0.229c0.282-0.621,0.635-1.207,1.051-1.746
				c1.071-2.005,3.04-3.372,5.293-3.674c0.605-0.191,1.229-0.317,1.861-0.375c0.096-0.003,0.177-0.056,0.274-0.056H369.83
				c0.093,0,0.17,0.05,0.262,0.054c0.65,0.058,1.292,0.187,1.914,0.385c1.625,0.48,3.128,1.303,4.407,2.413
				c0.313,0.391,0.594,0.807,0.839,1.244c0.419,0.542,0.773,1.131,1.056,1.755c0.034,0.086,0.106,0.142,0.137,0.229l30.297,85.348
				h61.595L387.03,274.286h-54.503l25.441,79.5c0.061,0.94,0.206,1.872,0.433,2.786c0,0.143-0.074,0.261-0.081,0.402
				c-0.058,0.642-0.186,1.275-0.382,1.888c-0.391,2.255-1.808,4.201-3.834,5.267c-0.533,0.381-1.106,0.7-1.71,0.953
				c-0.129,0.048-0.218,0.153-0.351,0.195c-0.901,0.288-1.84,0.436-2.786,0.437H171.978l-0.015-0.002
				c-0.937,0-1.869-0.143-2.762-0.426c-0.141-0.045-0.234-0.156-0.372-0.208c-0.584-0.247-1.139-0.556-1.656-0.922
				c-2.043-1.064-3.475-3.017-3.874-5.286c-0.196-0.614-0.324-1.248-0.382-1.891c-0.007-0.143-0.082-0.263-0.082-0.409
				c0.227-0.911,0.372-1.84,0.433-2.777l25.362-79.509h-63.288L66,443.839l55.286,31.589h9.399L160.982,390.08z"/>
			<polygon points="64,292.571 99.575,292.571 105.975,274.286 64,274.286 			"/>
			<polygon points="64,479.269 109.714,505.39 109.714,489.874 64,463.753 			"/>
			<path d="M9.143,365.714c0,5.049,4.093,9.143,9.143,9.143c5.049,0,9.143-4.093,9.143-9.143v-9.143H9.143V365.714z"/>
			<polygon points="184.494,347.429 336.731,347.429 327.954,320 193.243,320 			"/>
			<path d="M368.112,134.045c-1.134-3.545-4.399-5.975-8.121-6.045H152.009c-3.722,0.069-6.986,2.499-8.121,6.045l-6.219,18.286
				c-1.017,2.906-0.552,6.125,1.246,8.625c1.565,2.254,4.131,3.603,6.875,3.616h220.42c2.744-0.013,5.31-1.362,6.875-3.616
				c1.797-2.5,2.262-5.719,1.246-8.625L368.112,134.045z"/>
			<path d="M440.817,18.366C436.96,7.372,426.584,0.009,414.933,0H97.067C85.416,0.009,75.04,7.372,71.183,18.366L4,210.286h504
				L440.817,18.366z M256,27.429c26.063,0,45.714,11.794,45.714,27.429c0,15.634-19.652,27.429-45.714,27.429
				c-26.063,0-45.714-11.794-45.714-27.429C210.286,39.223,229.938,27.429,256,27.429z M387.951,171.598
				c-4.973,7.079-13.09,11.283-21.741,11.259H145.79c-8.651,0.024-16.768-4.18-21.741-11.259
				c-5.208-7.304-6.582-16.669-3.692-25.161l6.219-18.286c3.657-10.956,13.883-18.369,25.433-18.437h207.982
				c11.55,0.068,21.776,7.481,25.433,18.438l6.219,18.286C394.532,154.93,393.158,164.294,387.951,171.598z"/>
			<ellipse cx="256" cy="54.857" rx="27.429" ry="9.143"/>
			<rect x="128" y="493.714" width="346.88" height="18.286"/>
			<polygon points="207.826,274.286 199.077,301.714 322.103,301.714 313.326,274.286 			"/>
			<path d="M0,228.571v109.714h83.571l9.6-27.429H64c-10.094-0.012-18.274-8.192-18.286-18.286v-18.286
				C45.726,264.192,53.906,256.012,64,256h384c10.094,0.012,18.274,8.192,18.286,18.286v18.286
				c-0.012,10.094-8.192,18.274-18.286,18.286h-26.025l11.359,27.429H512V228.571H0z"/>
			<path d="M484.571,365.714c0,5.049,4.093,9.143,9.143,9.143c5.049,0,9.143-4.093,9.143-9.143v-9.143h-18.286V365.714z"/>
			<path d="M244.978,431.512c0.506,0.303,0.981,0.655,1.419,1.05c0.322,0.4,0.609,0.827,0.86,1.275
				c0.411,0.535,0.759,1.116,1.038,1.73c0.035,0.089,0.11,0.146,0.142,0.237l14.027,39.625h126.872l-25.964-73.143H176.056
				l-25.964,73.143h30.435l14.107-39.634c0.03-0.084,0.099-0.136,0.131-0.219c0.28-0.621,0.631-1.207,1.046-1.748
				c0.251-0.449,0.539-0.877,0.862-1.278c0.92-0.708,1.869-1.377,2.845-2.004c0.476-0.164,0.964-0.289,1.46-0.374
				c0.653-0.213,1.328-0.349,2.011-0.406c0.091-0.002,0.165-0.051,0.257-0.051h36.571c0.091,0,0.166,0.049,0.256,0.051
				c0.681,0.057,1.354,0.193,2.004,0.404c0.502,0.086,0.995,0.214,1.475,0.382C244.057,430.826,244.534,431.148,244.978,431.512z"/>
			<polygon points="448,274.286 406.83,274.286 414.4,292.571 448,292.571 			"/>
			<polygon points="209.691,448 199.927,475.429 243.063,475.429 233.353,448 			"/>
		</g>
	</g>
</g>
<g>
</g>
<g>
</g>
<g>
</g>
<g>
</g>
<g>
</g>
<g>
</g>
<g>
</g>
<g>
</g>
<g>
</g>
<g>
</g>
<g>
</g>
<g>
</g>
<g>
</g>
<g>
</g>
<g>
</g>
</svg>
