<?xml version="1.0" encoding="iso-8859-1"?>
<!-- Generator: Adobe Illustrator 19.0.0, SVG Export Plug-In . SVG Version: 6.00 Build 0)  -->
<svg version="1.1" id="Capa_1" xmlns="http://www.w3.org/2000/svg" xmlns:xlink="http://www.w3.org/1999/xlink" x="0px" y="0px"
	 viewBox="0 0 512.019 512.019" style="enable-background:new 0 0 512.019 512.019;" xml:space="preserve">
<g transform="translate(-1)">
	<g>
		<g>
			<polygon points="139.661,348.016 164.658,372.985 192.379,336.048 176.781,320.432 			"/>
			<path d="M62.13,374.494l-26.335,61.518c-5.06,11.786-2.436,25.464,6.626,34.541c9.062,9.077,22.736,11.723,34.53,6.682
				l61.455-26.366c-1.103-6.509-10.281-23.893-31.357-44.991C85.997,384.798,68.644,375.61,62.13,374.494z"/>
			<path d="M236.202,250.691h-0.022l-46.228,57.05l15.142,15.157l57.063-46.404l-25.638-25.634
				C236.441,250.763,236.326,250.702,236.202,250.691z"/>
			<path d="M23.711,476.383L23.711,476.383L3.675,496.441c-3.567,3.578-3.567,9.368,0,12.946c3.621,3.429,9.29,3.429,12.911,0
				l20.026-20.051C31.487,485.927,27.099,481.522,23.711,476.383z"/>
			<path d="M508.715,5.932L508.715,5.932c-3.137-3.629-7.664-5.76-12.46-5.866c-5.922-0.131-11.65,2.117-15.902,6.241l-5.509,5.513
				c4.74,4.035,9.307,8.246,13.464,12.407c1.537,1.538,6.526,6.654,12.329,13.519l7.041-7.046
				C514.38,23.955,514.829,13.213,508.715,5.932z"/>
			<path d="M403.457,31.539l-140.59,140.745c16.608,8.414,31.662,19.596,44.513,33.067c13.237,13.066,24.369,28.105,33.001,44.581
				l140.599-140.751c-0.011-5.325-8.929-23.599-31.458-46.151C427.056,40.532,408.815,31.591,403.457,31.539z"/>
			<path d="M429.314,5.655l-11.366,11.378c16.609,8.413,31.662,19.596,44.513,33.069c13.238,13.066,24.372,28.105,33.005,44.581
				l11.379-11.393c-0.067-5.384-9.013-23.652-31.473-46.134C452.934,14.691,434.702,5.735,429.314,5.655z"/>
			<path d="M248.376,186.791L75.474,359.882c16.608,8.415,31.662,19.597,44.514,33.068c13.24,13.063,24.373,28.1,33.003,44.576
				L325.899,264.43c-0.024-5.343-8.942-23.609-31.456-46.15C271.975,195.786,253.737,186.845,248.376,186.791z M273.693,290.682
				L273.693,290.682l-62.58,50.884l-31.571,42.58c-3.13,4.221-7.946,6.866-13.188,7.241c-0.46,0.036-0.915,0.054-1.371,0.054
				c-4.978-0.01-9.748-1.998-13.259-5.527l-24.732-24.759c-3.861-3.846-5.857-9.181-5.469-14.616
				c0.375-5.243,3.013-10.064,7.228-13.205l42.545-31.607l50.826-62.643c3.236-3.975,8.006-6.392,13.125-6.652
				c5.304-0.278,10.475,1.723,14.21,5.5l25.379,25.411c3.756,3.75,5.751,8.913,5.491,14.214
				C280.068,282.673,277.658,287.44,273.693,290.682z"/>
		</g>
	</g>
</g>
<g>
</g>
<g>
</g>
<g>
</g>
<g>
</g>
<g>
</g>
<g>
</g>
<g>
</g>
<g>
</g>
<g>
</g>
<g>
</g>
<g>
</g>
<g>
</g>
<g>
</g>
<g>
</g>
<g>
</g>
</svg>
