<?xml version="1.0" encoding="iso-8859-1"?>
<!-- Generator: Adobe Illustrator 19.0.0, SVG Export Plug-In . SVG Version: 6.00 Build 0)  -->
<svg version="1.1" id="Capa_1" xmlns="http://www.w3.org/2000/svg" xmlns:xlink="http://www.w3.org/1999/xlink" x="0px" y="0px"
	 viewBox="0 0 512 512" style="enable-background:new 0 0 512 512;" xml:space="preserve">
<g>
	<g>
		<g>
			<path d="M200.817,129.893c2.304,2.334,5.682,3.254,8.852,2.412c3.17-0.842,5.646-3.318,6.488-6.488
				c0.842-3.17-0.078-6.548-2.412-8.852l-3.46-3.465l-12.933,12.929L200.817,129.893z"/>
			<path d="M201.143,329.143v-29.925c-10.612,6.395-17.437,17.564-18.286,29.925c0,24.777,33.496,45.714,73.143,45.714
				s73.143-20.937,73.143-45.714c-0.849-12.361-7.674-23.53-18.286-29.925v29.925c0,18.848-28.438,27.429-54.857,27.429
				S201.143,347.991,201.143,329.143z"/>
			<path d="M201.509,45.714h-7.455c0.753,2.736,1.757,5.396,2.999,7.946l6.138,12.275l4.497-4.587
				c3.473-3.644,3.463-9.376-0.022-13.009C206.054,46.665,203.832,45.717,201.509,45.714z"/>
			<circle cx="256" cy="9.143" r="9.143"/>
			<path d="M219.429,246.857v82.286c1.161,2.232,13.893,9.143,36.571,9.143c22.439,0,35.099-6.752,36.571-9.558v-36.571
				C261.412,289.461,256,271.859,256,234.053c0.469-11.68-0.961-23.359-4.237-34.58c-3.737-12.81-5.394-26.138-4.906-39.473
				c0-34.031,26.244-46.606,45.714-49.538v-9.891c0-0.098,0.052-0.179,0.055-0.274c0.201-1.197,0.48-2.38,0.835-3.54
				c0.041-0.089,0.03-0.185,0.074-0.274l6.622-13.243l-8.907-9.087c-10.42-10.739-10.43-27.812-0.022-38.563
				c5.043-5.229,12-8.176,19.264-8.161h8.872c-0.985-7.85-3.995-15.308-8.733-21.643C307.889,2.157,303.61,0.017,299.063,0h-17.319
				c1.084,2.928,1.654,6.021,1.685,9.143c0,15.148-12.28,27.429-27.429,27.429c-15.148,0-27.429-12.28-27.429-27.429
				c0.031-3.122,0.601-6.215,1.685-9.143h-17.319c-4.546,0.012-8.824,2.153-11.558,5.786c-4.74,6.335-7.752,13.793-8.738,21.643
				h8.869c7.261-0.015,14.215,2.928,19.259,8.152c10.403,10.742,10.405,27.801,0.005,38.545l-8.93,9.114l5.961,11.922l8.875,8.875
				c10.686,10.72,10.688,28.064,0.005,38.786h-0.005c-10.72,10.691-28.07,10.691-38.79,0l-8.516-8.516l-15.328,11.123
				C218.799,177.277,219.429,244.036,219.429,246.857z"/>
			<path d="M314.946,53.661c1.243-2.551,2.247-5.211,3-7.946h-7.455c-2.326,0.003-4.551,0.954-6.161,2.634
				c-3.49,3.642-3.488,9.387,0.005,13.027l4.473,4.562L314.946,53.661z"/>
			<path d="M292.571,274.114V129.033c-15.821,1.587-27.763,15.07-27.429,30.967c-0.469,11.68,0.961,23.359,4.237,34.58
				c3.738,12.81,5.394,26.138,4.906,39.473C274.286,268.006,278.081,273.287,292.571,274.114z"/>
			<path d="M393.143,256h-50.661c58.263,18.145,96.376,54.063,96.376,94.268c0,59.929-80.321,106.875-182.857,106.875
				S73.143,410.196,73.143,350.268c0-40.205,38.113-76.123,96.376-94.268h-50.661c-40.377,0.046-73.097,32.766-73.143,73.143v73.143
				c0.046,40.377,32.766,73.097,73.143,73.143h274.286c40.377-0.046,73.097-32.766,73.143-73.143v-73.143
				C466.24,288.766,433.519,256.046,393.143,256z"/>
			<path d="M393.143,493.714H118.857c-26.766-0.008-52.177-11.773-69.499-32.177c9.838,30.064,37.866,50.415,69.499,50.463h274.286
				c31.633-0.048,59.661-20.399,69.499-50.463C445.319,481.941,419.908,493.706,393.143,493.714z"/>
			<path d="M91.429,350.268c0,48.018,75.366,88.589,164.571,88.589s164.571-40.571,164.571-88.589
				c0-37.446-44.617-70.891-109.714-83.378v11.126c22.943,11.94,36.571,30.665,36.571,51.127c0,35.286-41.013,64-91.429,64
				s-91.429-28.714-91.429-64c0-20.462,13.629-39.188,36.571-51.127v-11.127C136.046,279.377,91.429,312.821,91.429,350.268z
				 M374.126,378.33c-0.466,1.106-1.115,2.127-1.92,3.018c-0.889,0.807-1.91,1.456-3.018,1.92c-2.214,0.976-4.737,0.976-6.951,0
				c-2.294-0.836-4.101-2.643-4.937-4.937c-0.97-2.214-0.97-4.733,0-6.946l-0.001-0.001c0.443-1.12,1.096-2.144,1.924-3.018
				c0.447-0.416,0.936-0.784,1.46-1.098c0.466-0.363,0.992-0.641,1.554-0.821c0.519-0.264,1.074-0.45,1.647-0.554
				c3.013-0.612,6.132,0.316,8.322,2.473c0.826,0.875,1.477,1.899,1.92,3.018C375.102,373.596,375.102,376.117,374.126,378.33z
				 M380.522,329.875c1.667-0.732,3.521-0.926,5.304-0.554c0.573,0.103,1.128,0.29,1.647,0.554c0.584,0.197,1.138,0.474,1.647,0.821
				c0.455,0.366,0.911,0.732,1.371,1.098c1.669,1.753,2.616,4.071,2.652,6.491c-0.015,1.194-0.263,2.374-0.732,3.473
				c-0.466,1.107-1.115,2.127-1.92,3.018c-0.889,0.807-1.91,1.456-3.018,1.92c-2.811,1.204-6.041,0.907-8.585-0.79
				c-2.545-1.697-4.061-4.563-4.03-7.621c0.034-2.421,0.981-4.739,2.651-6.491C378.381,330.968,379.404,330.316,380.522,329.875z
				 M359.223,304.366c0.455-0.366,0.911-0.732,1.37-1.098c0.508-0.347,1.061-0.623,1.643-0.821c0.519-0.264,1.074-0.45,1.647-0.554
				c1.782-0.373,3.637-0.179,5.304,0.554c1.119,0.442,2.143,1.094,3.018,1.92c1.669,1.753,2.616,4.071,2.652,6.491
				c0.018,1.189-0.2,2.37-0.643,3.473c-0.531,1.092-1.207,2.107-2.009,3.018c-3.605,3.536-9.377,3.536-12.982,0
				c-0.807-0.89-1.458-1.91-1.924-3.018c-0.467-1.099-0.715-2.279-0.728-3.474C356.605,308.436,357.552,306.118,359.223,304.366z
				 M322.651,395.794c0.888-0.807,1.907-1.456,3.013-1.92c3.41-1.391,7.32-0.638,9.969,1.92c1.669,1.753,2.616,4.071,2.652,6.491
				c0.023,2.432-0.933,4.771-2.651,6.491c-0.889,0.807-1.91,1.456-3.018,1.92c-2.812,1.204-6.041,0.907-8.586-0.789
				c-2.545-1.697-4.061-4.564-4.031-7.622C320.034,399.865,320.981,397.546,322.651,395.794z M284.156,407.955
				c0.421-1.131,1.077-2.159,1.924-3.018c0.434-0.394,0.891-0.761,1.37-1.098c0.508-0.347,1.061-0.623,1.643-0.821
				c0.519-0.264,1.074-0.45,1.647-0.554c3.012-0.598,6.125,0.328,8.322,2.473c0.845,0.86,1.499,1.888,1.92,3.018
				c0.469,1.099,0.717,2.279,0.731,3.474c0.031,1.199-0.22,2.389-0.732,3.473c-0.466,1.106-1.115,2.127-1.92,3.018
				c-0.889,0.807-1.91,1.456-3.018,1.92c-2.214,0.976-4.737,0.976-6.951,0c-2.294-0.836-4.101-2.643-4.937-4.937
				c-0.97-2.214-0.97-4.733,0-6.946L284.156,407.955z M249.509,409.509c0.455-0.366,0.911-0.732,1.37-1.098
				c0.508-0.347,1.061-0.623,1.643-0.821c0.519-0.264,1.074-0.45,1.647-0.554c1.782-0.373,3.637-0.179,5.304,0.554
				c1.108,0.464,2.129,1.113,3.018,1.92c1.669,1.753,2.616,4.071,2.651,6.491c0.023,2.432-0.933,4.771-2.651,6.491
				c-0.889,0.807-1.91,1.456-3.018,1.92c-2.214,0.976-4.737,0.976-6.951,0c-1.107-0.464-2.126-1.113-3.013-1.92
				c-1.721-1.719-2.676-4.059-2.651-6.492C246.891,413.579,247.838,411.261,249.509,409.509z M211.013,407.955
				c0.421-1.131,1.077-2.159,1.924-3.018c0.434-0.394,0.891-0.761,1.371-1.098c0.508-0.347,1.061-0.623,1.643-0.821
				c0.519-0.264,1.074-0.45,1.647-0.554c1.204-0.268,2.452-0.268,3.656,0c0.573,0.103,1.128,0.29,1.647,0.554
				c0.584,0.197,1.138,0.474,1.647,0.821c0.478,0.34,0.935,0.706,1.371,1.098c0.845,0.86,1.499,1.888,1.92,3.018
				c0.469,1.099,0.717,2.279,0.731,3.474c0.031,1.199-0.22,2.389-0.732,3.473c-0.466,1.106-1.115,2.127-1.92,3.018
				c-0.889,0.807-1.91,1.456-3.018,1.92c-2.214,0.976-4.737,0.976-6.951,0c-2.294-0.836-4.101-2.643-4.937-4.937
				c-0.97-2.214-0.97-4.733,0-6.946L211.013,407.955z M176.366,395.794c0.872-0.827,1.895-1.479,3.013-1.92
				c2.226-0.92,4.725-0.92,6.951,0c1.119,0.442,2.143,1.094,3.018,1.92c1.669,1.753,2.616,4.071,2.652,6.491
				c0.006,2.429-0.947,4.761-2.651,6.491c-0.889,0.807-1.91,1.456-3.018,1.92c-2.812,1.204-6.041,0.907-8.586-0.789
				s-4.061-4.564-4.03-7.622C173.748,399.865,174.695,397.546,176.366,395.794z M154.697,378.33h-0.001
				c-0.466,1.106-1.115,2.127-1.92,3.018c-0.889,0.807-1.91,1.456-3.018,1.92c-2.214,0.976-4.737,0.976-6.951,0
				c-2.294-0.836-4.101-2.643-4.937-4.937c-0.97-2.214-0.97-4.733,0-6.946c0.443-1.12,1.096-2.145,1.924-3.019
				c2.188-2.157,5.306-3.084,8.317-2.473c0.573,0.103,1.128,0.29,1.647,0.554c0.584,0.197,1.138,0.474,1.647,0.821
				c0.478,0.34,0.935,0.706,1.371,1.098c0.826,0.875,1.477,1.899,1.92,3.018C155.673,373.596,155.673,376.117,154.697,378.33z
				 M139.794,304.366c0.455-0.366,0.911-0.732,1.37-1.098c0.508-0.347,1.061-0.623,1.643-0.821c0.519-0.264,1.074-0.45,1.647-0.554
				c1.782-0.373,3.637-0.179,5.304,0.554c1.108,0.464,2.129,1.113,3.018,1.92c1.669,1.753,2.616,4.071,2.652,6.491
				c0.031,1.199-0.22,2.389-0.732,3.473c-0.466,1.107-1.115,2.127-1.92,3.018c-3.605,3.536-9.377,3.536-12.982,0
				c-0.807-0.89-1.458-1.91-1.924-3.018c-0.467-1.099-0.714-2.279-0.727-3.473C137.177,308.436,138.124,306.118,139.794,304.366z
				 M121.509,331.794c0.872-0.827,1.895-1.479,3.013-1.92c1.667-0.733,3.521-0.926,5.304-0.554c0.573,0.103,1.128,0.29,1.647,0.554
				c0.584,0.197,1.138,0.474,1.647,0.821c0.455,0.366,0.911,0.732,1.371,1.098c1.669,1.753,2.616,4.071,2.652,6.492
				c0.023,2.432-0.933,4.771-2.651,6.491c-0.889,0.807-1.91,1.456-3.018,1.92c-3.402,1.46-7.349,0.699-9.965-1.92
				c-0.805-0.91-1.482-1.925-2.013-3.018c-0.439-1.105-0.656-2.285-0.638-3.474C118.891,335.865,119.838,333.546,121.509,331.794z"
				/>
		</g>
	</g>
</g>
<g>
</g>
<g>
</g>
<g>
</g>
<g>
</g>
<g>
</g>
<g>
</g>
<g>
</g>
<g>
</g>
<g>
</g>
<g>
</g>
<g>
</g>
<g>
</g>
<g>
</g>
<g>
</g>
<g>
</g>
</svg>
