<?xml version="1.0" encoding="iso-8859-1"?>
<!-- Generator: Adobe Illustrator 19.0.0, SVG Export Plug-In . SVG Version: 6.00 Build 0)  -->
<svg version="1.1" id="Capa_1" xmlns="http://www.w3.org/2000/svg" xmlns:xlink="http://www.w3.org/1999/xlink" x="0px" y="0px"
	 viewBox="0 0 512.007 512.007" style="enable-background:new 0 0 512.007 512.007;" xml:space="preserve">
<g>
	<g>
		<g>
			<path d="M329.147,129.689V76.932l-31.214-31.214h-83.857l-31.214,31.214v52.757c10.95,3.819,18.286,14.147,18.286,25.743
				c0,11.597-7.336,21.924-18.286,25.743v56.542h51.071l-11.822-11.822c-1.715-1.714-2.679-4.039-2.678-6.464v-64
				c0.012-10.094,8.192-18.274,18.286-18.286h36.571c10.094,0.012,18.274,8.192,18.286,18.286v82.286h36.571v-56.542
				c-10.95-3.819-18.286-14.147-18.286-25.743C310.861,143.835,318.197,133.508,329.147,129.689z M283.433,118.861h-54.857
				c-15.148,0-27.429-12.28-27.429-27.429s12.28-27.429,27.429-27.429h54.857c15.148,0,27.429,12.28,27.429,27.429
				S298.581,118.861,283.433,118.861z"/>
			<polygon points="237.719,215.647 259.789,237.718 274.29,237.718 274.29,155.432 237.719,155.432 			"/>
			<ellipse cx="448.004" cy="292.575" rx="18.286" ry="9.143"/>
			<path d="M164.576,173.718c-0.001-2.425,0.962-4.751,2.677-6.466c1.715-1.715,4.041-2.678,6.466-2.677
				c5.049,0,9.143-4.093,9.143-9.143s-4.093-9.143-9.143-9.143c-2.425,0.001-4.751-0.962-6.466-2.677
				c-1.715-1.715-2.678-4.041-2.677-6.466v-64c0-2.425,0.964-4.75,2.679-6.464l36.571-36.571c1.714-1.715,4.039-2.678,6.464-2.679
				h91.429c2.425,0.001,4.75,0.964,6.464,2.679l36.571,36.571c1.715,1.714,2.679,4.039,2.679,6.464v64
				c0.001,2.425-0.962,4.751-2.677,6.466c-1.715,1.715-4.041,2.678-6.466,2.677c-5.049,0-9.143,4.093-9.143,9.143
				s4.093,9.143,9.143,9.143c2.425-0.001,4.751,0.962,6.466,2.677c1.715,1.715,2.678,4.041,2.677,6.466v64h18.286V0.003H146.29
				v237.714h18.286V173.718z M331.799,20.941c2.616-2.637,6.567-3.43,9.997-2.006c3.431,1.424,5.658,4.783,5.637,8.497
				c0.03,3.059-1.486,5.927-4.032,7.624c-2.546,1.697-5.776,1.993-8.588,0.787c-1.107-0.463-2.126-1.112-3.014-1.919
				c-1.721-1.719-2.676-4.059-2.651-6.491C329.181,25.011,330.128,22.693,331.799,20.941z M167.227,20.941
				c2.616-2.637,6.567-3.43,9.997-2.006s5.658,4.783,5.637,8.497c0,5.049-4.093,9.143-9.143,9.143s-9.143-4.093-9.143-9.143
				C164.609,25.011,165.556,22.693,167.227,20.941z"/>
			<path d="M283.433,82.289h-54.857c-5.049,0-9.143,4.093-9.143,9.143c0,5.049,4.093,9.143,9.143,9.143h54.857
				c5.049,0,9.143-4.093,9.143-9.143C292.576,86.382,288.482,82.289,283.433,82.289z"/>
			<path d="M512.007,337.287c-11.999,12.356-28.495,19.317-45.717,19.288H310.861v36.571c-0.012,10.094-8.192,18.274-18.286,18.286
				h-73.143c-10.094-0.012-18.274-8.192-18.286-18.286v-36.571H45.719c-17.216,0.057-33.717-6.886-45.714-19.233v128.948
				l-0.003,0.013l0.003,0.013c0.037,12.116,4.859,23.726,13.415,32.304c8.541,8.605,20.175,13.426,32.299,13.384H466.29
				c12.129,0.039,23.768-4.789,32.308-13.402c8.553-8.572,13.372-20.177,13.406-32.286l0.003-0.013l-0.003-0.013L512.007,337.287z"
				/>
			<rect x="219.433" y="356.575" width="73.143" height="36.571"/>
			<path d="M45.719,338.289H466.29c25.182-0.029,45.609-20.395,45.714-45.576v-0.04c0.003-3.446-0.381-6.881-1.143-10.241
				l-20.754-91.419c-4.72-20.854-23.28-35.64-44.661-35.581h-61.442v82.286h18.286c5.049,0,9.143,4.093,9.143,9.143
				c0,5.049-4.093,9.143-9.143,9.143H109.719c-5.049,0-9.143-4.093-9.143-9.143c0-5.049,4.093-9.143,9.143-9.143h18.286v-82.286
				H70.679c-20.606,0.019-38.662,13.799-44.116,33.67l-24.96,91.438c-3.737,13.748-0.857,28.452,7.792,39.773
				C18.043,331.634,31.472,338.28,45.719,338.289z M448.004,265.146c20.509,0,36.571,12.045,36.571,27.429
				c0,15.384-16.063,27.429-36.571,27.429c-20.509,0-36.571-12.045-36.571-27.429C411.433,277.191,427.495,265.146,448.004,265.146z
				"/>
		</g>
	</g>
</g>
<g>
</g>
<g>
</g>
<g>
</g>
<g>
</g>
<g>
</g>
<g>
</g>
<g>
</g>
<g>
</g>
<g>
</g>
<g>
</g>
<g>
</g>
<g>
</g>
<g>
</g>
<g>
</g>
<g>
</g>
</svg>
