<?xml version="1.0" encoding="iso-8859-1"?>
<!-- Generator: Adobe Illustrator 19.0.0, SVG Export Plug-In . SVG Version: 6.00 Build 0)  -->
<svg version="1.1" id="Capa_1" xmlns="http://www.w3.org/2000/svg" xmlns:xlink="http://www.w3.org/1999/xlink" x="0px" y="0px"
	 viewBox="0 0 512 512" style="enable-background:new 0 0 512 512;" xml:space="preserve">
<g>
	<g>
		<path d="M256,0C114.615,0,0,114.615,0,256s114.615,256,256,256s256-114.615,256-256C511.841,114.681,397.319,0.159,256,0z
			 M301.714,128h27.429c5.049,0,9.143,4.093,9.143,9.143c0,5.049-4.093,9.143-9.143,9.143h-27.429c-5.049,0-9.143-4.093-9.143-9.143
			C292.571,132.093,296.665,128,301.714,128z M201.143,356.571c-5.049,0-9.143-4.093-9.143-9.143s4.093-9.143,9.143-9.143h45.714
			v-45.714c0-5.049,4.093-9.143,9.143-9.143s9.143,4.093,9.143,9.143v45.714h45.714c5.049,0,9.143,4.093,9.143,9.143
			s-4.093,9.143-9.143,9.143h-45.714v45.714c0,5.049-4.093,9.143-9.143,9.143s-9.143-4.093-9.143-9.143v-45.714H201.143z
			 M265.143,182.857c-5.049,0-9.143-4.093-9.143-9.143s4.093-9.143,9.143-9.143h64c2.425-0.001,4.752,0.961,6.466,2.676
			s2.678,4.041,2.676,6.466c0.001,2.425-0.961,4.752-2.676,6.466s-4.041,2.678-6.466,2.676H265.143z M182.857,128h82.286
			c5.049,0,9.143,4.093,9.143,9.143c0,5.049-4.093,9.143-9.143,9.143h-82.286c-5.049,0-9.143-4.093-9.143-9.143
			C173.714,132.093,177.808,128,182.857,128z M71.875,391.571c-4.183,2.828-9.866,1.737-12.705-2.438
			c-19.425-28.544-32.314-61.021-37.75-95.116c-0.792-4.982,2.601-9.664,7.582-10.462s9.667,2.589,10.471,7.569
			c5.014,31.455,16.91,61.415,34.839,87.741C77.144,383.049,76.053,388.734,71.875,391.571z M172.946,469.161
			c-1.459,3.328-4.75,5.477-8.384,5.473c-1.26,0.002-2.507-0.26-3.661-0.768c-25.83-11.309-49.44-27.127-69.723-46.714
			c-3.617-3.509-3.713-9.284-0.214-12.911c3.499-3.627,9.274-3.739,12.91-0.25c18.726,18.081,40.521,32.684,64.366,43.125
			C172.866,459.143,174.973,464.535,172.946,469.161z M176.391,180.181c-1.715-1.715-2.678-4.041-2.676-6.466
			c-0.001-2.425,0.961-4.752,2.676-6.466c1.715-1.715,4.041-2.678,6.467-2.676h45.714c5.049,0,9.143,4.093,9.143,9.143
			s-4.093,9.143-9.143,9.143h-45.714C180.432,182.859,178.106,181.896,176.391,180.181z M464.455,370.116
			C412.663,464.73,303.67,512.627,198.947,486.795c-3.187-0.77-5.718-3.187-6.633-6.336c-0.915-3.148-0.074-6.546,2.203-8.904
			c2.278-2.358,5.644-3.316,8.822-2.511c96.673,23.84,197.283-20.386,245.08-107.732c1.569-2.872,4.552-4.687,7.824-4.76
			s6.333,1.608,8.028,4.407C465.966,363.759,466.036,367.251,464.455,370.116z M481.17,332.071c-1.256,3.714-4.74,6.214-8.661,6.214
			c-2.946,0-5.711-1.42-7.428-3.813c-1.717-2.393-2.176-5.468-1.233-8.258c3.856-11.437,6.759-23.174,8.679-35.089
			c0.804-4.98,5.49-8.367,10.471-7.569c4.981,0.798,8.374,5.48,7.582,10.462C488.502,306.941,485.354,319.669,481.17,332.071z"/>
	</g>
</g>
<g>
</g>
<g>
</g>
<g>
</g>
<g>
</g>
<g>
</g>
<g>
</g>
<g>
</g>
<g>
</g>
<g>
</g>
<g>
</g>
<g>
</g>
<g>
</g>
<g>
</g>
<g>
</g>
<g>
</g>
</svg>
