<?xml version="1.0" encoding="iso-8859-1"?>
<!-- Generator: Adobe Illustrator 19.0.0, SVG Export Plug-In . SVG Version: 6.00 Build 0)  -->
<svg version="1.1" id="Capa_1" xmlns="http://www.w3.org/2000/svg" xmlns:xlink="http://www.w3.org/1999/xlink" x="0px" y="0px"
	 viewBox="0 0 512 512" style="enable-background:new 0 0 512 512;" xml:space="preserve">
<g>
	<g>
		<g>
			<polygon points="393.143,475.429 393.143,512 448.018,512 448,475.429 			"/>
			<path d="M420.571,228.571c5.049,0,9.143-4.093,9.143-9.143v-83.205c-6.036,1.196-12.249,1.196-18.286,0v83.205
				C411.429,224.478,415.522,228.571,420.571,228.571z"/>
			<path d="M448,128v91.429c0,15.148-12.28,27.429-27.429,27.429c-15.148,0-27.429-12.28-27.429-27.429V128h-64v174.625
				c0.04,14.542,5.812,28.481,16.063,38.795l33.464,33.464c3.4,3.421,5.315,8.043,5.33,12.866v32.821h18.286
				c5.049,0,9.143,4.093,9.143,9.143s-4.093,9.143-9.143,9.143H384v18.286h73.143v-18.286h-18.286c-5.049,0-9.143-4.093-9.143-9.143
				s4.093-9.143,9.143-9.143h18.286V387.75c0.016-4.823,1.931-9.445,5.33-12.866l33.464-33.464
				c10.251-10.314,16.022-24.253,16.063-38.795V128H448z"/>
			<rect x="54.857" y="146.286" width="146.286" height="146.286"/>
			<rect x="36.571" y="100.571" width="18.286" height="27.429"/>
			<path d="M54.857,9.143C54.857,4.093,50.764,0,45.714,0s-9.143,4.093-9.143,9.143v73.143h18.286V9.143z"/>
			<path d="M219.429,9.143c0-5.049-4.093-9.143-9.143-9.143c-5.049,0-9.143,4.093-9.143,9.143v73.143h18.286V9.143z"/>
			<rect x="201.143" y="100.571" width="18.286" height="27.429"/>
			<path d="M47.929,370.795c1.676,2.545,4.524,4.073,7.571,4.063h145c3.037,0.013,5.876-1.504,7.554-4.036l39.997-59.964H7.946
				L47.929,370.795z"/>
			<path d="M246.857,146.286h-27.429v146.286h35.91c0.425-2.469,0.646-4.968,0.662-7.473v-129.67
				C255.997,150.38,251.905,146.289,246.857,146.286z"/>
			<path d="M36.571,146.286H9.143c-5.048,0.003-9.14,4.095-9.143,9.143v129.67c0.016,2.505,0.237,5.004,0.662,7.473h35.91V146.286z"
				/>
			<polygon points="100.571,466.286 100.571,512 155.447,512 155.429,466.286 			"/>
			<path d="M91.429,411.429h18.286c5.049,0,9.143,4.093,9.143,9.143c0,5.049-4.093,9.143-9.143,9.143H91.429V448h73.143v-18.286
				h-18.286c-5.049,0-9.143-4.093-9.143-9.143c0-5.049,4.093-9.143,9.143-9.143h18.286v-18.286H91.429V411.429z"/>
		</g>
	</g>
</g>
<g>
</g>
<g>
</g>
<g>
</g>
<g>
</g>
<g>
</g>
<g>
</g>
<g>
</g>
<g>
</g>
<g>
</g>
<g>
</g>
<g>
</g>
<g>
</g>
<g>
</g>
<g>
</g>
<g>
</g>
</svg>
