<?xml version="1.0" encoding="iso-8859-1"?>
<!-- Generator: Adobe Illustrator 19.0.0, SVG Export Plug-In . SVG Version: 6.00 Build 0)  -->
<svg version="1.1" id="Capa_1" xmlns="http://www.w3.org/2000/svg" xmlns:xlink="http://www.w3.org/1999/xlink" x="0px" y="0px"
	 viewBox="0 0 512 512" style="enable-background:new 0 0 512 512;" xml:space="preserve">
<g>
	<g>
		<g>
			<path d="M192,201.143c0.003,5.048,4.095,9.139,9.143,9.143h109.714c5.048-0.003,9.139-4.095,9.143-9.143V192H192V201.143z"/>
			<path d="M192,128c0.003,5.048,4.095,9.139,9.143,9.143h109.714c5.048-0.003,9.139-4.095,9.143-9.143v-9.143H192V128z"/>
			<path d="M256,265.143c-30.297,0-54.857,24.56-54.857,54.857c0,30.297,24.56,54.857,54.857,54.857s54.857-24.56,54.857-54.857
				C310.824,289.717,286.283,265.176,256,265.143z M290.155,333.101c-5.418,14.148-19.005,23.485-34.155,23.47
				c-15.15,0.015-28.737-9.322-34.155-23.47c-5.418-14.148-1.541-30.172,9.744-40.28c2.424-2.193,5.834-2.924,8.943-1.919
				c3.11,1.005,5.447,3.594,6.129,6.79c0.682,3.196-0.394,6.514-2.822,8.701c-5.667,5.047-7.629,13.07-4.928,20.162
				s9.5,11.78,17.089,11.78c7.589,0,14.389-4.687,17.089-11.78s0.739-15.115-4.928-20.162c-2.429-2.187-3.505-5.505-2.822-8.701
				c0.682-3.196,3.019-5.785,6.129-6.79s6.52-0.273,8.943,1.919C291.696,302.929,295.573,318.953,290.155,333.101z"/>
			<path d="M0,45.714V512h82.286V36.571H9.143C4.095,36.575,0.003,40.666,0,45.714z"/>
			<path d="M402.286,0H109.714c-5.048,0.003-9.139,4.095-9.143,9.143V512h310.857V9.143C411.425,4.095,407.334,0.003,402.286,0z
				 M274.286,438.857H192c-5.049,0-9.143-4.093-9.143-9.143s4.093-9.143,9.143-9.143h82.286c5.049,0,9.143,4.093,9.143,9.143
				S279.335,438.857,274.286,438.857z M320,438.857h-9.143c-5.049,0-9.143-4.093-9.143-9.143s4.093-9.143,9.143-9.143H320
				c5.049,0,9.143,4.093,9.143,9.143S325.049,438.857,320,438.857z M256,393.143c-40.396,0-73.143-32.747-73.143-73.143
				s32.747-73.143,73.143-73.143s73.143,32.747,73.143,73.143C329.097,360.377,296.377,393.097,256,393.143z M338.286,201.143
				c-0.016,15.142-12.287,27.412-27.429,27.429H201.143c-15.142-0.016-27.412-12.287-27.429-27.429v-18.286
				c-0.001-2.425,0.961-4.752,2.676-6.467c1.715-1.715,4.041-2.678,6.467-2.676h146.286c2.425-0.001,4.752,0.961,6.466,2.676
				c1.715,1.715,2.678,4.041,2.676,6.467V201.143z M338.286,128c-0.016,15.142-12.287,27.412-27.429,27.429H201.143
				c-15.142-0.017-27.412-12.287-27.429-27.429v-18.286c-0.001-2.425,0.961-4.752,2.676-6.466c1.715-1.715,4.041-2.678,6.467-2.676
				h146.286c2.425-0.001,4.752,0.961,6.466,2.676s2.678,4.041,2.676,6.466V128z M338.286,54.857
				c-0.016,15.142-12.287,27.412-27.429,27.429H201.143c-15.142-0.017-27.412-12.287-27.429-27.429V36.571
				c-0.001-2.425,0.961-4.752,2.676-6.466c1.715-1.715,4.041-2.678,6.467-2.676h146.286c2.425-0.001,4.752,0.961,6.466,2.676
				s2.678,4.041,2.676,6.466V54.857z"/>
			<path d="M502.857,36.571h-73.143V512H512V45.714C511.997,40.666,507.905,36.575,502.857,36.571z"/>
			<path d="M192,54.857c0.003,5.048,4.095,9.14,9.143,9.143h109.714c5.048-0.003,9.139-4.095,9.143-9.143v-9.143H192V54.857z"/>
		</g>
	</g>
</g>
<g>
</g>
<g>
</g>
<g>
</g>
<g>
</g>
<g>
</g>
<g>
</g>
<g>
</g>
<g>
</g>
<g>
</g>
<g>
</g>
<g>
</g>
<g>
</g>
<g>
</g>
<g>
</g>
<g>
</g>
</svg>
