<?xml version="1.0" encoding="iso-8859-1"?>
<!-- Generator: Adobe Illustrator 19.0.0, SVG Export Plug-In . SVG Version: 6.00 Build 0)  -->
<svg version="1.1" id="Capa_1" xmlns="http://www.w3.org/2000/svg" xmlns:xlink="http://www.w3.org/1999/xlink" x="0px" y="0px"
	 viewBox="0 0 512.091 512.091" style="enable-background:new 0 0 512.091 512.091;" xml:space="preserve">
<g>
	<g>
		<g>
			<rect x="45.806" y="320.046" width="64" height="18.286"/>
			<path d="M91.52,411.474c0.015,5.043,4.1,9.128,9.143,9.143h45.714v-64H91.52V411.474z M110.537,389.714
				c0.464-1.108,1.113-2.128,1.92-3.017c2.616-2.637,6.567-3.43,9.998-2.006s5.658,4.783,5.637,8.497
				c0.025,2.432-0.931,4.772-2.651,6.491c-3.071,3.133-7.938,3.637-11.585,1.198C110.208,398.439,108.814,393.749,110.537,389.714z"
				/>
			<polygon points="0,384.046 27.52,384.046 27.52,91.474 7.771,91.474 			"/>
			<polygon points="8.229,73.189 27.52,73.189 27.52,54.903 8.686,54.903 			"/>
			<path d="M429.806,201.189h-256c-5.043,0.015-9.128,4.1-9.143,9.143v237.714c0.015,5.043,4.1,9.128,9.143,9.143h256
				c5.043-0.015,9.128-4.1,9.143-9.143V210.331C438.934,205.288,434.849,201.204,429.806,201.189z M283.52,329.189h-91.429
				c-5.049,0-9.143-4.093-9.143-9.143s4.093-9.143,9.143-9.143h91.429c5.049,0,9.143,4.093,9.143,9.143
				S288.569,329.189,283.52,329.189z M329.234,329.189h-9.143c-5.049,0-9.143-4.093-9.143-9.143s4.093-9.143,9.143-9.143h9.143
				c5.049,0,9.143,4.093,9.143,9.143S334.284,329.189,329.234,329.189z M365.806,274.331c-0.03,10.087-8.199,18.256-18.286,18.286
				H201.234c-10.087-0.03-18.256-8.199-18.286-18.286V237.76c0.029-10.087,8.199-18.256,18.286-18.286H347.52
				c10.087,0.029,18.256,8.199,18.286,18.286V274.331z"/>
			<path d="M502.949,237.76h-45.714v182.857h45.714c5.043-0.015,9.128-4.1,9.143-9.143V246.903
				C512.076,241.86,507.992,237.775,502.949,237.76z M491.154,399.68c-2.616,2.637-6.567,3.43-9.997,2.006
				c-3.431-1.424-5.658-4.783-5.637-8.497c0.035-2.42,0.982-4.739,2.651-6.491c2.19-2.156,5.309-3.082,8.32-2.469
				c0.573,0.1,1.128,0.285,1.646,0.549c0.562,0.182,1.088,0.46,1.554,0.823c0.524,0.314,1.015,0.682,1.463,1.097
				c0.807,0.889,1.456,1.91,1.92,3.017C494.533,393.116,493.772,397.063,491.154,399.68z M491.154,271.68
				c-0.889,0.807-1.91,1.456-3.017,1.92c-3.402,1.459-7.35,0.699-9.967-1.919s-3.377-6.565-1.919-9.967
				c0.442-1.119,1.094-2.143,1.92-3.017l1.371-1.097c0.51-0.346,1.063-0.623,1.646-0.823c0.518-0.264,1.073-0.449,1.646-0.549
				c3.011-0.613,6.13,0.312,8.32,2.469c1.669,1.753,2.616,4.071,2.651,6.491C493.83,267.621,492.875,269.961,491.154,271.68z"/>
			<path d="M91.52,246.903v54.857h54.857v-64h-45.714C95.62,237.775,91.535,241.86,91.52,246.903z M110.537,261.714
				c0.442-1.119,1.094-2.143,1.92-3.017l1.371-1.097c0.51-0.346,1.063-0.623,1.646-0.823c0.518-0.264,1.073-0.449,1.646-0.549
				c3.011-0.613,6.13,0.312,8.32,2.469c0.826,0.874,1.478,1.898,1.92,3.017c1.458,3.402,0.698,7.349-1.92,9.966
				c-0.889,0.807-1.909,1.456-3.017,1.92c-3.402,1.458-7.349,0.698-9.966-1.92c-0.807-0.889-1.456-1.909-1.92-3.017
				c-0.512-1.085-0.763-2.275-0.731-3.474C109.819,263.994,110.068,262.813,110.537,261.714z"/>
			<rect x="201.234" y="237.76" width="146.286" height="36.571"/>
			<rect x="128.091" y="320.046" width="18.286" height="18.286"/>
		</g>
	</g>
</g>
<g>
</g>
<g>
</g>
<g>
</g>
<g>
</g>
<g>
</g>
<g>
</g>
<g>
</g>
<g>
</g>
<g>
</g>
<g>
</g>
<g>
</g>
<g>
</g>
<g>
</g>
<g>
</g>
<g>
</g>
</svg>
