<?xml version="1.0" encoding="iso-8859-1"?>
<!-- Generator: Adobe Illustrator 19.0.0, SVG Export Plug-In . SVG Version: 6.00 Build 0)  -->
<svg version="1.1" id="Capa_1" xmlns="http://www.w3.org/2000/svg" xmlns:xlink="http://www.w3.org/1999/xlink" x="0px" y="0px"
	 viewBox="0 0 512 512" style="enable-background:new 0 0 512 512;" xml:space="preserve">
<g>
	<g>
		<g>
			<path d="M329.143,91.429c-0.015-5.043-4.1-9.128-9.143-9.143H192c-5.043,0.015-9.128,4.1-9.143,9.143v137.143h146.286V91.429z"/>
			<path d="M192,274.286h128c5.043-0.015,9.128-4.1,9.143-9.143v-18.286H182.857v18.286
				C182.872,270.186,186.957,274.271,192,274.286z"/>
			<rect x="384" y="64" width="18.286" height="219.429"/>
			<path d="M347.429,329.143v18.286h54.857v-45.714H384v9.143c-0.03,10.087-8.199,18.256-18.286,18.286H347.429z"/>
			<rect x="384" width="18.286" height="45.714"/>
			<rect x="228.571" y="402.286" width="73.143" height="73.143"/>
			<path d="M164.571,329.143h-18.286c-10.087-0.03-18.256-8.199-18.286-18.286v-9.143h-18.286v45.714h54.857V329.143z"/>
			<path d="M100.571,365.714V499.2C113.189,504.869,170.423,512,256,512c16.091,0,31.086-0.274,44.983-0.731
				c60.526-1.92,100.206-7.497,110.446-12.069V365.714H100.571z M320,475.429c-0.03,10.087-8.199,18.256-18.286,18.286h-73.143
				c-10.087-0.03-18.256-8.199-18.286-18.286v-73.143c0.029-10.087,8.199-18.256,18.286-18.286h73.143
				c10.087,0.029,18.256,8.199,18.286,18.286V475.429z M356.571,411.429c-0.015,5.043-4.1,9.128-9.143,9.143
				c-5.043-0.015-9.128-4.1-9.143-9.143v-18.286c0-5.049,4.093-9.143,9.143-9.143s9.143,4.093,9.143,9.143V411.429z
				 M393.143,411.429c-0.015,5.043-4.1,9.128-9.143,9.143c-5.043-0.015-9.128-4.1-9.143-9.143v-18.286
				c0-5.049,4.093-9.143,9.143-9.143s9.143,4.093,9.143,9.143V411.429z"/>
			<rect x="109.714" width="18.286" height="45.714"/>
			<path d="M182.857,329.143v18.286h146.286v-18.286c0.029-10.087,8.199-18.256,18.286-18.286h18.286v-45.714V0H146.286v265.143
				v45.714h18.286C174.658,310.887,182.828,319.056,182.857,329.143z M164.571,91.429C164.616,76.299,176.87,64.044,192,64h128
				c15.13,0.044,27.384,12.299,27.429,27.429v173.714c-0.044,15.13-12.299,27.384-27.429,27.429H192
				c-15.13-0.044-27.384-12.299-27.429-27.429V91.429z"/>
			<rect x="109.714" y="64" width="18.286" height="219.429"/>
		</g>
	</g>
</g>
<g>
</g>
<g>
</g>
<g>
</g>
<g>
</g>
<g>
</g>
<g>
</g>
<g>
</g>
<g>
</g>
<g>
</g>
<g>
</g>
<g>
</g>
<g>
</g>
<g>
</g>
<g>
</g>
<g>
</g>
</svg>
