<?xml version="1.0" encoding="iso-8859-1"?>
<!-- Generator: Adobe Illustrator 19.0.0, SVG Export Plug-In . SVG Version: 6.00 Build 0)  -->
<svg version="1.1" id="Capa_1" xmlns="http://www.w3.org/2000/svg" xmlns:xlink="http://www.w3.org/1999/xlink" x="0px" y="0px"
	 viewBox="0 0 512 512" style="enable-background:new 0 0 512 512;" xml:space="preserve">
<g>
	<g>
		<g>
			<rect x="164.608" y="438.857" width="182.857" height="18.286"/>
			<polygon points="73.189,146.24 73.179,0 54.327,0 45.751,219.438 73.106,219.429 73.189,219.392 73.189,182.912 73.179,182.857 
				73.179,146.286 			"/>
			<rect x="91.465" y="155.429" width="18.286" height="18.286"/>
			<polygon points="457.819,0.009 438.967,0 438.894,219.429 466.249,219.429 			"/>
			<path d="M356.608,109.714H155.465c-15.142,0.017-27.412,12.287-27.429,27.429v347.429c0.017,15.142,12.287,27.412,27.429,27.429
				h201.143c15.142-0.016,27.412-12.287,27.429-27.429V137.143C384.02,122.001,371.75,109.731,356.608,109.714z M329.179,155.429
				h18.286c5.049,0,9.143,4.093,9.143,9.143c0,5.049-4.093,9.143-9.143,9.143h-18.286c-5.049,0-9.143-4.093-9.143-9.143
				C320.037,159.522,324.13,155.429,329.179,155.429z M274.322,155.429h18.286c5.049,0,9.143,4.093,9.143,9.143
				c0,5.049-4.093,9.143-9.143,9.143h-18.286c-5.049,0-9.143-4.093-9.143-9.143C265.179,159.522,269.273,155.429,274.322,155.429z
				 M219.465,155.429h18.286c5.049,0,9.143,4.093,9.143,9.143c0,5.049-4.093,9.143-9.143,9.143h-18.286
				c-5.049,0-9.143-4.093-9.143-9.143C210.322,159.522,214.416,155.429,219.465,155.429z M164.608,155.429h18.286
				c5.049,0,9.143,4.093,9.143,9.143c0,5.049-4.093,9.143-9.143,9.143h-18.286c-5.049,0-9.143-4.093-9.143-9.143
				C155.465,159.522,159.559,155.429,164.608,155.429z M365.751,457.143c-0.012,10.094-8.192,18.274-18.286,18.286H164.608
				c-10.094-0.012-18.274-8.192-18.286-18.286v-18.286c0.012-10.094,8.192-18.274,18.286-18.286h182.857
				c10.094,0.012,18.274,8.192,18.286,18.286V457.143z"/>
			<rect x="402.322" y="155.429" width="18.286" height="18.286"/>
		</g>
	</g>
</g>
<g>
</g>
<g>
</g>
<g>
</g>
<g>
</g>
<g>
</g>
<g>
</g>
<g>
</g>
<g>
</g>
<g>
</g>
<g>
</g>
<g>
</g>
<g>
</g>
<g>
</g>
<g>
</g>
<g>
</g>
</svg>
