<?xml version="1.0" encoding="iso-8859-1"?>
<!-- Generator: Adobe Illustrator 19.0.0, SVG Export Plug-In . SVG Version: 6.00 Build 0)  -->
<svg version="1.1" id="Capa_1" xmlns="http://www.w3.org/2000/svg" xmlns:xlink="http://www.w3.org/1999/xlink" x="0px" y="0px"
	 viewBox="0 0 512.001 512.001" style="enable-background:new 0 0 512.001 512.001;" xml:space="preserve">
<g>
	<g>
		<g>
			<path d="M365.715,292.572c-40.396,0-73.143,32.747-73.143,73.143s32.747,73.143,73.143,73.143s73.143-32.747,73.143-73.143
				C438.804,325.341,406.088,292.625,365.715,292.572z M327.497,392.412c-1.165,0.462-2.404,0.709-3.657,0.731
				c-3.648,0.015-6.954-2.142-8.411-5.486c-1.568-3.515-2.733-7.195-3.474-10.971c-0.67-3.208,0.428-6.529,2.878-8.705
				c2.45-2.176,5.877-2.876,8.983-1.833c3.107,1.043,5.418,3.668,6.059,6.881c0.539,2.502,1.304,4.95,2.286,7.314
				C334.189,384.964,332.106,390.356,327.497,392.412z M365.715,329.143c-11.522-0.045-22.38,5.384-29.257,14.629
				c-1.726,2.303-4.436,3.658-7.314,3.657c-1.975-0.018-3.895-0.658-5.486-1.829c-4.026-3.038-4.842-8.756-1.829-12.8
				c10.41-13.754,26.637-21.867,43.886-21.943c5.049,0,9.143,4.093,9.143,9.143C374.857,325.05,370.764,329.143,365.715,329.143z"/>
			<polygon points="420.663,137.143 420.572,137.143 420.572,143.269 			"/>
			<path d="M406.126,45.715H105.875l-2.926,18.286h60.526c5.838-0.045,11.396,2.499,15.177,6.949
				c3.413,3.945,4.858,9.221,3.931,14.354l-3.291,18.286c-1.808,9.06-9.873,15.504-19.109,15.269H94.355l-2.926,18.286h329.143
				L406.126,45.715z M236.983,94.903c-0.464,1.108-1.113,2.128-1.92,3.017c-2.617,2.618-6.564,3.378-9.966,1.92
				c-2.296-0.833-4.104-2.641-4.937-4.937c-0.512-1.085-0.763-2.275-0.731-3.474c0.016-0.613,0.077-1.224,0.183-1.829
				c0.099-0.573,0.284-1.128,0.549-1.646c0.2-0.583,0.476-1.136,0.823-1.646c0.338-0.479,0.704-0.937,1.097-1.371
				c2.649-2.555,6.557-3.308,9.966-1.92c1.107,0.464,2.128,1.113,3.017,1.92c0.393,0.435,0.76,0.893,1.097,1.371
				c0.346,0.509,0.623,1.063,0.823,1.646c0.264,0.518,0.449,1.073,0.549,1.646c0.106,0.604,0.167,1.215,0.183,1.829
				C237.746,92.628,237.495,93.818,236.983,94.903z M288,118.858c-16.367,1.129-30.613-11.082-32-27.429
				c1.387-16.347,15.633-28.558,32-27.429c16.367-1.129,30.613,11.081,32,27.429C318.613,107.776,304.367,119.987,288,118.858z
				 M355.84,94.903c-0.464,1.108-1.113,2.128-1.92,3.017c-3.606,3.536-9.377,3.536-12.983,0c-0.807-0.889-1.456-1.909-1.92-3.017
				c-0.469-1.099-0.718-2.279-0.731-3.474c0.016-0.613,0.077-1.224,0.183-1.829c0.099-0.573,0.284-1.128,0.549-1.646
				c0.2-0.583,0.477-1.136,0.823-1.646l1.097-1.371c3.667-3.383,9.316-3.383,12.983,0l1.097,1.371
				c0.346,0.509,0.623,1.063,0.823,1.646c0.264,0.518,0.449,1.073,0.549,1.646c0.106,0.604,0.167,1.215,0.183,1.829
				C356.558,92.624,356.31,93.805,355.84,94.903z"/>
			<path d="M510.72,270.629c0-0.091-0.091-0.183-0.091-0.274c-6.2-29.654-32.334-50.904-62.629-50.926H64
				c-30.295,0.022-56.429,21.272-62.629,50.926c0,0.091-0.091,0.183-0.091,0.274c-0.847,4.214-1.275,8.502-1.28,12.8v164.571
				c0.039,35.33,28.67,63.961,64,64h384c35.33-0.039,63.961-28.67,64-64V283.429C511.996,279.131,511.567,274.843,510.72,270.629z
				 M219.429,420.572c-0.044,15.13-12.299,27.384-27.429,27.429H45.715c-15.13-0.044-27.384-12.299-27.429-27.429V310.858
				c0.044-15.13,12.299-27.384,27.429-27.429H192c15.13,0.044,27.384,12.299,27.429,27.429V420.572z M365.715,493.715
				c-70.692,0-128-57.308-128-128s57.308-128,128-128s128,57.308,128,128C493.637,436.375,436.375,493.637,365.715,493.715z"/>
			<path d="M174.995,201.143l6.949-45.714H91.429c-5.353,0.034-10.444-2.31-13.897-6.4c-3.479-4.06-5.014-9.435-4.206-14.72
				l14.537-91.429c1.327-8.912,9.001-15.496,18.011-15.451h300.251c9.01-0.044,16.685,6.539,18.011,15.451l14.537,91.429
				c0.809,5.285-0.727,10.66-4.206,14.72c-3.453,4.09-8.545,6.434-13.897,6.4h-90.514l6.949,45.714H448
				c20.317-0.013,39.91,7.55,54.949,21.211L476.16,53.943c-4.809-31.137-31.671-54.073-63.177-53.943H99.017
				C67.511-0.13,40.649,22.806,35.84,53.943L9.052,222.355C24.091,208.694,43.683,201.131,64,201.143H174.995z"/>
			<path d="M288,82.286c-7.314,0-13.714,4.297-13.714,9.143s6.4,9.143,13.714,9.143s13.714-4.297,13.714-9.143
				S295.315,82.286,288,82.286z"/>
			<path d="M36.572,420.572c0.015,5.043,4.1,9.128,9.143,9.143H192c5.043-0.015,9.128-4.1,9.143-9.143v-9.143H36.572V420.572z"/>
			<rect x="36.572" y="338.286" width="164.571" height="18.286"/>
			<rect x="36.572" y="374.858" width="164.571" height="18.286"/>
			<polygon points="193.463,201.143 318.537,201.143 311.497,155.429 200.503,155.429 			"/>
			<path d="M192,301.715H45.715c-5.043,0.015-9.128,4.1-9.143,9.143v9.143h164.571v-9.143
				C201.128,305.815,197.043,301.73,192,301.715z"/>
			<path d="M365.715,256.001C305.121,256.001,256,305.121,256,365.715c0,60.594,49.121,109.714,109.714,109.714
				c60.594,0,109.714-49.121,109.714-109.714C475.381,305.141,426.288,256.049,365.715,256.001z M365.715,457.143
				c-50.495,0-91.429-40.934-91.429-91.429c0-50.495,40.934-91.429,91.429-91.429c50.495,0,91.429,40.934,91.429,91.429
				C457.06,416.175,416.175,457.06,365.715,457.143z"/>
			<path d="M161.372,100.206l3.2-17.92c-0.091,0.183-0.549,0-1.097,0h-63.36l-2.926,18.286l62.994,0
				C160.608,100.578,161.024,100.45,161.372,100.206z"/>
		</g>
	</g>
</g>
<g>
</g>
<g>
</g>
<g>
</g>
<g>
</g>
<g>
</g>
<g>
</g>
<g>
</g>
<g>
</g>
<g>
</g>
<g>
</g>
<g>
</g>
<g>
</g>
<g>
</g>
<g>
</g>
<g>
</g>
</svg>
