<?xml version="1.0" encoding="iso-8859-1"?>
<!-- Generator: Adobe Illustrator 19.0.0, SVG Export Plug-In . SVG Version: 6.00 Build 0)  -->
<svg version="1.1" id="Capa_1" xmlns="http://www.w3.org/2000/svg" xmlns:xlink="http://www.w3.org/1999/xlink" x="0px" y="0px"
	 viewBox="0 0 512 512" style="enable-background:new 0 0 512 512;" xml:space="preserve">
<g>
	<g>
		<g>
			<path d="M146.665,70.705L101.04,235.277h-0.004c-0.763,2.752-0.196,5.703,1.534,7.976s4.423,3.606,7.279,3.604h10.281L170.831,64
				h-15.358C151.367,64.011,147.769,66.75,146.665,70.705z"/>
			<path d="M493.714,310.857c3.319,0.048,6.616,0.553,9.797,1.502l-38.266-147.788h-54.906l18.245,65.813
				c2.288,8.258,0.587,17.111-4.6,23.932c-5.187,6.821-13.263,10.826-21.833,10.827H109.848
				c-8.569-0.001-16.646-4.006-21.833-10.827c-5.187-6.821-6.889-15.674-4.6-23.932L129.04,65.813
				c3.321-11.86,14.117-20.069,26.433-20.098h201.054c12.316,0.029,23.112,8.238,26.433,20.098l7.102,25.616h56.246l-20.125-77.723
				C424.096,5.636,416.817,0,408.482,0H103.518c-8.334,0-15.614,5.636-17.701,13.705L8.488,312.359
				c3.181-0.949,6.478-1.455,9.797-1.502H493.714z"/>
			<polygon points="210.103,64 189.815,64 139.109,246.857 173.531,246.857 			"/>
			<rect x="18.286" y="493.714" width="27.429" height="18.286"/>
			<rect x="466.286" y="493.714" width="27.429" height="18.286"/>
			<polygon points="246.857,64 228.754,64 192.183,246.857 246.857,246.857 			"/>
			<path d="M402.152,246.857c2.856,0.002,5.549-1.331,7.279-3.604c1.73-2.273,2.297-5.224,1.534-7.976L365.335,70.705
				c-1.104-3.955-4.702-6.695-8.808-6.705h-15.358l50.703,182.857H402.152z"/>
			<polygon points="372.891,246.857 322.185,64 301.897,64 338.469,246.857 			"/>
			<polygon points="405.266,146.286 460.507,146.286 451.045,109.714 395.127,109.714 			"/>
			<polygon points="265.143,64 265.143,246.857 319.817,246.857 283.246,64 			"/>
			<path d="M420.571,402.286c2.425-0.001,4.751,0.962,6.466,2.677c1.715,1.715,2.678,4.041,2.677,6.466v9.143H448v-9.143
				c-0.001-2.425,0.962-4.751,2.677-6.466c1.715-1.715,4.041-2.678,6.466-2.677V384h-36.571V402.286z"/>
			<path d="M329.143,402.286c2.425-0.001,4.751,0.962,6.466,2.677c1.715,1.715,2.678,4.041,2.677,6.466v9.143h18.286v-9.143
				c-0.001-2.425,0.962-4.751,2.677-6.466c1.715-1.715,4.041-2.678,6.466-2.677V384h-36.571V402.286z"/>
			<path d="M493.714,329.143H18.286C8.192,329.154,0.012,337.334,0,347.429v109.714c0.012,10.094,8.192,18.274,18.286,18.286
				h475.429c10.094-0.012,18.274-8.192,18.286-18.286V347.429C511.988,337.334,503.808,329.154,493.714,329.143z M109.714,411.429
				c0.001,2.425-0.962,4.751-2.677,6.466c-1.715,1.715-4.041,2.678-6.466,2.677v9.143c0.001,2.425-0.962,4.751-2.677,6.466
				c-1.715,1.715-4.041,2.678-6.466,2.677H54.857c-2.425,0.001-4.751-0.962-6.466-2.677c-1.715-1.715-2.678-4.041-2.677-6.466
				v-9.143c-2.425,0.001-4.751-0.962-6.466-2.677c-1.715-1.715-2.678-4.041-2.677-6.466v-36.571
				c-0.001-2.425,0.962-4.751,2.677-6.466c1.715-1.715,4.041-2.678,6.466-2.677h54.857c2.425-0.001,4.751,0.962,6.466,2.677
				c1.715,1.715,2.678,4.041,2.677,6.466V411.429z M201.143,429.714c0.001,2.425-0.962,4.751-2.677,6.466
				c-1.715,1.715-4.041,2.678-6.466,2.677h-54.857c-2.425,0.001-4.751-0.962-6.466-2.677c-1.715-1.715-2.678-4.041-2.677-6.466
				v-36.571c-0.001-2.425,0.962-4.751,2.677-6.466c1.715-1.715,4.041-2.678,6.466-2.677v-9.143
				c-0.001-2.425,0.962-4.751,2.677-6.466c1.715-1.715,4.041-2.678,6.466-2.677h36.571c2.425-0.001,4.751,0.962,6.466,2.677
				c1.715,1.715,2.678,4.041,2.677,6.466V384c2.425-0.001,4.751,0.962,6.466,2.677c1.715,1.715,2.678,4.041,2.677,6.466V429.714z
				 M292.571,429.714c0.001,2.425-0.962,4.751-2.677,6.466c-1.715,1.715-4.041,2.678-6.466,2.677h-54.857
				c-2.425,0.001-4.751-0.962-6.466-2.677c-1.715-1.715-2.678-4.041-2.677-6.466v-36.571c-0.001-2.425,0.962-4.751,2.677-6.466
				c1.715-1.715,4.041-2.678,6.466-2.677v-9.143c-0.001-2.425,0.962-4.751,2.677-6.466c1.715-1.715,4.041-2.678,6.466-2.677h36.571
				c2.425-0.001,4.751,0.962,6.466,2.677c1.715,1.715,2.678,4.041,2.677,6.466V384c2.425-0.001,4.751,0.962,6.466,2.677
				c1.715,1.715,2.678,4.041,2.677,6.466V429.714z M384,411.429c0.001,2.425-0.962,4.751-2.677,6.466
				c-1.715,1.715-4.041,2.678-6.466,2.677v9.143c0.001,2.425-0.962,4.751-2.677,6.466c-1.715,1.715-4.041,2.678-6.466,2.677h-36.571
				c-2.425,0.001-4.751-0.962-6.466-2.677c-1.715-1.715-2.678-4.041-2.677-6.466v-9.143c-2.425,0.001-4.751-0.962-6.466-2.677
				c-1.715-1.715-2.678-4.041-2.677-6.466v-36.571c-0.001-2.425,0.962-4.751,2.677-6.466c1.715-1.715,4.041-2.678,6.466-2.677
				h54.857c2.425-0.001,4.751,0.962,6.466,2.677c1.715,1.715,2.678,4.041,2.677,6.466V411.429z M475.429,411.429
				c0.001,2.425-0.962,4.751-2.677,6.466c-1.715,1.715-4.041,2.678-6.466,2.677v9.143c0.001,2.425-0.962,4.751-2.677,6.466
				c-1.715,1.715-4.041,2.678-6.466,2.677h-36.571c-2.425,0.001-4.751-0.962-6.466-2.677c-1.715-1.715-2.678-4.041-2.677-6.466
				v-9.143c-2.425,0.001-4.751-0.962-6.466-2.677c-1.715-1.715-2.678-4.041-2.677-6.466v-36.571
				c-0.001-2.425,0.962-4.751,2.677-6.466c1.715-1.715,4.041-2.678,6.466-2.677h54.857c2.425-0.001,4.751,0.962,6.466,2.677
				c1.715,1.715,2.678,4.041,2.677,6.466V411.429z"/>
			<path d="M54.857,402.286c2.425-0.001,4.751,0.962,6.466,2.677c1.715,1.715,2.678,4.041,2.677,6.466v9.143h18.286v-9.143
				c-0.001-2.425,0.962-4.751,2.677-6.466c1.715-1.715,4.041-2.678,6.466-2.677V384H54.857V402.286z"/>
			<path d="M265.143,393.143V384h-18.286v9.143c0.001,2.425-0.962,4.751-2.677,6.466c-1.715,1.715-4.041,2.678-6.466,2.677v18.286
				h36.571v-18.286c-2.425,0.001-4.751-0.962-6.466-2.677C266.105,397.894,265.142,395.568,265.143,393.143z"/>
			<path d="M173.714,393.143V384h-18.286v9.143c0.001,2.425-0.962,4.751-2.677,6.466c-1.715,1.715-4.041,2.678-6.466,2.677v18.286
				h36.571v-18.286c-2.425,0.001-4.751-0.962-6.466-2.677C174.677,397.894,173.714,395.568,173.714,393.143z"/>
		</g>
	</g>
</g>
<g>
</g>
<g>
</g>
<g>
</g>
<g>
</g>
<g>
</g>
<g>
</g>
<g>
</g>
<g>
</g>
<g>
</g>
<g>
</g>
<g>
</g>
<g>
</g>
<g>
</g>
<g>
</g>
<g>
</g>
</svg>
