<?xml version="1.0" encoding="iso-8859-1"?>
<!-- Generator: Adobe Illustrator 19.0.0, SVG Export Plug-In . SVG Version: 6.00 Build 0)  -->
<svg version="1.1" id="Capa_1" xmlns="http://www.w3.org/2000/svg" xmlns:xlink="http://www.w3.org/1999/xlink" x="0px" y="0px"
	 viewBox="0 0 503.053 503.053" style="enable-background:new 0 0 503.053 503.053;" xml:space="preserve">
<g>
	<g>
		<g>
			<path d="M125.772,35.93h-8.982c-4.959,0.005-8.978,4.024-8.982,8.982v8.982h17.965V35.93z"/>
			<path d="M206.614,260.491c-4.959,0.005-8.977,4.024-8.982,8.982v8.982h107.789v-8.982c-0.005-4.959-4.024-8.978-8.982-8.982
				H206.614z"/>
			<path d="M125.772,71.86h-35.93c-4.959,0.005-8.978,4.024-8.982,8.982v53.895h44.912V71.86z"/>
			<path d="M100.793,206.596l3.878-15.518c2.989-12.003,13.775-20.424,26.145-20.412h241.421
				c12.367-0.012,23.151,8.404,26.145,20.403l3.878,15.526h73.828c5.906,0.001,11.752,1.175,17.201,3.453l-20.6-79.988
				c-2.085-7.823-9.162-13.273-17.259-13.289h-15.272v17.965h8.982c4.961,0,8.982,4.022,8.982,8.982s-4.022,8.982-8.982,8.982
				H53.912c-4.961,0-8.982-4.022-8.982-8.982s4.022-8.982,8.982-8.982h8.982v-17.965H47.623
				c-8.117,0.023-15.205,5.501-17.271,13.351L9.765,210.049c5.448-2.278,11.295-3.451,17.2-3.453H100.793z"/>
			<path d="M377.281,278.456c4.959-0.005,8.978-4.024,8.982-8.982v-44.912H116.79v44.912c0.005,4.959,4.024,8.977,8.982,8.982
				h53.895v-8.982c0.016-14.876,12.071-26.931,26.947-26.947h89.825c14.876,0.016,26.931,12.071,26.947,26.947v8.982H377.281z"/>
			<path d="M395.246,44.912c-0.005-4.959-4.024-8.978-8.982-8.982h-8.982v17.965h17.965V44.912z"/>
			<rect x="143.737" width="215.579" height="134.737"/>
			<path d="M422.193,80.842c-0.005-4.959-4.024-8.977-8.982-8.982h-35.93v62.877h44.912V80.842z"/>
			<path d="M0.018,431.158c0.016,14.876,12.071,26.931,26.947,26.947H80.86v-80.842c0.016-14.876,12.071-26.931,26.947-26.947
				h287.439c14.876,0.016,26.931,12.071,26.947,26.947v80.842h53.895c14.876-0.016,26.931-12.071,26.947-26.947v-98.807H0.018
				V431.158z"/>
			<path d="M395.246,368.281H107.807c-4.959,0.005-8.977,4.024-8.982,8.982v8.982h305.404v-8.982
				C404.223,372.304,400.204,368.286,395.246,368.281z"/>
			<circle cx="44.93" cy="269.474" r="8.982"/>
			<path d="M372.237,188.632H130.815c-4.124-0.004-7.72,2.804-8.715,6.807l-2.789,11.158h264.43l-2.789-11.167
				C379.953,191.431,376.358,188.627,372.237,188.632z"/>
			<path d="M476.088,224.561h-71.86v44.912c-0.016,14.876-12.072,26.931-26.947,26.947H125.772
				c-14.876-0.016-26.931-12.072-26.947-26.947v-44.912h-71.86c-14.876,0.016-26.931,12.071-26.947,26.947v62.877h503.018v-62.877
				C503.019,236.633,490.964,224.578,476.088,224.561z M44.93,296.421c-14.883,0-26.947-12.065-26.947-26.947
				s12.065-26.947,26.947-26.947s26.947,12.065,26.947,26.947C71.861,284.35,59.806,296.405,44.93,296.421z"/>
			<polygon points="98.825,404.211 98.825,458.105 108.876,458.105 121.514,404.211 			"/>
			<path d="M139.969,404.211l-23.18,98.842l269.325-0.035c0.044,0,0.132,0,0.167-0.07l-23.197-98.737H139.969z"/>
			<polygon points="394.177,458.105 404.228,458.105 404.228,404.211 381.538,404.211 			"/>
		</g>
	</g>
</g>
<g>
</g>
<g>
</g>
<g>
</g>
<g>
</g>
<g>
</g>
<g>
</g>
<g>
</g>
<g>
</g>
<g>
</g>
<g>
</g>
<g>
</g>
<g>
</g>
<g>
</g>
<g>
</g>
<g>
</g>
</svg>
