<?xml version="1.0" encoding="iso-8859-1"?>
<!-- Generator: Adobe Illustrator 19.0.0, SVG Export Plug-In . SVG Version: 6.00 Build 0)  -->
<svg version="1.1" id="Capa_1" xmlns="http://www.w3.org/2000/svg" xmlns:xlink="http://www.w3.org/1999/xlink" x="0px" y="0px"
	 viewBox="0 0 512 512" style="enable-background:new 0 0 512 512;" xml:space="preserve">
<g>
	<g>
		<g>
			<rect x="36.571" y="146.286" width="18.286" height="18.286"/>
			<rect x="146.286" width="18.286" height="18.286"/>
			<rect width="18.286" height="18.286"/>
			<rect x="219.429" width="18.286" height="18.286"/>
			<rect x="73.143" width="18.286" height="18.286"/>
			<path d="M374.857,256c-0.015-5.043-4.1-9.128-9.143-9.143c-5.049,0-9.143,4.093-9.143,9.143s4.093,9.143,9.143,9.143
				S374.857,261.049,374.857,256z"/>
			<path d="M411.429,256c0-25.247-20.467-45.714-45.714-45.714c-3.072,0.059-6.132,0.395-9.143,1.006v18.926
				c11.386-4.134,24.136-0.309,31.367,9.409s7.231,23.029,0,32.747s-19.98,13.543-31.367,9.409v18.926
				c3.011,0.611,6.071,0.947,9.143,1.006C390.962,301.714,411.429,281.247,411.429,256z"/>
			<path d="M27.429,466.286V265.143c-0.015-5.043-4.1-9.128-9.143-9.143H0v219.429h18.286
				C23.329,475.414,27.414,471.329,27.429,466.286z"/>
			<path d="M338.286,0h-45.714v173.714c-0.009,25.244-20.471,45.705-45.714,45.714H0v18.286h18.286
				c15.13,0.044,27.384,12.299,27.429,27.429v201.143c-0.044,15.13-12.299,27.384-27.429,27.429H0V512h306.103
				c18.944-1.298,33.304-17.616,32.183-36.571V0z"/>
			<path d="M365.714,109.714c-3.017,0-6.126,0.091-9.143,0.274v82.834c3.022-0.505,6.079-0.78,9.143-0.823c35.346,0,64,28.654,64,64
				c0,35.346-28.654,64-64,64c-3.064-0.043-6.12-0.318-9.143-0.823v82.834c3.017,0.183,6.126,0.274,9.143,0.274
				C446.506,402.286,512,336.791,512,256S446.506,109.714,365.714,109.714z M446.08,168.046c-1.748,2.204-4.41,3.484-7.223,3.474
				c-2.048-0.007-4.038-0.681-5.669-1.92c-16.956-13.373-37.526-21.366-59.063-22.949c-5.026-0.449-8.768-4.84-8.411-9.874
				c0.188-2.427,1.336-4.679,3.189-6.258c1.853-1.579,4.259-2.354,6.685-2.153c25.118,1.937,49.102,11.257,68.937,26.789
				C448.481,158.304,449.173,164.046,446.08,168.046z M475.337,209.28c-1.306,0.654-2.745,0.998-4.206,1.006
				c-3.416-0.018-6.543-1.916-8.137-4.937c-1.463-2.834-3.109-5.669-4.846-8.411c-1.769-2.744-1.939-6.224-0.445-9.127
				c1.494-2.903,4.425-4.787,7.686-4.941c3.261-0.154,6.357,1.445,8.118,4.193c2.103,3.2,3.931,6.491,5.76,9.874
				C481.554,201.434,479.802,206.933,475.337,209.28z"/>
			<path d="M274.286,173.714V0H256v18.286c-0.03,10.087-8.199,18.256-18.286,18.286h-18.286
				c-10.087-0.03-18.256-8.199-18.286-18.286V0h-18.286v18.286c-0.03,10.087-8.199,18.256-18.286,18.286h-18.286
				c-10.087-0.03-18.256-8.199-18.286-18.286V0h-18.286v18.286c-0.03,10.087-8.199,18.256-18.286,18.286H73.143
				c-10.087-0.03-18.256-8.199-18.286-18.286V0H36.571v18.286c-0.03,10.087-8.199,18.256-18.286,18.286H0v164.571h246.857
				C261.987,201.099,274.241,188.844,274.286,173.714z M36.571,73.143h18.286v18.286H36.571V73.143z M73.143,164.571
				c-0.03,10.087-8.199,18.256-18.286,18.286H36.571c-10.087-0.03-18.256-8.199-18.286-18.286v-18.286
				c0.029-10.087,8.199-18.256,18.286-18.286h18.286c10.087,0.029,18.256,8.199,18.286,18.286V164.571z M164.571,73.143
				c0.029-10.087,8.199-18.256,18.286-18.286h54.857c10.087,0.029,18.256,8.199,18.286,18.286v18.286
				c-0.03,10.087-8.199,18.256-18.286,18.286h-54.857c-10.087-0.03-18.256-8.199-18.286-18.286V73.143z M91.429,73.143
				c0.029-10.087,8.199-18.256,18.286-18.286H128c10.087,0.029,18.256,8.199,18.286,18.286v18.286
				c-0.03,10.087-8.199,18.256-18.286,18.286h-18.286c-10.087-0.03-18.256-8.199-18.286-18.286V73.143z M109.714,182.857
				c-10.087-0.03-18.256-8.199-18.286-18.286v-18.286c0.029-10.087,8.199-18.256,18.286-18.286h128
				c10.087,0.029,18.256,8.199,18.286,18.286v18.286c-0.03,10.087-8.199,18.256-18.286,18.286H109.714z"/>
			<rect x="109.714" y="73.143" width="18.286" height="18.286"/>
			<rect x="182.857" y="73.143" width="54.857" height="18.286"/>
			<rect x="109.714" y="146.286" width="128" height="18.286"/>
		</g>
	</g>
</g>
<g>
</g>
<g>
</g>
<g>
</g>
<g>
</g>
<g>
</g>
<g>
</g>
<g>
</g>
<g>
</g>
<g>
</g>
<g>
</g>
<g>
</g>
<g>
</g>
<g>
</g>
<g>
</g>
<g>
</g>
</svg>
