<?xml version="1.0" encoding="iso-8859-1"?>
<!-- Generator: Adobe Illustrator 19.0.0, SVG Export Plug-In . SVG Version: 6.00 Build 0)  -->
<svg version="1.1" id="Capa_1" xmlns="http://www.w3.org/2000/svg" xmlns:xlink="http://www.w3.org/1999/xlink" x="0px" y="0px"
	 viewBox="0 0 512.027 512.027" style="enable-background:new 0 0 512.027 512.027;" xml:space="preserve">
<g transform="translate(0 -1)">
	<g>
		<g>
			<rect x="128.014" y="494.742" width="256" height="18.286"/>
			<polygon points="109.728,9.256 91.442,9.741 91.442,28.483 109.728,28.483 			"/>
			<path d="M402.299,110.742h-45.714v310.857c-0.02,20.189-16.382,36.551-36.571,36.571h-128
				c-20.19-0.02-36.551-16.382-36.571-36.571V110.742h-45.714c-5.048,0.003-9.14,4.095-9.143,9.143v18.286h18.286
				c5.049,0,9.143,4.093,9.143,9.143c0,5.049-4.093,9.143-9.143,9.143h-18.286v18.286h18.286c5.049,0,9.143,4.093,9.143,9.143
				c0,5.049-4.093,9.143-9.143,9.143h-18.286v18.286h18.286c5.049,0,9.143,4.093,9.143,9.143s-4.093,9.143-9.143,9.143h-18.286
				v237.714c0.003,5.048,4.095,9.14,9.143,9.143h292.571c5.048-0.003,9.139-4.095,9.143-9.143V119.885
				C411.439,114.837,407.348,110.745,402.299,110.742z"/>
			<rect x="356.585" y="46.742" width="18.286" height="45.714"/>
			<path d="M320.014,439.885c10.094-0.013,18.273-8.192,18.286-18.286V110.742H173.728v310.857
				c0.013,10.094,8.192,18.273,18.286,18.286H320.014z M301.728,375.885h9.143c5.049,0,9.143,4.093,9.143,9.143
				c0,5.049-4.093,9.143-9.143,9.143h-9.143c-5.049,0-9.143-4.093-9.143-9.143C292.585,379.978,296.679,375.885,301.728,375.885z
				 M201.157,375.885h64c5.049,0,9.143,4.093,9.143,9.143c0,5.049-4.093,9.143-9.143,9.143h-64c-5.049,0-9.143-4.093-9.143-9.143
				C192.014,379.978,196.107,375.885,201.157,375.885z"/>
			<polygon points="128.014,8.771 128.014,28.483 347.415,28.465 347.442,28.456 384.014,28.456 384.032,28.456 420.585,28.456 
				420.585,1 			"/>
		</g>
	</g>
</g>
<g>
</g>
<g>
</g>
<g>
</g>
<g>
</g>
<g>
</g>
<g>
</g>
<g>
</g>
<g>
</g>
<g>
</g>
<g>
</g>
<g>
</g>
<g>
</g>
<g>
</g>
<g>
</g>
<g>
</g>
</svg>
