<?xml version="1.0" encoding="iso-8859-1"?>
<!-- Generator: Adobe Illustrator 19.0.0, SVG Export Plug-In . SVG Version: 6.00 Build 0)  -->
<svg version="1.1" id="Capa_1" xmlns="http://www.w3.org/2000/svg" xmlns:xlink="http://www.w3.org/1999/xlink" x="0px" y="0px"
	 viewBox="0 0 512 512" style="enable-background:new 0 0 512 512;" xml:space="preserve">
<g>
	<g>
		<g>
			<path d="M201.143,100.571c0.001,2.425-0.961,4.752-2.676,6.467c-1.715,1.715-4.041,2.678-6.466,2.676v64h27.429v-128h-18.286
				V100.571z"/>
			<path d="M192,201.143c0.001,2.425-0.961,4.752-2.676,6.466c-1.715,1.715-4.041,2.678-6.467,2.676h-36.571
				c-2.425,0.001-4.752-0.961-6.466-2.676s-2.678-4.041-2.676-6.466V192h-27.429v109.714h109.714V192H192V201.143z"/>
			<rect x="201.143" y="9.143" width="18.286" height="18.286"/>
			<rect x="146.286" y="45.714" width="36.571" height="45.714"/>
			<polygon points="118.125,411.429 211.009,411.429 212.534,393.143 116.602,393.143 			"/>
			<polygon points="115.079,374.857 214.059,374.857 215.584,356.571 113.556,356.571 			"/>
			<polygon points="112.032,338.286 217.109,338.286 218.634,320 110.509,320 			"/>
			<path d="M137.143,109.714c-2.425,0.001-4.752-0.961-6.466-2.676c-1.715-1.715-2.678-4.041-2.676-6.467V45.714h-18.286v128h27.429
				V109.714z"/>
			<rect x="146.286" width="36.571" height="27.429"/>
			<rect x="109.714" y="9.143" width="18.286" height="18.286"/>
			<polygon points="137.143,429.714 137.143,512 192.018,512 192,429.714 			"/>
			<polygon points="211.018,420.571 211.027,411.429 211.018,411.429 			"/>
			<rect x="155.429" y="109.714" width="18.286" height="82.286"/>
			<path d="M320,109.714c-2.425,0.001-4.752-0.961-6.466-2.676c-1.715-1.715-2.678-4.041-2.676-6.467V45.714h-18.286v128H320
				V109.714z"/>
			<rect x="329.143" y="45.714" width="36.571" height="45.714"/>
			<rect x="329.143" width="36.571" height="27.429"/>
			<rect x="292.571" y="9.143" width="18.286" height="18.286"/>
			<rect x="338.286" y="109.714" width="18.286" height="82.286"/>
			<rect x="384" y="9.143" width="18.286" height="18.286"/>
			<path d="M374.857,201.143c0.001,2.425-0.961,4.752-2.676,6.466s-4.041,2.678-6.466,2.676h-36.571
				c-2.425,0.001-4.752-0.961-6.467-2.676c-1.715-1.715-2.678-4.041-2.676-6.466V192h-27.429v109.714h109.714V192h-27.429V201.143z"
				/>
			<path d="M384,100.571c0.001,2.425-0.961,4.752-2.676,6.467c-1.715,1.715-4.041,2.678-6.466,2.676v64h27.429v-128H384V100.571z"/>
			<polygon points="294.89,338.286 399.967,338.286 401.491,320 293.366,320 			"/>
			<polygon points="320,429.714 320,512 374.875,512 374.857,429.714 			"/>
			<polygon points="393.875,420.571 393.884,411.429 393.875,411.429 			"/>
			<polygon points="300.982,411.429 393.866,411.429 395.391,393.143 299.459,393.143 			"/>
			<polygon points="297.935,374.857 396.916,374.857 398.441,356.571 296.413,356.571 			"/>
		</g>
	</g>
</g>
<g>
</g>
<g>
</g>
<g>
</g>
<g>
</g>
<g>
</g>
<g>
</g>
<g>
</g>
<g>
</g>
<g>
</g>
<g>
</g>
<g>
</g>
<g>
</g>
<g>
</g>
<g>
</g>
<g>
</g>
</svg>
