<?xml version="1.0" encoding="iso-8859-1"?>
<!-- Generator: Adobe Illustrator 19.0.0, SVG Export Plug-In . SVG Version: 6.00 Build 0)  -->
<svg version="1.1" id="Capa_1" xmlns="http://www.w3.org/2000/svg" xmlns:xlink="http://www.w3.org/1999/xlink" x="0px" y="0px"
	 viewBox="0 0 512.018 512.018" style="enable-background:new 0 0 512.018 512.018;" xml:space="preserve">
<g>
	<g>
		<g>
			<rect x="173.714" y="109.723" width="164.571" height="365.714"/>
			<polygon points="172.059,0.009 42.67,0.009 35.054,18.295 169.015,18.295 			"/>
			<path d="M329.018,45.723l-1.524-9.143H184.506l-1.524,9.143l-7.616,45.714h161.268L329.018,45.723z M265.143,73.152h-18.286
				c-5.049,0-9.143-4.093-9.143-9.143s4.093-9.143,9.143-9.143h18.286c5.049,0,9.143,4.093,9.143,9.143
				S270.192,73.152,265.143,73.152z"/>
			<polygon points="321.399,0.009 190.601,0.009 187.557,18.295 324.443,18.295 			"/>
			<polygon points="476.955,18.295 469.339,0.009 339.941,0.009 342.985,18.295 			"/>
			<path d="M164.446,45.723l1.524-9.143H27.43L4.571,91.438h152.256L164.446,45.723z M82.286,73.152H64
				c-5.049,0-9.143-4.093-9.143-9.143s4.093-9.143,9.143-9.143h18.286c5.049,0,9.143,4.093,9.143,9.143S87.335,73.152,82.286,73.152
				z"/>
			<path d="M347.554,45.723l7.619,45.714h152.256l-22.854-54.857H346.03L347.554,45.723z M429.714,54.866H448
				c5.049,0,9.143,4.093,9.143,9.143s-4.093,9.143-9.143,9.143h-18.286c-5.049,0-9.143-4.093-9.143-9.143
				S424.665,54.866,429.714,54.866z"/>
			<path d="M27.429,493.723v9.143c0.003,5.048,4.095,9.139,9.143,9.143h438.857c5.048-0.003,9.139-4.095,9.143-9.143v-9.143h-320
				H27.429z"/>
			<path d="M155.429,109.723H0v365.714h155.429V109.723z M91.429,347.438H64c-5.049,0-9.143-4.093-9.143-9.143
				c0-5.049,4.093-9.143,9.143-9.143h27.429c5.049,0,9.143,4.093,9.143,9.143C100.571,343.344,96.478,347.438,91.429,347.438z
				 M91.429,310.866H64c-5.049,0-9.143-4.093-9.143-9.143s4.093-9.143,9.143-9.143h27.429c5.049,0,9.143,4.093,9.143,9.143
				S96.478,310.866,91.429,310.866z M91.429,274.295H64c-5.049,0-9.143-4.093-9.143-9.143c0-5.049,4.093-9.143,9.143-9.143h27.429
				c5.049,0,9.143,4.093,9.143,9.143C100.571,270.201,96.478,274.295,91.429,274.295z M77.714,237.723
				c-27.772,0-50.286-22.514-50.286-50.286s22.514-50.286,50.286-50.286S128,159.666,128,187.438
				C127.966,215.195,105.472,237.689,77.714,237.723z"/>
			<polygon points="512,109.723 356.571,109.723 356.571,475.438 493.714,475.438 512.018,475.438 			"/>
			<circle cx="77.714" cy="187.438" r="32"/>
		</g>
	</g>
</g>
<g>
</g>
<g>
</g>
<g>
</g>
<g>
</g>
<g>
</g>
<g>
</g>
<g>
</g>
<g>
</g>
<g>
</g>
<g>
</g>
<g>
</g>
<g>
</g>
<g>
</g>
<g>
</g>
<g>
</g>
</svg>
