<?xml version="1.0" encoding="iso-8859-1"?>
<!-- Generator: Adobe Illustrator 19.0.0, SVG Export Plug-In . SVG Version: 6.00 Build 0)  -->
<svg version="1.1" id="Capa_1" xmlns="http://www.w3.org/2000/svg" xmlns:xlink="http://www.w3.org/1999/xlink" x="0px" y="0px"
	 viewBox="0 0 512 512" style="enable-background:new 0 0 512 512;" xml:space="preserve">
<g>
	<g>
		<g>
			<path d="M118.857,237.714V256h18.286v-18.286c0.029-10.087,8.199-18.256,18.286-18.286h27.429
				c10.087,0.029,18.256,8.199,18.286,18.286V256h18.286v-18.286c0.029-10.087,8.199-18.256,18.286-18.286h36.571
				c10.087,0.029,18.256,8.199,18.286,18.286V256h18.286v-18.286c0.029-10.087,8.199-18.256,18.286-18.286h27.429
				c10.087,0.029,18.256,8.199,18.286,18.286V256h18.286v-18.286c0.029-10.087,8.199-18.256,18.286-18.286h27.429v-36.571H73.143
				v36.571h27.429C110.658,219.458,118.828,227.628,118.857,237.714z"/>
			<rect x="137.143" y="310.857" width="91.429" height="18.286"/>
			<path d="M484.571,109.714H27.429C12.299,109.758,0.044,122.013,0,137.143v237.714c0.044,15.13,12.299,27.384,27.429,27.429
				h457.143c15.13-0.044,27.384-12.299,27.429-27.429V137.143C511.956,122.013,499.702,109.758,484.571,109.714z M493.714,365.714
				c-0.03,10.087-8.199,18.256-18.286,18.286H36.571c-10.087-0.03-18.256-8.199-18.286-18.286V146.286
				c0.029-10.087,8.199-18.256,18.286-18.286h438.857c10.087,0.029,18.256,8.199,18.286,18.286V365.714z"/>
			<rect x="283.429" y="310.857" width="91.429" height="18.286"/>
			<path d="M36.571,365.714h438.857V146.286H36.571V365.714z M246.857,329.143c-0.03,10.087-8.199,18.256-18.286,18.286h-91.429
				c-10.087-0.03-18.256-8.199-18.286-18.286v-18.286c0.029-10.087,8.199-18.256,18.286-18.286h91.429
				c10.087,0.029,18.256,8.199,18.286,18.286V329.143z M393.143,329.143c-0.03,10.087-8.199,18.256-18.286,18.286h-91.429
				c-10.087-0.03-18.256-8.199-18.286-18.286v-18.286c0.029-10.087,8.199-18.256,18.286-18.286h91.429
				c10.087,0.029,18.256,8.199,18.286,18.286V329.143z M54.857,182.857c0.029-10.087,8.199-18.256,18.286-18.286h365.714
				c10.087,0.029,18.256,8.199,18.286,18.286v36.571c-0.03,10.087-8.199,18.256-18.286,18.286h-27.429V256
				c-0.03,10.087-8.199,18.256-18.286,18.286h-18.286c-10.087-0.03-18.256-8.199-18.286-18.286v-18.286h-27.429V256
				c-0.03,10.087-8.199,18.256-18.286,18.286h-18.286c-10.087-0.03-18.256-8.199-18.286-18.286v-18.286h-36.571V256
				c-0.03,10.087-8.199,18.256-18.286,18.286h-18.286c-10.087-0.03-18.256-8.199-18.286-18.286v-18.286h-27.429V256
				c-0.03,10.087-8.199,18.256-18.286,18.286h-18.286c-10.087-0.03-18.256-8.199-18.286-18.286v-18.286H73.143
				c-10.087-0.03-18.256-8.199-18.286-18.286V182.857z"/>
		</g>
	</g>
</g>
<g>
</g>
<g>
</g>
<g>
</g>
<g>
</g>
<g>
</g>
<g>
</g>
<g>
</g>
<g>
</g>
<g>
</g>
<g>
</g>
<g>
</g>
<g>
</g>
<g>
</g>
<g>
</g>
<g>
</g>
</svg>
