<?xml version="1.0" encoding="iso-8859-1"?>
<!-- Generator: Adobe Illustrator 19.0.0, SVG Export Plug-In . SVG Version: 6.00 Build 0)  -->
<svg version="1.1" id="Capa_1" xmlns="http://www.w3.org/2000/svg" xmlns:xlink="http://www.w3.org/1999/xlink" x="0px" y="0px"
	 viewBox="0 0 512 512" style="enable-background:new 0 0 512 512;" xml:space="preserve">
<g>
	<g>
		<g>
			<rect x="201.143" y="292.571" width="109.714" height="109.714"/>
			<rect x="219.429" y="420.572" width="73.143" height="36.571"/>
			<path d="M310.857,457.143H320c3.643,0,9.143-7.295,9.143-18.286c0-10.991-5.5-18.286-9.143-18.286h-9.143V457.143z"/>
			<path d="M201.143,457.143v-36.571H192c-3.643,0-9.143,7.295-9.143,18.286c0,10.991,5.5,18.286,9.143,18.286H201.143z"/>
			<path d="M37.659,45.714H27.429C16.509,45.714,0,82.179,0,137.143s16.509,91.429,27.429,91.429h10.231
				c-12.763-20.71-19.374-56.163-19.374-91.429C18.286,101.878,24.896,66.424,37.659,45.714z"/>
			<path d="M374.857,475.429H137.143c-10.094,0.013-18.273,8.192-18.286,18.286V512h274.286v-18.286
				C393.13,483.621,384.951,475.442,374.857,475.429z"/>
			<path d="M448,45.714H347.429c-5.049,0-9.143-4.093-9.143-9.143c0-5.049,4.093-9.143,9.143-9.143h17.542L345.777,3.438
				C344.05,1.26,341.422-0.006,338.643,0H173.357c-2.781-0.005-5.412,1.261-7.143,3.438l-19.189,23.991h17.546
				c5.049,0,9.143,4.093,9.143,9.143c0,5.049-4.093,9.143-9.143,9.143H64c-10.92,0-27.429,36.464-27.429,91.429
				S53.08,228.571,64,228.571h100.571c5.049,0,9.143,4.093,9.143,9.143c0,5.049-4.093,9.143-9.143,9.143h-17.542l19.194,23.991
				c1.726,2.177,4.355,3.444,7.134,3.438h165.286c2.781,0.005,5.412-1.261,7.143-3.438l19.189-23.991h-17.546
				c-5.049,0-9.143-4.093-9.143-9.143c0-5.049,4.093-9.143,9.143-9.143H448c10.92,0,27.429-36.464,27.429-91.429
				S458.92,45.714,448,45.714z M256,246.857c-60.593,0-109.714-49.121-109.714-109.714c0-60.594,49.121-109.714,109.714-109.714
				c60.594,0,109.714,49.121,109.714,109.714C365.648,197.709,316.566,246.791,256,246.857z"/>
			<path d="M484.571,45.714h-10.231c12.763,20.71,19.374,56.163,19.374,91.429c0,35.265-6.61,70.719-19.374,91.429h10.231
				c10.92,0,27.429-36.464,27.429-91.429S495.491,45.714,484.571,45.714z"/>
			<path d="M256,82.286c-30.297,0-54.857,24.56-54.857,54.857S225.703,192,256,192s54.857-24.56,54.857-54.857
				C310.824,106.86,286.283,82.319,256,82.286z M238.75,131.054c-1.091,3.078-3.741,5.341-6.953,5.935s-6.496-0.57-8.616-3.054
				s-2.754-5.91-1.663-8.989c5.19-14.594,18.993-24.351,34.482-24.375c5.049,0,9.143,4.093,9.143,9.143s-4.093,9.143-9.143,9.143
				C248.251,118.871,241.346,123.753,238.75,131.054z M292.045,149.339c-5.19,14.594-18.993,24.351-34.482,24.375
				c-5.049,0-9.143-4.093-9.143-9.143c0-5.049,4.093-9.143,9.143-9.143c7.749-0.013,14.654-4.895,17.25-12.197
				c1.687-4.758,6.911-7.249,11.67-5.562C291.241,139.356,293.731,144.581,292.045,149.339z"/>
			<path d="M256,45.714c-50.495,0-91.429,40.934-91.429,91.429c0,50.495,40.934,91.429,91.429,91.429s91.429-40.934,91.429-91.429
				C347.369,86.673,306.47,45.774,256,45.714z M256,210.286c-40.396,0-73.143-32.747-73.143-73.143S215.604,64,256,64
				s73.143,32.747,73.143,73.143C329.097,177.519,296.377,210.24,256,210.286z"/>
		</g>
	</g>
</g>
<g>
</g>
<g>
</g>
<g>
</g>
<g>
</g>
<g>
</g>
<g>
</g>
<g>
</g>
<g>
</g>
<g>
</g>
<g>
</g>
<g>
</g>
<g>
</g>
<g>
</g>
<g>
</g>
<g>
</g>
</svg>
