<?xml version="1.0" encoding="iso-8859-1"?>
<!-- Generator: Adobe Illustrator 19.0.0, SVG Export Plug-In . SVG Version: 6.00 Build 0)  -->
<svg version="1.1" id="Capa_1" xmlns="http://www.w3.org/2000/svg" xmlns:xlink="http://www.w3.org/1999/xlink" x="0px" y="0px"
	 viewBox="0 0 512 512" style="enable-background:new 0 0 512 512;" xml:space="preserve">
<g>
	<g>
		<g>
			<path d="M238.137,144.374c-5.466-1.187-10.76-3.061-15.756-5.576h0c-13.563,23.879-24.606,49.103-32.953,75.265
				c10.865,1.796,22.059,3.188,33.53,4.098C225.874,193.172,230.952,168.484,238.137,144.374z"/>
			<path d="M320.6,32.306c7.854-7.695,15.082-15.398,21.576-23.096c-27.22-5.912-54.981-8.972-82.835-9.13
				c2.517,9.063,4.761,18.247,6.672,27.577C284.289,28.054,302.521,29.607,320.6,32.306z"/>
			<path d="M171.332,210.638c8.987-28.726,21.078-56.386,36.059-82.491c-78.085,1.15-123.104,17.855-146.436,30.951
				C84.67,181.934,123.97,200.395,171.332,210.638z"/>
			<path d="M219.429,109.751c0,8.634,15.638,18.286,36.571,18.286s36.571-9.652,36.571-18.286S276.933,91.465,256,91.465
				S219.429,101.117,219.429,109.751z"/>
			<path d="M209.017,48.483c-27.975,2.927-55.497,9.204-81.975,18.696c31.898,0.792,63.603,5.197,94.508,13.13
				C217.578,69.154,213.4,58.545,209.017,48.483z"/>
			<path d="M200.97,31.035c-4.417-8.932-8.997-17.338-13.739-25.216C123.836,16.676,72.441,41.926,49.52,73.369
				c8.973-1.723,19.219-3.286,30.659-4.436C117.545,48.449,158.599,35.569,200.97,31.035z"/>
			<path d="M222.742,34.309c5.771,12.669,11.201,26.245,16.291,40.603c5.066-1.043,10.22-1.606,15.392-1.682
				c-2.416-24.668-7.097-49.062-13.984-72.872c-11.461,0.425-22.705,1.311-33.667,2.624c5.563,9.727,10.877,20.15,15.943,31.267
				L222.742,34.309z"/>
			<path d="M261.998,146.106c-1.774,0.123-3.578,0.184-5.404,0.197h0c-7.252,23.792-12.391,48.177-15.357,72.872
				c4.889,0.172,9.802,0.291,14.762,0.291c25.342,0.033,50.631-2.304,75.537-6.982C305.883,193.103,282.55,170.83,261.998,146.106z"
				/>
			<path d="M470.358,132.635c-11.375-25.978-42.149-49.586-85.495-65.582c-23.102,17.035-47.925,31.603-74.063,43.466
				c-0.1,3.343-0.838,6.636-2.174,9.701c55.428,37.575,96.631,50.6,122.648,54.623l0,0
				C448.002,164.718,461.546,150.091,470.358,132.635z"/>
			<path d="M272.766,72.924c10.885-8.126,21.02-16.288,30.407-24.485c-11.037-1.244-22.345-2.039-33.848-2.406
				C270.747,54.911,271.895,63.875,272.766,72.924z"/>
			<path d="M296.87,134.325c-4.343,3.174-9.122,5.705-14.189,7.513c21.444,24.696,45.895,46.611,72.783,65.234
				c17.808-4.563,35.138-10.819,51.754-18.684C367.666,176.68,330.363,158.405,296.87,134.325z"/>
			<path d="M475.196,105.337c-2.149-25.628-22.871-49.308-55.456-67.703c-5.879,5.615-11.964,11.041-18.253,16.277
				C430.069,64.431,455.456,82.144,475.196,105.337z"/>
			<path d="M330.647,48.062c-0.228,0.252-0.471,0.49-0.727,0.714c-12.227,11.628-25.053,22.61-38.424,32.902
				c5.228,2.823,9.813,6.701,13.464,11.389c35.6-16.267,68.476-37.934,97.464-64.234h0c-13.177-5.914-26.779-10.83-40.692-14.707
				C352.14,26.119,341.755,37.457,330.647,48.062z"/>
			<path d="M201.159,109.974l-0.016-0.224c0.033-5.166,1.55-10.213,4.37-14.541C150.764,82.164,93.749,81.878,38.872,94.372
				c-1.502,4.989-2.277,10.168-2.3,15.378c0.278,12.744,4.539,25.081,12.185,35.281C75.634,128.984,122.525,111.907,201.159,109.974
				z"/>
			<polygon points="355.464,207.073 355.464,207.073 355.464,207.073 			"/>
			<path d="M356.571,501.671c9.458-2.04,18.595-4.377,27.429-6.954v-145.44c-8.867,2.454-18.01,4.649-27.429,6.584V501.671z"/>
			<path d="M402.286,488.857c9.645-3.391,18.815-7.096,27.429-11.106v-144.45c-8.7,3.769-17.864,7.245-27.429,10.423V488.857z"/>
			<path d="M310.857,509.029c9.35-1.04,18.493-2.325,27.429-3.854V359.268c-8.954,1.454-18.097,2.67-27.429,3.648V509.029z"/>
			<path d="M265.143,511.92c9.285-0.161,18.428-0.567,27.429-1.218V364.466c-9.005,0.62-18.148,1.008-27.429,1.165V511.92z"/>
			<path d="M493.714,293.069v137.922c11.391-13.324,17.848-30.163,18.286-47.687V272.412
				C506.617,279.897,500.491,286.818,493.714,293.069z"/>
			<path d="M493.714,171.528v29.651c0,71.777-104.415,128-237.714,128s-237.714-56.223-237.714-128v-29.646
				C6.963,184.707,0.508,201.369,0,218.733c0,22.507,11.578,43.674,31.848,62.102c1.056,0.598,1.98,1.405,2.714,2.371
				c12.372,10.474,25.988,19.385,40.539,26.53c1.427,0.295,2.76,0.934,3.884,1.862c13.397,6.399,27.236,11.829,41.409,16.249
				c0.947,0.144,1.864,0.44,2.717,0.877c28.399,8.516,57.598,14.092,87.137,16.642l0.037-0.007l0.095,0.02
				c14.815,1.346,30.044,2.088,45.619,2.088s30.804-0.742,45.619-2.088l0.095-0.02l0.037,0.007
				c29.539-2.55,58.738-8.126,87.137-16.642c0.853-0.436,1.77-0.732,2.717-0.877c14.172-4.419,28.008-9.849,41.403-16.247
				c1.125-0.93,2.461-1.57,3.891-1.865c14.55-7.144,28.164-16.053,40.535-26.526c0.736-0.97,1.663-1.78,2.723-2.379
				C500.425,262.403,512,241.238,512,218.733C511.493,201.367,505.038,184.703,493.714,171.528z"/>
			<path d="M448,468.316c9.678-5.443,18.856-11.729,27.429-18.785V307.948c-8.749,6.174-17.913,11.736-27.429,16.647V468.316z"/>
			<path d="M36.571,449.531c8.573,7.056,17.751,13.342,27.429,18.785V324.595c-9.515-4.911-18.68-10.473-27.429-16.647V449.531z"/>
			<path d="M256,310.893c118.942,0,219.429-50.241,219.429-109.714v-41.304C439.881,206.052,356.085,237.751,256,237.751
				S72.119,206.052,36.571,159.876v41.304C36.571,260.652,137.058,310.893,256,310.893z"/>
			<path d="M0,272.411v110.893c0.437,17.524,6.894,34.363,18.286,47.687V293.069C11.51,286.817,5.383,279.896,0,272.411z"/>
			<path d="M219.429,510.701c9.011,0.648,18.154,1.054,27.429,1.218V365.631c-9.285-0.159-18.427-0.547-27.429-1.165V510.701z"/>
			<path d="M82.286,477.75c8.613,4.01,17.784,7.715,27.429,11.106V343.724c-9.565-3.177-18.729-6.653-27.429-10.423V477.75z"/>
			<path d="M173.714,505.175c8.94,1.539,18.083,2.824,27.429,3.854V362.916c-9.345-0.975-18.488-2.191-27.429-3.648V505.175z"/>
			<path d="M128,494.718c8.833,2.576,17.971,4.914,27.429,6.954v-145.81c-9.43-1.937-18.573-4.131-27.429-6.584V494.718z"/>
		</g>
	</g>
</g>
<g>
</g>
<g>
</g>
<g>
</g>
<g>
</g>
<g>
</g>
<g>
</g>
<g>
</g>
<g>
</g>
<g>
</g>
<g>
</g>
<g>
</g>
<g>
</g>
<g>
</g>
<g>
</g>
<g>
</g>
</svg>
