<?xml version="1.0" encoding="iso-8859-1"?>
<!-- Generator: Adobe Illustrator 19.0.0, SVG Export Plug-In . SVG Version: 6.00 Build 0)  -->
<svg version="1.1" id="Capa_1" xmlns="http://www.w3.org/2000/svg" xmlns:xlink="http://www.w3.org/1999/xlink" x="0px" y="0px"
	 viewBox="0 0 512 512" style="enable-background:new 0 0 512 512;" xml:space="preserve">
<g>
	<g>
		<g>
			<path d="M219.794,360.229l4.114,5.486h18.377v-18.286H86.857v18.286h19.291c2.127-5.518,7.435-9.154,13.349-9.143h92.983
				C215.353,356.591,218.055,357.942,219.794,360.229z"/>
			<polygon points="188.8,100.571 149.486,100.571 143.36,137.143 194.926,137.143 			"/>
			<path d="M278.857,292.571c13.526-0.03,26.703,4.298,37.577,12.343l-19.566-117.12l-0.457-3.109
				c-0.247-0.714-0.431-1.448-0.549-2.195V182.4c-4.266-15.967-18.765-27.047-35.291-26.971H77.714
				c-16.795,0.046-31.411,11.498-35.474,27.794v0.183l-0.823,4.937c-0.076,0.299-0.106,0.607-0.091,0.914L21.943,304.731
				c10.884-7.937,24.015-12.197,37.486-12.16H278.857z"/>
			<path d="M123.429,374.857v27.429h6.583c1.225,0.004,2.438,0.253,3.566,0.731c4.805,1.506,8.091,5.937,8.137,10.971v40.594
				c-0.013,6.458-5.245,11.69-11.703,11.703h-6.583V512H224V396.16l-16.091-21.303H123.429z"/>
			<path d="M278.857,310.857H59.429c-25.247,0-45.714,20.467-45.714,45.714s20.467,45.714,45.714,45.714h45.714V384H86.857
				c-10.087-0.03-18.256-8.199-18.286-18.286v-18.286c0.029-10.087,8.199-18.256,18.286-18.286h155.429
				c10.087,0.029,18.256,8.199,18.286,18.286v18.286c-0.03,10.087-8.199,18.256-18.286,18.286h-4.571l2.743,3.657
				c1.196,1.578,1.839,3.506,1.829,5.486v9.143h36.571c25.247,0,45.714-20.467,45.714-45.714S304.104,310.857,278.857,310.857z
				 M294.491,363.063c-2.616,2.637-6.567,3.43-9.998,2.006s-5.658-4.783-5.637-8.497c0-5.049,4.093-9.143,9.143-9.143
				s9.143,4.093,9.143,9.143C297.167,359.004,296.212,361.343,294.491,363.063z"/>
			<path d="M434.286,347.429h9.143c5.049,0,9.143,4.093,9.143,9.143c0,5.049-4.093,9.143-9.143,9.143h-9.143V384h54.857v-18.286H480
				c-5.049,0-9.143-4.093-9.143-9.143c0-5.049,4.093-9.143,9.143-9.143h9.143v-18.286h-54.857V347.429z"/>
			<rect x="425.143" y="219.429" width="73.143" height="91.429"/>
			<path d="M452.571,73.143v128h18.286v-128C470.804,32.769,438.088,0.053,397.714,0H233.143
				C192.769,0.053,160.053,32.769,160,73.143v9.143h18.286v-9.143c0.024-30.287,24.57-54.833,54.857-54.857h164.571
				C428.001,18.31,452.547,42.856,452.571,73.143z"/>
		</g>
	</g>
</g>
<g>
</g>
<g>
</g>
<g>
</g>
<g>
</g>
<g>
</g>
<g>
</g>
<g>
</g>
<g>
</g>
<g>
</g>
<g>
</g>
<g>
</g>
<g>
</g>
<g>
</g>
<g>
</g>
<g>
</g>
</svg>
