<?xml version="1.0" encoding="iso-8859-1"?>
<!-- Generator: Adobe Illustrator 19.0.0, SVG Export Plug-In . SVG Version: 6.00 Build 0)  -->
<svg version="1.1" id="Capa_1" xmlns="http://www.w3.org/2000/svg" xmlns:xlink="http://www.w3.org/1999/xlink" x="0px" y="0px"
	 viewBox="0 0 512 512" style="enable-background:new 0 0 512 512;" xml:space="preserve">
<g>
	<g>
		<g>
			<path d="M374.857,100.571c-0.005-5.047-4.096-9.138-9.143-9.143h-36.571c-5.047,0.005-9.138,4.095-9.143,9.143v18.286h54.857
				V100.571z"/>
			<rect x="320" y="182.857" width="54.857" height="27.429"/>
			<rect x="320" y="137.143" width="54.857" height="27.429"/>
			<rect x="320" y="228.571" width="54.857" height="27.429"/>
			<path d="M393.143,274.286h-91.429c-5.047,0.005-9.138,4.096-9.143,9.143v146.286c-0.002,2.423,0.968,4.745,2.692,6.446
				c9.65,8.948,15.274,21.416,15.594,34.571v4.696H384v-4.696c0.319-13.152,5.939-25.617,15.585-34.563
				c1.729-1.703,2.702-4.028,2.701-6.455V283.429C402.281,278.381,398.19,274.291,393.143,274.286z"/>
			<polygon points="329.143,493.714 329.143,512 365.728,512 365.719,493.714 			"/>
			<polygon points="360.213,73.143 370.874,36.571 323.983,36.571 334.645,73.143 			"/>
			<path d="M371.112,14.795L353.799,2.071c-3.813-2.714-8.928-2.714-12.741,0l-17.313,12.723c-1.218,0.912-2.192,2.111-2.835,3.491
				h53.036C373.304,16.906,372.33,15.707,371.112,14.795z"/>
			<path d="M188.259,14.759L170.942,2.036c-3.813-2.714-8.928-2.714-12.741,0l-17.312,12.723c-1.215,0.91-2.187,2.106-2.829,3.482
				h53.027C190.444,16.866,189.473,15.67,188.259,14.759z"/>
			<polygon points="146.286,493.67 146.286,511.955 182.87,511.955 182.862,493.67 			"/>
			<path d="M210.286,274.241h-91.429c-5.047,0.005-9.138,4.096-9.143,9.143V429.67c-0.002,2.423,0.968,4.745,2.692,6.446
				c9.65,8.948,15.274,21.416,15.594,34.571v4.696h73.143v-4.696c0.319-13.152,5.939-25.617,15.585-34.563
				c1.729-1.703,2.702-4.028,2.701-6.455V283.384C219.424,278.337,215.333,274.246,210.286,274.241z"/>
			<rect x="137.143" y="228.527" width="54.857" height="27.429"/>
			<polygon points="177.356,73.098 188.018,36.527 141.124,36.527 151.787,73.098 			"/>
			<path d="M192,100.527c-0.005-5.047-4.095-9.138-9.143-9.143h-36.571c-5.047,0.005-9.138,4.095-9.143,9.143v18.286H192V100.527z"
				/>
			<rect x="137.143" y="137.098" width="54.857" height="27.429"/>
			<rect x="137.143" y="182.813" width="54.857" height="27.429"/>
		</g>
	</g>
</g>
<g>
</g>
<g>
</g>
<g>
</g>
<g>
</g>
<g>
</g>
<g>
</g>
<g>
</g>
<g>
</g>
<g>
</g>
<g>
</g>
<g>
</g>
<g>
</g>
<g>
</g>
<g>
</g>
<g>
</g>
</svg>
