<?xml version="1.0" encoding="iso-8859-1"?>
<!-- Generator: Adobe Illustrator 19.0.0, SVG Export Plug-In . SVG Version: 6.00 Build 0)  -->
<svg version="1.1" id="Capa_1" xmlns="http://www.w3.org/2000/svg" xmlns:xlink="http://www.w3.org/1999/xlink" x="0px" y="0px"
	 viewBox="0 0 512 512" style="enable-background:new 0 0 512 512;" xml:space="preserve">
<g>
	<g>
		<g>
			<path d="M502.857,201.143H9.143c-5.047,0.005-9.138,4.095-9.143,9.143v128c0.005,5.047,4.095,9.138,9.143,9.143h493.714
				c5.047-0.005,9.138-4.096,9.143-9.143v-128C511.995,205.238,507.905,201.148,502.857,201.143z M54.857,310.857
				c-20.198,0-36.571-16.374-36.571-36.571c0-20.198,16.374-36.571,36.571-36.571c20.198,0,36.571,16.374,36.571,36.571
				C91.407,294.475,75.046,310.836,54.857,310.857z M146.286,310.857c-20.198,0-36.571-16.374-36.571-36.571
				c0-20.198,16.374-36.571,36.571-36.571c20.198,0,36.571,16.374,36.571,36.571C182.836,294.475,166.475,310.836,146.286,310.857z
				 M216.777,280.777c-2.616,2.637-6.567,3.43-9.998,2.006s-5.658-4.783-5.637-8.497c0-5.049,4.093-9.143,9.143-9.143
				c5.049,0,9.143,4.093,9.143,9.143C219.451,276.718,218.496,279.057,216.777,280.777z M466.286,320H301.714
				c-5.049,0-9.143-4.093-9.143-9.143c0-5.049,4.093-9.143,9.143-9.143h164.571c5.049,0,9.143,4.093,9.143,9.143
				C475.429,315.907,471.335,320,466.286,320z M466.286,283.429H301.714c-5.049,0-9.143-4.093-9.143-9.143
				c0-5.049,4.093-9.143,9.143-9.143h164.571c5.049,0,9.143,4.093,9.143,9.143C475.429,279.335,471.335,283.429,466.286,283.429z
				 M466.286,246.857H301.714c-5.049,0-9.143-4.093-9.143-9.143s4.093-9.143,9.143-9.143h164.571c5.049,0,9.143,4.093,9.143,9.143
				S471.335,246.857,466.286,246.857z"/>
			<rect x="228.571" y="164.571" width="54.857" height="18.286"/>
			<circle cx="146.286" cy="274.286" r="18.286"/>
			<rect x="228.571" y="365.714" width="54.857" height="91.429"/>
			<circle cx="54.857" cy="274.286" r="18.286"/>
			<circle cx="54.857" cy="73.143" r="18.286"/>
			<path d="M502.857,475.429H9.143c-5.047,0.005-9.138,4.096-9.143,9.143V512h512v-27.429
				C511.995,479.524,507.905,475.434,502.857,475.429z"/>
			<circle cx="146.286" cy="73.143" r="18.286"/>
			<path d="M502.857,0H9.143C4.095,0.005,0.005,4.095,0,9.143v128c0.005,5.047,4.095,9.138,9.143,9.143h493.714
				c5.047-0.005,9.138-4.095,9.143-9.143v-128C511.995,4.095,507.905,0.005,502.857,0z M54.857,109.714
				c-20.198,0-36.571-16.374-36.571-36.571c0-20.198,16.374-36.571,36.571-36.571c20.198,0,36.571,16.374,36.571,36.571
				C91.407,93.332,75.046,109.693,54.857,109.714z M146.286,109.714c-20.198,0-36.571-16.374-36.571-36.571
				c0-20.198,16.374-36.571,36.571-36.571c20.198,0,36.571,16.374,36.571,36.571C182.836,93.332,166.475,109.693,146.286,109.714z
				 M216.777,79.634c-0.889,0.807-1.91,1.456-3.018,1.92c-2.214,0.976-4.737,0.976-6.951,0c-1.107-0.464-2.126-1.113-3.013-1.92
				c-1.721-1.719-2.677-4.059-2.652-6.491c0.014-0.584,0.076-1.167,0.183-1.741c0.084-0.604,0.268-1.189,0.545-1.732
				c0.201-0.585,0.479-1.14,0.826-1.652l1.098-1.366c0.888-0.807,1.907-1.456,3.013-1.92c3.405-1.437,7.341-0.679,9.969,1.92
				c0.366,0.455,0.732,0.911,1.094,1.366c0.347,0.512,0.625,1.067,0.826,1.652c0.276,0.544,0.461,1.129,0.549,1.732
				c0.105,0.575,0.166,1.157,0.183,1.741C219.451,75.575,218.496,77.914,216.777,79.634z M466.286,118.857H301.714
				c-5.049,0-9.143-4.093-9.143-9.143s4.093-9.143,9.143-9.143h164.571c5.049,0,9.143,4.093,9.143,9.143
				S471.335,118.857,466.286,118.857z M466.286,82.286H301.714c-5.049,0-9.143-4.093-9.143-9.143c0-5.049,4.093-9.143,9.143-9.143
				h164.571c5.049,0,9.143,4.093,9.143,9.143C475.429,78.192,471.335,82.286,466.286,82.286z M466.286,45.714H301.714
				c-5.049,0-9.143-4.093-9.143-9.143c0-5.049,4.093-9.143,9.143-9.143h164.571c5.049,0,9.143,4.093,9.143,9.143
				C475.429,41.621,471.335,45.714,466.286,45.714z"/>
		</g>
	</g>
</g>
<g>
</g>
<g>
</g>
<g>
</g>
<g>
</g>
<g>
</g>
<g>
</g>
<g>
</g>
<g>
</g>
<g>
</g>
<g>
</g>
<g>
</g>
<g>
</g>
<g>
</g>
<g>
</g>
<g>
</g>
</svg>
