<?xml version="1.0" encoding="iso-8859-1"?>
<!-- Generator: Adobe Illustrator 19.0.0, SVG Export Plug-In . SVG Version: 6.00 Build 0)  -->
<svg version="1.1" id="Capa_1" xmlns="http://www.w3.org/2000/svg" xmlns:xlink="http://www.w3.org/1999/xlink" x="0px" y="0px"
	 viewBox="0 0 512 512" style="enable-background:new 0 0 512 512;" xml:space="preserve">
<g>
	<g>
		<g>
			<path d="M301.714,334.72v21.851C301.714,372.206,282.057,384,256,384h-0.914c-26.057-0.366-44.8-11.886-44.8-27.429V334.72
				c-10.425,5.462-17.325,15.882-18.286,27.611c0,21.669,29.349,39.954,64,39.954s64-18.286,64-39.954
				C319.04,350.602,312.139,340.182,301.714,334.72z"/>
			<path d="M283.429,167.954v-21.669h-54.857v21.669C246.089,175.451,265.911,175.451,283.429,167.954z"/>
			<path d="M228.571,295.954c17.517,7.497,37.34,7.497,54.857,0V187.52c-8.844,2.952-18.105,4.465-27.429,4.48
				c-9.324-0.015-18.584-1.528-27.429-4.48V295.954z M246.857,228.571c0-5.049,4.093-9.143,9.143-9.143s9.143,4.093,9.143,9.143V256
				c0,5.049-4.093,9.143-9.143,9.143s-9.143-4.093-9.143-9.143V228.571z"/>
			<path d="M228.571,356.571c0,1.737,8.594,8.869,26.606,9.143H256c18.651,0,27.429-7.314,27.429-9.143V315.52
				c-8.832,2.948-18.079,4.459-27.39,4.479c-0.026,0-0.052,0-0.078,0c-9.311-0.02-18.558-1.531-27.39-4.479V356.571z"/>
			<path d="M355.2,319.909c-2.704-0.436-5.079-2.041-6.491-4.389l-16.731-27.886c-4.973-8.238-13.875-13.295-23.497-13.349h-6.766
				v39.771c10.784,4.775,20.188,12.197,27.337,21.577c24.293,0.92,48.121,6.932,69.943,17.646
				c23.1,10.636,40.725,30.415,48.64,54.583c1.184,4.029-0.557,8.344-4.206,10.423l-128,74.24c-0.183,0.091-0.366,0.091-0.549,0.183
				s-0.274,0.091-0.457,0.183c-0.465,0.237-0.956,0.421-1.463,0.549c-0.543,0.106-1.093,0.167-1.646,0.183
				c-0.15,0.039-0.303,0.07-0.457,0.091H201.234c-0.77-0.006-1.536-0.098-2.286-0.274c-0.183-0.091-0.457-0.183-0.64-0.274
				c-0.457-0.183-0.823-0.274-1.189-0.457l-0.091-0.091c-0.111-0.064-0.238-0.096-0.366-0.091l-128.091-74.24
				c-3.649-2.079-5.39-6.394-4.206-10.423c3.098-10.928,8.56-21.041,16-29.623l2.194-2.469c28.343-30.72,67.017-37.12,93.623-39.314
				c2.103-0.183,4.297-0.274,6.4-0.366c7.195-9.596,16.734-17.183,27.703-22.034v-39.771h-6.766
				c-9.623,0.054-18.524,5.111-23.497,13.349l-16.731,27.886c-1.393,2.365-3.777,3.977-6.491,4.389
				c-4.389,0.64-107.063,17.737-110.994,104.686L194.469,512h123.063l148.663-87.406C462.171,337.371,356.297,320.091,355.2,319.909
				z"/>
			<path d="M286.994,416.366l27.611,55.406l113.189-65.554c-7.836-16.124-20.973-29.067-37.211-36.663
				c-16.564-8.289-34.567-13.318-53.029-14.811c0.474,2.502,0.719,5.042,0.731,7.589C338.286,387.2,317.349,407.954,286.994,416.366
				z"/>
			<path d="M228.571,128h54.857c9.7,0.003,19.004-3.85,25.863-10.709c6.859-6.859,10.711-16.163,10.709-25.863V36.571
				c0.003-9.7-3.849-19.004-10.708-25.863S293.129-0.003,283.429,0h-54.857c-9.7-0.003-19.004,3.849-25.863,10.708
				S191.997,26.871,192,36.571v54.857c-0.003,9.7,3.85,19.004,10.709,25.863C209.568,124.15,218.871,128.003,228.571,128z
				 M286.08,20.937c0.889-0.807,1.91-1.456,3.017-1.92c2.226-0.914,4.723-0.914,6.949,0c1.119,0.442,2.143,1.094,3.017,1.92
				c1.669,1.753,2.616,4.071,2.651,6.491c0.025,2.432-0.931,4.772-2.651,6.491c-0.889,0.807-1.91,1.456-3.017,1.92
				c-2.812,1.204-6.041,0.907-8.586-0.789c-2.545-1.697-4.061-4.564-4.031-7.622C283.464,25.008,284.411,22.69,286.08,20.937z
				 M286.08,57.509c0.889-0.807,1.91-1.456,3.017-1.92c3.404-1.434,7.338-0.677,9.966,1.92c0.826,0.874,1.478,1.898,1.92,3.017
				c0.976,2.214,0.976,4.735,0,6.949c-0.833,2.296-2.641,4.104-4.937,4.937c-3.402,1.458-7.349,0.698-9.966-1.92
				c-0.807-0.889-1.456-1.91-1.92-3.017c-0.512-1.085-0.763-2.275-0.731-3.474C283.464,61.58,284.411,59.261,286.08,57.509z
				 M284.16,97.097c0.833-2.296,2.641-4.104,4.937-4.937c2.226-0.914,4.723-0.914,6.949,0c1.119,0.442,2.143,1.094,3.017,1.92
				c0.807,0.889,1.456,1.91,1.92,3.017c0.976,2.213,0.976,4.735,0,6.949c-0.443,1.091-1.095,2.085-1.92,2.926
				c-1.732,1.714-4.056,2.696-6.491,2.743c-5.035-0.036-9.107-4.108-9.143-9.143C283.442,99.377,283.69,98.196,284.16,97.097z
				 M264.411,104.046c-0.443,1.091-1.095,2.085-1.92,2.926c-1.705,1.753-4.046,2.743-6.491,2.743s-4.787-0.989-6.491-2.743
				c-2.616-2.58-3.379-6.502-1.92-9.874c0.833-2.296,2.641-4.104,4.937-4.937c2.226-0.914,4.723-0.914,6.949,0
				c2.296,0.833,4.104,2.641,4.937,4.937C265.387,99.311,265.387,101.832,264.411,104.046z M247.589,23.954
				c0.442-1.119,1.094-2.143,1.92-3.017c2.616-2.637,6.567-3.43,9.997-2.006s5.658,4.783,5.637,8.497
				c0.025,2.432-0.931,4.772-2.651,6.491c-0.889,0.807-1.909,1.456-3.017,1.92c-2.214,0.975-4.735,0.975-6.949,0
				c-1.108-0.464-2.128-1.113-3.017-1.92C246.891,31.303,246.13,27.356,247.589,23.954z M247.589,60.526
				c0.442-1.119,1.094-2.143,1.92-3.017c0.435-0.393,0.893-0.759,1.371-1.097c0.51-0.346,1.063-0.623,1.646-0.823
				c0.518-0.264,1.073-0.449,1.646-0.549c3.011-0.6,6.124,0.324,8.32,2.469c1.669,1.753,2.616,4.071,2.651,6.491
				c-0.013,1.195-0.262,2.375-0.731,3.474c-0.464,1.108-1.113,2.128-1.92,3.017c-3.605,3.535-9.377,3.535-12.983,0
				c-0.807-0.889-1.456-1.91-1.92-3.017C246.613,65.261,246.613,62.739,247.589,60.526z M212.937,20.937
				c0.859-0.846,1.887-1.5,3.017-1.92c2.226-0.914,4.723-0.914,6.949,0c1.119,0.442,2.143,1.094,3.017,1.92
				c1.669,1.753,2.616,4.071,2.651,6.491c0.025,2.432-0.931,4.772-2.651,6.491c-2.616,2.637-6.567,3.43-9.998,2.006
				c-3.43-1.424-5.658-4.783-5.637-8.497C210.321,25.008,211.268,22.69,212.937,20.937z M212.937,57.509
				c0.889-0.807,1.91-1.456,3.017-1.92c3.405-1.434,7.338-0.677,9.966,1.92c0.826,0.874,1.478,1.898,1.92,3.017
				c0.975,2.214,0.975,4.735,0,6.949c-0.833,2.296-2.641,4.104-4.937,4.937c-3.402,1.458-7.349,0.698-9.966-1.92
				c-0.807-0.889-1.456-1.91-1.92-3.017c-0.512-1.085-0.763-2.275-0.731-3.474C210.321,61.58,211.268,59.261,212.937,57.509z
				 M211.017,97.097c0.442-1.119,1.094-2.143,1.92-3.017c0.889-0.807,1.91-1.456,3.017-1.92c3.41-1.379,7.312-0.627,9.966,1.92
				c0.826,0.874,1.478,1.898,1.92,3.017c0.469,1.099,0.718,2.279,0.731,3.474c0.041,2.409-0.919,4.726-2.651,6.4
				c-1.686,1.781-4.039,2.775-6.491,2.743c-2.436-0.047-4.76-1.029-6.491-2.743c-1.732-1.674-2.693-3.991-2.651-6.4
				C210.299,99.377,210.548,98.196,211.017,97.097z"/>
			<path d="M268.251,419.84c-8.139,0.975-16.365,0.975-24.503,0l-27.702,55.589h79.909L268.251,419.84z"/>
			<path d="M96.091,388.023l-1.92,2.194c-4.117,4.778-7.45,10.178-9.874,16l113.097,65.554l27.611-55.406
				c-30.354-8.411-51.291-29.166-51.291-54.034c0.012-2.425,0.257-4.844,0.731-7.223C138.789,358.4,113.737,368.914,96.091,388.023z
				"/>
		</g>
	</g>
</g>
<g>
</g>
<g>
</g>
<g>
</g>
<g>
</g>
<g>
</g>
<g>
</g>
<g>
</g>
<g>
</g>
<g>
</g>
<g>
</g>
<g>
</g>
<g>
</g>
<g>
</g>
<g>
</g>
<g>
</g>
</svg>
