<?xml version="1.0" encoding="iso-8859-1"?>
<!-- Generator: Adobe Illustrator 19.0.0, SVG Export Plug-In . SVG Version: 6.00 Build 0)  -->
<svg version="1.1" id="Capa_1" xmlns="http://www.w3.org/2000/svg" xmlns:xlink="http://www.w3.org/1999/xlink" x="0px" y="0px"
	 viewBox="0 0 512 512" style="enable-background:new 0 0 512 512;" xml:space="preserve">
<g>
	<g>
		<g>
			<polygon points="292.571,219.429 310.857,219.429 310.857,210.286 310.857,91.429 292.571,91.429 			"/>
			<rect x="292.571" y="237.714" width="18.286" height="18.286"/>
			<rect x="393.143" y="365.714" width="18.286" height="146.286"/>
			<path d="M374.857,310.857H384c5.049,0,9.143,4.093,9.143,9.143c0,5.049-4.093,9.143-9.143,9.143h-9.143v9.143
				c0.003,5.048,4.095,9.14,9.143,9.143h36.571c5.048-0.003,9.139-4.095,9.143-9.143v-9.143h-9.143
				c-5.049,0-9.143-4.093-9.143-9.143c0-5.049,4.093-9.143,9.143-9.143h9.143v-18.286h-54.857V310.857z"/>
			<rect x="347.429" width="109.714" height="18.286"/>
			<polygon points="466.286,36.571 338.286,36.571 292.571,36.571 292.571,73.143 320,73.143 484.571,73.143 512,73.143 512,36.571 
							"/>
			<path d="M292.571,283.429c0,5.049,4.093,9.143,9.143,9.143s9.143-4.093,9.143-9.143v-9.143h-18.286V283.429z"/>
			<path d="M329.143,201.143h18.286c10.094,0.013,18.273,8.192,18.286,18.286v54.857h73.143v-54.857
				c0.013-10.094,8.192-18.273,18.286-18.286h18.286V91.429H329.143V201.143z M411.429,256h-18.286
				c-5.049,0-9.143-4.093-9.143-9.143c0-5.049,4.093-9.143,9.143-9.143h18.286c5.049,0,9.143,4.093,9.143,9.143
				C420.571,251.907,416.478,256,411.429,256z M411.429,219.429h-18.286c-5.049,0-9.143-4.093-9.143-9.143
				c0-5.049,4.093-9.143,9.143-9.143h18.286c5.049,0,9.143,4.093,9.143,9.143C420.571,215.335,416.478,219.429,411.429,219.429z
				 M347.429,128c0.013-10.094,8.192-18.273,18.286-18.286h73.143c10.094,0.013,18.273,8.192,18.286,18.286v18.286
				c-0.013,10.094-8.192,18.273-18.286,18.286h-73.143c-10.094-0.013-18.273-8.192-18.286-18.286V128z"/>
			<path d="M493.714,283.429c0,5.049,4.093,9.143,9.143,9.143s9.143-4.093,9.143-9.143v-9.143h-18.286V283.429z"/>
			<polygon points="493.714,210.286 493.714,219.429 512,219.429 512,91.429 493.714,91.429 			"/>
			<rect x="493.714" y="237.714" width="18.286" height="18.286"/>
			<rect x="365.714" y="128" width="73.143" height="18.286"/>
			<polygon points="0,219.429 18.286,219.429 18.286,210.286 18.286,91.429 0,91.429 			"/>
			<rect x="73.143" y="128" width="73.143" height="18.286"/>
			<rect x="100.571" y="365.714" width="18.286" height="146.286"/>
			<rect x="54.857" width="109.714" height="18.286"/>
			<path d="M0,283.429c0,5.049,4.093,9.143,9.143,9.143c5.049,0,9.143-4.093,9.143-9.143v-9.143H0V283.429z"/>
			<rect y="237.714" width="18.286" height="18.286"/>
			<path d="M82.286,310.857h9.143c5.049,0,9.143,4.093,9.143,9.143c0,5.049-4.093,9.143-9.143,9.143h-9.143v9.143
				c0.003,5.048,4.095,9.14,9.143,9.143H128c5.048-0.003,9.139-4.095,9.143-9.143v-9.143H128c-5.049,0-9.143-4.093-9.143-9.143
				c0-5.049,4.093-9.143,9.143-9.143h9.143v-18.286H82.286V310.857z"/>
			<rect x="201.143" y="237.714" width="18.286" height="18.286"/>
			<path d="M201.143,283.429c0,5.049,4.093,9.143,9.143,9.143c5.049,0,9.143-4.093,9.143-9.143v-9.143h-18.286V283.429z"/>
			<polygon points="45.714,36.571 0,36.571 0,73.143 27.429,73.143 192,73.143 219.429,73.143 219.429,36.571 173.714,36.571 			"/>
			<polygon points="201.143,210.286 201.143,219.429 219.429,219.429 219.429,91.429 201.143,91.429 			"/>
			<path d="M36.571,201.143h18.286c10.094,0.013,18.273,8.192,18.286,18.286v54.857h73.143v-54.857
				c0.013-10.094,8.192-18.273,18.286-18.286h18.286V91.429H36.571V201.143z M118.857,256h-18.286c-5.049,0-9.143-4.093-9.143-9.143
				c0-5.049,4.093-9.143,9.143-9.143h18.286c5.049,0,9.143,4.093,9.143,9.143C128,251.907,123.907,256,118.857,256z
				 M118.857,219.429h-18.286c-5.049,0-9.143-4.093-9.143-9.143c0-5.049,4.093-9.143,9.143-9.143h18.286
				c5.049,0,9.143,4.093,9.143,9.143C128,215.335,123.907,219.429,118.857,219.429z M54.857,128
				c0.013-10.094,8.192-18.273,18.286-18.286h73.143c10.094,0.013,18.273,8.192,18.286,18.286v18.286
				c-0.013,10.094-8.192,18.273-18.286,18.286H73.143c-10.094-0.013-18.273-8.192-18.286-18.286V128z"/>
		</g>
	</g>
</g>
<g>
</g>
<g>
</g>
<g>
</g>
<g>
</g>
<g>
</g>
<g>
</g>
<g>
</g>
<g>
</g>
<g>
</g>
<g>
</g>
<g>
</g>
<g>
</g>
<g>
</g>
<g>
</g>
<g>
</g>
</svg>
