<?xml version="1.0" encoding="iso-8859-1"?>
<!-- Generator: Adobe Illustrator 19.0.0, SVG Export Plug-In . SVG Version: 6.00 Build 0)  -->
<svg version="1.1" id="Capa_1" xmlns="http://www.w3.org/2000/svg" xmlns:xlink="http://www.w3.org/1999/xlink" x="0px" y="0px"
	 viewBox="0 0 512 512" style="enable-background:new 0 0 512 512;" xml:space="preserve">
<g>
	<g>
		<g>
			<path d="M73.143,338.286v18.286c0.003,5.048,4.095,9.139,9.143,9.143h9.143v-36.571H73.143V338.286z"/>
			<path d="M54.857,320v-13.714L5.306,269.181c-7.074,33.51-7.074,68.128,0,101.637l49.551-37.104V320z"/>
			<path d="M91.429,384h-9.143c-15.142-0.017-27.412-12.287-27.429-27.429v-0.011l-44.036,32.981
				c5.269,13.937,11.535,21.887,16.607,21.887h64V384z"/>
			<path d="M45.714,493.714c0.003,5.048,4.095,9.139,9.143,9.143H64v-27.429v-45.714H45.714V493.714z"/>
			<rect x="82.286" y="484.571" width="45.714" height="18.286"/>
			<path d="M91.429,274.286h-9.143c-5.048,0.003-9.139,4.095-9.143,9.143v27.429h18.286V274.286z"/>
			<path d="M420.571,256h9.143c15.142,0.017,27.412,12.287,27.429,27.429v0.011l44.036-32.981
				c-5.269-13.937-11.535-21.887-16.607-21.887h-64V256z"/>
			<path d="M438.857,301.714v-18.286c-0.003-5.048-4.095-9.139-9.143-9.143h-9.143v36.571h18.286V301.714z"/>
			<path d="M118.857,210.286c-5.048,0.003-9.14,4.095-9.143,9.143v201.143c0,5.049,4.093,9.143,9.143,9.143
				c5.049,0,9.143-4.093,9.143-9.143V219.429C127.997,214.38,123.905,210.289,118.857,210.286z"/>
			<path d="M420.571,365.714h9.143c5.048-0.003,9.139-4.095,9.143-9.143v-27.429h-18.286V365.714z"/>
			<path d="M54.857,283.429c0.017-15.142,12.287-27.412,27.429-27.429h9.143v-27.429h-64c-5.073,0-11.338,7.949-16.607,21.887
				l44.036,32.981V283.429z"/>
			<path d="M204.348,63.696c4.756-1.483,7.494-6.455,6.205-11.268l-2.563-8.959c-0.709,0.204-1.445,0.341-2.149,0.554
				c-1.112,0.331-2.205,0.704-3.308,1.056c-26.589,8.644-50.703,23.57-70.297,43.515l8.147,6.531
				c3.588,2.789,8.671,2.558,11.991-0.545C167.496,80.963,185.159,70.468,204.348,63.696z"/>
			<rect x="448" y="429.714" width="18.29" height="18.286"/>
			<path d="M393.143,210.286c-5.049,0-9.143,4.093-9.143,9.143v201.143c0.003,5.048,4.095,9.139,9.143,9.143
				c5.048-0.003,9.139-4.095,9.143-9.143V219.429C402.286,214.379,398.192,210.286,393.143,210.286z"/>
			<polygon points="448,466.286 448,512 466.304,512 466.294,466.286 			"/>
			<path d="M457.143,356.571c-0.017,15.141-12.287,27.412-27.429,27.429h-9.143v27.429h64c5.073,0,11.338-7.949,16.607-21.887
				l-44.036-32.981V356.571z"/>
			<path d="M506.694,269.181l-49.551,37.104V320v13.714l49.551,37.104C513.769,337.309,513.769,302.691,506.694,269.181z"/>
			<path d="M155.429,402.286h-9.143v18.286h27.429c5.048-0.003,9.139-4.095,9.143-9.143V228.571
				c-0.003-5.048-4.095-9.139-9.143-9.143h-27.429v18.286h9.143c5.049,0,9.143,4.093,9.143,9.143c0,5.049-4.093,9.143-9.143,9.143
				h-9.143v128h9.143c5.049,0,9.143,4.093,9.143,9.143S160.478,402.286,155.429,402.286z"/>
			<path d="M228.571,475.429h-73.143c-5.048,0.003-9.139,4.095-9.143,9.143v18.286c0.003,5.048,4.095,9.139,9.143,9.143h73.143
				c5.048-0.003,9.14-4.095,9.143-9.143v-18.286C237.711,479.523,233.62,475.432,228.571,475.429z"/>
			<path d="M365.838,75.843c-8.09-6.61-16.757-12.481-25.897-17.54c-0.773-0.427-1.543-0.857-2.322-1.272
				c-4.422-2.364-8.942-4.569-13.58-6.552c-0.703-0.299-1.429-0.549-2.135-0.839c-3.836-1.579-7.753-2.992-11.72-4.298
				c-1.471-0.482-2.938-0.978-4.422-1.421c-0.576-0.173-1.176-0.286-1.755-0.453l-2.56,8.969c-1.286,4.81,1.452,9.778,6.205,11.259
				c19.189,6.771,36.852,17.267,51.973,30.884c3.324,3.103,8.409,3.334,12,0.545l8.133-6.536
				c-4.061-4.129-8.304-8.075-12.757-11.785C366.613,76.483,366.227,76.161,365.838,75.843z"/>
			<path d="M315.616,27.881c4.351,1.423,8.641,2.996,12.868,4.719c1.522,0.623,3.028,1.272,4.531,1.934
				c4.402,1.918,8.721,4.002,12.958,6.252c0.632,0.338,1.286,0.636,1.915,0.98c5.101,2.783,10.058,5.817,14.893,9.058
				c0.502,0.337,0.983,0.698,1.482,1.04c4.368,3,8.616,6.178,12.742,9.535c0.574,0.467,1.154,0.922,1.722,1.396
				c4.481,3.733,8.863,7.599,13.013,11.751c2.893,2.881,5.688,5.866,8.384,8.955c0.196,0.302,0.374,0.616,0.532,0.94
				c30.513,34.824,47.337,79.546,47.343,125.846h18.286C466.286,94.148,372.138,0,256,0S45.714,94.148,45.714,210.286H64
				c0.005-46.306,16.833-91.034,47.353-125.859c0.161-0.326,0.341-0.641,0.539-0.945c2.581-2.946,5.304-5.723,8.036-8.487
				c0.165-0.166,0.317-0.344,0.482-0.51c12.96-13.014,27.743-24.074,43.886-32.833l0.509-0.278
				c5.248-2.83,10.607-5.449,16.116-7.776c0.198-0.084,0.388-0.179,0.585-0.262c5.548-2.32,11.194-4.431,16.98-6.226
				c1.214-0.382,2.474-0.648,3.699-1.007c3.335-0.963,6.661-1.952,10.065-2.737c0.217-0.05,0.428,0.011,0.644-0.023
				c28.353-6.746,57.894-6.743,86.245,0.009c0.212,0.034,0.416-0.027,0.628,0.023c3.797,0.884,7.539,1.932,11.259,3.041
				C312.57,26.879,314.089,27.38,315.616,27.881z"/>
			<path d="M329.143,228.571v182.857c0.003,5.048,4.095,9.139,9.143,9.143h27.429v-18.286h-9.143c-5.049,0-9.143-4.093-9.143-9.143
				s4.093-9.143,9.143-9.143h9.143V256h-9.143c-5.049,0-9.143-4.093-9.143-9.143c0-5.049,4.093-9.143,9.143-9.143h9.143v-18.286
				h-27.429C333.238,219.432,329.146,223.523,329.143,228.571z"/>
		</g>
	</g>
</g>
<g>
</g>
<g>
</g>
<g>
</g>
<g>
</g>
<g>
</g>
<g>
</g>
<g>
</g>
<g>
</g>
<g>
</g>
<g>
</g>
<g>
</g>
<g>
</g>
<g>
</g>
<g>
</g>
<g>
</g>
</svg>
