<?xml version="1.0" encoding="iso-8859-1"?>
<!-- Generator: Adobe Illustrator 19.0.0, SVG Export Plug-In . SVG Version: 6.00 Build 0)  -->
<svg version="1.1" id="Capa_1" xmlns="http://www.w3.org/2000/svg" xmlns:xlink="http://www.w3.org/1999/xlink" x="0px" y="0px"
	 viewBox="0 0 512 512" style="enable-background:new 0 0 512 512;" xml:space="preserve">
<g>
	<g>
		<g>
			<path d="M329.143,15.196c-5.952,1.717-12.094,2.686-18.286,2.885v91.634h18.286V15.196z"/>
			<path d="M493.714,18.08c-6.191-0.199-12.334-1.168-18.286-2.885v94.518h18.286V18.08z"/>
			<path d="M457.143,0H347.429v109.714h109.714V0z M384,64h-9.143c-5.049,0-9.143-4.093-9.143-9.143
				c0-5.049,4.093-9.143,9.143-9.143H384c5.049,0,9.143,4.093,9.143,9.143C393.143,59.907,389.049,64,384,64z M429.714,64h-9.143
				c-5.049,0-9.143-4.093-9.143-9.143c0-5.049,4.093-9.143,9.143-9.143h9.143c5.049,0,9.143,4.093,9.143,9.143
				C438.857,59.907,434.764,64,429.714,64z"/>
			<rect x="374.857" y="438.857" width="54.857" height="73.143"/>
			<path d="M292.571,128v197.357l49.5,49.5c3.417,3.437,5.342,8.082,5.357,12.929v32.786h109.714v-32.786
				c0.015-4.846,1.94-9.492,5.357-12.929l49.5-49.5v-197.33L292.571,128z M448,365.714h-91.429c-5.049,0-9.143-4.093-9.143-9.143
				c0-5.049,4.093-9.143,9.143-9.143H448c5.049,0,9.143,4.093,9.143,9.143C457.143,361.621,453.049,365.714,448,365.714z
				 M448,329.143h-91.429c-5.049,0-9.143-4.093-9.143-9.143c0-5.049,4.093-9.143,9.143-9.143H448c5.049,0,9.143,4.093,9.143,9.143
				C457.143,325.049,453.049,329.143,448,329.143z M448,292.571h-91.429c-5.049,0-9.143-4.093-9.143-9.143s4.093-9.143,9.143-9.143
				H448c5.049,0,9.143,4.093,9.143,9.143S453.049,292.571,448,292.571z M493.714,237.714c-0.013,10.094-8.192,18.273-18.286,18.286
				H329.143c-10.094-0.013-18.273-8.192-18.286-18.286v-64c0.013-10.094,8.192-18.273,18.286-18.286h146.286
				c10.094,0.013,18.273,8.192,18.286,18.286V237.714z"/>
			<rect x="329.143" y="173.714" width="146.286" height="64"/>
			<path d="M36.571,15.196c-5.952,1.717-12.094,2.686-18.286,2.885v91.634h18.286V15.196z"/>
			<path d="M164.571,0H54.857v109.714h109.714V0z M91.429,64h-9.143c-5.049,0-9.143-4.093-9.143-9.143
				c0-5.049,4.093-9.143,9.143-9.143h9.143c5.049,0,9.143,4.093,9.143,9.143C100.571,59.907,96.478,64,91.429,64z M137.143,64H128
				c-5.049,0-9.143-4.093-9.143-9.143c0-5.049,4.093-9.143,9.143-9.143h9.143c5.049,0,9.143,4.093,9.143,9.143
				C146.286,59.907,142.192,64,137.143,64z"/>
			<path d="M201.143,18.08c-6.191-0.199-12.334-1.168-18.286-2.885v94.518h18.286V18.08z"/>
			<rect x="82.286" y="438.857" width="54.857" height="73.143"/>
			<rect x="36.571" y="173.714" width="146.286" height="64"/>
			<path d="M0,325.357l49.5,49.5c3.417,3.437,5.342,8.082,5.357,12.929v32.786h109.714v-32.786c0.015-4.846,1.94-9.492,5.357-12.929
				l49.5-49.5v-197.33L0,128V325.357z M155.429,365.714H64c-5.049,0-9.143-4.093-9.143-9.143c0-5.049,4.093-9.143,9.143-9.143
				h91.429c5.049,0,9.143,4.093,9.143,9.143C164.571,361.621,160.478,365.714,155.429,365.714z M155.429,329.143H64
				c-5.049,0-9.143-4.093-9.143-9.143c0-5.049,4.093-9.143,9.143-9.143h91.429c5.049,0,9.143,4.093,9.143,9.143
				C164.571,325.049,160.478,329.143,155.429,329.143z M155.429,292.571H64c-5.049,0-9.143-4.093-9.143-9.143
				s4.093-9.143,9.143-9.143h91.429c5.049,0,9.143,4.093,9.143,9.143S160.478,292.571,155.429,292.571z M18.286,173.714
				c0.013-10.094,8.192-18.273,18.286-18.286h146.286c10.093,0.013,18.273,8.192,18.286,18.286v64
				c-0.013,10.094-8.192,18.273-18.286,18.286H36.571c-10.093-0.013-18.273-8.192-18.286-18.286V173.714z"/>
		</g>
	</g>
</g>
<g>
</g>
<g>
</g>
<g>
</g>
<g>
</g>
<g>
</g>
<g>
</g>
<g>
</g>
<g>
</g>
<g>
</g>
<g>
</g>
<g>
</g>
<g>
</g>
<g>
</g>
<g>
</g>
<g>
</g>
</svg>
