<?xml version="1.0" encoding="iso-8859-1"?>
<!-- Generator: Adobe Illustrator 19.0.0, SVG Export Plug-In . SVG Version: 6.00 Build 0)  -->
<svg version="1.1" id="Capa_1" xmlns="http://www.w3.org/2000/svg" xmlns:xlink="http://www.w3.org/1999/xlink" x="0px" y="0px"
	 viewBox="0 0 512 512" style="enable-background:new 0 0 512 512;" xml:space="preserve">
<g>
	<g>
		<g>
			<rect x="292.571" y="118.857" width="64" height="36.571"/>
			<rect x="246.857" y="365.714" width="18.286" height="91.429"/>
			<rect x="155.429" y="118.857" width="64" height="36.571"/>
			<path d="M182.857,256h-27.429c-5.049,0-9.143-4.093-9.143-9.143c0-5.049,4.093-9.143,9.143-9.143H192
				c2.425-0.001,4.752,0.961,6.466,2.676c1.715,1.715,2.678,4.041,2.676,6.467v45.714h109.714v-45.714
				c-0.001-2.425,0.961-4.752,2.676-6.467c1.715-1.715,4.041-2.678,6.466-2.676h36.571c5.049,0,9.143,4.093,9.143,9.143
				c0,5.049-4.093,9.143-9.143,9.143h-27.429v36.571h73.143V0H109.714v292.571h73.143V256z M274.286,118.857
				c0.013-10.094,8.192-18.273,18.286-18.286h64c10.094,0.013,18.273,8.192,18.286,18.286v36.571
				c-0.013,10.094-8.192,18.273-18.286,18.286h-64c-10.094-0.013-18.273-8.192-18.286-18.286V118.857z M137.143,155.429v-36.571
				c0.013-10.094,8.192-18.273,18.286-18.286h64c10.093,0.013,18.273,8.192,18.286,18.286v36.571
				c-0.013,10.094-8.192,18.273-18.286,18.286h-64C145.335,173.701,137.156,165.522,137.143,155.429z"/>
			<rect x="320" y="365.714" width="18.286" height="91.429"/>
			<path d="M438.857,365.714c5.049,0,9.143-4.093,9.143-9.143c0-5.049-4.093-9.143-9.143-9.143c-5.049,0-9.143-4.093-9.143-9.143
				c0-5.049,4.093-9.143,9.143-9.143c5.049,0,9.143-4.093,9.143-9.143c0-5.049-4.093-9.143-9.143-9.143H73.143
				c-5.049,0-9.143,4.093-9.143,9.143c0,5.049,4.093,9.143,9.143,9.143c5.049,0,9.143,4.093,9.143,9.143
				c0,5.049-4.093,9.143-9.143,9.143c-5.049,0-9.143,4.093-9.143,9.143c0,5.049,4.093,9.143,9.143,9.143
				c5.049,0,9.143,4.093,9.143,9.143c0,5.049-4.093,9.143-9.143,9.143c-5.049,0-9.143,4.093-9.143,9.143s4.093,9.143,9.143,9.143
				c5.049,0,9.143,4.093,9.143,9.143s-4.093,9.143-9.143,9.143c-5.049,0-9.143,4.093-9.143,9.143s4.093,9.143,9.143,9.143
				c5.049,0,9.143,4.093,9.143,9.143c0,5.049-4.093,9.143-9.143,9.143c-5.049,0-9.143,4.093-9.143,9.143
				c0,5.049,4.093,9.143,9.143,9.143c5.049,0,9.143,4.093,9.143,9.143c0,5.049-4.093,9.143-9.143,9.143
				c-5.049,0-9.143,4.093-9.143,9.143S68.093,512,73.143,512h365.714c5.049,0,9.143-4.093,9.143-9.143s-4.093-9.143-9.143-9.143
				c-5.049,0-9.143-4.093-9.143-9.143c0-5.049,4.093-9.143,9.143-9.143c5.049,0,9.143-4.093,9.143-9.143
				c0-5.049-4.093-9.143-9.143-9.143c-5.049,0-9.143-4.093-9.143-9.143c0-5.049,4.093-9.143,9.143-9.143
				c5.049,0,9.143-4.093,9.143-9.143s-4.093-9.143-9.143-9.143c-5.049,0-9.143-4.093-9.143-9.143s4.093-9.143,9.143-9.143
				c5.049,0,9.143-4.093,9.143-9.143S443.907,384,438.857,384c-5.049,0-9.143-4.093-9.143-9.143
				C429.714,369.808,433.808,365.714,438.857,365.714z M201.143,475.429h-36.571c-5.049,0-9.143-4.093-9.143-9.143
				c0-5.049,4.093-9.143,9.143-9.143h9.143v-78.5l-2.679,2.679c-2.305,2.334-5.683,3.254-8.852,2.412
				c-3.17-0.842-5.645-3.318-6.488-6.488c-0.842-3.17,0.078-6.548,2.412-8.852l18.274-18.274c2.616-2.609,6.545-3.389,9.959-1.979
				c3.415,1.411,5.647,4.736,5.659,8.431v100.571h9.143c5.049,0,9.143,4.093,9.143,9.143
				C210.286,471.335,206.192,475.429,201.143,475.429z M283.429,457.143c-0.013,10.094-8.192,18.273-18.286,18.286h-18.286
				c-10.093-0.013-18.273-8.192-18.286-18.286v-91.429c0.013-10.094,8.192-18.273,18.286-18.286h18.286
				c10.094,0.013,18.273,8.192,18.286,18.286V457.143z M356.571,457.143c-0.013,10.094-8.192,18.273-18.286,18.286H320
				c-10.094-0.013-18.273-8.192-18.286-18.286v-91.429c0.013-10.094,8.192-18.273,18.286-18.286h18.286
				c10.094,0.013,18.273,8.192,18.286,18.286V457.143z"/>
		</g>
	</g>
</g>
<g>
</g>
<g>
</g>
<g>
</g>
<g>
</g>
<g>
</g>
<g>
</g>
<g>
</g>
<g>
</g>
<g>
</g>
<g>
</g>
<g>
</g>
<g>
</g>
<g>
</g>
<g>
</g>
<g>
</g>
</svg>
