<?xml version="1.0" encoding="iso-8859-1"?>
<!-- Generator: Adobe Illustrator 19.0.0, SVG Export Plug-In . SVG Version: 6.00 Build 0)  -->
<svg version="1.1" id="Capa_1" xmlns="http://www.w3.org/2000/svg" xmlns:xlink="http://www.w3.org/1999/xlink" x="0px" y="0px"
	 viewBox="0 0 512 512" style="enable-background:new 0 0 512 512;" xml:space="preserve">
<g>
	<g>
		<g>
			<rect x="36.571" width="18.286" height="18.286"/>
			<rect y="73.143" width="18.286" height="18.286"/>
			<rect y="146.286" width="18.286" height="18.286"/>
			<rect x="73.143" y="73.143" width="18.286" height="18.286"/>
			<rect x="109.714" width="18.286" height="18.286"/>
			<rect x="73.143" y="146.286" width="18.286" height="18.286"/>
			<rect x="384" y="54.857" width="18.286" height="36.571"/>
			<path d="M512,73.143c-0.016-15.142-12.287-27.412-27.429-27.429h-64v54.857h64C499.713,100.555,511.984,88.284,512,73.143z"/>
			<path d="M384,180.661v84.482h18.286v-6.563c-0.01-6.454,5.207-11.698,11.661-11.723h40.679
				c6.454,0.025,11.67,5.269,11.661,11.723v6.563H512V164.571H405.349L384,180.661z"/>
			<rect x="182.857" width="18.286" height="18.286"/>
			<rect x="256" width="18.286" height="18.286"/>
			<rect x="146.286" y="73.143" width="18.286" height="18.286"/>
			<path d="M54.857,466.286V265.143c-0.003-5.048-4.095-9.139-9.143-9.143H0v219.429h45.714
				C50.762,475.425,54.854,471.334,54.857,466.286z"/>
			<rect x="146.286" y="146.286" width="128" height="18.286"/>
			<path d="M310.857,173.714V0h-18.286v18.286c-0.013,10.094-8.192,18.273-18.286,18.286H256
				c-10.094-0.013-18.273-8.192-18.286-18.286V0h-18.286v18.286c-0.013,10.094-8.192,18.273-18.286,18.286h-18.286
				c-10.094-0.013-18.273-8.192-18.286-18.286V0h-18.286v18.286c-0.013,10.094-8.192,18.273-18.286,18.286h-18.286
				c-10.094-0.013-18.273-8.192-18.286-18.286V0H73.143v18.286c-0.013,10.094-8.192,18.273-18.286,18.286H36.571
				c-10.093-0.013-18.273-8.192-18.286-18.286V0H0v54.857h18.286c10.094,0.013,18.273,8.192,18.286,18.286v18.286
				c-0.013,10.094-8.192,18.273-18.286,18.286H0V128h18.286c10.094,0.013,18.273,8.192,18.286,18.286v18.286
				c-0.013,10.094-8.192,18.273-18.286,18.286H0v18.286h283.429C298.57,201.126,310.841,188.856,310.857,173.714z M109.714,164.571
				c-0.013,10.094-8.192,18.273-18.286,18.286H73.143c-10.094-0.013-18.273-8.192-18.286-18.286v-18.286
				c0.013-10.093,8.192-18.273,18.286-18.286h18.286c10.094,0.013,18.273,8.192,18.286,18.286V164.571z M109.714,91.429
				c-0.013,10.094-8.192,18.273-18.286,18.286H73.143c-10.094-0.013-18.273-8.192-18.286-18.286V73.143
				c0.013-10.094,8.192-18.273,18.286-18.286h18.286c10.094,0.013,18.273,8.192,18.286,18.286V91.429z M201.143,73.143
				c0.013-10.094,8.192-18.273,18.286-18.286h54.857c10.094,0.013,18.273,8.192,18.286,18.286v18.286
				c-0.013,10.094-8.192,18.273-18.286,18.286h-54.857c-10.094-0.013-18.273-8.192-18.286-18.286V73.143z M128,73.143
				c0.013-10.094,8.192-18.273,18.286-18.286h18.286c10.094,0.013,18.273,8.192,18.286,18.286v18.286
				c-0.013,10.094-8.192,18.273-18.286,18.286h-18.286c-10.093-0.013-18.273-8.192-18.286-18.286V73.143z M146.286,182.857
				c-10.093-0.013-18.273-8.192-18.286-18.286v-18.286c0.013-10.093,8.192-18.273,18.286-18.286h128
				c10.094,0.013,18.273,8.192,18.286,18.286v18.286c-0.013,10.094-8.192,18.273-18.286,18.286H146.286z"/>
			<rect x="219.429" y="73.143" width="54.857" height="18.286"/>
			<path d="M329.143,173.714c-0.03,25.235-20.479,45.685-45.714,45.714H0v18.286h45.714c15.142,0.017,27.412,12.287,27.429,27.429
				v201.143c-0.017,15.142-12.287,27.412-27.429,27.429H0V512h329.143c20.189-0.02,36.551-16.382,36.571-36.571V0h-36.571V173.714z"
				/>
		</g>
	</g>
</g>
<g>
</g>
<g>
</g>
<g>
</g>
<g>
</g>
<g>
</g>
<g>
</g>
<g>
</g>
<g>
</g>
<g>
</g>
<g>
</g>
<g>
</g>
<g>
</g>
<g>
</g>
<g>
</g>
<g>
</g>
</svg>
