<?xml version="1.0" encoding="iso-8859-1"?>
<!-- Generator: Adobe Illustrator 19.0.0, SVG Export Plug-In . SVG Version: 6.00 Build 0)  -->
<svg version="1.1" id="Capa_1" xmlns="http://www.w3.org/2000/svg" xmlns:xlink="http://www.w3.org/1999/xlink" x="0px" y="0px"
	 viewBox="0 0 503.054 503.054" style="enable-background:new 0 0 503.054 503.054;" xml:space="preserve">
<g>
	<g>
		<g>
			<path d="M443.659,0.123L420.398,23.38l11.673,11.673c2.276,2.268,3.167,5.578,2.337,8.682c-0.83,3.104-3.254,5.528-6.357,6.357
				c-3.104,0.83-6.414-0.061-8.682-2.337l-11.674-11.674l-41.242,41.236l59.408,59.404l41.237-41.237l-11.675-11.675
				c-3.508-3.508-3.508-9.194,0-12.702s9.194-3.507,12.702,0l11.675,11.675l23.254-23.254L443.659,0.123z"/>
			<path d="M191.887,243.781L191.887,243.781c-17.901-0.049-35.077,7.064-47.702,19.755L7.878,399.843
				c-10.504,10.533-10.504,27.581,0,38.114l57.346,57.342c10.666,10.175,27.444,10.175,38.11,0L230.76,367.87l0.001-0.001
				l5.256-5.255l3.622-3.622c19.285-19.312,25.044-48.337,14.594-73.549C243.782,260.23,219.18,243.789,191.887,243.781z
				 M216.4,335.536c-9.845,9.882-24.675,12.858-37.57,7.538c-12.895-5.32-21.314-17.886-21.328-31.835s8.38-26.532,21.265-31.877
				s27.721-2.399,37.585,7.464c6.515,6.427,10.187,15.194,10.196,24.345C226.557,320.322,222.903,329.096,216.4,335.536z"/>
			<path d="M191.957,294.685c-6.659-0.003-12.662,4.015-15.197,10.173c-2.535,6.158-1.101,13.237,3.631,17.923
				c5.274,5.253,13.419,6.308,19.858,2.573c6.439-3.736,9.565-11.33,7.622-18.516C205.928,299.652,199.401,294.667,191.957,294.685z
				"/>
			<path d="M338.387,74.658c-0.705-0.711-1.665-1.112-2.667-1.114h-0.004c-0.986-0.004-1.932,0.388-2.627,1.088l-151.98,151.977
				c24.341-3.134,48.852,4.361,67.278,20.571s28.982,39.568,28.974,64.11c-0.026,3.586-0.274,7.168-0.744,10.723l151.928-151.925
				c0.699-0.697,1.091-1.645,1.088-2.632c-0.001-0.997-0.399-1.954-1.105-2.658L338.387,74.658z"/>
		</g>
	</g>
</g>
<g>
</g>
<g>
</g>
<g>
</g>
<g>
</g>
<g>
</g>
<g>
</g>
<g>
</g>
<g>
</g>
<g>
</g>
<g>
</g>
<g>
</g>
<g>
</g>
<g>
</g>
<g>
</g>
<g>
</g>
</svg>
