<?xml version="1.0" encoding="iso-8859-1"?>
<!-- Generator: Adobe Illustrator 19.0.0, SVG Export Plug-In . SVG Version: 6.00 Build 0)  -->
<svg version="1.1" id="Capa_1" xmlns="http://www.w3.org/2000/svg" xmlns:xlink="http://www.w3.org/1999/xlink" x="0px" y="0px"
	 viewBox="0 0 512 512" style="enable-background:new 0 0 512 512;" xml:space="preserve">
<g>
	<g>
		<g>
			<path d="M137.143,365.714v45.714c0.005,5.047,4.095,9.138,9.143,9.143h219.429c5.047-0.005,9.138-4.096,9.143-9.143v-45.714
				h-18.286v27.429c0.001,2.425-0.962,4.751-2.677,6.466c-1.715,1.715-4.041,2.678-6.466,2.677H164.571
				c-2.425,0.001-4.751-0.962-6.466-2.677c-1.715-1.715-2.678-4.041-2.677-6.466v-27.429H137.143z"/>
			<rect x="173.714" y="365.714" width="18.286" height="18.286"/>
			<rect x="283.429" y="365.714" width="18.286" height="18.286"/>
			<rect x="246.857" y="365.714" width="18.286" height="18.286"/>
			<rect x="210.286" y="365.714" width="18.286" height="18.286"/>
			<path d="M393.143,411.429c-0.017,15.142-12.287,27.412-27.429,27.429H146.286c-15.142-0.017-27.412-12.287-27.429-27.429v-45.714
				H0V448c0.017,15.142,12.287,27.412,27.429,27.429h457.143C499.713,475.412,511.984,463.142,512,448v-82.286H393.143V411.429z
				 M73.143,420.571c-0.012,10.094-8.192,18.274-18.286,18.286H36.571c-10.094-0.012-18.274-8.192-18.286-18.286v-18.286
				c0.012-10.094,8.192-18.274,18.286-18.286h18.286c10.094,0.012,18.274,8.192,18.286,18.286V420.571z M475.611,409.688
				c0.084-0.604,0.268-1.189,0.545-1.732c0.201-0.585,0.479-1.14,0.826-1.652l1.098-1.366c2.626-2.599,6.561-3.357,9.964-1.92
				c1.119,0.442,2.143,1.094,3.018,1.92c0.393,0.432,0.758,0.888,1.094,1.366c0.347,0.511,0.625,1.067,0.826,1.652
				c0.276,0.544,0.461,1.129,0.549,1.732c0.105,0.575,0.167,1.157,0.183,1.741c-0.015,1.194-0.263,2.374-0.732,3.473
				c-0.466,1.106-1.115,2.127-1.92,3.018c-0.889,0.807-1.91,1.456-3.018,1.92c-2.214,0.976-4.737,0.976-6.951,0
				c-2.294-0.836-4.101-2.643-4.937-4.937c-0.467-1.099-0.715-2.28-0.728-3.474C475.443,410.844,475.504,410.262,475.611,409.688z
				 M439.04,409.688c0.084-0.604,0.268-1.189,0.545-1.732c0.201-0.585,0.479-1.14,0.826-1.652l1.098-1.366
				c2.63-2.591,6.56-3.348,9.964-1.92c1.108,0.464,2.129,1.113,3.018,1.92c0.366,0.455,0.732,0.911,1.094,1.366
				c0.347,0.511,0.625,1.067,0.826,1.652c0.276,0.544,0.461,1.129,0.549,1.732c0.105,0.575,0.167,1.157,0.183,1.741
				c-0.015,1.194-0.263,2.374-0.732,3.473c-0.466,1.106-1.115,2.127-1.92,3.018c-0.889,0.807-1.91,1.456-3.018,1.92
				c-2.214,0.976-4.737,0.976-6.951,0c-2.294-0.836-4.101-2.643-4.937-4.937c-0.509-1.086-0.758-2.275-0.728-3.474
				C438.872,410.844,438.933,410.262,439.04,409.688z"/>
			<rect x="36.571" y="402.286" width="18.286" height="18.286"/>
			<polygon points="408.658,0 103.342,0 21.056,54.857 490.944,54.857 			"/>
			<rect y="73.143" width="512" height="18.286"/>
			<path d="M423.271,109.714H88.729L3.831,347.429h504.338L423.271,109.714z M456.277,329.143H55.723
				c-5.946-0.003-11.519-2.895-14.944-7.755c-3.425-4.86-4.275-11.081-2.279-16.682l58.781-164.562
				c2.606-7.273,9.493-12.13,17.219-12.143h283c7.726,0.013,14.613,4.87,17.219,12.143L473.5,304.714
				c1.994,5.6,1.143,11.819-2.282,16.677C467.793,326.249,462.221,329.14,456.277,329.143z"/>
			<rect x="64" y="493.714" width="384" height="18.286"/>
			<rect x="320" y="365.714" width="18.286" height="18.286"/>
			<path d="M114.5,146.286L55.723,310.857v0.009l-0.009,0.018l400.563-0.027l-58.781-164.571H114.5z M165.299,170.241
				L165.299,170.241c0.464-1.108,1.115-2.129,1.924-3.018c2.137-2.22,5.26-3.194,8.279-2.582c3.02,0.612,5.518,2.724,6.622,5.6
				c1.626,3.827,0.465,8.269-2.826,10.811s-7.883,2.541-11.174,0C164.834,178.51,163.672,174.068,165.299,170.241z M113.786,202.679
				l27.429-18.286c4.199-2.741,9.823-1.588,12.604,2.585c2.782,4.172,1.684,9.807-2.462,12.629l-27.429,18.286
				c-2.718,1.85-6.219,2.099-9.171,0.652c-2.952-1.448-4.899-4.368-5.1-7.65C109.456,207.613,111.033,204.476,113.786,202.679z
				 M233.777,181.232l-118.857,82.286c-2.686,1.868-6.165,2.158-9.123,0.762c-2.958-1.396-4.946-4.266-5.211-7.527
				c-0.266-3.26,1.23-6.414,3.924-8.271l118.857-82.286c4.152-2.862,9.837-1.823,12.708,2.323
				C238.945,172.666,237.917,178.353,233.777,181.232z"/>
		</g>
	</g>
</g>
<g>
</g>
<g>
</g>
<g>
</g>
<g>
</g>
<g>
</g>
<g>
</g>
<g>
</g>
<g>
</g>
<g>
</g>
<g>
</g>
<g>
</g>
<g>
</g>
<g>
</g>
<g>
</g>
<g>
</g>
</svg>
