<?xml version="1.0" encoding="iso-8859-1"?>
<!-- Generator: Adobe Illustrator 19.0.0, SVG Export Plug-In . SVG Version: 6.00 Build 0)  -->
<svg version="1.1" id="Capa_1" xmlns="http://www.w3.org/2000/svg" xmlns:xlink="http://www.w3.org/1999/xlink" x="0px" y="0px"
	 viewBox="0 0 512 512" style="enable-background:new 0 0 512 512;" xml:space="preserve">
<g>
	<g>
		<g>
			<rect x="173.714" y="192" width="36.571" height="18.286"/>
			<path d="M173.714,402.286h164.571c5.049,0,9.143-4.093,9.143-9.143v-27.429c0-5.049-4.093-9.143-9.143-9.143H173.714
				c-5.049,0-9.143,4.093-9.143,9.143v27.429C164.571,398.192,168.665,402.286,173.714,402.286z"/>
			<path d="M128,420.571c0.012,10.094,8.192,18.274,18.286,18.286h219.429c10.094-0.012,18.274-8.192,18.286-18.286V118.857H128
				V420.571z M155.429,182.857c-0.001-2.425,0.962-4.751,2.677-6.466c1.715-1.715,4.041-2.678,6.466-2.677v-9.143
				c0-15.148,12.28-27.429,27.429-27.429s27.429,12.28,27.429,27.429v9.143c2.425-0.001,4.751,0.962,6.466,2.677
				c1.715,1.715,2.678,4.041,2.677,6.466v36.571c0.001,2.425-0.962,4.751-2.677,6.466c-1.715,1.715-4.041,2.678-6.466,2.677h-54.857
				c-2.425,0.001-4.751-0.962-6.466-2.677c-1.715-1.715-2.678-4.041-2.677-6.466V182.857z M146.286,365.714
				c0.017-15.142,12.287-27.412,27.429-27.429h164.571c15.142,0.017,27.412,12.287,27.429,27.429v27.429
				c-0.017,15.142-12.287,27.412-27.429,27.429H173.714c-15.142-0.017-27.412-12.287-27.429-27.429V365.714z"/>
			<path d="M201.143,164.571c0-5.049-4.093-9.143-9.143-9.143s-9.143,4.093-9.143,9.143v9.143h18.286V164.571z"/>
			<rect x="54.857" y="82.286" width="18.286" height="54.857"/>
			<path d="M365.714,45.714H146.286C136.192,45.726,128.012,53.906,128,64v36.571h256V64
				C383.988,53.906,375.808,45.726,365.714,45.714z M246.857,82.286h-91.429c-5.049,0-9.143-4.093-9.143-9.143
				c0-5.049,4.093-9.143,9.143-9.143h91.429c5.049,0,9.143,4.093,9.143,9.143C256,78.192,251.907,82.286,246.857,82.286z
				 M310.857,82.286h-27.429c-5.049,0-9.143-4.093-9.143-9.143c0-5.049,4.093-9.143,9.143-9.143h27.429
				c5.049,0,9.143,4.093,9.143,9.143C320,78.192,315.907,82.286,310.857,82.286z M356.571,82.286h-9.143
				c-5.049,0-9.143-4.093-9.143-9.143c0-5.049,4.093-9.143,9.143-9.143h9.143c5.049,0,9.143,4.093,9.143,9.143
				C365.714,78.192,361.621,82.286,356.571,82.286z"/>
			<path d="M448,164.571h9.143V67.786L389.357,0H64c-5.047,0.005-9.138,4.095-9.143,9.143V64h18.286
				c10.094,0.012,18.274,8.192,18.286,18.286v128c-0.012,10.094-8.192,18.274-18.286,18.286H54.857v274.286
				c0.005,5.047,4.096,9.138,9.143,9.143h384c5.047-0.005,9.138-4.095,9.143-9.143V228.571H448
				c-10.094-0.012-18.274-8.192-18.286-18.286v-27.429C429.726,172.763,437.906,164.583,448,164.571z M356.571,493.714H155.429
				c-5.049,0-9.143-4.093-9.143-9.143c0-5.049,4.093-9.143,9.143-9.143h201.143c5.049,0,9.143,4.093,9.143,9.143
				C365.714,489.621,361.621,493.714,356.571,493.714z M402.286,420.571c-0.021,20.189-16.383,36.55-36.571,36.571H146.286
				c-20.189-0.022-36.55-16.383-36.571-36.571V64c0.021-20.189,16.383-36.55,36.571-36.571h219.429
				c20.189,0.021,36.55,16.383,36.571,36.571V420.571z"/>
		</g>
	</g>
</g>
<g>
</g>
<g>
</g>
<g>
</g>
<g>
</g>
<g>
</g>
<g>
</g>
<g>
</g>
<g>
</g>
<g>
</g>
<g>
</g>
<g>
</g>
<g>
</g>
<g>
</g>
<g>
</g>
<g>
</g>
</svg>
