<?xml version="1.0" encoding="iso-8859-1"?>
<!-- Generator: Adobe Illustrator 19.0.0, SVG Export Plug-In . SVG Version: 6.00 Build 0)  -->
<svg version="1.1" id="Capa_1" xmlns="http://www.w3.org/2000/svg" xmlns:xlink="http://www.w3.org/1999/xlink" x="0px" y="0px"
	 viewBox="0 0 512.013 512.013" style="enable-background:new 0 0 512.013 512.013;" xml:space="preserve">
<g>
	<g>
		<g>
			<polygon points="365.714,438.864 365.714,475.435 384,475.435 420.571,475.435 438.866,475.435 438.857,438.864 			"/>
			<rect x="393.143" y="493.721" width="18.286" height="18.286"/>
			<path d="M484.571,9.15c-0.005-5.047-4.096-9.138-9.143-9.143H329.143c-5.047,0.005-9.138,4.095-9.143,9.143v137.143h164.571V9.15
				z"/>
			<path d="M415.598,277.31c-1.454,8.824-9.093,15.29-18.036,15.268H373.46l-15.241,91.429h27.313l9.036-49.036
				c1.6-8.672,9.164-14.966,17.982-14.964h32.719l-22.638-84.821L415.598,277.31z"/>
			<path d="M512,164.578H292.571v256h219.442L512,164.578z M459.746,331.141c-3.448,4.524-8.816,7.171-14.505,7.152h-32.692
				l-9.036,49.036c-1.601,8.672-9.164,14.966-17.982,14.964h-27.308c-5.375,0.002-10.478-2.362-13.953-6.462
				c-3.475-4.1-4.97-9.522-4.087-14.824l15.241-91.429c1.441-8.834,9.085-15.312,18.036-15.286h24.103l13.991-83.794
				c0.711-4.245,4.286-7.42,8.585-7.625c4.288-0.167,8.127,2.64,9.268,6.777l33.504,125.643
				C464.397,320.779,463.225,326.646,459.746,331.141z"/>
			<rect x="100.571" y="493.721" width="18.286" height="18.286"/>
			<path d="M192,9.15c-0.005-5.047-4.095-9.138-9.143-9.143H36.571c-5.047,0.005-9.138,4.095-9.143,9.143v137.143H192V9.15z"/>
			<polygon points="73.143,438.864 73.143,475.435 91.429,475.435 128,475.435 146.295,475.435 146.286,438.864 			"/>
			<path d="M0,164.578v256h219.442l-0.013-256H0z M167.174,331.141c-3.448,4.524-8.816,7.171-14.505,7.152h-32.692l-9.036,49.036
				c-1.601,8.672-9.164,14.966-17.982,14.964H65.652c-5.375,0.002-10.478-2.362-13.953-6.462c-3.475-4.1-4.97-9.522-4.087-14.824
				l15.241-91.429c1.441-8.834,9.085-15.312,18.036-15.286h24.103l13.991-83.794c0.71-4.245,4.285-7.421,8.584-7.625
				c4.299-0.204,8.159,2.618,9.268,6.777l33.504,125.643C171.825,320.78,170.654,326.646,167.174,331.141z"/>
			<path d="M123.027,277.31c-1.454,8.824-9.093,15.29-18.036,15.268H80.888l-15.241,91.429H92.96l9.036-49.036
				c1.601-8.672,9.164-14.966,17.982-14.964h32.719l-22.638-84.821L123.027,277.31z"/>
		</g>
	</g>
</g>
<g>
</g>
<g>
</g>
<g>
</g>
<g>
</g>
<g>
</g>
<g>
</g>
<g>
</g>
<g>
</g>
<g>
</g>
<g>
</g>
<g>
</g>
<g>
</g>
<g>
</g>
<g>
</g>
<g>
</g>
</svg>
