<?xml version="1.0" encoding="iso-8859-1"?>
<!-- Generator: Adobe Illustrator 19.0.0, SVG Export Plug-In . SVG Version: 6.00 Build 0)  -->
<svg version="1.1" id="Capa_1" xmlns="http://www.w3.org/2000/svg" xmlns:xlink="http://www.w3.org/1999/xlink" x="0px" y="0px"
	 viewBox="0 0 512 512" style="enable-background:new 0 0 512 512;" xml:space="preserve">
<g>
	<g>
		<g>
			<rect x="210.286" y="356.571" width="91.429" height="18.286"/>
			<rect x="137.143" y="201.143" width="237.714" height="45.714"/>
			<path d="M402.286,137.143H109.714c-5.047,0.005-9.138,4.095-9.143,9.143v184.388c0.007,2.032,0.685,4.005,1.929,5.612
				l27.232,35.035v0.004c1.736,2.221,4.395,3.523,7.214,3.532H192v-27.429c-0.001-2.425,0.962-4.751,2.677-6.466
				c1.715-1.715,4.041-2.678,6.466-2.677h109.714c2.425-0.001,4.751,0.962,6.466,2.677c1.715,1.715,2.678,4.041,2.677,6.466v27.429
				h55.054c2.819-0.008,5.478-1.31,7.214-3.531l27.232-35.045c1.245-1.605,1.923-3.576,1.929-5.607V146.286
				C411.424,141.238,407.333,137.148,402.286,137.143z M393.143,246.857c-0.012,10.094-8.192,18.274-18.286,18.286H137.143
				c-10.094-0.012-18.274-8.192-18.286-18.286v-45.714c0.012-10.094,8.192-18.274,18.286-18.286h237.714
				c10.094,0.012,18.274,8.192,18.286,18.286V246.857z"/>
			<path d="M465.902,0H46.098C20.863,0.03,0.414,20.479,0.384,45.714v420.571C0.414,491.521,20.863,511.97,46.098,512h419.803
				c25.235-0.03,45.685-20.479,45.714-45.714V45.714C511.586,20.479,491.137,0.03,465.902,0z M466.286,341.513
				c0.012,5.769-1.807,11.393-5.196,16.062l-43.937,60.782c-5.168,7.124-13.431,11.345-22.232,11.357H117.08
				c-8.801-0.012-17.065-4.233-22.232-11.357L50.911,357.58c-3.388-4.671-5.208-10.297-5.196-16.067V128
				c0.03-25.235,20.479-45.685,45.714-45.714h329.143c25.235,0.03,45.685,20.479,45.714,45.714V341.513z"/>
			<path d="M420.571,100.571H91.429C76.287,100.588,64.017,112.858,64,128v213.513c-0.003,1.924,0.603,3.799,1.732,5.357
				l43.938,60.773c1.722,2.375,4.477,3.782,7.411,3.786H394.92c2.934-0.003,5.689-1.411,7.411-3.786l43.938-60.777
				c1.13-1.556,1.736-3.43,1.732-5.353V128C447.983,112.858,435.713,100.588,420.571,100.571z M429.714,330.674
				c-0.01,6.092-2.038,12.009-5.768,16.826l-27.232,35.045c-5.181,6.707-13.186,10.624-21.661,10.598H136.946
				c-8.476,0.026-16.482-3.893-21.661-10.603l-27.232-35.035c-3.729-4.819-5.757-10.737-5.768-16.831V146.286
				c0.017-15.142,12.287-27.412,27.429-27.429h292.571c15.142,0.016,27.412,12.287,27.429,27.429V330.674z"/>
		</g>
	</g>
</g>
<g>
</g>
<g>
</g>
<g>
</g>
<g>
</g>
<g>
</g>
<g>
</g>
<g>
</g>
<g>
</g>
<g>
</g>
<g>
</g>
<g>
</g>
<g>
</g>
<g>
</g>
<g>
</g>
<g>
</g>
</svg>
