<?xml version="1.0" encoding="iso-8859-1"?>
<!-- Generator: Adobe Illustrator 19.0.0, SVG Export Plug-In . SVG Version: 6.00 Build 0)  -->
<svg version="1.1" id="Capa_1" xmlns="http://www.w3.org/2000/svg" xmlns:xlink="http://www.w3.org/1999/xlink" x="0px" y="0px"
	 viewBox="0 0 512 512" style="enable-background:new 0 0 512 512;" xml:space="preserve">
<g>
	<g>
		<g>
			<rect x="292.571" y="100.571" width="18.286" height="27.429"/>
			<path d="M256,256c-56.362,0-104.167,36.499-109.204,83.204c5.177,56.525,52.636,99.756,109.397,99.652
				c56.762-0.104,104.062-43.508,109.032-100.052C360.472,292.709,312.528,256,256,256z"/>
			<path d="M256,237.714c34.505-0.531,67.959,11.874,93.776,34.773c-19.813-32.976-55.489-53.122-93.96-53.058
				s-74.08,20.329-93.783,53.371C187.82,249.689,221.377,237.159,256,237.714z"/>
			<rect x="201.143" y="100.571" width="18.286" height="27.429"/>
			<path d="M256,182.857c-80.791,0-146.286,65.494-146.286,146.286S175.209,475.429,256,475.429s146.286-65.494,146.286-146.286
				C402.193,248.39,336.753,182.95,256,182.857z M383.545,339.018c0,0.105-0.056,0.192-0.06,0.296
				c-5.245,66.519-60.753,117.825-127.479,117.829c-66.726,0.003-122.239-51.297-127.49-117.816c-0.005-0.108-0.06-0.199-0.06-0.309
				v-0.094l0.03-0.196c-0.238-3.176-0.485-6.35-0.485-9.585c0-70.692,57.308-128,128-128s128,57.308,128,128
				c0,3.175-0.248,6.288-0.477,9.406C383.531,338.712,383.545,338.876,383.545,339.018z"/>
			<path d="M465.902,0H46.098C20.863,0.03,0.414,20.479,0.384,45.714v420.571C0.414,491.521,20.863,511.97,46.098,512h419.803
				c25.235-0.03,45.685-20.479,45.714-45.714V45.714C511.586,20.479,491.137,0.03,465.902,0z M182.857,100.571
				c0.021-6.502,3.505-12.501,9.143-15.742V73.143c0.033-30.283,24.574-54.824,54.857-54.857h18.286
				C295.426,18.319,319.967,42.86,320,73.143V84.83c5.637,3.241,9.121,9.239,9.143,15.742V128
				c-0.012,10.094-8.192,18.274-18.286,18.286h-18.286c-10.094-0.012-18.274-8.192-18.286-18.286v-27.429
				c0.012-10.094,8.192-18.274,18.286-18.286h9.143v-9.143c-0.021-20.189-16.383-36.55-36.571-36.571h-18.286
				c-20.189,0.022-36.55,16.383-36.571,36.571v9.143h9.143c10.094,0.012,18.274,8.192,18.286,18.286V128
				c-0.012,10.094-8.192,18.274-18.286,18.286h-18.286c-10.094-0.012-18.274-8.192-18.286-18.286V100.571z M256,493.714
				c-90.89,0-164.571-73.681-164.571-164.571S165.11,164.571,256,164.571s164.571,73.681,164.571,164.571
				C420.468,419.99,346.847,493.61,256,493.714z"/>
		</g>
	</g>
</g>
<g>
</g>
<g>
</g>
<g>
</g>
<g>
</g>
<g>
</g>
<g>
</g>
<g>
</g>
<g>
</g>
<g>
</g>
<g>
</g>
<g>
</g>
<g>
</g>
<g>
</g>
<g>
</g>
<g>
</g>
</svg>
