<?xml version="1.0" encoding="iso-8859-1"?>
<!-- Generator: Adobe Illustrator 19.0.0, SVG Export Plug-In . SVG Version: 6.00 Build 0)  -->
<svg version="1.1" id="Capa_1" xmlns="http://www.w3.org/2000/svg" xmlns:xlink="http://www.w3.org/1999/xlink" x="0px" y="0px"
	 viewBox="0 0 512 512" style="enable-background:new 0 0 512 512;" xml:space="preserve">
<g>
	<g>
		<g>
			<rect x="320" y="109.714" width="18.286" height="54.857"/>
			<rect x="173.714" y="109.714" width="18.286" height="54.857"/>
			<rect x="393.143" y="109.714" width="18.286" height="54.857"/>
			<rect x="54.857" y="429.714" width="54.857" height="27.429"/>
			<rect x="100.571" y="109.714" width="18.286" height="54.857"/>
			<rect x="246.857" y="109.714" width="18.286" height="54.857"/>
			<rect x="402.286" y="429.714" width="54.857" height="27.429"/>
			<path d="M393.143,310.857c0.012-10.094,8.192-18.274,18.286-18.286H448V73.13L64,73.143v219.429h36.571
				c10.094,0.012,18.274,8.192,18.286,18.286v36.571h27.429c10.094,0.012,18.274,8.192,18.286,18.286v45.714h182.857v-45.714
				c0.012-10.094,8.192-18.274,18.286-18.286h27.429V310.857z M137.143,173.714c0.001,2.425-0.962,4.751-2.677,6.466
				c-1.715,1.715-4.041,2.678-6.466,2.677H91.429c-2.425,0.001-4.751-0.962-6.466-2.677c-1.715-1.715-2.678-4.041-2.677-6.466
				v-73.143c-0.001-2.425,0.962-4.751,2.677-6.466c1.715-1.715,4.041-2.678,6.466-2.677H128c2.425-0.001,4.751,0.962,6.466,2.677
				c1.715,1.715,2.678,4.041,2.677,6.466V173.714z M210.286,173.714c0.001,2.425-0.962,4.751-2.677,6.466
				c-1.715,1.715-4.041,2.678-6.466,2.677h-36.571c-2.425,0.001-4.751-0.962-6.466-2.677c-1.715-1.715-2.678-4.041-2.677-6.466
				v-73.143c-0.001-2.425,0.962-4.751,2.677-6.466c1.715-1.715,4.041-2.678,6.466-2.677h36.571c2.425-0.001,4.751,0.962,6.466,2.677
				c1.715,1.715,2.678,4.041,2.677,6.466V173.714z M283.429,173.714c0.001,2.425-0.962,4.751-2.677,6.466
				c-1.715,1.715-4.041,2.678-6.466,2.677h-36.571c-2.425,0.001-4.751-0.962-6.466-2.677c-1.715-1.715-2.678-4.041-2.677-6.466
				v-73.143c-0.001-2.425,0.962-4.751,2.677-6.466c1.715-1.715,4.041-2.678,6.466-2.677h36.571c2.425-0.001,4.751,0.962,6.466,2.677
				c1.715,1.715,2.678,4.041,2.677,6.466V173.714z M356.571,173.714c0.001,2.425-0.962,4.751-2.677,6.466
				c-1.715,1.715-4.041,2.678-6.466,2.677h-36.571c-2.425,0.001-4.751-0.962-6.466-2.677c-1.715-1.715-2.678-4.041-2.677-6.466
				v-73.143c-0.001-2.425,0.962-4.751,2.677-6.466c1.715-1.715,4.041-2.678,6.466-2.677h36.571c2.425-0.001,4.751,0.962,6.466,2.677
				c1.715,1.715,2.678,4.041,2.677,6.466V173.714z M377.534,180.18c-1.715-1.715-2.678-4.041-2.677-6.466v-73.143
				c-0.001-2.425,0.962-4.751,2.677-6.466c1.715-1.715,4.041-2.678,6.466-2.677h36.571c2.425-0.001,4.751,0.962,6.466,2.677
				c1.715,1.715,2.678,4.041,2.677,6.466v73.143c0.001,2.425-0.962,4.751-2.677,6.466c-1.715,1.715-4.041,2.678-6.466,2.677H384
				C381.575,182.858,379.249,181.895,377.534,180.18z"/>
			<path d="M465.902,0H46.098C20.863,0.03,0.414,20.479,0.384,45.714v420.571C0.414,491.521,20.863,511.97,46.098,512h419.803
				c25.235-0.03,45.685-20.479,45.714-45.714V45.714C511.586,20.479,491.137,0.03,465.902,0z M128,466.286
				c0.001,2.425-0.962,4.751-2.677,6.466c-1.715,1.715-4.041,2.678-6.466,2.677H45.714c-2.425,0.001-4.751-0.962-6.466-2.677
				c-1.715-1.715-2.678-4.041-2.677-6.466v-45.714c-0.001-2.425,0.962-4.751,2.677-6.466c1.715-1.715,4.041-2.678,6.466-2.677
				h73.143c2.425-0.001,4.751,0.962,6.466,2.677c1.715,1.715,2.678,4.041,2.677,6.466V466.286z M365.714,411.429
				c-0.012,10.094-8.192,18.274-18.286,18.286H164.571c-10.094-0.012-18.274-8.192-18.286-18.286v-45.714h-27.429
				c-10.094-0.012-18.274-8.192-18.286-18.286v-36.571H64c-10.094-0.012-18.274-8.192-18.286-18.286V73.143
				C45.726,63.049,53.906,54.869,64,54.857h384c10.094,0.012,18.274,8.192,18.286,18.286v219.429
				c-0.012,10.094-8.192,18.274-18.286,18.286h-36.571v36.571c-0.012,10.094-8.192,18.274-18.286,18.286h-27.429V411.429z
				 M475.429,466.286c0.001,2.425-0.962,4.751-2.677,6.466c-1.715,1.715-4.041,2.678-6.466,2.677h-73.143
				c-2.425,0.001-4.751-0.962-6.466-2.677c-1.715-1.715-2.678-4.041-2.677-6.466v-45.714c-0.001-2.425,0.962-4.751,2.677-6.466
				c1.715-1.715,4.041-2.678,6.466-2.677h73.143c2.425-0.001,4.751,0.962,6.466,2.677c1.715,1.715,2.678,4.041,2.677,6.466V466.286z
				"/>
		</g>
	</g>
</g>
<g>
</g>
<g>
</g>
<g>
</g>
<g>
</g>
<g>
</g>
<g>
</g>
<g>
</g>
<g>
</g>
<g>
</g>
<g>
</g>
<g>
</g>
<g>
</g>
<g>
</g>
<g>
</g>
<g>
</g>
</svg>
