<?xml version="1.0" encoding="iso-8859-1"?>
<!-- Generator: Adobe Illustrator 19.0.0, SVG Export Plug-In . SVG Version: 6.00 Build 0)  -->
<svg version="1.1" id="Capa_1" xmlns="http://www.w3.org/2000/svg" xmlns:xlink="http://www.w3.org/1999/xlink" x="0px" y="0px"
	 viewBox="0 0 512 512" style="enable-background:new 0 0 512 512;" xml:space="preserve">
<g>
	<g>
		<g>
			<path d="M502.857,0H9.143C4.095,0.005,0.005,4.095,0,9.143v228.571c0.005,5.047,4.095,9.138,9.143,9.143h493.714
				c5.047-0.005,9.138-4.096,9.143-9.143V9.143C511.995,4.095,507.905,0.005,502.857,0z M226.339,139.166L226.339,139.166
				c-8.575,38.394-40.89,66.907-80.054,70.633v9.63c0,5.049-4.093,9.143-9.143,9.143c-5.049,0-9.143-4.093-9.143-9.143v-9.63
				c-39.164-3.727-71.479-32.239-80.054-70.633c-1.1-4.919,1.988-9.801,6.903-10.915c4.916-1.115,9.807,1.958,10.936,6.871
				c7.009,29.868,31.792,52.266,62.214,56.228v-18.475c-18.223-3.105-33.682-15.127-41.179-32.025
				c-2.039-4.614,0.045-10.008,4.656-12.053c4.612-2.045,10.008,0.033,12.058,4.642c4.57,10.28,13.576,17.917,24.464,20.744V128
				c-3.697-0.001-7.03-2.228-8.445-5.644s-0.633-7.348,1.981-9.963l9.143-9.143c0.786-0.759,1.704-1.368,2.709-1.799
				c0.302-0.127,0.612-0.237,0.926-0.329c0.719-0.237,1.464-0.382,2.219-0.432c0.322-0.034,0.645-0.051,0.969-0.049
				c0.977,0.03,1.943,0.218,2.86,0.557c0.081,0.031,0.168,0.029,0.249,0.062l0.032,0.008c0.996,0.432,1.906,1.041,2.686,1.797
				c0.085,0.079,0.196,0.103,0.279,0.185l9.143,9.143c2.614,2.615,3.396,6.547,1.981,9.963c-1.415,3.416-4.748,5.643-8.445,5.644
				v26.182c10.889-2.828,19.895-10.464,24.464-20.744c2.05-4.609,7.446-6.687,12.058-4.642c4.612,2.045,6.695,7.438,4.656,12.053
				c-7.496,16.898-22.955,28.92-41.179,32.025v18.475c30.422-3.961,55.205-26.36,62.214-56.228c1.129-4.912,6.02-7.985,10.936-6.871
				C224.352,129.365,227.439,134.246,226.339,139.166z M86.821,96.866C95.588,76.896,115.334,64,137.143,64
				s41.555,12.896,50.321,32.866c1.328,2.987,0.961,6.455-0.963,9.097s-5.113,4.056-8.363,3.708
				c-3.25-0.348-6.067-2.405-7.388-5.394c-5.836-13.358-19.03-21.991-33.607-21.991c-14.577,0-27.771,8.633-33.607,21.991
				c-2.05,4.609-7.446,6.687-12.058,4.642C86.866,106.874,84.782,101.48,86.821,96.866z M219.447,109.487
				c-2.366,0.538-4.848,0.114-6.901-1.179c-2.053-1.293-3.508-3.348-4.045-5.714c-7.612-33.28-37.218-56.879-71.357-56.879
				s-63.746,23.599-71.357,56.879c-1.129,4.912-6.02,7.985-10.936,6.871c-4.916-1.115-8.003-5.996-6.903-10.915
				c9.504-41.61,46.515-71.121,89.196-71.121c42.681,0,79.693,29.511,89.196,71.121C227.455,103.473,224.37,108.368,219.447,109.487
				z M365.714,210.286c-50.495,0-91.429-40.934-91.429-91.429c0-50.495,40.934-91.429,91.429-91.429
				c50.495,0,91.429,40.934,91.429,91.429C457.085,169.328,416.185,210.228,365.714,210.286z"/>
			<circle cx="365.714" cy="393.143" r="36.571"/>
			<path d="M164.571,384c-8.277-0.007-15.526,5.547-17.674,13.54c-2.148,7.993,1.341,16.432,8.506,20.576
				c7.165,4.143,16.22,2.956,22.076-2.893l0.012-0.017l0.017-0.011c5.226-5.229,6.787-13.091,3.955-19.92
				C178.631,388.446,171.964,383.996,164.571,384z"/>
			<path d="M502.857,265.143H9.143c-5.047,0.005-9.138,4.095-9.143,9.143v228.571c0.005,5.047,4.095,9.138,9.143,9.143h493.714
				c5.047-0.005,9.138-4.095,9.143-9.143V274.286C511.995,269.238,507.905,265.148,502.857,265.143z M87.548,431.718
				c-0.531,2.366-1.981,4.423-4.03,5.719c-2.049,1.298-4.529,1.729-6.896,1.197s-4.424-1.982-5.721-4.032
				c-11.594-18.206-16.3-39.956-13.268-61.326c5.95-40.311,37.601-71.968,77.911-77.925c21.378-3.046,43.14,1.661,61.349,13.268
				c2.783,1.737,4.422,4.833,4.294,8.111c-0.128,3.278-2.002,6.237-4.912,7.753c-2.91,1.516-6.408,1.357-9.168-0.417
				c-14.582-9.265-31.992-13.023-49.098-10.598c-32.208,4.761-57.496,30.055-62.25,62.263c-2.437,17.104,1.318,34.515,10.589,49.094
				C87.648,426.873,88.079,429.353,87.548,431.718z M114.17,399.237c1.231,3.033,0.748,6.492-1.268,9.071
				c-2.016,2.579-5.256,3.884-8.497,3.421c-3.24-0.463-5.986-2.622-7.2-5.662c-4.52-11.38-5.117-23.943-1.696-35.701
				c5.068-18.017,19.151-32.095,37.17-37.157c11.754-3.407,24.307-2.802,35.679,1.719c3.044,1.211,5.206,3.959,5.669,7.202
				c0.463,3.243-0.845,6.486-3.428,8.5s-6.047,2.493-9.079,1.253c-7.644-2.998-16.068-3.37-23.946-1.058
				c-11.802,3.418-21.029,12.645-24.446,24.446C110.798,383.154,111.165,391.587,114.17,399.237z M244.178,481.893
				c-1.714,1.715-4.039,2.679-6.464,2.679c-2.425,0-4.75-0.964-6.464-2.679l-48.217-48.217c-5.575,3.357-11.953,5.147-18.461,5.182
				c-20.198,0-36.571-16.374-36.571-36.571c0-20.198,16.374-36.571,36.571-36.571c20.198,0,36.571,16.374,36.571,36.571
				c-0.035,6.508-1.825,12.886-5.182,18.461l48.217,48.218c1.715,1.714,2.678,4.039,2.678,6.464S245.893,480.178,244.178,481.893z
				 M365.714,484.571c-50.495,0-91.429-40.934-91.429-91.429c0-50.495,40.934-91.429,91.429-91.429
				c50.495,0,91.429,40.934,91.429,91.429C457.085,443.614,416.185,484.514,365.714,484.571z"/>
			<path d="M365.714,320c-40.396,0-73.143,32.747-73.143,73.143s32.747,73.143,73.143,73.143s73.143-32.747,73.143-73.143
				C438.811,352.766,406.091,320.046,365.714,320z M365.714,448c-30.297,0-54.857-24.56-54.857-54.857s24.56-54.857,54.857-54.857
				s54.857,24.56,54.857,54.857C420.538,423.426,395.997,447.967,365.714,448z"/>
			<path d="M365.714,45.714c-40.396,0-73.143,32.747-73.143,73.143c0,40.396,32.747,73.143,73.143,73.143
				s73.143-32.747,73.143-73.143C438.811,78.481,406.091,45.76,365.714,45.714z M365.714,173.714
				c-30.297,0-54.857-24.56-54.857-54.857c0-30.297,24.56-54.857,54.857-54.857s54.857,24.56,54.857,54.857
				C420.538,149.14,395.997,173.681,365.714,173.714z"/>
			<circle cx="365.714" cy="118.857" r="36.571"/>
		</g>
	</g>
</g>
<g>
</g>
<g>
</g>
<g>
</g>
<g>
</g>
<g>
</g>
<g>
</g>
<g>
</g>
<g>
</g>
<g>
</g>
<g>
</g>
<g>
</g>
<g>
</g>
<g>
</g>
<g>
</g>
<g>
</g>
</svg>
