<?xml version="1.0" encoding="iso-8859-1"?>
<!-- Generator: Adobe Illustrator 19.0.0, SVG Export Plug-In . SVG Version: 6.00 Build 0)  -->
<svg version="1.1" id="Capa_1" xmlns="http://www.w3.org/2000/svg" xmlns:xlink="http://www.w3.org/1999/xlink" x="0px" y="0px"
	 viewBox="0 0 512 512" style="enable-background:new 0 0 512 512;" xml:space="preserve">
<g>
	<g>
		<g>
			<path d="M411.429,393.143V109.714c-0.007-5.047-4.096-9.136-9.143-9.143H109.714c-5.047,0.007-9.136,4.096-9.143,9.143v283.429
				c0.007,5.047,4.096,9.136,9.143,9.143h292.571C407.332,402.279,411.422,398.19,411.429,393.143z M256,137.143
				c46.143,0,82.286,24.098,82.286,54.857c0,5.049-4.093,9.143-9.143,9.143S320,197.049,320,192c0-19.826-29.308-36.571-64-36.571
				c-34.692,0-64,16.745-64,36.571s29.308,36.571,64,36.571c5.049,0,9.143,4.093,9.143,9.143s-4.093,9.143-9.143,9.143
				c-46.143,0-82.286-24.098-82.286-54.857C173.714,161.241,209.857,137.143,256,137.143z M347.429,356.571H164.571
				c-15.148,0-27.429-12.28-27.429-27.429s12.28-27.429,27.429-27.429h182.857c15.148,0,27.429,12.28,27.429,27.429
				S362.577,356.571,347.429,356.571z"/>
			<path d="M347.429,320H164.571c-5.049,0-9.143,4.093-9.143,9.143s4.093,9.143,9.143,9.143h182.857
				c5.049,0,9.143-4.093,9.143-9.143S352.478,320,347.429,320z"/>
			<path d="M429.714,64H82.286C72.191,64.01,64.01,72.191,64,82.286v347.429c0.01,10.095,8.191,18.276,18.286,18.286H160
				c7.571-0.008,13.706-6.143,13.714-13.714c0.026-4.755,1.123-9.442,3.21-13.714h-67.21c-15.142-0.017-27.412-12.287-27.429-27.429
				V109.714c0.017-15.142,12.287-27.412,27.429-27.429h292.571c15.142,0.017,27.412,12.287,27.429,27.429v283.429
				c-0.017,15.142-12.287,27.412-27.429,27.429h-67.21c2.087,4.272,3.184,8.96,3.21,13.714c0.008,7.571,6.144,13.706,13.714,13.714
				h77.714c10.094-0.012,18.274-8.192,18.286-18.286V82.286C447.988,72.192,439.808,64.012,429.714,64z"/>
			<path d="M512,83.853V0H0v83.853c10.959,3.875,18.286,14.237,18.286,25.862S10.959,131.701,0,135.576V512h512V135.576
				c-10.959-3.875-18.286-14.237-18.286-25.862S501.041,87.728,512,83.853z M35.839,488.045c-0.465,1.107-1.114,2.127-1.92,3.018
				c-3.605,3.536-9.377,3.536-12.982,0c-3.536-3.605-3.536-9.377,0-12.982c0.857-0.847,1.884-1.503,3.013-1.924
				c2.227-0.911,4.723-0.911,6.951,0c1.119,0.443,2.144,1.096,3.019,1.924c1.669,1.753,2.616,4.071,2.651,6.491
				C36.557,485.766,36.308,486.946,35.839,488.045z M33.92,33.92c-3.605,3.536-9.378,3.536-12.983,0
				c-3.536-3.605-3.536-9.378,0-12.983c3.666-3.384,9.317-3.384,12.983,0C37.456,24.542,37.456,30.315,33.92,33.92z
				 M466.286,429.714c-0.021,20.189-16.382,36.55-36.571,36.571H352c-17.664-0.021-31.979-14.336-32-32
				c-0.008-7.571-6.143-13.706-13.714-13.714H205.714c-7.571,0.008-13.706,6.143-13.714,13.714c-0.021,17.664-14.336,31.979-32,32
				H82.286c-20.188-0.023-36.548-16.383-36.571-36.571V82.286c0.023-20.188,16.383-36.548,36.571-36.571h347.429
				c20.189,0.021,36.55,16.383,36.571,36.571V429.714z M491.063,491.063c-2.616,2.637-6.567,3.43-9.997,2.006
				c-3.431-1.424-5.658-4.783-5.637-8.497c-0.034-1.201,0.217-2.393,0.732-3.478c0.441-1.118,1.093-2.141,1.92-3.013
				c3.666-3.384,9.316-3.384,12.982,0c0.827,0.872,1.479,1.895,1.92,3.013c0.469,1.1,0.717,2.282,0.731,3.478
				C493.678,486.992,492.731,489.309,491.063,491.063z M493.527,29.255L493.527,29.255c-0.095,0.574-0.279,1.13-0.544,1.648
				c-0.201,0.583-0.477,1.136-0.821,1.647c-0.366,0.455-0.732,0.911-1.098,1.37c-3.605,3.536-9.377,3.536-12.982,0
				c-0.392-0.436-0.759-0.893-1.098-1.37c-0.348-0.509-0.624-1.063-0.821-1.647c-0.264-0.519-0.45-1.074-0.554-1.647
				c-0.104-0.604-0.164-1.214-0.179-1.826c0.015-0.583,0.075-1.163,0.179-1.737c0.089-0.607,0.276-1.195,0.554-1.741
				c0.198-0.582,0.475-1.135,0.821-1.643c0.337-0.479,0.704-0.937,1.098-1.371c3.666-3.384,9.316-3.384,12.982,0
				c0.366,0.455,0.732,0.911,1.098,1.371c0.343,0.51,0.619,1.062,0.821,1.643c0.279,0.545,0.463,1.134,0.545,1.741
				c0.111,0.573,0.174,1.154,0.188,1.737C493.701,28.041,493.638,28.652,493.527,29.255z"/>
		</g>
	</g>
</g>
<g>
</g>
<g>
</g>
<g>
</g>
<g>
</g>
<g>
</g>
<g>
</g>
<g>
</g>
<g>
</g>
<g>
</g>
<g>
</g>
<g>
</g>
<g>
</g>
<g>
</g>
<g>
</g>
<g>
</g>
</svg>
