<?xml version="1.0" encoding="iso-8859-1"?>
<!-- Generator: Adobe Illustrator 19.0.0, SVG Export Plug-In . SVG Version: 6.00 Build 0)  -->
<svg version="1.1" id="Capa_1" xmlns="http://www.w3.org/2000/svg" xmlns:xlink="http://www.w3.org/1999/xlink" x="0px" y="0px"
	 viewBox="0 0 504.268 504.268" style="enable-background:new 0 0 504.268 504.268;" xml:space="preserve">
<g>
	<g>
		<g>
			<polygon points="255.92,235.42 255.92,209.554 209.554,255.92 235.42,255.92 			"/>
			
				<rect x="204.202" y="167.63" transform="matrix(-0.7071 -0.7071 0.7071 -0.7071 213.345 515.0577)" width="18.284" height="91.428"/>
			<polygon points="336.179,271.527 274.205,209.556 274.205,235.42 323.25,284.46 			"/>
			
				<rect x="249.226" y="272.084" transform="matrix(0.7071 0.7071 -0.7071 0.7071 281.2066 -116.4891)" width="64.003" height="18.284"/>
			<polygon points="284.46,323.25 235.42,274.205 209.556,274.205 271.527,336.179 			"/>
			<polygon points="245.67,155.161 271.529,181.02 271.531,181.025 349.109,258.601 362.04,245.67 232.739,116.368 219.807,129.301 
				245.664,155.157 			"/>
			<polygon points="239.205,96.973 239.214,96.987 374.969,232.741 387.902,219.808 252.143,84.05 252.134,84.045 252.125,84.031 
				232.741,64.647 219.808,77.58 239.192,96.964 			"/>
			<path d="M478.409,129.301l-7.574-7.574c-10.49,5.008-22.997,2.861-31.216-5.359c-8.219-8.22-10.365-20.728-5.355-31.217
				l-15.147-15.147c-10.489,5.009-22.997,2.864-31.217-5.355c-8.22-8.219-10.367-20.726-5.359-31.216L349.107,0l-25.859,25.859
				l129.301,129.301L478.409,129.301z"/>
			<polygon points="290.924,45.254 290.925,45.256 426.688,181.022 439.621,168.089 303.862,32.331 303.853,32.326 303.844,32.312 
				284.46,12.928 271.527,25.857 290.923,45.253 			"/>
			
				<rect x="251.214" y="126.623" transform="matrix(-0.7071 -0.7071 0.7071 -0.7071 488.9305 474.0506)" width="182.859" height="18.284"/>
			<polygon points="32.326,303.853 32.335,303.866 168.089,439.621 181.022,426.688 45.268,290.934 45.254,290.924 45.245,290.911 
				25.861,271.527 12.929,284.46 32.317,303.848 			"/>
			
				<rect x="44.335" y="333.502" transform="matrix(-0.7071 -0.7071 0.7071 -0.7071 -10.5213 680.93)" width="182.86" height="18.284"/>
			<path d="M25.86,323.248L0,349.107l33.433,33.433c10.49-5.008,22.997-2.861,31.216,5.359c8.219,8.22,10.365,20.728,5.355,31.217
				l15.147,15.147l0,0c10.489-5.009,22.997-2.864,31.217,5.355c8.22,8.219,10.367,20.726,5.359,31.216l7.574,7.574l25.859-25.859
				L25.86,323.248z"/>
			
				<rect x="146.016" y="482.195" transform="matrix(-0.7071 -0.7071 0.7071 -0.7071 -82.5561 948.4797)" width="18.287" height="18.285"/>
			
				<rect x="482.195" y="146.017" transform="matrix(0.7071 -0.7071 0.7071 0.7071 34.1949 392.8737)" width="18.286" height="18.287"/>
			
				<rect x="165.181" y="136.321" transform="matrix(0.7071 0.7071 -0.7071 0.7071 160.6084 -96.8232)" width="64.003" height="18.284"/>
			<polygon points="459.013,174.554 433.152,200.415 407.295,226.272 381.433,252.134 252.134,381.433 226.272,407.295 
				200.415,433.152 174.554,459.014 168.089,465.479 181.019,478.411 478.411,181.018 465.478,168.089 			"/>
			
				<rect x="170.536" y="175.108" transform="matrix(0.7071 0.7071 -0.7071 0.7071 184.2541 -76.3199)" width="27.432" height="18.29"/>
			
				<rect x="113.462" y="188.041" transform="matrix(0.7071 0.7071 -0.7071 0.7071 182.0343 -45.1047)" width="64.003" height="18.284"/>
			<polygon points="258.601,349.11 181.025,271.532 181.018,271.527 155.161,245.67 155.155,245.661 129.3,219.806 116.368,232.739 
				245.67,362.04 			"/>
			<polygon points="84.045,252.134 84.046,252.136 219.808,387.902 232.741,374.969 96.986,239.214 96.969,239.201 96.964,239.192 
				77.58,219.808 64.647,232.737 84.043,252.133 			"/>
		</g>
	</g>
</g>
<g>
</g>
<g>
</g>
<g>
</g>
<g>
</g>
<g>
</g>
<g>
</g>
<g>
</g>
<g>
</g>
<g>
</g>
<g>
</g>
<g>
</g>
<g>
</g>
<g>
</g>
<g>
</g>
<g>
</g>
</svg>
