<?xml version="1.0" encoding="iso-8859-1"?>
<!-- Generator: Adobe Illustrator 19.0.0, SVG Export Plug-In . SVG Version: 6.00 Build 0)  -->
<svg version="1.1" id="Capa_1" xmlns="http://www.w3.org/2000/svg" xmlns:xlink="http://www.w3.org/1999/xlink" x="0px" y="0px"
	 viewBox="0 0 512 512" style="enable-background:new 0 0 512 512;" xml:space="preserve">
<g>
	<g>
		<g>
			<polygon points="188.8,36.571 188.8,36.553 152.475,36.571 138.789,118.857 175.113,118.857 			"/>
			<polygon points="165.65,256 165.641,256 165.641,265.143 			"/>
			<polygon points="172.498,201.143 126.93,201.143 120.073,256 165.641,256 			"/>
			<circle cx="118.857" cy="320" r="9.143"/>
			<polygon points="414.601,173.714 432.603,173.714 429.559,155.429 411.557,155.429 			"/>
			<polygon points="402.414,100.571 420.416,100.571 417.371,82.286 399.36,82.286 			"/>
			<polygon points="414.318,64 411.273,45.714 393.271,45.714 396.315,64 			"/>
			<polygon points="408.503,137.143 426.505,137.143 423.461,118.857 405.458,118.857 			"/>
			<polygon points="422.217,219.429 440.219,219.429 435.648,192 417.646,192 			"/>
			<polygon points="354.139,164.571 347.291,109.714 301.714,109.714 308.571,164.571 			"/>
			<path d="M163.772,336.304c0.929-4.183,4.639-7.16,8.924-7.161h130.036c4.285,0,7.995,2.977,8.924,7.161l6.534,29.411h109.875
				L367.112,0H117.46L56.507,365.714h100.732L163.772,336.304z M383.857,272.018c0.65,5.204-0.965,10.437-4.436,14.369
				c-3.471,3.932-8.463,6.184-13.707,6.185h-45.571c-9.218-0.012-16.991-6.873-18.147-16.018l-6.857-54.857
				c-0.648-5.204,0.969-10.436,4.44-14.368c3.471-3.931,8.463-6.184,13.707-6.185h45.571c9.217,0.012,16.989,6.873,18.143,16.018
				L383.857,272.018z M340.937,48.366c2.319-2.319,5.699-3.225,8.867-2.376s5.643,3.323,6.491,6.491s-0.057,6.548-2.376,8.867
				c-3.585,3.585-9.398,3.585-12.983,0C337.352,57.763,337.352,51.951,340.937,48.366z M301.714,45.714h9.143
				c5.049,0,9.143,4.093,9.143,9.143c0,5.049-4.093,9.143-9.143,9.143h-9.143c-5.049,0-9.143-4.093-9.143-9.143
				C292.571,49.808,296.665,45.714,301.714,45.714z M288.005,97.616c3.471-3.933,8.464-6.186,13.71-6.188h45.571
				c9.218,0.012,16.991,6.873,18.147,16.018l6.857,54.857c0.648,5.204-0.969,10.436-4.44,14.368
				c-3.471,3.931-8.463,6.184-13.707,6.185h-45.571c-9.217-0.012-16.989-6.873-18.143-16.018l-6.857-54.857
				C282.92,106.779,284.535,101.547,288.005,97.616z M258.651,48.366c3.585-3.585,9.398-3.585,12.983,0
				c3.585,3.585,3.585,9.398,0,12.983c-2.319,2.319-5.699,3.225-8.867,2.376s-5.643-3.323-6.491-6.491
				S256.332,50.685,258.651,48.366z M120.754,115.853l13.688-82.281c1.441-8.834,9.085-15.313,18.036-15.286h36.321
				c5.374,0.001,10.476,2.367,13.95,6.467c3.474,4.101,4.968,9.522,4.086,14.823l-13.688,82.281
				c-1.445,8.832-9.087,15.308-18.036,15.286H138.79c-5.374-0.001-10.476-2.367-13.95-6.467
				C121.367,126.575,119.872,121.154,120.754,115.853z M101.929,253.733l6.857-54.857c1.154-9.145,8.925-16.006,18.143-16.018H172.5
				c4.847-0.021,9.5,1.901,12.918,5.338c3.418,3.437,5.315,8.101,5.266,12.947h10.459c5.049,0,9.143,4.093,9.143,9.143
				c0,5.049-4.093,9.143-9.143,9.143h-12.502l-2.286,18.286h14.788c5.049,0,9.143,4.093,9.143,9.143
				c0,5.049-4.093,9.143-9.143,9.143h-17.074l-0.283,2.267c-1.154,9.145-8.926,16.006-18.143,16.018h-45.571
				c-5.245,0-10.236-2.253-13.707-6.185C102.894,264.169,101.278,258.937,101.929,253.733z M118.857,347.429
				c-15.148,0-27.429-12.28-27.429-27.429s12.28-27.429,27.429-27.429c15.148,0,27.429,12.28,27.429,27.429
				C146.269,335.142,133.999,347.412,118.857,347.429z"/>
			<path d="M201.143,429.714v-9.143h-27.429v9.143c0,5.049-4.093,9.143-9.143,9.143v18.286h45.714v-18.286
				C205.236,438.857,201.143,434.764,201.143,429.714z"/>
			<path d="M9.143,365.714c-5.047,0.007-9.136,4.096-9.143,9.143v54.857h18.286v-54.857C18.279,369.81,14.19,365.721,9.143,365.714z
				"/>
			<path d="M301.714,429.714v-9.143h-27.429v9.143c0,5.049-4.093,9.143-9.143,9.143v18.286h45.714v-18.286
				C305.808,438.857,301.714,434.764,301.714,429.714z"/>
			<path d="M493.714,420.571c-2.425-0.001-4.75-0.964-6.464-2.679L453.357,384H36.571v109.714h18.286v-18.286
				c0-5.049,4.093-9.143,9.143-9.143h54.857c5.049,0,9.143,4.093,9.143,9.143v18.286h219.429v-18.286
				c0-5.049,4.093-9.143,9.143-9.143h64c5.049,0,9.143,4.093,9.143,9.143v18.286h23.643l33.893-33.893
				c1.714-1.715,4.04-2.678,6.465-2.679H512v-36.571H493.714z M228.571,466.286c0,5.049-4.093,9.143-9.143,9.143h-64
				c-5.049,0-9.143-4.093-9.143-9.143v-36.571c0-5.049,4.093-9.143,9.143-9.143v-9.143c0-5.049,4.093-9.143,9.143-9.143h45.714
				c5.049,0,9.143,4.093,9.143,9.143v9.143c5.049,0,9.143,4.093,9.143,9.143V466.286z M329.143,466.286
				c0,5.049-4.093,9.143-9.143,9.143h-64c-5.049,0-9.143-4.093-9.143-9.143v-36.571c0-5.049,4.093-9.143,9.143-9.143v-9.143
				c0-5.049,4.093-9.143,9.143-9.143h45.714c5.049,0,9.143,4.093,9.143,9.143v9.143c5.049,0,9.143,4.093,9.143,9.143V466.286z"/>
			<polygon points="246.857,365.714 299.456,365.714 295.397,347.429 246.857,347.429 			"/>
			<polygon points="313.289,219.429 320.146,274.286 365.714,274.286 358.857,219.429 			"/>
			<polygon points="228.571,365.714 228.571,347.429 180.032,347.429 175.973,365.714 			"/>
			<path d="M0,502.857C0,507.907,4.093,512,9.143,512c5.049,0,9.143-4.093,9.143-9.143V448H0V502.857z"/>
		</g>
	</g>
</g>
<g>
</g>
<g>
</g>
<g>
</g>
<g>
</g>
<g>
</g>
<g>
</g>
<g>
</g>
<g>
</g>
<g>
</g>
<g>
</g>
<g>
</g>
<g>
</g>
<g>
</g>
<g>
</g>
<g>
</g>
</svg>
