<?xml version="1.0" encoding="iso-8859-1"?>
<!-- Generator: Adobe Illustrator 19.0.0, SVG Export Plug-In . SVG Version: 6.00 Build 0)  -->
<svg version="1.1" id="Capa_1" xmlns="http://www.w3.org/2000/svg" xmlns:xlink="http://www.w3.org/1999/xlink" x="0px" y="0px"
	 viewBox="0 0 512 512" style="enable-background:new 0 0 512 512;" xml:space="preserve">
<g>
	<g>
		<g>
			<rect x="201.143" y="347.429" width="27.429" height="91.429"/>
			<rect x="283.429" y="347.429" width="27.429" height="91.429"/>
			<rect x="365.714" y="347.429" width="27.429" height="91.429"/>
			<path d="M118.857,292.571h27.429v-20.83c-5.637-3.241-9.121-9.239-9.143-15.742v-18.286c0.021-6.502,3.505-12.501,9.143-15.742
				v-20.83h-27.429V292.571z"/>
			<rect x="228.571" width="18.286" height="18.286"/>
			<rect x="301.714" width="18.286" height="18.286"/>
			<rect x="265.143" width="18.286" height="18.286"/>
			<rect x="283.429" y="100.571" width="45.714" height="45.714"/>
			<rect x="283.429" y="201.143" width="27.429" height="18.286"/>
			<rect x="118.857" y="347.429" width="27.429" height="91.429"/>
			<rect x="155.429" y="237.714" width="201.143" height="18.286"/>
			<rect x="201.143" y="201.143" width="27.429" height="18.286"/>
			<rect x="283.429" y="274.286" width="27.429" height="18.286"/>
			<path d="M429.714,46.87V9.143c-0.005-5.047-4.096-9.138-9.143-9.143h-45.714v54.857c0,5.049-4.093,9.143-9.143,9.143
				s-9.143-4.093-9.143-9.143V36.571h-18.286v18.286c0,5.049-4.093,9.143-9.143,9.143c-5.049,0-9.143-4.093-9.143-9.143V36.571
				h-18.286v18.286c0,5.049-4.093,9.143-9.143,9.143c-5.049,0-9.143-4.093-9.143-9.143V36.571h-18.286v18.286
				c0,5.049-4.093,9.143-9.143,9.143c-5.049,0-9.143-4.093-9.143-9.143V36.571h-18.286v18.286c0,5.049-4.093,9.143-9.143,9.143
				c-5.049,0-9.143-4.093-9.143-9.143V36.571H192v18.286c0,5.049-4.093,9.143-9.143,9.143c-5.049,0-9.143-4.093-9.143-9.143V0
				H91.429c-5.047,0.005-9.138,4.095-9.143,9.143V46.87c16.147,4.172,27.429,18.738,27.429,35.415s-11.281,31.244-27.429,35.415
				v385.156c0.005,5.047,4.095,9.138,9.143,9.143h329.143c5.047-0.005,9.138-4.095,9.143-9.143V117.701
				c-16.147-4.172-27.429-18.738-27.429-35.415S413.567,51.042,429.714,46.87z M265.143,91.429
				c-0.001-2.425,0.962-4.751,2.677-6.466c1.715-1.715,4.041-2.678,6.466-2.677h64c2.425-0.001,4.751,0.962,6.466,2.677
				c1.715,1.715,2.678,4.041,2.677,6.466v64c0.001,2.425-0.962,4.751-2.677,6.466c-1.715,1.715-4.041,2.678-6.466,2.677h-64
				c-2.425,0.001-4.751-0.962-6.466-2.677c-1.715-1.715-2.678-4.041-2.677-6.466V91.429z M103.223,33.92
				c-0.807-0.889-1.456-1.91-1.92-3.018c-0.469-1.099-0.717-2.279-0.731-3.474c0.032-2.421,0.979-4.74,2.651-6.491
				c2.196-2.146,5.31-3.07,8.321-2.469c0.572,0.099,1.125,0.283,1.643,0.545c0.562,0.183,1.087,0.463,1.554,0.826
				c2.568,1.67,4.117,4.526,4.116,7.589c-0.049,2.435-1.03,4.758-2.741,6.491c-0.421,0.409-0.882,0.775-1.375,1.094
				c-0.466,0.363-0.992,0.643-1.554,0.826c-0.518,0.261-1.072,0.446-1.643,0.549c-0.605,0.105-1.217,0.166-1.83,0.183
				C107.29,36.554,104.966,35.605,103.223,33.92z M103.223,139.794L103.223,139.794c2.189-2.158,5.31-3.084,8.321-2.468
				c0.572,0.099,1.125,0.283,1.643,0.545c0.562,0.183,1.087,0.463,1.554,0.826c0.492,0.322,0.953,0.689,1.375,1.098
				c0.422,0.433,0.819,0.891,1.188,1.37c0.343,0.51,0.619,1.062,0.821,1.643c0.265,0.518,0.449,1.073,0.545,1.647
				c0.107,0.605,0.169,1.216,0.188,1.83c-0.014,0.613-0.077,1.223-0.188,1.826c-0.096,0.574-0.28,1.129-0.545,1.647
				c-0.201,0.582-0.477,1.136-0.821,1.647c-0.371,0.478-0.768,0.935-1.188,1.371c-0.398,0.435-0.862,0.804-1.375,1.094
				c-0.466,0.363-0.992,0.643-1.554,0.826c-0.518,0.261-1.072,0.446-1.643,0.549c-0.606,0.1-1.217,0.161-1.83,0.183
				c-3.697-0.015-7.024-2.245-8.442-5.66C99.855,146.355,100.624,142.423,103.223,139.794z M118.125,488.045L118.125,488.045
				c-0.463,1.13-1.146,2.155-2.009,3.018c-0.421,0.409-0.882,0.775-1.375,1.094c-0.466,0.363-0.992,0.643-1.554,0.826
				c-0.518,0.261-1.072,0.446-1.643,0.549c-0.605,0.105-1.216,0.166-1.83,0.183c-2.424-0.017-4.749-0.967-6.491-2.651
				c-0.807-0.889-1.456-1.91-1.92-3.018c-0.469-1.099-0.717-2.279-0.731-3.474c0.032-2.421,0.979-4.74,2.651-6.491
				c2.189-2.159,5.31-3.084,8.321-2.469c0.572,0.099,1.125,0.283,1.643,0.545c0.562,0.183,1.087,0.463,1.554,0.826
				c0.513,0.292,0.977,0.662,1.375,1.098c0.422,0.433,0.819,0.891,1.188,1.37c0.343,0.51,0.619,1.062,0.821,1.643
				c0.265,0.518,0.449,1.073,0.545,1.647c0.111,0.604,0.174,1.216,0.188,1.831C118.842,485.766,118.594,486.946,118.125,488.045z
				 M164.571,448c0.001,2.425-0.962,4.751-2.677,6.466c-1.715,1.715-4.041,2.678-6.466,2.677h-45.714
				c-2.425,0.001-4.751-0.962-6.466-2.677c-1.715-1.715-2.678-4.041-2.677-6.466V338.286c-0.001-2.425,0.962-4.751,2.677-6.466
				c1.715-1.715,4.041-2.678,6.466-2.677h45.714c2.425-0.001,4.751,0.962,6.466,2.677c1.715,1.715,2.678,4.041,2.677,6.466V448z
				 M246.857,448c0.001,2.425-0.962,4.751-2.677,6.466c-1.715,1.715-4.041,2.678-6.466,2.677H192
				c-2.425,0.001-4.751-0.962-6.466-2.677c-1.715-1.715-2.678-4.041-2.677-6.466V338.286c-0.001-2.425,0.962-4.751,2.677-6.466
				c1.715-1.715,4.041-2.678,6.466-2.677h45.714c2.425-0.001,4.751,0.962,6.466,2.677c1.715,1.715,2.678,4.041,2.677,6.466V448z
				 M329.143,448c0.001,2.425-0.962,4.751-2.677,6.466c-1.715,1.715-4.041,2.678-6.466,2.677h-45.714
				c-2.425,0.001-4.751-0.962-6.466-2.677c-1.715-1.715-2.678-4.041-2.677-6.466V338.286c-0.001-2.425,0.962-4.751,2.677-6.466
				c1.715-1.715,4.041-2.678,6.466-2.677H320c2.425-0.001,4.751,0.962,6.466,2.677c1.715,1.715,2.678,4.041,2.677,6.466V448z
				 M410.696,488.045L410.696,488.045c-0.442,1.118-1.094,2.143-1.92,3.017c-0.435,0.393-0.894,0.758-1.375,1.094
				c-0.508,0.347-1.061,0.625-1.643,0.826c-0.547,0.276-1.135,0.461-1.741,0.549c-0.572,0.105-1.151,0.166-1.732,0.183
				c-2.42-0.036-4.738-0.982-6.491-2.651c-0.807-0.889-1.456-1.91-1.92-3.018c-0.976-2.214-0.976-4.737,0-6.951
				c0.464-1.107,1.113-2.126,1.92-3.013c2.181-2.104,5.244-3.023,8.223-2.469c0.606,0.084,1.195,0.268,1.741,0.545
				c0.582,0.201,1.134,0.479,1.643,0.826c0.455,0.366,0.92,0.732,1.375,1.098c0.827,0.872,1.479,1.895,1.92,3.013
				C411.673,483.308,411.673,485.831,410.696,488.045z M411.429,448c0.001,2.425-0.962,4.751-2.677,6.466
				c-1.715,1.715-4.041,2.678-6.466,2.677h-45.714c-2.425,0.001-4.751-0.962-6.466-2.677c-1.715-1.715-2.678-4.041-2.677-6.466
				V338.286c-0.001-2.425,0.962-4.751,2.677-6.466c1.715-1.715,4.041-2.678,6.466-2.677h45.714c2.425-0.001,4.751,0.962,6.466,2.677
				c1.715,1.715,2.678,4.041,2.677,6.466V448z M411.429,301.714c0.001,2.425-0.962,4.751-2.677,6.466
				c-1.715,1.715-4.041,2.678-6.466,2.677h-45.714c-2.425,0.001-4.751-0.962-6.466-2.677c-1.715-1.715-2.678-4.041-2.677-6.466
				v-27.429h-18.286v27.429c0.001,2.425-0.962,4.751-2.677,6.466c-1.715,1.715-4.041,2.678-6.466,2.677h-45.714
				c-2.425,0.001-4.751-0.962-6.466-2.677c-1.715-1.715-2.678-4.041-2.677-6.466v-27.429h-18.286v27.429
				c0.001,2.425-0.962,4.751-2.677,6.466c-1.715,1.715-4.041,2.678-6.466,2.677H192c-2.425,0.001-4.751-0.962-6.466-2.677
				c-1.715-1.715-2.678-4.041-2.677-6.466v-27.429h-18.286v27.429c0.001,2.425-0.962,4.751-2.677,6.466
				c-1.715,1.715-4.041,2.678-6.466,2.677h-45.714c-2.425,0.001-4.751-0.962-6.466-2.677c-1.715-1.715-2.678-4.041-2.677-6.466V192
				c-0.001-2.425,0.962-4.751,2.677-6.466c1.715-1.715,4.041-2.678,6.466-2.677h45.714c2.425-0.001,4.751,0.962,6.466,2.677
				c1.715,1.715,2.678,4.041,2.677,6.466v27.429h18.286V192c-0.001-2.425,0.962-4.751,2.677-6.466
				c1.715-1.715,4.041-2.678,6.466-2.677h45.714c2.425-0.001,4.751,0.962,6.466,2.677c1.715,1.715,2.678,4.041,2.677,6.466v27.429
				h18.286V192c-0.001-2.425,0.962-4.751,2.677-6.466c1.715-1.715,4.041-2.678,6.466-2.677H320c2.425-0.001,4.751,0.962,6.466,2.677
				c1.715,1.715,2.678,4.041,2.677,6.466v27.429h18.286V192c-0.001-2.425,0.962-4.751,2.677-6.466
				c1.715-1.715,4.041-2.678,6.466-2.677h45.714c2.425-0.001,4.751,0.962,6.466,2.677c1.715,1.715,2.678,4.041,2.677,6.466V301.714z
				 M408.777,139.794c0.827,0.872,1.479,1.895,1.92,3.013c0.469,1.1,0.717,2.282,0.731,3.478c-0.019,2.424-0.968,4.748-2.651,6.491
				c-3.605,3.536-9.377,3.536-12.982,0c-0.366-0.46-0.732-0.915-1.098-1.371c-0.348-0.509-0.624-1.063-0.821-1.647
				c-0.264-0.519-0.45-1.074-0.554-1.647c-0.099-0.604-0.159-1.214-0.179-1.826c-0.022-3.714,2.206-7.073,5.637-8.497
				S406.161,137.157,408.777,139.794z M410.697,30.901c-0.442,1.119-1.094,2.143-1.92,3.018c-0.455,0.366-0.92,0.732-1.375,1.094
				c-0.508,0.347-1.061,0.625-1.643,0.826c-0.547,0.276-1.135,0.461-1.741,0.549c-0.572,0.105-1.151,0.167-1.732,0.183
				c-2.42-0.036-4.738-0.982-6.491-2.651c-0.807-0.889-1.456-1.91-1.92-3.018c-0.976-2.214-0.976-4.737,0-6.951
				c0.441-1.118,1.093-2.142,1.92-3.014c2.157-2.144,5.242-3.07,8.223-2.469c0.606,0.084,1.195,0.268,1.741,0.545
				c0.582,0.201,1.134,0.479,1.643,0.826c0.481,0.337,0.94,0.704,1.376,1.098c0.846,0.857,1.5,1.884,1.92,3.013
				C411.673,26.165,411.673,28.687,410.697,30.901z"/>
			<path d="M365.714,221.973c5.637,3.241,9.121,9.239,9.143,15.742V256c-0.021,6.502-3.505,12.501-9.143,15.742v20.83h27.429
				v-91.429h-27.429V221.973z"/>
			<rect x="201.143" y="274.286" width="27.429" height="18.286"/>
		</g>
	</g>
</g>
<g>
</g>
<g>
</g>
<g>
</g>
<g>
</g>
<g>
</g>
<g>
</g>
<g>
</g>
<g>
</g>
<g>
</g>
<g>
</g>
<g>
</g>
<g>
</g>
<g>
</g>
<g>
</g>
<g>
</g>
</svg>
