<?xml version="1.0" encoding="iso-8859-1"?>
<!-- Generator: Adobe Illustrator 19.0.0, SVG Export Plug-In . SVG Version: 6.00 Build 0)  -->
<svg version="1.1" id="Capa_1" xmlns="http://www.w3.org/2000/svg" xmlns:xlink="http://www.w3.org/1999/xlink" x="0px" y="0px"
	 viewBox="0 0 512 512" style="enable-background:new 0 0 512 512;" xml:space="preserve">
<g>
	<g>
		<g>
			<rect x="164.571" y="146.286" width="36.571" height="64"/>
			<rect x="192" width="18.286" height="18.286"/>
			<polygon points="320,36.571 292.571,36.571 182.857,36.571 155.429,36.571 155.429,54.857 320,54.857 			"/>
			<rect x="265.143" width="18.286" height="18.286"/>
			<rect x="228.571" width="18.286" height="18.286"/>
			<rect x="301.714" width="18.286" height="18.286"/>
			<rect x="155.429" width="18.286" height="18.286"/>
			<path d="M420.571,0h-82.286v54.857c-0.012,10.094-8.192,18.274-18.286,18.286H155.429c-10.094-0.012-18.274-8.192-18.286-18.286
				V0H91.429c-5.047,0.005-9.138,4.095-9.143,9.143v493.714c0.005,5.047,4.095,9.138,9.143,9.143h329.143
				c5.047-0.005,9.138-4.095,9.143-9.143V9.143C429.709,4.095,425.619,0.005,420.571,0z M395.794,20.938
				c2.616-2.637,6.567-3.43,9.997-2.006s5.658,4.782,5.637,8.497c-0.037,2.42-0.983,4.738-2.651,6.491
				c-0.455,0.366-0.92,0.732-1.375,1.094c-0.508,0.347-1.061,0.625-1.643,0.826c-0.547,0.276-1.135,0.461-1.741,0.549
				c-0.572,0.105-1.151,0.166-1.732,0.183c-0.614-0.017-1.225-0.078-1.83-0.183c-0.572-0.102-1.125-0.287-1.643-0.549
				c-0.585-0.201-1.14-0.479-1.652-0.826c-0.455-0.362-0.911-0.728-1.366-1.094C392.259,30.315,392.259,24.543,395.794,20.938z
				 M101.303,23.951L101.303,23.951c0.42-1.13,1.074-2.157,1.92-3.014c0.432-0.394,0.888-0.761,1.366-1.098
				c0.512-0.347,1.067-0.625,1.652-0.826c0.517-0.263,1.071-0.447,1.643-0.544c1.171-0.277,2.391-0.277,3.563,0
				c0.606,0.084,1.195,0.268,1.741,0.545c0.582,0.201,1.134,0.479,1.643,0.826c0.481,0.337,0.94,0.704,1.375,1.098
				c0.827,0.872,1.479,1.895,1.92,3.013c0.976,2.214,0.976,4.737,0,6.951c-0.442,1.119-1.094,2.143-1.92,3.018
				c-0.455,0.366-0.92,0.732-1.375,1.094c-0.508,0.347-1.061,0.625-1.643,0.826c-0.547,0.276-1.135,0.461-1.741,0.549
				c-0.572,0.105-1.151,0.167-1.732,0.183c-0.614-0.017-1.226-0.078-1.83-0.183c-0.571-0.102-1.125-0.287-1.643-0.549
				c-0.585-0.201-1.14-0.479-1.652-0.826c-0.455-0.362-0.911-0.728-1.366-1.094c-0.826-0.875-1.478-1.899-1.92-3.018
				C100.327,28.688,100.327,26.165,101.303,23.951z M118.125,488.044L118.125,488.044c-0.443,1.119-1.094,2.143-1.92,3.018
				c-0.435,0.393-0.894,0.758-1.375,1.094c-0.508,0.347-1.061,0.625-1.643,0.826c-0.547,0.276-1.135,0.461-1.741,0.549
				c-0.572,0.105-1.151,0.166-1.732,0.183c-0.614-0.017-1.226-0.078-1.83-0.183c-0.571-0.102-1.125-0.287-1.643-0.549
				c-0.585-0.201-1.14-0.479-1.652-0.826c-0.478-0.336-0.934-0.701-1.366-1.094c-0.845-0.86-1.499-1.888-1.92-3.018
				c-0.976-2.214-0.976-4.737,0-6.951c0.441-1.118,1.093-2.141,1.92-3.013l1.366-1.098c0.512-0.347,1.067-0.625,1.652-0.826
				c0.517-0.263,1.071-0.447,1.643-0.545c1.171-0.277,2.391-0.277,3.563,0c0.606,0.084,1.195,0.268,1.741,0.545
				c0.582,0.201,1.134,0.479,1.643,0.826c0.455,0.366,0.92,0.732,1.375,1.098c0.807,0.888,1.456,1.907,1.92,3.013
				C119.102,483.308,119.102,485.83,118.125,488.044z M128,457.143c-10.094-0.012-18.274-8.192-18.286-18.286V109.714
				C109.726,99.62,117.906,91.44,128,91.429h256c10.094,0.012,18.274,8.192,18.286,18.286v329.143
				c-0.012,10.094-8.192,18.274-18.286,18.286H128z M408.777,491.063c-3.605,3.536-9.377,3.536-12.982,0
				c-3.549-3.578-3.534-9.354,0.035-12.912s9.344-3.559,12.912,0C412.311,481.709,412.326,487.485,408.777,491.063z"/>
			<path d="M128,109.714v329.143h40.063l164.571-329.143H128z M201.143,228.571h-36.571c-10.094-0.012-18.274-8.192-18.286-18.286
				v-64c0.012-10.094,8.192-18.274,18.286-18.286h36.571c10.094,0.012,18.274,8.192,18.286,18.286v64
				C219.417,220.38,211.237,228.56,201.143,228.571z"/>
			<polygon points="353.079,109.714 188.507,438.857 384.009,438.857 384,109.714 			"/>
		</g>
	</g>
</g>
<g>
</g>
<g>
</g>
<g>
</g>
<g>
</g>
<g>
</g>
<g>
</g>
<g>
</g>
<g>
</g>
<g>
</g>
<g>
</g>
<g>
</g>
<g>
</g>
<g>
</g>
<g>
</g>
<g>
</g>
</svg>
