<?xml version="1.0" encoding="iso-8859-1"?>
<!-- Generator: Adobe Illustrator 19.0.0, SVG Export Plug-In . SVG Version: 6.00 Build 0)  -->
<svg version="1.1" id="Capa_1" xmlns="http://www.w3.org/2000/svg" xmlns:xlink="http://www.w3.org/1999/xlink" x="0px" y="0px"
	 viewBox="0 0 512 512" style="enable-background:new 0 0 512 512;" xml:space="preserve">
<g>
	<g>
		<g>
			<path d="M413.538,152.615h19.692c10.863,0.032,19.661,8.83,19.692,19.692v29.538c-0.032,10.862-8.83,19.66-19.692,19.692h-19.692
				v19.692h19.692c10.863,0.032,19.661,8.83,19.692,19.692v29.538c-0.032,10.862-8.83,19.66-19.692,19.692h-19.692v19.692H512
				V132.923h-98.462V152.615z"/>
			<rect x="256" y="438.154" width="19.692" height="19.692"/>
			<path d="M177.231,439.335v18.511h19.692v-19.692h-19.791C177.132,438.548,177.231,438.942,177.231,439.335z"/>
			<path d="M39.385,359.385v-9.846h-9.846c-5.438,0-9.846-4.408-9.846-9.846s4.408-9.846,9.846-9.846h9.846v-19.692h-9.846
				c-5.438,0-9.846-4.408-9.846-9.846s4.408-9.846,9.846-9.846h9.846v-9.846c-0.016-5.431-4.415-9.83-9.846-9.846H0v98.462h29.538
				C34.97,369.215,39.368,364.816,39.385,359.385z"/>
			<rect x="374.154" y="438.154" width="19.692" height="19.692"/>
			<rect x="216.615" y="438.154" width="19.692" height="19.692"/>
			<rect x="413.538" y="172.308" width="19.692" height="29.538"/>
			<rect x="334.769" y="438.154" width="19.692" height="19.692"/>
			<rect x="295.385" y="438.154" width="19.692" height="19.692"/>
			<rect x="413.538" y="260.923" width="19.692" height="29.538"/>
			<path d="M260.923,256.788c-5.219,1.575-17.329,7.385-27.077,29.243c11.977,9.273,26.699,14.296,41.846,14.277
				c6.057-0.011,12.085-0.839,17.92-2.462c-9.826-10.082-16.233-22.999-18.314-36.923
				C270.233,260.789,265.285,259.366,260.923,256.788z"/>
			<path d="M246.154,231.385c0.013-1.718,0.178-3.431,0.492-5.12c-3.249-4.529-12.898-13.883-36.726-15.458
				c-2.106,6.656-3.169,13.597-3.151,20.578c0.01,14.179,4.413,28.007,12.603,39.582c6.149-12.721,16.136-23.191,28.554-29.932
				C246.79,237.942,246.19,234.679,246.154,231.385z"/>
			<path d="M167.385,113.231c-5.431,0.016-9.83,4.415-9.846,9.846v216.615c0.016,5.431,4.415,9.83,9.846,9.846H384
				c5.431-0.016,9.83-4.415,9.846-9.846V123.077c-0.016-5.431-4.415-9.83-9.846-9.846H167.385z M178.018,139.028
				c0.5-1.193,1.199-2.292,2.068-3.249c3.949-3.643,10.033-3.643,13.982,0c0.869,0.958,1.568,2.057,2.068,3.249
				c0.506,1.183,0.773,2.455,0.788,3.742c0,5.438-4.408,9.846-9.846,9.846c-5.438,0-9.846-4.408-9.846-9.846
				C177.245,141.482,177.513,140.211,178.018,139.028z M196.726,321.969c-0.107,0.617-0.306,1.214-0.591,1.772
				c-0.196,0.605-0.496,1.172-0.886,1.674c-0.394,0.591-0.788,1.083-1.182,1.575c-3.342,3.408-8.628,3.975-12.616,1.353
				c-3.988-2.622-5.563-7.701-3.758-12.119c1.805-4.419,6.484-6.942,11.168-6.023c4.684,0.92,8.062,5.025,8.062,9.799
				C196.906,320.66,196.841,321.319,196.726,321.969z M315.865,310.252c-0.197,0.098-0.295,0.197-0.492,0.295
				c-32.757,16.531-72.329,11.04-99.348-13.785c-0.418-0.369-0.813-0.763-1.182-1.182c-17.706-16.659-27.752-39.886-27.766-64.197
				c-0.033-11.811,2.346-23.504,6.991-34.363c0-0.197,0.098-0.295,0.197-0.493c13.929-32.609,45.969-53.762,81.428-53.76
				c1.182,0,2.363,0.098,3.545,0.197c0.098,0,0.295-0.098,0.394-0.098h0.098c0.337,0.008,0.67,0.075,0.985,0.197
				c42.452,2.42,77.202,34.65,82.806,76.8c0,0.394,0.098,0.689,0.098,0.985c0.429,3.496,0.659,7.013,0.689,10.535
				C364.234,264.68,345.529,295.133,315.865,310.252z M373.957,321.969c-0.107,0.617-0.306,1.214-0.591,1.772
				c-0.215,0.628-0.513,1.224-0.886,1.772l-1.182,1.477c-0.492,0.394-0.985,0.788-1.575,1.182c-0.502,0.391-1.069,0.69-1.674,0.886
				c-0.586,0.299-1.219,0.499-1.871,0.591c-0.617,0.114-1.243,0.18-1.871,0.197c-2.619,0.026-5.139-1.003-6.991-2.855
				s-2.881-4.372-2.855-6.991c0.014-1.287,0.282-2.558,0.788-3.742c0.5-1.193,1.199-2.292,2.068-3.249
				c2.358-2.253,5.652-3.241,8.862-2.658c0.652,0.092,1.284,0.292,1.871,0.591c0.605,0.196,1.172,0.496,1.674,0.886
				c0.591,0.394,1.083,0.788,1.575,1.182c0.869,0.958,1.568,2.057,2.068,3.249c0.506,1.183,0.773,2.455,0.788,3.742
				C374.137,320.66,374.071,321.319,373.957,321.969z M371.298,149.76c-0.482,0.448-1.01,0.844-1.575,1.182
				c-0.502,0.391-1.069,0.69-1.674,0.886c-0.586,0.299-1.219,0.499-1.871,0.591c-0.617,0.114-1.243,0.18-1.871,0.197
				c-2.619,0.026-5.139-1.003-6.991-2.855s-2.881-4.372-2.855-6.991c0.014-1.287,0.282-2.558,0.788-3.742
				c0.5-1.193,1.199-2.292,2.068-3.249c2.334-2.295,5.65-3.29,8.862-2.658c0.652,0.092,1.284,0.292,1.871,0.591
				c0.605,0.196,1.172,0.496,1.674,0.886c0.591,0.394,1.083,0.788,1.575,1.182c0.869,0.958,1.568,2.057,2.068,3.249
				c0.506,1.183,0.773,2.455,0.788,3.742C374.116,145.376,373.096,147.872,371.298,149.76z"/>
			<path d="M303.262,241.822c-1.843,4.691-4.82,8.852-8.665,12.111c-0.394,5.317,0.788,18.708,18.215,35.446
				c18.025-11.569,29.664-30.846,31.508-52.185c-9.046,3.823-18.735,5.895-28.554,6.105
				C311.556,243.273,307.362,242.778,303.262,241.822z"/>
			<path d="M270.671,202.338c2.954-4.431,8.566-16.64,1.871-39.68c-21.385,0.943-41.113,11.79-53.366,29.342
				c14.062,1.456,27.317,7.275,37.908,16.64C260.99,205.399,265.672,203.227,270.671,202.338z"/>
			<rect x="39.385" y="113.231" width="19.692" height="19.692"/>
			<path d="M502.154,54.154H0v196.923h29.538c16.294,0.048,29.491,13.245,29.538,29.538v78.769
				c-0.048,16.294-13.245,29.491-29.538,29.538H0v68.923h39.385v-29.539c0.032-10.863,8.83-19.661,19.692-19.692h19.692
				c10.863,0.032,19.661,8.83,19.692,19.692v29.539h19.692v-19.692c0.006-8.704,3.863-16.959,10.535-22.548
				c6.658-5.607,15.437-8.018,24.025-6.597c6.427,1.183,12.26,4.516,16.542,9.452h227.348c3.497-6.055,9.943-9.803,16.935-9.846
				h88.615c5.431-0.016,9.83-4.415,9.846-9.846v-49.231H411.766c-4.188,11.754-15.288,19.627-27.766,19.692H167.385
				c-16.294-0.048-29.491-13.245-29.539-29.538V123.077c0.048-16.294,13.245-29.491,29.539-29.538H384
				c12.478,0.065,23.578,7.938,27.766,19.692H512V64C511.984,58.569,507.585,54.17,502.154,54.154z M78.769,211.692
				c-0.032,10.862-8.83,19.66-19.692,19.692H39.385c-10.863-0.032-19.66-8.83-19.692-19.692V192
				c0.032-10.863,8.83-19.661,19.692-19.692h19.692c10.863,0.032,19.661,8.83,19.692,19.692V211.692z M78.769,132.923
				c-0.032,10.862-8.83,19.66-19.692,19.692H39.385c-10.863-0.032-19.66-8.83-19.692-19.692v-19.692
				c0.032-10.863,8.83-19.661,19.692-19.692h19.692c10.863,0.032,19.661,8.83,19.692,19.692V132.923z M115.298,228.529
				c-0.468,0.424-0.961,0.818-1.477,1.182c-0.549,0.373-1.145,0.671-1.772,0.886c-0.586,0.299-1.219,0.499-1.871,0.591
				c-0.617,0.114-1.243,0.18-1.871,0.197c-2.619,0.026-5.139-1.003-6.991-2.856s-2.881-4.372-2.855-6.991
				c0.014-1.287,0.282-2.558,0.788-3.742c0.5-1.193,1.199-2.292,2.068-3.249c2.351-2.266,5.652-3.256,8.862-2.659
				c0.652,0.092,1.284,0.292,1.871,0.591c0.627,0.215,1.224,0.513,1.772,0.886c0.516,0.364,1.009,0.758,1.477,1.182
				C119.106,218.431,119.106,224.646,115.298,228.529z M115.298,189.145l-1.477,1.182c-0.549,0.373-1.145,0.671-1.772,0.886
				c-0.586,0.299-1.219,0.499-1.871,0.591c-0.617,0.114-1.243,0.18-1.871,0.197c-2.607-0.038-5.103-1.057-6.991-2.855
				c-1.814-1.877-2.836-4.38-2.855-6.991c0.038-2.607,1.057-5.103,2.855-6.991c2.326-2.307,5.649-3.304,8.862-2.658
				c0.652,0.092,1.284,0.292,1.871,0.591c0.627,0.215,1.224,0.513,1.772,0.886l1.477,1.182
				C119.106,179.046,119.106,185.262,115.298,189.145z M115.298,130.068l-1.477,1.182c-0.549,0.373-1.145,0.671-1.772,0.886
				c-0.586,0.299-1.219,0.499-1.871,0.591c-0.617,0.114-1.243,0.18-1.871,0.197c-2.607-0.038-5.103-1.057-6.991-2.855
				c-1.814-1.877-2.836-4.38-2.855-6.991c0.014-1.287,0.282-2.558,0.788-3.742c0.5-1.193,1.199-2.292,2.068-3.249
				c2.326-2.307,5.649-3.304,8.862-2.658c0.652,0.092,1.284,0.292,1.871,0.591c0.627,0.215,1.224,0.513,1.772,0.886l1.477,1.182
				C119.106,119.969,119.106,126.185,115.298,130.068z"/>
			<circle cx="275.692" cy="231.385" r="9.846"/>
			<rect x="39.385" y="192" width="19.692" height="19.692"/>
			<path d="M303.36,221.342c4.825,2.166,17.92,5.612,39.582-5.022c-5.7-25.012-24.756-44.825-49.526-51.495
				c3.463,13.69,2.533,28.123-2.658,41.255C296.563,209.596,301.005,214.976,303.36,221.342z"/>
		</g>
	</g>
</g>
<g>
</g>
<g>
</g>
<g>
</g>
<g>
</g>
<g>
</g>
<g>
</g>
<g>
</g>
<g>
</g>
<g>
</g>
<g>
</g>
<g>
</g>
<g>
</g>
<g>
</g>
<g>
</g>
<g>
</g>
</svg>
