<?xml version="1.0" encoding="iso-8859-1"?>
<!-- Generator: Adobe Illustrator 19.0.0, SVG Export Plug-In . SVG Version: 6.00 Build 0)  -->
<svg version="1.1" id="Capa_1" xmlns="http://www.w3.org/2000/svg" xmlns:xlink="http://www.w3.org/1999/xlink" x="0px" y="0px"
	 viewBox="0 0 512 512" style="enable-background:new 0 0 512 512;" xml:space="preserve">
<g>
	<g>
		<g>
			<path d="M18.286,466.286c0.007,5.047,4.096,9.136,9.143,9.143h457.143c5.047-0.005,9.138-4.096,9.143-9.143v-9.143H18.286
				V466.286z"/>
			<rect x="109.714" y="73.143" width="18.286" height="128"/>
			<rect x="420.571" y="493.714" width="45.714" height="18.286"/>
			<rect x="45.714" y="493.714" width="45.714" height="18.286"/>
			<rect x="109.714" y="36.571" width="18.286" height="18.286"/>
			<path d="M128,9.143C128,4.093,123.907,0,118.857,0c-5.049,0-9.143,4.093-9.143,9.143v9.143H128V9.143z"/>
			<path d="M465.545,252.299c-8.735-19.969-28.464-32.872-50.259-32.87H96.714c-21.795,0-41.523,12.903-50.259,32.87l-41.619,95.13
				h502.328L465.545,252.299z M94.08,240.366c2.187-2.158,5.306-3.084,8.317-2.469c0.573,0.098,1.129,0.282,1.647,0.545
				c0.583,0.201,1.137,0.479,1.647,0.826c0.479,0.338,0.937,0.705,1.371,1.098c1.669,1.753,2.616,4.071,2.651,6.491
				c-0.017,0.612-0.078,1.222-0.183,1.826c-0.102,0.573-0.287,1.128-0.549,1.647c-0.201,0.583-0.479,1.137-0.826,1.647
				c-0.627,0.996-1.469,1.838-2.464,2.464c-0.51,0.347-1.064,0.625-1.647,0.826c-0.519,0.263-1.074,0.448-1.647,0.549
				c-0.603,0.105-1.214,0.166-1.826,0.183c-3.697-0.015-7.024-2.245-8.442-5.66C90.712,246.926,91.481,242.995,94.08,240.366z
				 M64,292.571c-3.697-0.001-7.03-2.228-8.445-5.644c-1.415-3.416-0.633-7.348,1.981-9.963l18.286-18.286
				c3.579-3.515,9.322-3.489,12.87,0.058c3.547,3.547,3.573,9.29,0.058,12.87l-18.286,18.286
				C68.752,291.61,66.425,292.574,64,292.571z M161.893,253.321L88.75,326.464c-3.579,3.515-9.322,3.489-12.87-0.058
				c-3.547-3.547-3.573-9.29-0.058-12.87l73.143-73.143c3.579-3.515,9.322-3.489,12.87,0.058
				C165.382,243.999,165.408,249.742,161.893,253.321z"/>
			<path d="M0,365.714v64c0.007,5.047,4.096,9.136,9.143,9.143h493.714c5.047-0.005,9.138-4.096,9.143-9.143v-64H0z M128,411.429
				h-18.286c-5.049,0-9.143-4.093-9.143-9.143c0-5.049,4.093-9.143,9.143-9.143H128c5.049,0,9.143,4.093,9.143,9.143
				C137.143,407.335,133.049,411.429,128,411.429z M182.857,411.429h-18.286c-5.049,0-9.143-4.093-9.143-9.143
				c0-5.049,4.093-9.143,9.143-9.143h18.286c5.049,0,9.143,4.093,9.143,9.143C192,407.335,187.907,411.429,182.857,411.429z
				 M237.714,411.429h-18.286c-5.049,0-9.143-4.093-9.143-9.143c0-5.049,4.093-9.143,9.143-9.143h18.286
				c5.049,0,9.143,4.093,9.143,9.143C246.857,407.335,242.764,411.429,237.714,411.429z M292.571,411.429h-18.286
				c-5.049,0-9.143-4.093-9.143-9.143c0-5.049,4.093-9.143,9.143-9.143h18.286c5.049,0,9.143,4.093,9.143,9.143
				C301.714,407.335,297.621,411.429,292.571,411.429z M347.429,411.429h-18.286c-5.049,0-9.143-4.093-9.143-9.143
				c0-5.049,4.093-9.143,9.143-9.143h18.286c5.049,0,9.143,4.093,9.143,9.143C356.571,407.335,352.478,411.429,347.429,411.429z
				 M402.286,411.429H384c-5.049,0-9.143-4.093-9.143-9.143c0-5.049,4.093-9.143,9.143-9.143h18.286
				c5.049,0,9.143,4.093,9.143,9.143C411.429,407.335,407.335,411.429,402.286,411.429z"/>
		</g>
	</g>
</g>
<g>
</g>
<g>
</g>
<g>
</g>
<g>
</g>
<g>
</g>
<g>
</g>
<g>
</g>
<g>
</g>
<g>
</g>
<g>
</g>
<g>
</g>
<g>
</g>
<g>
</g>
<g>
</g>
<g>
</g>
</svg>
