<?xml version="1.0" encoding="iso-8859-1"?>
<!-- Generator: Adobe Illustrator 19.0.0, SVG Export Plug-In . SVG Version: 6.00 Build 0)  -->
<svg version="1.1" id="Capa_1" xmlns="http://www.w3.org/2000/svg" xmlns:xlink="http://www.w3.org/1999/xlink" x="0px" y="0px"
	 viewBox="0 0 503.11 503.11" style="enable-background:new 0 0 503.11 503.11;" xml:space="preserve">
<g>
	<g>
		<g>
			<path d="M467.088,316.787V48.217C431.912,42.3,357.654,35.976,251.509,35.976S71.105,42.3,35.93,48.217v268.57
				c71.567-8.102,143.557-11.888,215.579-11.338C323.531,304.9,395.521,308.686,467.088,316.787z M110.394,56.546
				c0.842-0.832,1.851-1.477,2.961-1.89c3.356-1.317,7.17-0.58,9.795,1.89c3.474,3.542,3.474,9.212,0,12.754
				c-0.452,0.359-0.899,0.719-1.439,1.075c-0.457,0.358-0.974,0.632-1.526,0.811c-0.51,0.258-1.055,0.44-1.618,0.539
				c-0.593,0.103-1.193,0.164-1.794,0.18c-3.632-0.014-6.901-2.206-8.294-5.56C107.085,62.991,107.841,59.128,110.394,56.546z
				 M56.584,123.111c-3.485-3.485-3.511-9.128-0.057-12.644L83.474,83.52c3.516-3.453,9.159-3.428,12.644,0.057
				s3.511,9.127,0.057,12.644l-26.947,26.947C65.711,126.622,60.069,126.596,56.584,123.111z M177.017,69.274L78.21,168.081
				c-3.516,3.453-9.159,3.428-12.644-0.057c-3.485-3.485-3.511-9.127-0.057-12.644l98.807-98.807
				c3.516-3.453,9.159-3.428,12.644,0.057S180.471,65.757,177.017,69.274z"/>
			<path d="M231.519,341.463c6.612-0.052,13.275-0.08,19.99-0.084c6.708,0,13.36,0.028,19.956,0.084
				c0.282-0.002,0.55-0.02,0.831,0.004c106.833,0.87,198.077,8.398,230.814,19.289l-0.092-340.092
				c-14.864-8.93-106.921-20.618-251.509-20.618S14.868,11.735,0,20.66v339.943c32.652-10.748,123.9-18.268,230.74-19.137
				C231.004,341.445,231.254,341.462,231.519,341.463z M26.947,336.195c-2.383,0.002-4.669-0.944-6.353-2.629
				c-1.685-1.685-2.631-3.971-2.629-6.353V40.726c0-4.286,3.028-7.976,7.232-8.812c32.281-6.412,110.921-13.903,226.311-13.903
				s194.031,7.491,226.311,13.904c4.204,0.836,7.232,4.525,7.232,8.811v286.486c0.002,2.631-1.151,5.131-3.153,6.837
				c-2.002,1.707-4.653,2.449-7.25,2.031c-58.258-9.337-153.465-12.666-223.14-12.666s-164.886,3.329-223.14,12.667
				C27.898,336.156,27.423,336.194,26.947,336.195z"/>
			<path d="M368.281,485.099H134.737c-4.961,0-8.982,4.022-8.982,8.982s4.022,8.982,8.982,8.982h233.544
				c4.961,0,8.982-4.022,8.982-8.982S373.242,485.099,368.281,485.099z"/>
			<path d="M269.474,368.327c-0.008-3.135-0.846-6.212-2.429-8.917c-5.161-0.032-10.322-0.065-15.536-0.065
				c-5.214,0-10.375,0.033-15.536,0.065c-1.584,2.706-2.422,5.782-2.429,8.917c0,9.922,8.043,17.965,17.965,17.965
				S269.474,378.248,269.474,368.327z"/>
			<path d="M197.614,359.956v107.178h107.789V359.956c-6.329-0.14-12.721-0.257-19.178-0.349
				c3.895,14.588-1.744,30.055-14.115,38.712c-12.371,8.657-28.834,8.657-41.205,0c-12.371-8.657-18.011-24.124-14.115-38.712
				C210.331,359.698,203.939,359.814,197.614,359.956z"/>
		</g>
	</g>
</g>
<g>
</g>
<g>
</g>
<g>
</g>
<g>
</g>
<g>
</g>
<g>
</g>
<g>
</g>
<g>
</g>
<g>
</g>
<g>
</g>
<g>
</g>
<g>
</g>
<g>
</g>
<g>
</g>
<g>
</g>
</svg>
