<?xml version="1.0" encoding="iso-8859-1"?>
<!-- Generator: Adobe Illustrator 19.0.0, SVG Export Plug-In . SVG Version: 6.00 Build 0)  -->
<svg version="1.1" id="Capa_1" xmlns="http://www.w3.org/2000/svg" xmlns:xlink="http://www.w3.org/1999/xlink" x="0px" y="0px"
	 viewBox="0 0 512.001 512.001" style="enable-background:new 0 0 512.001 512.001;" xml:space="preserve">
<g>
	<g>
		<g>
			<rect x="237.714" y="164.572" width="36.571" height="18.286"/>
			<rect x="292.572" y="338.286" width="18.286" height="18.286"/>
			<rect x="292.572" y="265.143" width="18.286" height="18.286"/>
			<rect x="365.714" y="411.429" width="18.286" height="18.286"/>
			<rect x="219.429" y="411.429" width="91.429" height="18.286"/>
			<rect x="54.857" y="411.429" width="36.571" height="18.286"/>
			<rect x="146.286" y="265.143" width="18.286" height="18.286"/>
			<rect x="146.286" y="411.429" width="18.286" height="18.286"/>
			<rect x="219.429" y="338.286" width="18.286" height="18.286"/>
			<rect x="219.429" y="265.143" width="18.286" height="18.286"/>
			<rect x="54.857" y="338.286" width="36.571" height="18.286"/>
			<rect x="365.714" y="265.143" width="18.286" height="18.286"/>
			<rect x="438.857" y="265.143" width="18.286" height="18.286"/>
			<rect x="365.714" y="338.286" width="18.286" height="18.286"/>
			<rect x="438.857" y="338.286" width="18.286" height="18.286"/>
			<path d="M367.228,484.572H144.732c-2.434-0.008-4.769,0.958-6.487,2.683l-15.603,15.603h266.714l-15.571-15.571
				C372.05,485.542,369.689,484.565,367.228,484.572z"/>
			<path d="M509.286,266.214L474.33,231.26c-1.718-1.727-4.055-2.695-6.491-2.688H345.862c-7.28,0.021-14.265-2.873-19.397-8.036
				l-16.705-16.705c-1.718-1.727-4.055-2.695-6.491-2.688h-94.535c-2.434-0.008-4.769,0.958-6.487,2.683l-16.71,16.709
				c-5.133,5.163-12.118,8.056-19.398,8.036H44.161c-2.434-0.008-4.769,0.958-6.487,2.683L2.688,266.241
				c-1.727,1.718-2.694,4.056-2.688,6.491v195.107c-0.006,2.436,0.961,4.773,2.688,6.491l34.982,34.982
				c1.718,1.727,4.056,2.694,6.491,2.688H83.8c2.458-0.008,4.814-0.983,6.558-2.714l3.747-3.747l0.006-0.006l31.203-31.203
				c5.137-5.17,12.131-8.068,19.419-8.045h222.496c7.313-0.02,14.33,2.886,19.487,8.071l31.176,31.176l0.006,0.006l3.774,3.774
				c1.718,1.727,4.056,2.694,6.491,2.688h39.679c2.436,0.006,4.773-0.961,6.491-2.688l34.982-34.982
				c1.727-1.718,2.694-4.056,2.688-6.491V272.773C511.993,270.315,511.018,267.959,509.286,266.214z M36.571,265.143
				c0.01-10.095,8.191-18.276,18.286-18.286h18.286c10.095,0.01,18.276,8.191,18.286,18.286v18.286
				c-0.01,10.095-8.191,18.276-18.286,18.286H54.857c-10.095-0.01-18.276-8.191-18.286-18.286V265.143z M109.714,429.714
				c-0.01,10.095-8.191,18.276-18.286,18.286H54.857c-10.095-0.01-18.276-8.191-18.286-18.286v-18.286
				c0.01-10.095,8.191-18.276,18.286-18.286h36.571c10.095,0.01,18.276,8.191,18.286,18.286V429.714z M109.714,356.572
				c-0.01,10.095-8.191,18.276-18.286,18.286H54.857c-10.095-0.01-18.276-8.191-18.286-18.286v-18.286
				c0.01-10.095,8.191-18.276,18.286-18.286h36.571c10.095,0.01,18.276,8.191,18.286,18.286V356.572z M182.857,429.714
				c-0.01,10.095-8.191,18.276-18.286,18.286h-18.286c-10.095-0.01-18.276-8.191-18.286-18.286v-18.286
				c0.01-10.095,8.191-18.276,18.286-18.286h18.286c10.095,0.01,18.276,8.191,18.286,18.286V429.714z M182.857,356.572
				c-0.01,10.095-8.191,18.276-18.286,18.286h-18.286c-10.095-0.01-18.276-8.191-18.286-18.286v-18.286
				c0.01-10.095,8.191-18.276,18.286-18.286h18.286c10.095,0.01,18.276,8.191,18.286,18.286V356.572z M182.857,283.429
				c-0.01,10.095-8.191,18.276-18.286,18.286h-18.286c-10.095-0.01-18.276-8.191-18.286-18.286v-18.286
				c0.01-10.095,8.191-18.276,18.286-18.286h18.286c10.095,0.01,18.276,8.191,18.286,18.286V283.429z M201.143,265.143
				c0.01-10.095,8.191-18.276,18.286-18.286h18.286c10.095,0.01,18.276,8.191,18.286,18.286v18.286
				c-0.01,10.095-8.191,18.276-18.286,18.286h-18.286c-10.095-0.01-18.276-8.191-18.286-18.286V265.143z M201.143,338.286
				c0.01-10.095,8.191-18.276,18.286-18.286h18.286c10.095,0.01,18.276,8.191,18.286,18.286v18.286
				c-0.01,10.095-8.191,18.276-18.286,18.286h-18.286c-10.095-0.01-18.276-8.191-18.286-18.286V338.286z M329.143,429.714
				c-0.01,10.095-8.191,18.276-18.286,18.286h-91.429c-10.095-0.01-18.276-8.191-18.286-18.286v-18.286
				c0.01-10.095,8.191-18.276,18.286-18.286h91.429c10.095,0.01,18.276,8.191,18.286,18.286V429.714z M329.143,356.572
				c-0.01,10.095-8.191,18.276-18.286,18.286h-18.286c-10.095-0.01-18.276-8.191-18.286-18.286v-18.286
				c0.01-10.095,8.191-18.276,18.286-18.286h18.286c10.095,0.01,18.276,8.191,18.286,18.286V356.572z M329.143,283.429
				c-0.01,10.095-8.191,18.276-18.286,18.286h-18.286c-10.095-0.01-18.276-8.191-18.286-18.286v-18.286
				c0.01-10.095,8.191-18.276,18.286-18.286h18.286c10.095,0.01,18.276,8.191,18.286,18.286V283.429z M402.286,429.714
				C402.276,439.809,394.095,447.99,384,448h-18.286c-10.095-0.01-18.276-8.191-18.286-18.286v-18.286
				c0.01-10.095,8.191-18.276,18.286-18.286H384c10.095,0.01,18.276,8.191,18.286,18.286V429.714z M402.286,356.572
				c-0.01,10.095-8.191,18.276-18.286,18.286h-18.286c-10.095-0.01-18.276-8.191-18.286-18.286v-18.286
				c0.01-10.095,8.191-18.276,18.286-18.286H384c10.095,0.01,18.276,8.191,18.286,18.286V356.572z M402.286,283.429
				c-0.01,10.095-8.191,18.276-18.286,18.286h-18.286c-10.095-0.01-18.276-8.191-18.286-18.286v-18.286
				c0.01-10.095,8.191-18.276,18.286-18.286H384c10.095,0.01,18.276,8.191,18.286,18.286V283.429z M475.429,429.714
				c-0.01,10.095-8.191,18.276-18.286,18.286h-18.286c-10.095-0.01-18.276-8.191-18.286-18.286v-18.286
				c0.01-10.095,8.191-18.276,18.286-18.286h18.286c10.095,0.01,18.276,8.191,18.286,18.286V429.714z M475.429,356.572
				c-0.01,10.095-8.191,18.276-18.286,18.286h-18.286c-10.095-0.01-18.276-8.191-18.286-18.286v-18.286
				c0.01-10.095,8.191-18.276,18.286-18.286h18.286c10.095,0.01,18.276,8.191,18.286,18.286V356.572z M475.429,283.429
				c-0.01,10.095-8.191,18.276-18.286,18.286h-18.286c-10.095-0.01-18.276-8.191-18.286-18.286v-18.286
				c0.01-10.095,8.191-18.276,18.286-18.286h18.286c10.095,0.01,18.276,8.191,18.286,18.286V283.429z"/>
			<rect x="246.857" y="0" width="18.286" height="146.286"/>
			<rect x="54.857" y="265.143" width="18.286" height="18.286"/>
			<rect x="438.857" y="411.429" width="18.286" height="18.286"/>
			<rect x="146.286" y="338.286" width="18.286" height="18.286"/>
		</g>
	</g>
</g>
<g>
</g>
<g>
</g>
<g>
</g>
<g>
</g>
<g>
</g>
<g>
</g>
<g>
</g>
<g>
</g>
<g>
</g>
<g>
</g>
<g>
</g>
<g>
</g>
<g>
</g>
<g>
</g>
<g>
</g>
</svg>
