<?xml version="1.0" encoding="iso-8859-1"?>
<!-- Generator: Adobe Illustrator 19.0.0, SVG Export Plug-In . SVG Version: 6.00 Build 0)  -->
<svg version="1.1" id="Capa_1" xmlns="http://www.w3.org/2000/svg" xmlns:xlink="http://www.w3.org/1999/xlink" x="0px" y="0px"
	 viewBox="0 0 512 512" style="enable-background:new 0 0 512 512;" xml:space="preserve">
<g>
	<g>
		<g>
			<rect x="164.571" y="292.536" width="54.857" height="82.286"/>
			<rect x="164.571" y="393.107" width="54.857" height="18.286"/>
			<rect x="292.571" y="393.107" width="54.857" height="18.286"/>
			<rect x="164.571" y="191.964" width="54.857" height="82.286"/>
			<rect x="292.571" y="292.536" width="54.857" height="82.286"/>
			<path d="M470.045,63.964h-7.522L429.571,4.665c-2.477-4.362-8.008-5.914-12.392-3.476c-4.385,2.438-5.987,7.953-3.589,12.36
				l28.013,50.415h-52.223L356.429,4.665c-2.477-4.362-8.008-5.914-12.392-3.476c-4.385,2.438-5.987,7.953-3.589,12.36
				l28.013,50.415h-9.317l6.295,25.21c0.684,2.731,0.071,5.625-1.661,7.844c-1.732,2.219-4.39,3.517-7.205,3.517H155.429
				c-2.815,0-5.473-1.298-7.205-3.518c-1.732-2.219-2.345-5.113-1.661-7.844l6.295-25.21h-0.174l28.014-50.415
				c2.397-4.407,0.796-9.923-3.589-12.36s-9.915-0.886-12.392,3.476l-32.952,59.299H70.397l28.014-50.415
				c2.397-4.407,0.796-9.923-3.589-12.36s-9.915-0.886-12.392,3.476L49.478,63.964h-7.522l-35.563,64h499.214L470.045,63.964z"/>
			<rect x="45.714" y="393.107" width="54.857" height="18.286"/>
			<rect x="45.714" y="292.536" width="54.857" height="82.286"/>
			<rect x="45.714" y="191.964" width="54.857" height="82.286"/>
			<rect x="292.571" y="191.964" width="54.857" height="82.286"/>
			<rect x="411.429" y="292.536" width="54.857" height="82.286"/>
			<path d="M0,146.25v356.571c0.005,5.047,4.095,9.138,9.143,9.143h493.714c5.047-0.005,9.138-4.095,9.143-9.143V146.25H0z
				 M73.143,484.536c0,5.049-4.093,9.143-9.143,9.143s-9.143-4.093-9.143-9.143v-27.429c0-5.049,4.093-9.143,9.143-9.143
				s9.143,4.093,9.143,9.143V484.536z M118.857,283.393v137.143c0.001,2.425-0.962,4.751-2.677,6.466
				c-1.715,1.715-4.041,2.678-6.466,2.677H36.571c-2.425,0.001-4.751-0.962-6.466-2.677c-1.715-1.715-2.678-4.041-2.677-6.466
				V182.821c-0.001-2.425,0.962-4.751,2.677-6.466c1.715-1.715,4.041-2.678,6.466-2.677h73.143c2.425-0.001,4.751,0.962,6.466,2.677
				c1.715,1.715,2.678,4.041,2.677,6.466V283.393z M201.143,484.536c0,5.049-4.093,9.143-9.143,9.143s-9.143-4.093-9.143-9.143
				v-27.429c0-5.049,4.093-9.143,9.143-9.143s9.143,4.093,9.143,9.143V484.536z M237.714,283.393v137.143
				c0.001,2.425-0.962,4.751-2.677,6.466s-4.041,2.678-6.466,2.677h-73.143c-2.425,0.001-4.751-0.962-6.466-2.677
				c-1.715-1.715-2.678-4.041-2.677-6.466V182.821c-0.001-2.425,0.962-4.751,2.677-6.466c1.715-1.715,4.041-2.678,6.466-2.677
				h73.143c2.425-0.001,4.751,0.962,6.466,2.677s2.678,4.041,2.677,6.466V283.393z M329.143,484.536
				c0,5.049-4.093,9.143-9.143,9.143c-5.049,0-9.143-4.093-9.143-9.143v-27.429c0-5.049,4.093-9.143,9.143-9.143
				c5.049,0,9.143,4.093,9.143,9.143V484.536z M365.714,283.393v137.143c0.001,2.425-0.962,4.751-2.677,6.466
				s-4.041,2.678-6.466,2.677h-73.143c-2.425,0.001-4.751-0.962-6.466-2.677c-1.715-1.715-2.678-4.041-2.677-6.466V182.821
				c-0.001-2.425,0.962-4.751,2.677-6.466c1.715-1.715,4.041-2.678,6.466-2.677h73.143c2.425-0.001,4.751,0.962,6.466,2.677
				s2.678,4.041,2.677,6.466V283.393z M448,484.536c0,5.049-4.093,9.143-9.143,9.143c-5.049,0-9.143-4.093-9.143-9.143v-27.429
				c0-5.049,4.093-9.143,9.143-9.143c5.049,0,9.143,4.093,9.143,9.143V484.536z M484.571,283.393v137.143
				c0.001,2.425-0.962,4.751-2.677,6.466c-1.715,1.715-4.041,2.678-6.466,2.677h-73.143c-2.425,0.001-4.751-0.962-6.466-2.677
				s-2.678-4.041-2.677-6.466V182.821c-0.001-2.425,0.962-4.751,2.677-6.466s4.041-2.678,6.466-2.677h73.143
				c2.425-0.001,4.751,0.962,6.466,2.677c1.715,1.715,2.678,4.041,2.677,6.466V283.393z"/>
			<rect x="411.429" y="393.107" width="54.857" height="18.286"/>
			<rect x="411.429" y="191.964" width="54.857" height="82.286"/>
		</g>
	</g>
</g>
<g>
</g>
<g>
</g>
<g>
</g>
<g>
</g>
<g>
</g>
<g>
</g>
<g>
</g>
<g>
</g>
<g>
</g>
<g>
</g>
<g>
</g>
<g>
</g>
<g>
</g>
<g>
</g>
<g>
</g>
</svg>
