<?xml version="1.0" encoding="iso-8859-1"?>
<!-- Generator: Adobe Illustrator 19.0.0, SVG Export Plug-In . SVG Version: 6.00 Build 0)  -->
<svg version="1.1" id="Capa_1" xmlns="http://www.w3.org/2000/svg" xmlns:xlink="http://www.w3.org/1999/xlink" x="0px" y="0px"
	 viewBox="0 0 512 512" style="enable-background:new 0 0 512 512;" xml:space="preserve">
<g>
	<g>
		<g>
			<path d="M129.463,73.143l-22.583,64.731h298.24l-22.583-64.731H129.463z M210.286,118.857h-54.857
				c-5.049,0-9.143-4.093-9.143-9.143s4.093-9.143,9.143-9.143h54.857c5.049,0,9.143,4.093,9.143,9.143
				S215.335,118.857,210.286,118.857z M310.857,118.857h-64c-5.049,0-9.143-4.093-9.143-9.143s4.093-9.143,9.143-9.143h64
				c5.049,0,9.143,4.093,9.143,9.143S315.907,118.857,310.857,118.857z M356.571,118.857h-9.143c-5.049,0-9.143-4.093-9.143-9.143
				s4.093-9.143,9.143-9.143h9.143c5.049,0,9.143,4.093,9.143,9.143S361.621,118.857,356.571,118.857z"/>
			<path d="M9.143,365.714c0,5.049,4.093,9.143,9.143,9.143c5.049,0,9.143-4.093,9.143-9.143v-9.143H9.143V365.714z"/>
			<path d="M440.777,18.377C436.938,7.373,426.558,0,414.903,0H97.097C85.442,0,75.062,7.373,71.223,18.377l-67.2,191.909h503.954
				L440.777,18.377z M425.509,152.32c-1.739,2.407-4.527,3.835-7.497,3.84H93.989c-2.971,0.015-5.764-1.414-7.491-3.831
				c-1.727-2.418-2.172-5.523-1.195-8.329l29.074-83.017c1.299-3.68,4.783-6.137,8.686-6.126h265.874
				c3.903-0.011,7.386,2.446,8.686,6.126L426.697,144C427.649,146.804,427.207,149.894,425.509,152.32z"/>
			<path d="M438.857,283.429c0-5.049-4.093-9.143-9.143-9.143h-23.68l6.4,18.286h17.28
				C434.764,292.571,438.857,288.478,438.857,283.429z"/>
			<path d="M484.571,365.714c0,5.049,4.093,9.143,9.143,9.143c5.049,0,9.143-4.093,9.143-9.143v-9.143h-18.286V365.714z"/>
			<path d="M256,402.286c59.429,0,109.714-29.349,109.714-64c0-34.651-50.286-64-109.714-64s-109.714,29.349-109.714,64
				C146.286,372.937,196.571,402.286,256,402.286z M256,310.857c26.057,0,45.714,11.794,45.714,27.429S282.057,365.714,256,365.714
				s-45.714-11.794-45.714-27.429S229.943,310.857,256,310.857z"/>
			<path d="M0,228.571v109.714h83.566l9.6-27.429h-10.88c-15.148,0-27.429-12.28-27.429-27.429S67.137,256,82.286,256h347.429
				c15.148,0,27.429,12.28,27.429,27.429s-12.28,27.429-27.429,27.429h-10.88L428.8,339.2c1.198-0.581,2.509-0.893,3.84-0.914H512
				V228.571H0z"/>
			<path d="M64,502.857c0.015,5.043,4.1,9.128,9.143,9.143h365.714c5.043-0.015,9.128-4.1,9.143-9.143v-45.714H64V502.857z
				 M165.303,481.097c0.442-1.119,1.094-2.143,1.92-3.017c3.667-3.383,9.316-3.383,12.983,0c0.826,0.874,1.478,1.898,1.92,3.017
				c0.469,1.099,0.718,2.279,0.731,3.474c-0.035,2.42-0.982,4.739-2.651,6.491c-2.616,2.637-6.567,3.43-9.997,2.006
				s-5.658-4.783-5.637-8.497C164.585,483.377,164.833,482.196,165.303,481.097z M100.571,475.429h36.571
				c5.049,0,9.143,4.093,9.143,9.143c0,5.049-4.093,9.143-9.143,9.143h-36.571c-5.049,0-9.143-4.093-9.143-9.143
				C91.429,479.522,95.522,475.429,100.571,475.429z"/>
			<path d="M444.251,438.857l-57.6-164.571H337.28c28.709,14.994,46.72,37.851,46.72,64c0,46.171-56.229,82.286-128,82.286
				s-128-36.114-128-82.286c0-26.149,18.011-49.006,46.72-64h-49.371l-57.6,164.571H444.251z"/>
			<path d="M256,347.429c17.737,0,27.429-6.857,27.429-9.143c0-2.286-9.691-9.143-27.429-9.143c-17.737,0-27.429,6.857-27.429,9.143
				C228.571,340.571,238.263,347.429,256,347.429z"/>
			<path d="M73.143,283.429c0,5.049,4.093,9.143,9.143,9.143h17.28l6.4-18.286h-23.68C77.236,274.286,73.143,278.379,73.143,283.429
				z"/>
		</g>
	</g>
</g>
<g>
</g>
<g>
</g>
<g>
</g>
<g>
</g>
<g>
</g>
<g>
</g>
<g>
</g>
<g>
</g>
<g>
</g>
<g>
</g>
<g>
</g>
<g>
</g>
<g>
</g>
<g>
</g>
<g>
</g>
</svg>
