<?xml version="1.0" encoding="iso-8859-1"?>
<!-- Generator: Adobe Illustrator 19.0.0, SVG Export Plug-In . SVG Version: 6.00 Build 0)  -->
<svg version="1.1" id="Capa_1" xmlns="http://www.w3.org/2000/svg" xmlns:xlink="http://www.w3.org/1999/xlink" x="0px" y="0px"
	 viewBox="0 0 512 512" style="enable-background:new 0 0 512 512;" xml:space="preserve">
<g transform="translate(0 -1)">
	<g>
		<g>
			<rect x="137.846" y="124.084" width="19.692" height="39.385"/>
			<path d="M216.356,212.7c5.579-0.005,10.101-4.526,10.106-10.106V84.959c-0.001-4.292-2.712-8.116-6.763-9.536
				c-4.05-1.42-8.556-0.128-11.237,3.224l-31.231,39.047v52.164l31.24,39.053C210.383,211.311,213.287,212.706,216.356,212.7z"/>
			<path d="M256,311.161h-59.077c-5.438,0-9.846,4.408-9.846,9.846v59.077c0,5.438,4.408,9.846,9.846,9.846H256
				c5.438,0,9.846-4.408,9.846-9.846v-59.077C265.846,315.569,261.438,311.161,256,311.161z"/>
			<path d="M118.154,311.161c-5.436,0.005-9.841,4.411-9.846,9.846v59.077c0,5.438,4.408,9.846,9.846,9.846s9.846-4.408,9.846-9.846
				v-59.077C127.995,315.572,123.589,311.167,118.154,311.161z"/>
			<path d="M0,15.776v39.385h39.385c5.438,0,9.846,4.408,9.846,9.846s-4.408,9.846-9.846,9.846H0v19.692h39.385
				c5.438,0,9.846,4.408,9.846,9.846c0,5.438-4.408,9.846-9.846,9.846H0v19.692h39.385c5.438,0,9.846,4.408,9.846,9.846
				s-4.408,9.846-9.846,9.846H0v19.692h39.385c5.438,0,9.846,4.408,9.846,9.846c0,5.438-4.408,9.846-9.846,9.846H0V212.7h39.385
				c5.438,0,9.846,4.408,9.846,9.846s-4.408,9.846-9.846,9.846H0v206.769h19.692c10.871,0.012,19.68,8.822,19.692,19.692v19.692
				h29.538v-19.692c0.012-10.871,8.822-19.68,19.692-19.692h49.231c10.871,0.012,19.68,8.822,19.692,19.692v29.538h29.538v-18.591
				c-0.292-14.548,9.849-27.228,24.106-30.139c8.405-1.556,17.072,0.596,23.772,5.903c6.7,5.307,10.78,13.251,11.189,21.789
				l0.01,30.884h29.538v-29.932c0.018-16.089,13.056-29.126,29.145-29.145c7.893-0.073,15.489,3.003,21.107,8.547
				s8.794,13.099,8.826,20.992v29.538h29.538v-39.385c0.012-10.871,8.822-19.68,19.692-19.692h128V15.762L0,15.776z M453.712,61.262
				c0.475-1.204,1.177-2.306,2.068-3.245l1.471-1.183c0.551-0.374,1.149-0.673,1.779-0.889c0.557-0.283,1.153-0.481,1.769-0.587
				c4.634-1.054,9.337,1.463,11.029,5.904c0.55,1.17,0.82,2.453,0.788,3.745c0.025,2.619-1.004,5.138-2.856,6.99
				c-1.852,1.852-4.371,2.881-6.99,2.856c-0.661-0.018-1.32-0.084-1.971-0.197c-0.615-0.109-1.212-0.309-1.769-0.591
				c-0.63-0.216-1.228-0.515-1.779-0.889c-0.49-0.39-0.981-0.784-1.471-1.178c-1.8-1.886-2.82-4.384-2.855-6.991
				C452.887,63.714,453.157,62.431,453.712,61.262z M455.779,97.401l1.471-1.183c0.551-0.374,1.149-0.673,1.779-0.889
				c0.557-0.283,1.154-0.481,1.77-0.586c3.243-0.648,6.596,0.347,8.962,2.658c1.797,1.888,2.817,4.384,2.856,6.991
				c0.031,1.291-0.239,2.572-0.788,3.74c-0.476,1.205-1.178,2.308-2.068,3.25c-1.889,1.796-4.384,2.815-6.99,2.856
				c-0.661-0.018-1.32-0.084-1.971-0.197c-0.615-0.109-1.212-0.309-1.769-0.591c-0.63-0.216-1.228-0.515-1.779-0.889
				c-0.515-0.361-1.006-0.755-1.471-1.178c-0.89-0.942-1.592-2.045-2.068-3.25c-0.554-1.167-0.824-2.449-0.788-3.741
				C452.957,101.784,453.977,99.287,455.779,97.401z M455.779,136.786L455.779,136.786l1.471-1.183
				c0.551-0.374,1.149-0.673,1.779-0.889c0.557-0.283,1.154-0.481,1.77-0.586c2.901-0.618,5.926,0.114,8.223,1.99
				c2.297,1.876,3.619,4.693,3.594,7.659c-0.02,0.659-0.087,1.317-0.202,1.966c-0.103,0.618-0.301,1.216-0.586,1.774
				c-0.217,0.627-0.514,1.224-0.885,1.774c-0.394,0.49-0.788,0.981-1.183,1.476c-1.889,1.796-4.384,2.815-6.99,2.856
				c-0.661-0.018-1.32-0.084-1.971-0.197c-0.615-0.109-1.212-0.309-1.769-0.591c-0.63-0.216-1.228-0.515-1.779-0.889
				c-0.515-0.361-1.006-0.755-1.471-1.178C451.971,146.885,451.971,140.669,455.779,136.786z M455.779,176.171L455.779,176.171
				l1.471-1.184c0.551-0.374,1.149-0.673,1.779-0.889c0.557-0.283,1.154-0.481,1.77-0.586c3.69-0.774,7.498,0.625,9.809,3.604
				c2.311,2.979,2.719,7.015,1.051,10.397s-5.118,5.514-8.889,5.495c-0.661-0.018-1.32-0.084-1.971-0.197
				c-0.615-0.109-1.212-0.309-1.769-0.591c-0.63-0.216-1.228-0.515-1.779-0.889c-0.515-0.361-1.006-0.755-1.471-1.178
				C451.971,186.269,451.971,180.054,455.779,176.171z M334.769,84.7c0-5.438,4.408-9.846,9.846-9.846s9.846,4.408,9.846,9.846
				v118.154c0,5.438-4.408,9.846-9.846,9.846s-9.846-4.408-9.846-9.846V84.7z M256,133.93c0-5.438,4.408-9.846,9.846-9.846
				c5.438,0,9.846,4.408,9.846,9.846v19.692c0,5.438-4.408,9.846-9.846,9.846c-5.438,0-9.846-4.408-9.846-9.846V133.93z
				 M78.769,55.161h9.846c5.438,0,9.846,4.408,9.846,9.846s-4.408,9.846-9.846,9.846h-9.846c-5.438,0-9.846-4.408-9.846-9.846
				S73.331,55.161,78.769,55.161z M78.769,94.546h9.846c5.438,0,9.846,4.408,9.846,9.846c0,5.438-4.408,9.846-9.846,9.846h-9.846
				c-5.438,0-9.846-4.408-9.846-9.846C68.923,98.954,73.331,94.546,78.769,94.546z M78.769,133.93h9.846
				c5.438,0,9.846,4.408,9.846,9.846s-4.408,9.846-9.846,9.846h-9.846c-5.438,0-9.846-4.408-9.846-9.846
				S73.331,133.93,78.769,133.93z M78.769,173.315h9.846c5.438,0,9.846,4.408,9.846,9.846c0,5.438-4.408,9.846-9.846,9.846h-9.846
				c-5.438,0-9.846-4.408-9.846-9.846C68.923,177.723,73.331,173.315,78.769,173.315z M78.769,232.392
				c-5.438,0-9.846-4.408-9.846-9.846s4.408-9.846,9.846-9.846h9.846c5.438,0,9.846,4.408,9.846,9.846s-4.408,9.846-9.846,9.846
				H78.769z M147.692,380.084c0,16.314-13.225,29.539-29.538,29.539c-16.314,0-29.538-13.225-29.538-29.539v-59.077
				c0-16.314,13.225-29.538,29.538-29.538c16.314,0,29.538,13.225,29.538,29.538V380.084z M137.846,183.161
				c-10.871-0.012-19.68-8.822-19.692-19.692v-39.385c0.012-10.871,8.822-19.68,19.692-19.692h24.803l30.437-38.048
				c7.906-9.881,21.191-13.692,33.132-9.503c11.941,4.189,19.935,15.463,19.935,28.118v117.635
				c0.001,12.653-7.989,23.927-19.929,28.117c-11.939,4.19-25.223,0.382-33.129-9.497l-30.446-38.053H137.846z M285.538,380.084
				c-0.018,16.306-13.232,29.521-29.538,29.539h-59.077c-16.306-0.018-29.521-13.232-29.538-29.539v-59.077
				c0.018-16.306,13.232-29.521,29.538-29.538H256c16.306,0.018,29.521,13.232,29.538,29.538V380.084z M295.385,173.315v-59.077
				c0-5.438,4.408-9.846,9.846-9.846s9.846,4.408,9.846,9.846v59.077c0,5.438-4.408,9.846-9.846,9.846
				S295.385,178.753,295.385,173.315z M482.462,380.084c-0.018,16.306-13.232,29.521-29.538,29.539H334.769
				c-16.306-0.018-29.521-13.232-29.538-29.539V261.93c0.018-16.306,13.232-29.521,29.538-29.538h118.154
				c16.306,0.018,29.521,13.232,29.538,29.538V380.084z"/>
			<path d="M452.923,252.084H334.769c-5.438,0-9.846,4.408-9.846,9.846v118.154c0,5.438,4.408,9.846,9.846,9.846h118.154
				c5.438,0,9.846-4.408,9.846-9.846V261.93C462.769,256.492,458.361,252.084,452.923,252.084z"/>
		</g>
	</g>
</g>
<g>
</g>
<g>
</g>
<g>
</g>
<g>
</g>
<g>
</g>
<g>
</g>
<g>
</g>
<g>
</g>
<g>
</g>
<g>
</g>
<g>
</g>
<g>
</g>
<g>
</g>
<g>
</g>
<g>
</g>
</svg>
