<?xml version="1.0" encoding="iso-8859-1"?>
<!-- Generator: Adobe Illustrator 19.0.0, SVG Export Plug-In . SVG Version: 6.00 Build 0)  -->
<svg version="1.1" id="Capa_1" xmlns="http://www.w3.org/2000/svg" xmlns:xlink="http://www.w3.org/1999/xlink" x="0px" y="0px"
	 viewBox="0 0 512.009 512.009" style="enable-background:new 0 0 512.009 512.009;" xml:space="preserve">
<g>
	<g>
		<g>
			<path d="M384,146.29H128c-10.095,0.01-18.276,8.191-18.286,18.286v182.857c0.01,10.095,8.191,18.276,18.286,18.286h256
				c10.095-0.01,18.276-8.191,18.286-18.286V164.576C402.276,154.481,394.095,146.3,384,146.29z M219.429,347.433H192
				c-5.049,0-9.143-4.093-9.143-9.143c0-5.049,4.093-9.143,9.143-9.143h27.429c5.049,0,9.143,4.093,9.143,9.143
				C228.571,343.34,224.478,347.433,219.429,347.433z M182.857,301.719c0-5.049,4.093-9.143,9.143-9.143h82.286
				c5.049,0,9.143,4.093,9.143,9.143s-4.093,9.143-9.143,9.143H192C186.951,310.862,182.857,306.768,182.857,301.719z M320,347.433
				h-64c-5.049,0-9.143-4.093-9.143-9.143c0-5.049,4.093-9.143,9.143-9.143h64c5.049,0,9.143,4.093,9.143,9.143
				C329.143,343.34,325.049,347.433,320,347.433z M320,310.862h-9.143c-5.049,0-9.143-4.093-9.143-9.143s4.093-9.143,9.143-9.143
				H320c5.049,0,9.143,4.093,9.143,9.143S325.049,310.862,320,310.862z M256,256.005c-41.013,0-73.143-20.08-73.143-45.714
				c0-25.634,32.129-45.714,73.143-45.714c41.013,0,73.143,20.08,73.143,45.714C329.143,235.924,297.013,256.005,256,256.005z"/>
			<ellipse cx="256" cy="210.29" rx="54.857" ry="27.429"/>
			<path d="M109.714,128.005v5.088c5.533-3.294,11.846-5.051,18.286-5.088h256c6.44,0.037,12.752,1.793,18.286,5.088v-5.088
				c-0.01-10.095-8.191-18.276-18.286-18.286H128C117.905,109.729,109.724,117.91,109.714,128.005z"/>
			<path d="M128,384.005c-6.44-0.037-12.752-1.793-18.286-5.088v5.088c0.01,10.095,8.191,18.276,18.286,18.286h256
				c10.095-0.01,18.276-8.191,18.286-18.286v-5.088c-5.533,3.294-11.846,5.051-18.286,5.088H128z"/>
			<path d="M356.571,54.862c-0.01,10.095-8.191,18.276-18.286,18.286H173.714c-10.095-0.01-18.276-8.191-18.286-18.286V36.576
				H36.571v54.857h18.286c10.095,0.01,18.276,8.191,18.286,18.286v91.429c-0.01,10.095-8.191,18.276-18.286,18.286H36.571v73.143
				h18.286c10.095,0.01,18.276,8.191,18.286,18.286v91.429c-0.01,10.095-8.191,18.276-18.286,18.286H36.571v54.857h118.857v-18.286
				c0.01-10.095,8.191-18.276,18.286-18.286h164.571c10.095,0.01,18.276,8.191,18.286,18.286v18.286h118.857v-54.857h-18.286
				c-10.094-0.012-18.274-8.192-18.286-18.286v-91.429c0.012-10.094,8.192-18.274,18.286-18.286h18.286v-73.143h-18.286
				c-10.094-0.012-18.274-8.192-18.286-18.286v-91.429c0.012-10.094,8.192-18.274,18.286-18.286h18.286V36.576H356.571V54.862z
				 M420.571,128.005v256c-0.023,20.188-16.383,36.548-36.571,36.571H128c-20.188-0.023-36.548-16.383-36.571-36.571v-256
				c0.023-20.188,16.383-36.548,36.571-36.571h256C404.188,91.456,420.548,107.816,420.571,128.005z"/>
			<path d="M512,0.005H0v512h512.009L512,0.005z M493.714,91.433c-0.012,10.094-8.192,18.274-18.286,18.286h-18.286v91.429h18.286
				c10.094,0.012,18.274,8.192,18.286,18.286v73.143c-0.012,10.094-8.192,18.274-18.286,18.286h-18.286v91.429h18.286
				c10.094,0.012,18.274,8.192,18.286,18.286v54.857c-0.012,10.094-8.192,18.274-18.286,18.286H356.571
				c-10.095-0.01-18.276-8.191-18.286-18.286v-18.286H173.714v18.286c-0.01,10.095-8.191,18.276-18.286,18.286H36.571
				c-10.095-0.01-18.276-8.191-18.286-18.286v-54.857c0.01-10.095,8.191-18.276,18.286-18.286h18.286v-91.429H36.571
				c-10.095-0.01-18.276-8.191-18.286-18.286v-73.143c0.01-10.095,8.191-18.276,18.286-18.286h18.286v-91.429H36.571
				c-10.095-0.01-18.276-8.191-18.286-18.286V36.576c0.01-10.095,8.191-18.276,18.286-18.286h118.857
				c10.095,0.01,18.276,8.191,18.286,18.286v18.286h164.571V36.576c0.01-10.095,8.191-18.276,18.286-18.286h118.857
				c10.094,0.012,18.274,8.192,18.286,18.286V91.433z"/>
		</g>
	</g>
</g>
<g>
</g>
<g>
</g>
<g>
</g>
<g>
</g>
<g>
</g>
<g>
</g>
<g>
</g>
<g>
</g>
<g>
</g>
<g>
</g>
<g>
</g>
<g>
</g>
<g>
</g>
<g>
</g>
<g>
</g>
</svg>
