<?xml version="1.0" encoding="iso-8859-1"?>
<!-- Generator: Adobe Illustrator 19.0.0, SVG Export Plug-In . SVG Version: 6.00 Build 0)  -->
<svg version="1.1" id="Capa_1" xmlns="http://www.w3.org/2000/svg" xmlns:xlink="http://www.w3.org/1999/xlink" x="0px" y="0px"
	 viewBox="0 0 512 512" style="enable-background:new 0 0 512 512;" xml:space="preserve">
<g>
	<g>
		<g>
			<path d="M163.272,357.223c-9.89,9.646-15.902,22.582-16.897,36.362c-1.164,12.303,3.221,24.484,11.96,33.223
				c8.739,8.739,20.92,13.124,33.223,11.96c13.779-0.996,26.715-7.007,36.361-16.897c11.603-11.603,29.237-51.797,43.668-88.599
				l-23.974-20.993C212.459,327.607,174.688,345.808,163.272,357.223z"/>
			<path d="M297.5,271.946c3.314-1.277,7.067-0.52,9.626,1.943c2.559,2.462,3.46,6.184,2.312,9.544
				c-1.208,3.537-5.062,14.712-10.52,29.541c63.319-20.903,102.414-84.334,92.63-150.293S325.94,47.37,259.279,45.748
				c-66.66-1.622-124.82,44.956-137.8,110.36c-12.981,65.404,22.982,130.663,85.21,154.621
				C245.537,292.12,289.86,274.886,297.5,271.946z M301.714,182.857c0,25.247-20.467,45.714-45.714,45.714
				s-45.714-20.467-45.714-45.714c0-25.247,20.467-45.714,45.714-45.714C281.235,137.172,301.685,157.622,301.714,182.857z
				 M160.862,223.35c-1.04,2.19-2.908,3.878-5.192,4.691c-2.284,0.819-4.8,0.695-6.991-0.346c-2.192-1.041-3.878-2.911-4.687-5.199
				c-2.292-6.444-4.023-13.075-5.174-19.817c-0.848-4.978,2.5-9.701,7.478-10.549c4.978-0.848,9.701,2.5,10.549,7.478
				c0.973,5.7,2.435,11.306,4.37,16.755C162.028,218.646,161.901,221.159,160.862,223.35z M156.826,166.089L156.826,166.089
				c-0.743,4.398-4.549,7.619-9.009,7.625c-0.512,0-1.022-0.042-1.527-0.125c-4.979-0.84-8.336-5.556-7.5-10.536
				C148.317,105.78,197.939,63.844,256,64c5.049,0,9.143,4.093,9.143,9.143c0,5.049-4.093,9.143-9.143,9.143
				C206.875,82.15,164.888,117.63,156.826,166.089z"/>
			<path d="M278.575,315.084c2.494-6.624,4.833-12.961,6.916-18.723c-5.901,2.387-12.421,5.077-19.233,7.937L278.575,315.084z"/>
			<path d="M228.571,182.857c0,15.148,12.28,27.429,27.429,27.429s27.429-12.28,27.429-27.429c0-15.148-12.28-27.429-27.429-27.429
				C240.858,155.445,228.588,167.716,228.571,182.857z M259.473,174.442c0.583,0.201,1.137,0.479,1.647,0.826
				c0.455,0.366,0.911,0.732,1.371,1.098c1.669,1.753,2.616,4.071,2.652,6.491c0.031,1.199-0.22,2.389-0.732,3.473
				c-0.465,1.107-1.114,2.127-1.92,3.018c-0.46,0.366-0.915,0.732-1.371,1.094c-0.51,0.347-1.064,0.625-1.647,0.826
				c-0.519,0.263-1.074,0.448-1.647,0.549c-0.603,0.105-1.213,0.166-1.826,0.183c-2.42-0.036-4.738-0.983-6.491-2.651
				c-0.808-0.889-1.459-1.91-1.924-3.018c-0.467-1.099-0.714-2.279-0.727-3.474c0.034-2.421,0.981-4.739,2.651-6.491
				c0.455-0.366,0.911-0.732,1.37-1.098c0.509-0.346,1.061-0.624,1.643-0.826c0.519-0.263,1.074-0.447,1.648-0.544
				c1.203-0.277,2.453-0.277,3.656,0C258.399,173.995,258.955,174.179,259.473,174.442z"/>
			<path d="M188.527,457.143c-16.862,0.288-33.056-6.581-44.569-18.903s-17.268-28.945-15.837-45.748
				c1.16-16.779,7.982-32.667,19.349-45.063h-28.613c-5.047,0.007-9.136,4.096-9.143,9.143v109.714
				c0.007,5.047,4.096,9.136,9.143,9.143h109.714c5.047-0.007,9.136-4.096,9.143-9.143v-28.613
				c-12.396,11.367-28.284,18.19-45.063,19.349C191.268,457.103,189.893,457.143,188.527,457.143z"/>
			<rect x="301.714" y="402.286" width="100.571" height="36.571"/>
			<path d="M420.571,0H91.429C81.334,0.01,73.153,8.191,73.143,18.286v475.429c0.01,10.095,8.191,18.276,18.286,18.286h329.143
				c10.095-0.01,18.276-8.191,18.286-18.286V18.286C438.847,8.191,430.666,0.01,420.571,0z M403.013,23.951
				c0.465-1.107,1.116-2.126,1.924-3.014c3.666-3.384,9.316-3.384,12.982,0c0.806,0.889,1.455,1.908,1.92,3.013
				c0.469,1.1,0.718,2.282,0.732,3.478c-0.037,2.42-0.983,4.738-2.651,6.491c-2.616,2.637-6.567,3.43-9.997,2.006
				s-5.658-4.783-5.637-8.497C402.298,26.233,402.546,25.051,403.013,23.951z M92.156,23.951c0.465-1.107,1.116-2.126,1.924-3.014
				c0.888-0.808,1.907-1.459,3.013-1.924c3.411-1.385,7.319-0.631,9.969,1.924c0.805,0.889,1.455,1.908,1.92,3.013
				c0.513,1.086,0.763,2.277,0.731,3.478c0.024,2.432-0.932,4.771-2.652,6.491c-1.72,1.72-4.059,2.675-6.491,2.652
				c-1.196-0.014-2.378-0.263-3.478-0.732c-1.106-0.465-2.125-1.114-3.014-1.919c-1.67-1.753-2.617-4.071-2.651-6.491
				C91.441,26.233,91.689,25.051,92.156,23.951z M256,466.286c-0.017,15.142-12.287,27.412-27.429,27.429H118.857
				c-15.141-0.017-27.412-12.287-27.429-27.429V356.571c0.016-15.142,12.287-27.412,27.429-27.429h52.667
				c4.345-2.569,9.089-5.196,14.095-7.845c-67.299-34.15-100.351-111.702-78.376-183.9s92.628-118.185,167.541-109.05
				c74.913,9.135,132.445,70.752,136.427,146.115s-46.737,142.7-120.271,159.678c-9.994,26.918-21.664,53.183-34.941,78.642V466.286
				z M283.429,438.857v-36.571c0.01-10.095,8.191-18.276,18.286-18.286h100.571c10.095,0.01,18.276,8.191,18.286,18.286v36.571
				c-0.01,10.095-8.191,18.276-18.286,18.286H301.714C291.62,457.133,283.439,448.952,283.429,438.857z M417.92,491.062
				L417.92,491.062c-1.754,1.669-4.071,2.616-6.491,2.652c-1.196-0.014-2.378-0.263-3.478-0.732
				c-1.106-0.465-2.125-1.115-3.013-1.92c-3.536-3.605-3.536-9.377,0-12.982c0.888-0.808,1.907-1.459,3.013-1.924
				c3.406-1.433,7.341-0.674,9.969,1.924C421.456,481.685,421.456,487.457,417.92,491.062z"/>
		</g>
	</g>
</g>
<g>
</g>
<g>
</g>
<g>
</g>
<g>
</g>
<g>
</g>
<g>
</g>
<g>
</g>
<g>
</g>
<g>
</g>
<g>
</g>
<g>
</g>
<g>
</g>
<g>
</g>
<g>
</g>
<g>
</g>
</svg>
