<?xml version="1.0" encoding="iso-8859-1"?>
<!-- Generator: Adobe Illustrator 19.0.0, SVG Export Plug-In . SVG Version: 6.00 Build 0)  -->
<svg version="1.1" id="Capa_1" xmlns="http://www.w3.org/2000/svg" xmlns:xlink="http://www.w3.org/1999/xlink" x="0px" y="0px"
	 viewBox="0 0 512 512" style="enable-background:new 0 0 512 512;" xml:space="preserve">
<g>
	<g>
		<g>
			<path d="M109.714,73.143c-20.198,0-36.571,16.374-36.571,36.571c0,20.198,16.374,36.571,36.571,36.571
				c20.198,0,36.571-16.374,36.571-36.571c0.003-9.7-3.849-19.004-10.708-25.863S119.414,73.14,109.714,73.143z"/>
			<path d="M109.714,237.714c-40.396,0-73.143,32.747-73.143,73.143S69.319,384,109.714,384s73.143-32.747,73.143-73.143
				C182.804,270.484,150.088,237.768,109.714,237.714z M109.714,365.714c-30.297,0-54.857-24.56-54.857-54.857
				c0-30.297,24.56-54.857,54.857-54.857s54.857,24.56,54.857,54.857C164.547,341.144,140.001,365.69,109.714,365.714z"/>
			<path d="M109.714,274.286c-20.198,0-36.571,16.374-36.571,36.571c0,20.198,16.374,36.571,36.571,36.571
				c20.198,0,36.571-16.374,36.571-36.571c0.003-9.7-3.849-19.004-10.708-25.863S119.414,274.283,109.714,274.286z"/>
			<path d="M109.714,36.571c-40.396,0-73.143,32.747-73.143,73.143s32.747,73.143,73.143,73.143s73.143-32.747,73.143-73.143
				C182.804,69.341,150.088,36.625,109.714,36.571z M109.714,164.571c-30.297,0-54.857-24.56-54.857-54.857
				s24.56-54.857,54.857-54.857s54.857,24.56,54.857,54.857C164.547,140.001,140.001,164.547,109.714,164.571z"/>
			<path d="M192,0H27.429C12.299,0.044,0.044,12.299,0,27.429v457.143c0.044,15.13,12.299,27.384,27.429,27.429H192
				c15.13-0.044,27.384-12.299,27.429-27.429V27.429C219.384,12.299,207.13,0.044,192,0z M128,457.143H45.714
				c-5.049,0-9.143-4.093-9.143-9.143c0-5.049,4.093-9.143,9.143-9.143H128c5.049,0,9.143,4.093,9.143,9.143
				C137.143,453.049,133.049,457.143,128,457.143z M173.714,457.143h-9.143c-5.049,0-9.143-4.093-9.143-9.143
				c0-5.049,4.093-9.143,9.143-9.143h9.143c5.049,0,9.143,4.093,9.143,9.143C182.857,453.049,178.764,457.143,173.714,457.143z
				 M109.714,402.286c-50.495,0-91.429-40.934-91.429-91.429c0-50.495,40.934-91.429,91.429-91.429s91.429,40.934,91.429,91.429
				C201.06,361.317,160.174,402.203,109.714,402.286z M109.714,201.143c-50.495,0-91.429-40.934-91.429-91.429
				s40.934-91.429,91.429-91.429s91.429,40.934,91.429,91.429C201.06,160.174,160.174,201.06,109.714,201.143z"/>
			<path d="M402.286,274.286c-20.198,0-36.571,16.374-36.571,36.571c0,20.198,16.374,36.571,36.571,36.571
				c20.198,0,36.571-16.374,36.571-36.571c0.003-9.7-3.849-19.004-10.708-25.863S411.986,274.283,402.286,274.286z"/>
			<path d="M484.571,0H320c-15.13,0.044-27.384,12.299-27.429,27.429v457.143C292.616,499.701,304.87,511.956,320,512h164.571
				c15.13-0.044,27.384-12.299,27.429-27.429V27.429C511.956,12.299,499.702,0.044,484.571,0z M335.634,445.349
				c-3.606,3.535-9.377,3.535-12.983,0c-0.846-0.859-1.5-1.887-1.92-3.017c-0.976-2.214-0.976-4.735,0-6.949
				c0.442-1.119,1.094-2.143,1.92-3.017c2.649-2.555,6.557-3.308,9.966-1.92c1.107,0.464,2.128,1.113,3.017,1.92
				C339.169,435.971,339.169,441.743,335.634,445.349z M428.149,483.006c-6.859,6.859-16.163,10.711-25.863,10.709
				c-20.198,0-36.571-16.374-36.571-36.571s16.374-36.571,36.571-36.571c20.198,0,36.571,16.374,36.571,36.571
				C438.86,466.843,435.008,476.147,428.149,483.006z M481.92,445.349c-3.103,3.165-8.012,3.691-11.715,1.256
				c-3.703-2.435-5.166-7.151-3.49-11.254c1.676-4.103,6.021-6.446,10.37-5.593c4.349,0.854,7.486,4.667,7.486,9.099
				C484.537,441.278,483.59,443.596,481.92,445.349z M402.286,402.286c-50.495,0-91.429-40.934-91.429-91.429
				c0-50.495,40.934-91.429,91.429-91.429c50.495,0,91.429,40.934,91.429,91.429C493.631,361.317,452.746,402.203,402.286,402.286z
				 M402.286,201.143c-50.495,0-91.429-40.934-91.429-91.429s40.934-91.429,91.429-91.429c50.495,0,91.429,40.934,91.429,91.429
				C493.631,160.174,452.746,201.06,402.286,201.143z"/>
			<path d="M411.429,441.417V448c0,5.049-4.093,9.143-9.143,9.143c-5.049,0-9.143-4.093-9.143-9.143v-6.583
				c-7.167,4.138-10.662,12.574-8.52,20.569c2.142,7.994,9.386,13.553,17.663,13.553c8.276,0,15.521-5.559,17.663-13.553
				C422.09,453.992,418.596,445.555,411.429,441.417z"/>
			<path d="M402.286,36.571c-40.396,0-73.143,32.747-73.143,73.143s32.747,73.143,73.143,73.143
				c40.396,0,73.143-32.747,73.143-73.143C475.375,69.341,442.659,36.625,402.286,36.571z M402.286,164.571
				c-30.297,0-54.857-24.56-54.857-54.857s24.56-54.857,54.857-54.857c30.297,0,54.857,24.56,54.857,54.857
				C457.119,140.001,432.573,164.547,402.286,164.571z"/>
			<path d="M402.286,237.714c-40.396,0-73.143,32.747-73.143,73.143S361.89,384,402.286,384c40.396,0,73.143-32.747,73.143-73.143
				C475.375,270.484,442.659,237.768,402.286,237.714z M402.286,365.714c-30.297,0-54.857-24.56-54.857-54.857
				c0-30.297,24.56-54.857,54.857-54.857c30.297,0,54.857,24.56,54.857,54.857C457.119,341.144,432.573,365.69,402.286,365.714z"/>
			<path d="M402.286,73.143c-20.198,0-36.571,16.374-36.571,36.571c0,20.198,16.374,36.571,36.571,36.571
				c20.198,0,36.571-16.374,36.571-36.571c0.003-9.7-3.849-19.004-10.708-25.863S411.986,73.14,402.286,73.143z"/>
		</g>
	</g>
</g>
<g>
</g>
<g>
</g>
<g>
</g>
<g>
</g>
<g>
</g>
<g>
</g>
<g>
</g>
<g>
</g>
<g>
</g>
<g>
</g>
<g>
</g>
<g>
</g>
<g>
</g>
<g>
</g>
<g>
</g>
</svg>
