<?xml version="1.0" encoding="iso-8859-1"?>
<!-- Generator: Adobe Illustrator 19.0.0, SVG Export Plug-In . SVG Version: 6.00 Build 0)  -->
<svg version="1.1" id="Capa_1" xmlns="http://www.w3.org/2000/svg" xmlns:xlink="http://www.w3.org/1999/xlink" x="0px" y="0px"
	 viewBox="0 0 512 512" style="enable-background:new 0 0 512 512;" xml:space="preserve">
<g>
	<g>
		<g>
			<path d="M201.143,402.286v73.143h109.714v-73.143H201.143z M265.143,448h-18.286c-5.049,0-9.143-4.093-9.143-9.143
				c0-5.049,4.093-9.143,9.143-9.143h18.286c5.049,0,9.143,4.093,9.143,9.143C274.286,443.907,270.192,448,265.143,448z"/>
			<path d="M393.143,493.714H118.857c-10.094,0.012-18.274,8.192-18.286,18.286h310.857
				C411.417,501.906,403.237,493.726,393.143,493.714z"/>
			<path d="M0,374.857c0.005,5.047,4.095,9.138,9.143,9.143h493.714c5.047-0.005,9.138-4.095,9.143-9.143v-45.714H0V374.857z
				 M101.304,353.094c0.464-1.107,1.113-2.126,1.92-3.013c2.189-2.159,5.31-3.084,8.321-2.469c0.572,0.099,1.125,0.283,1.643,0.545
				c0.562,0.183,1.087,0.463,1.554,0.826c1.527,0.986,2.71,2.423,3.384,4.112c0.469,1.1,0.718,2.282,0.732,3.477
				c-0.029,2.439-1.013,4.77-2.741,6.491c-0.421,0.409-0.882,0.775-1.375,1.094c-0.466,0.363-0.992,0.642-1.554,0.826
				c-0.518,0.261-1.072,0.446-1.643,0.549c-0.606,0.1-1.217,0.161-1.83,0.183c-2.432,0.024-4.771-0.932-6.491-2.652
				c-1.72-1.72-2.675-4.059-2.652-6.491C100.586,355.375,100.834,354.194,101.304,353.094z M66.651,350.08
				c2.929-2.962,7.485-3.581,11.098-1.507c3.613,2.074,5.376,6.321,4.295,10.344c-1.081,4.023-4.736,6.814-8.901,6.797
				c-3.697-0.015-7.024-2.245-8.442-5.66C63.283,356.64,64.052,352.709,66.651,350.08z M28.16,353.093
				c0.464-1.107,1.113-2.126,1.92-3.013c3.666-3.384,9.316-3.384,12.982,0c0.807,0.888,1.456,1.907,1.92,3.013
				c0.976,2.214,0.976,4.737,0,6.951c-0.464,1.108-1.113,2.129-1.92,3.018c-3.605,3.536-9.377,3.536-12.982,0
				c-0.807-0.889-1.456-1.91-1.92-3.018C27.184,357.83,27.184,355.308,28.16,353.093z"/>
			<path d="M502.857,0H9.143C4.095,0.005,0.005,4.095,0,9.143v9.143h512V9.143C511.995,4.095,507.905,0.005,502.857,0z"/>
			<path d="M0,310.857h512V36.571H0V310.857z M137.143,54.858c2.425,0,4.75,0.963,6.464,2.678c1.715,1.714,2.679,4.039,2.679,6.464
				c0,2.425-0.964,4.75-2.679,6.464L43.035,171.036c-3.577,3.532-9.334,3.513-12.888-0.041s-3.572-9.311-0.04-12.888L130.679,57.536
				C132.393,55.821,134.718,54.858,137.143,54.858z M75.794,57.509c2.196-2.146,5.31-3.07,8.321-2.469
				c0.572,0.099,1.125,0.283,1.643,0.545c0.582,0.201,1.134,0.479,1.643,0.826c0.455,0.366,0.92,0.732,1.375,1.098
				c1.669,1.753,2.616,4.071,2.652,6.491c-0.014,0.613-0.077,1.223-0.188,1.826c-0.096,0.574-0.28,1.129-0.545,1.647
				c-0.201,0.582-0.477,1.136-0.821,1.647c-0.366,0.455-0.732,0.911-1.098,1.371c-0.455,0.366-0.92,0.732-1.375,1.094
				c-0.508,0.347-1.061,0.625-1.643,0.826c-0.518,0.261-1.072,0.446-1.643,0.549c-0.605,0.105-1.217,0.166-1.83,0.183
				c-2.42-0.036-4.738-0.983-6.491-2.651c-0.392-0.436-0.759-0.893-1.098-1.371c-0.348-0.509-0.624-1.063-0.821-1.647
				c-0.264-0.519-0.45-1.074-0.554-1.647c-0.104-0.604-0.163-1.214-0.178-1.826C73.175,61.579,74.122,59.26,75.794,57.509z
				 M20.965,112.393l27.429-27.429c3.579-3.515,9.322-3.489,12.87,0.058c3.547,3.547,3.573,9.29,0.058,12.87l-27.429,27.429
				c-3.579,3.515-9.322,3.489-12.87-0.058C17.476,121.716,17.45,115.972,20.965,112.393z"/>
		</g>
	</g>
</g>
<g>
</g>
<g>
</g>
<g>
</g>
<g>
</g>
<g>
</g>
<g>
</g>
<g>
</g>
<g>
</g>
<g>
</g>
<g>
</g>
<g>
</g>
<g>
</g>
<g>
</g>
<g>
</g>
<g>
</g>
</svg>
