<?xml version="1.0" encoding="iso-8859-1"?>
<!-- Generator: Adobe Illustrator 19.0.0, SVG Export Plug-In . SVG Version: 6.00 Build 0)  -->
<svg version="1.1" id="Capa_1" xmlns="http://www.w3.org/2000/svg" xmlns:xlink="http://www.w3.org/1999/xlink" x="0px" y="0px"
	 viewBox="0 0 512 512" style="enable-background:new 0 0 512 512;" xml:space="preserve">
<g>
	<g>
		<g>
			<path d="M128,438.857h45.714v-18.286c0-5.049,4.093-9.143,9.143-9.143c5.049,0,9.143,4.093,9.143,9.143v18.286h18.286v-18.286
				c0-5.049,4.093-9.143,9.143-9.143c5.049,0,9.143,4.093,9.143,9.143v18.286h18.286v-18.286c0-5.049,4.093-9.143,9.143-9.143
				s9.143,4.093,9.143,9.143v18.286h18.286v-18.286c0-5.049,4.093-9.143,9.143-9.143c5.049,0,9.143,4.093,9.143,9.143v18.286H320
				v-18.286c0-5.049,4.093-9.143,9.143-9.143c5.049,0,9.143,4.093,9.143,9.143v18.286H384v-45.714H128V438.857z"/>
			<path d="M394.857,13.482C392.678,5.532,385.458,0.015,377.214,0H134.786c-8.244,0.015-15.463,5.532-17.643,13.482L75.969,164.571
				h360.063L394.857,13.482z M308.571,106.621c-1.736,1.967-4.233,3.094-6.857,3.094h-29.429l-7.42,29.647
				c-1.017,4.069-4.672,6.923-8.866,6.924h-45.714c-2.87,0.001-5.574-1.346-7.302-3.636c-1.728-2.291-2.281-5.26-1.492-8.02
				l18.286-64c1.125-3.924,4.713-6.628,8.795-6.63h23.036l33.821-42.281c2.296-2.871,6.087-4.088,9.625-3.089
				c3.538,0.998,6.133,4.018,6.59,7.665l9.143,73.143C311.113,102.039,310.307,104.655,308.571,106.621z"/>
			<path d="M263.143,78.853c-1.737,2.169-4.364,3.431-7.143,3.433h-20.536L222.411,128h26.446l7.42-29.647
				c1.017-4.069,4.672-6.923,8.866-6.924h26.214l-5.17-41.38L263.143,78.853z"/>
			<path d="M131.616,461.036l21.223,37.143c4.889,8.539,13.972,13.812,23.813,13.821h158.696c9.84-0.01,18.923-5.282,23.813-13.821
				l21.223-37.138c0.633-1.256,1.168-2.559,1.599-3.897H130.018C130.449,458.48,130.983,459.781,131.616,461.036z"/>
			<path d="M73.143,182.857v210.286c0.016,15.142,12.287,27.412,27.429,27.429h9.143v-91.429c0-0.813,0.108-1.622,0.321-2.406
				l23.75-87.098c3.275-11.92,14.103-20.189,26.464-20.21h191.5c12.362,0.021,23.189,8.29,26.464,20.21l23.75,87.098
				c0.214,0.784,0.322,1.593,0.321,2.406v91.429h9.143c15.142-0.017,27.412-12.287,27.429-27.429V182.857H73.143z"/>
			<rect x="128" y="338.286" width="256" height="36.571"/>
			<path d="M351.75,237.714h-191.5c-4.122,0.004-7.732,2.761-8.822,6.737L130.827,320h250.346l-20.602-75.549
				C359.482,240.476,355.872,237.718,351.75,237.714z"/>
		</g>
	</g>
</g>
<g>
</g>
<g>
</g>
<g>
</g>
<g>
</g>
<g>
</g>
<g>
</g>
<g>
</g>
<g>
</g>
<g>
</g>
<g>
</g>
<g>
</g>
<g>
</g>
<g>
</g>
<g>
</g>
<g>
</g>
</svg>
