<?xml version="1.0" encoding="iso-8859-1"?>
<!-- Generator: Adobe Illustrator 19.0.0, SVG Export Plug-In . SVG Version: 6.00 Build 0)  -->
<svg version="1.1" id="Capa_1" xmlns="http://www.w3.org/2000/svg" xmlns:xlink="http://www.w3.org/1999/xlink" x="0px" y="0px"
	 viewBox="0 0 512 512" style="enable-background:new 0 0 512 512;" xml:space="preserve">
<g>
	<g>
		<g>
			<path d="M86.857,118.857v192c0.009,13.032,9.177,24.262,21.943,26.88l5.577-63.543c0.091-0.183,0.183-0.274,0.183-0.457
				c5.06-75.536,66.881-134.751,142.565-136.555c75.683-1.804,140.256,54.398,148.91,129.607c0.019,0.194,0.081,0.382,0.183,0.549
				l5.851,66.834c8.124-4.961,13.079-13.795,13.074-23.314v-192H86.857z"/>
			<path d="M405.211,19.749C401.823,8.029,391.08-0.028,378.88,0H133.12c-12.355,0.01-23.176,8.285-26.423,20.206l-17.646,80.366
				h333.897L405.211,19.749z M393.326,79.086c-1.745,2.02-4.279,3.187-6.949,3.2H125.623c-2.67-0.013-5.203-1.18-6.949-3.2
				c-1.715-2.061-2.478-4.751-2.103-7.406l7.497-45.714c0.749-4.42,4.568-7.661,9.051-7.68h245.76
				c4.496-0.016,8.335,3.242,9.051,7.68l7.497,45.714C395.804,74.335,395.04,77.025,393.326,79.086z"/>
			<polygon points="140.891,36.571 136.411,64 375.589,64 371.109,36.571 			"/>
			<path d="M389.669,288.457l-1.646-18.926c0-0.183-0.091-0.274-0.183-0.457c-7.478-65.959-64.113-115.273-130.474-113.608
				s-120.451,53.757-124.612,120.008c-0.019,0.194-0.082,0.382-0.183,0.549l-1.006,12.343
				c28.813-43.093,77.238-68.955,129.076-68.937C312.479,219.447,360.886,245.344,389.669,288.457z"/>
			<path d="M297.143,281.143v11.429c-0.015,5.043-4.1,9.128-9.143,9.143h-54.857c-5.043-0.015-9.128-4.1-9.143-9.143v-11.429
				c-26.442,10.377-47.28,31.424-57.393,57.967c-10.113,26.544-8.561,56.121,4.273,81.461h34.834c5.043,0.015,9.128,4.1,9.143,9.143
				v34.834c28.807,14.263,62.621,14.263,91.429,0v-34.834c0.015-5.043,4.1-9.128,9.143-9.143h34.834
				c12.834-25.34,14.386-54.918,4.273-81.461S323.584,291.519,297.143,281.143z M203.063,390.492
				c-3.103,3.165-8.012,3.691-11.715,1.256s-5.166-7.151-3.49-11.254c1.676-4.103,6.021-6.446,10.37-5.592s7.486,4.666,7.486,9.099
				C205.679,386.421,204.733,388.739,203.063,390.492z M212.206,335.634c-3.103,3.165-8.012,3.691-11.715,1.256
				c-3.703-2.435-5.166-7.151-3.49-11.254c1.676-4.103,6.021-6.446,10.37-5.593c4.349,0.854,7.486,4.667,7.486,9.099
				C214.822,331.563,213.875,333.882,212.206,335.634z M251.246,440.686c-0.099,0.573-0.284,1.128-0.549,1.646
				c-0.182,0.562-0.46,1.088-0.823,1.554c-0.366,0.549-0.731,1.006-1.097,1.463c-1.753,1.67-4.071,2.617-6.491,2.651
				c-0.613-0.016-1.224-0.077-1.829-0.183c-0.573-0.099-1.128-0.284-1.646-0.549c-0.583-0.2-1.136-0.477-1.646-0.823l-1.371-1.097
				c-1.684-1.743-2.634-4.068-2.651-6.491c0.013-1.195,0.262-2.375,0.731-3.474c0.442-1.119,1.094-2.143,1.92-3.017l1.371-1.097
				c0.51-0.346,1.063-0.623,1.646-0.823c0.518-0.264,1.073-0.449,1.646-0.549c2.694-0.573,5.502,0.106,7.635,1.848
				c2.133,1.742,3.36,4.358,3.337,7.112C251.413,439.47,251.352,440.082,251.246,440.686z M285.349,445.349
				c-0.457,0.366-0.914,0.731-1.463,1.097c-0.466,0.363-0.992,0.641-1.554,0.823c-0.545,0.278-1.132,0.463-1.737,0.549
				c-0.573,0.106-1.154,0.167-1.737,0.183c-1.195-0.013-2.375-0.262-3.474-0.731c-1.119-0.442-2.143-1.093-3.017-1.92
				c-0.416-0.448-0.784-0.938-1.097-1.463c-0.363-0.466-0.641-0.992-0.823-1.554c-0.264-0.518-0.449-1.073-0.549-1.646
				c-0.151-0.597-0.213-1.213-0.183-1.829c-0.007-2.429,0.946-4.762,2.651-6.491c3.643-3.442,9.34-3.442,12.983,0
				C288.884,435.971,288.884,441.743,285.349,445.349z M288,384c-0.015,5.043-4.1,9.128-9.143,9.143h-36.571
				c-5.043-0.015-9.128-4.1-9.143-9.143v-54.857c0.015-5.043,4.1-9.128,9.143-9.143h36.571c5.043,0.015,9.128,4.1,9.143,9.143V384z
				 M308.937,335.634c-3.164-3.103-3.691-8.011-1.256-11.714s7.15-5.165,11.253-3.489s6.446,6.021,5.592,10.37
				s-4.666,7.485-9.098,7.485C313.008,338.251,310.69,337.304,308.937,335.634z M331.063,390.492
				c-1.753,1.67-4.071,2.617-6.491,2.651c-2.424-0.018-4.748-0.967-6.491-2.651c-3.549-3.578-3.533-9.354,0.035-12.912
				s9.344-3.559,12.912,0C334.596,381.138,334.612,386.913,331.063,390.492z"/>
			<path d="M260.571,237.714c-75.742,0-137.143,61.401-137.143,137.143S184.83,512,260.571,512s137.143-61.401,137.143-137.143
				C397.622,299.154,336.275,237.806,260.571,237.714z M364.069,433.28c-0.135,0.343-0.288,0.678-0.457,1.006
				c-0.414,0.665-0.905,1.279-1.463,1.829v0.091c-0.755,0.712-1.619,1.298-2.56,1.737c-0.249,0.076-0.494,0.168-0.731,0.274
				c-1.022,0.396-2.104,0.613-3.2,0.64h-31.086v31.086c-0.027,1.066-0.244,2.119-0.64,3.109l-0.274,0.823
				c-0.462,0.927-1.046,1.789-1.737,2.56h-0.091c-0.549,0.558-1.163,1.049-1.829,1.463c-0.327,0.17-0.663,0.322-1.006,0.458
				c-36.256,20.48-80.589,20.48-116.846,0c-0.343-0.135-0.679-0.288-1.006-0.458c-0.665-0.413-1.279-0.904-1.829-1.463h-0.091
				c-0.691-0.771-1.276-1.633-1.737-2.56l-0.274-0.823c-0.405-0.987-0.622-2.042-0.64-3.109v-31.086h-31.086
				c-1.096-0.027-2.178-0.244-3.2-0.64c-0.238-0.107-0.482-0.198-0.731-0.274c-0.94-0.439-1.805-1.025-2.56-1.737v-0.091
				c-0.558-0.55-1.049-1.163-1.463-1.829c-0.169-0.327-0.322-0.663-0.457-1.006c-18.164-32.169-20.338-70.955-5.883-104.953
				c14.455-33.997,43.896-59.341,79.665-68.579c2.739-0.688,5.642-0.078,7.872,1.653c2.231,1.731,3.542,4.392,3.556,7.215v14.811
				h36.571v-14.811c0.014-2.824,1.325-5.484,3.556-7.215c2.231-1.731,5.134-2.341,7.872-1.653
				c35.769,9.238,65.21,34.581,79.665,68.579C384.406,362.325,382.232,401.111,364.069,433.28z"/>
			<rect x="251.429" y="338.286" width="18.286" height="36.571"/>
		</g>
	</g>
</g>
<g>
</g>
<g>
</g>
<g>
</g>
<g>
</g>
<g>
</g>
<g>
</g>
<g>
</g>
<g>
</g>
<g>
</g>
<g>
</g>
<g>
</g>
<g>
</g>
<g>
</g>
<g>
</g>
<g>
</g>
</svg>
