<?xml version="1.0" encoding="iso-8859-1"?>
<!-- Generator: Adobe Illustrator 19.0.0, SVG Export Plug-In . SVG Version: 6.00 Build 0)  -->
<svg version="1.1" id="Capa_1" xmlns="http://www.w3.org/2000/svg" xmlns:xlink="http://www.w3.org/1999/xlink" x="0px" y="0px"
	 viewBox="0 0 512 512" style="enable-background:new 0 0 512 512;" xml:space="preserve">
<g>
	<g>
		<g>
			<rect x="246.857" y="329.143" width="18.286" height="54.857"/>
			<rect x="155.429" y="402.286" width="18.286" height="54.857"/>
			<rect x="338.286" y="402.286" width="18.286" height="54.857"/>
			<path d="M196.482,109.714h119.036c19.098,0.012,37.367,7.8,50.599,21.571l59.583,62.2l-15.726-95.521l-77.403-81.804
				C322.848,5.888,309.341,0.047,295.196,0h-78.393c-14.145,0.047-27.652,5.888-37.375,16.161l-77.402,81.804L86.3,193.486
				l59.602-62.213C159.129,117.508,177.392,109.724,196.482,109.714z"/>
			<path d="M352.902,143.924c-9.778-10.171-23.276-15.92-37.384-15.924H196.482c-14.101,0.002-27.593,5.747-37.366,15.911
				l-76.83,80.196v118.201c0.048,2.852,0.327,5.696,0.834,8.503l17.576-105.459c0.303-1.814,1.146-3.494,2.42-4.821l71.393-74.522
				c12.092-12.57,28.772-19.688,46.214-19.723h70.554c17.442,0.035,34.122,7.153,46.214,19.723l71.393,74.522
				c1.274,1.327,2.117,3.007,2.42,4.821l17.576,105.459c0.507-2.807,0.786-5.651,0.834-8.503V224.107L352.902,143.924z"/>
			<path d="M309.563,274.286H202.438c-12.461,0.024-24.378,5.109-33.018,14.089l-68.848,71.871v106.04
				c0.03,25.235,20.479,45.685,45.714,45.714h219.429c25.235-0.03,45.685-20.479,45.714-45.714v-106.04l-68.848-71.871
				C333.941,279.395,322.024,274.31,309.563,274.286z M192,466.286c0.001,2.425-0.962,4.751-2.677,6.466
				c-1.715,1.715-4.041,2.678-6.466,2.677h-36.571c-2.425,0.001-4.751-0.962-6.466-2.677c-1.715-1.715-2.678-4.041-2.677-6.466
				v-73.143c-0.001-2.425,0.962-4.751,2.677-6.466c1.715-1.715,4.041-2.678,6.466-2.677h36.571c2.425-0.001,4.751,0.962,6.466,2.677
				c1.715,1.715,2.678,4.041,2.677,6.466V466.286z M283.429,393.143c0.001,2.425-0.962,4.751-2.677,6.466
				c-1.715,1.715-4.041,2.678-6.466,2.677h-36.571c-2.425,0.001-4.751-0.962-6.466-2.677c-1.715-1.715-2.678-4.041-2.677-6.466V320
				c-0.001-2.425,0.962-4.751,2.677-6.466c1.715-1.715,4.041-2.678,6.466-2.677h36.571c2.425-0.001,4.751,0.962,6.466,2.677
				c1.715,1.715,2.678,4.041,2.677,6.466V393.143z M372.18,386.677c1.715,1.715,2.678,4.041,2.677,6.466v73.143
				c0.001,2.425-0.962,4.751-2.677,6.466c-1.715,1.715-4.041,2.678-6.466,2.677h-36.571c-2.425,0.001-4.751-0.962-6.466-2.677
				c-1.715-1.715-2.678-4.041-2.677-6.466v-73.143c-0.001-2.425,0.962-4.751,2.677-6.466c1.715-1.715,4.041-2.678,6.466-2.677
				h36.571C368.139,383.999,370.465,384.962,372.18,386.677z"/>
			<path d="M309.563,256c17.442,0.035,34.122,7.153,46.214,19.723l50.908,53.139l-12.953-77.72l-69.437-72.482
				c-8.64-8.98-20.557-14.065-33.018-14.089h-70.554c-12.461,0.024-24.378,5.109-33.018,14.089l-69.437,72.482l-12.953,77.72
				l50.907-53.14c12.093-12.57,28.773-19.688,46.215-19.723H309.563z"/>
		</g>
	</g>
</g>
<g>
</g>
<g>
</g>
<g>
</g>
<g>
</g>
<g>
</g>
<g>
</g>
<g>
</g>
<g>
</g>
<g>
</g>
<g>
</g>
<g>
</g>
<g>
</g>
<g>
</g>
<g>
</g>
<g>
</g>
</svg>
