<?xml version="1.0" encoding="iso-8859-1"?>
<!-- Generator: Adobe Illustrator 19.0.0, SVG Export Plug-In . SVG Version: 6.00 Build 0)  -->
<svg version="1.1" id="Capa_1" xmlns="http://www.w3.org/2000/svg" xmlns:xlink="http://www.w3.org/1999/xlink" x="0px" y="0px"
	 viewBox="0 0 512 512" style="enable-background:new 0 0 512 512;" xml:space="preserve">
<g>
	<g>
		<g>
			<rect x="210.286" y="109.714" width="18.286" height="54.857"/>
			<polygon points="192,109.714 163.054,109.714 153.088,164.571 192,164.571 			"/>
			<path d="M155.429,246.857c0-5.049,4.093-9.143,9.143-9.143h182.857c5.049,0,9.143,4.093,9.143,9.143v45.714h25.616
				L362.24,182.857H149.76l-19.948,109.714h25.616V246.857z"/>
			<rect x="283.429" y="256" width="18.286" height="36.571"/>
			<rect x="320" y="256" width="18.286" height="36.571"/>
			<polygon points="213.531,36.571 211.41,54.857 300.59,54.857 298.469,36.571 			"/>
			<rect x="246.857" y="109.714" width="18.286" height="54.857"/>
			<polygon points="320,109.714 320,164.571 358.912,164.571 348.946,109.714 			"/>
			<rect x="246.857" y="256" width="18.286" height="36.571"/>
			<rect x="283.429" y="109.714" width="18.286" height="54.857"/>
			<path d="M331.147,0H180.853l-22.857,91.429h196.009L331.147,0z M317.683,70.08c-1.734,1.948-4.218,3.062-6.826,3.063H201.143
				c-2.608-0.001-5.092-1.115-6.826-3.063s-2.555-4.543-2.254-7.134l4.25-36.571c0.534-4.611,4.439-8.09,9.08-8.089h101.214
				c4.642,0,8.547,3.479,9.08,8.089l4.25,36.571C320.24,65.537,319.42,68.134,317.683,70.08z"/>
			<path d="M356.571,310.857v45.714c0,5.049-4.093,9.143-9.143,9.143s-9.143-4.093-9.143-9.143v-45.714H320v45.714
				c0,5.049-4.093,9.143-9.143,9.143c-5.049,0-9.143-4.093-9.143-9.143v-45.714h-18.286v45.714c0,5.049-4.093,9.143-9.143,9.143
				c-5.049,0-9.143-4.093-9.143-9.143v-45.714h-18.286v45.714c0,5.049-4.093,9.143-9.143,9.143s-9.143-4.093-9.143-9.143v-45.714
				h-18.286v45.714c0,5.049-4.093,9.143-9.143,9.143c-5.049,0-9.143-4.093-9.143-9.143v-45.714h-18.286v45.714
				c0,5.049-4.093,9.143-9.143,9.143c-5.049,0-9.143-4.093-9.143-9.143v-45.714H128v128h256v-128H356.571z M173.531,394.969
				c-0.102,0.573-0.287,1.128-0.549,1.647c-0.201,0.583-0.479,1.137-0.826,1.647c-0.362,0.455-0.728,0.911-1.094,1.371
				c-0.46,0.366-0.915,0.732-1.371,1.094c-0.51,0.347-1.064,0.625-1.647,0.826c-0.519,0.263-1.074,0.447-1.647,0.549
				c-0.603,0.105-1.214,0.166-1.826,0.183c-2.42-0.036-4.738-0.982-6.491-2.651c-0.393-0.434-0.76-0.892-1.098-1.37
				c-0.347-0.51-0.625-1.064-0.826-1.647c-0.263-0.519-0.447-1.074-0.545-1.647c-0.107-0.603-0.168-1.214-0.183-1.826
				c0.034-2.421,0.981-4.739,2.651-6.491c2.187-2.158,5.306-3.084,8.317-2.469c0.573,0.098,1.129,0.282,1.647,0.545
				c0.583,0.201,1.137,0.479,1.647,0.826c0.455,0.366,0.911,0.732,1.371,1.098c1.669,1.753,2.616,4.071,2.652,6.491
				C173.698,393.755,173.637,394.365,173.531,394.969z M210.103,394.969c-0.102,0.573-0.287,1.128-0.549,1.647
				c-0.201,0.583-0.479,1.137-0.826,1.647c-0.362,0.455-0.728,0.911-1.094,1.371c-0.46,0.366-0.915,0.732-1.37,1.094
				c-0.51,0.347-1.064,0.625-1.647,0.826c-0.519,0.263-1.074,0.447-1.647,0.549c-0.603,0.105-1.214,0.166-1.826,0.183
				c-1.196-0.014-2.378-0.263-3.478-0.732c-1.106-0.465-2.125-1.115-3.013-1.92c-0.366-0.46-0.732-0.915-1.098-1.37
				c-0.347-0.51-0.625-1.064-0.826-1.647c-0.263-0.519-0.447-1.074-0.545-1.647c-0.107-0.603-0.168-1.213-0.183-1.826
				c0.013-1.196,0.26-2.377,0.728-3.478c0.84-2.292,2.645-4.098,4.937-4.937c1.669-0.727,3.522-0.918,5.304-0.545
				c0.573,0.098,1.129,0.282,1.647,0.545c0.583,0.201,1.137,0.479,1.647,0.826c0.455,0.366,0.911,0.732,1.37,1.098
				c0.806,0.889,1.455,1.908,1.92,3.013c0.469,1.1,0.718,2.281,0.732,3.477C210.269,393.755,210.208,394.365,210.103,394.969z
				 M246.674,394.969c-0.102,0.573-0.287,1.128-0.549,1.647c-0.201,0.583-0.479,1.137-0.826,1.647
				c-0.362,0.455-0.728,0.911-1.094,1.371c-3.605,3.536-9.377,3.536-12.982,0c-0.366-0.46-0.732-0.915-1.098-1.371
				c-0.347-0.51-0.625-1.064-0.826-1.647c-0.263-0.519-0.447-1.074-0.545-1.647c-0.107-0.603-0.169-1.214-0.183-1.826
				c0-5.049,4.093-9.143,9.143-9.143s9.143,4.093,9.143,9.143C246.841,393.755,246.779,394.365,246.674,394.969z M282.697,396.616
				c-0.465,1.107-1.114,2.127-1.92,3.018c-1.754,1.668-4.071,2.615-6.491,2.652c-0.614-0.016-1.226-0.078-1.83-0.183
				c-0.573-0.102-1.128-0.287-1.647-0.549c-0.582-0.202-1.134-0.48-1.643-0.826c-0.48-0.334-0.938-0.7-1.371-1.094
				c-0.827-0.874-1.48-1.899-1.924-3.018c-0.467-1.099-0.714-2.279-0.727-3.474c0.034-2.421,0.981-4.739,2.651-6.491
				c2.626-2.598,6.559-3.358,9.964-1.924c1.13,0.422,2.159,1.078,3.019,1.924c1.669,1.753,2.616,4.071,2.651,6.491
				C283.414,394.337,283.165,395.517,282.697,396.616L282.697,396.616z M319.817,394.968L319.817,394.968
				c-0.102,0.573-0.287,1.128-0.549,1.648c-0.201,0.583-0.479,1.137-0.826,1.647c-0.362,0.455-0.728,0.911-1.094,1.371
				c-1.754,1.668-4.071,2.615-6.491,2.652c-1.196-0.014-2.378-0.263-3.478-0.732c-1.117-0.443-2.14-1.094-3.013-1.92
				c-0.366-0.46-0.732-0.915-1.098-1.37c-0.347-0.51-0.625-1.064-0.826-1.647c-0.263-0.519-0.447-1.074-0.545-1.647
				c-0.244-1.207-0.244-2.45,0-3.656c0.098-0.573,0.282-1.129,0.545-1.647c0.202-0.582,0.48-1.134,0.826-1.643
				c0.366-0.46,0.732-0.915,1.098-1.371c0.872-0.828,1.895-1.481,3.013-1.924c2.218-0.958,4.733-0.958,6.951,0
				c1.119,0.444,2.144,1.097,3.018,1.924c0.366,0.455,0.732,0.911,1.094,1.371c0.346,0.509,0.624,1.061,0.826,1.643
				c0.263,0.519,0.448,1.074,0.549,1.647C320.061,392.519,320.061,393.762,319.817,394.968z M356.389,394.969
				c-0.102,0.573-0.287,1.128-0.549,1.647c-0.201,0.583-0.479,1.137-0.826,1.647c-0.362,0.455-0.728,0.911-1.094,1.371
				c-1.754,1.668-4.071,2.615-6.491,2.652c-1.196-0.014-2.378-0.263-3.478-0.732c-1.117-0.443-2.14-1.094-3.013-1.92
				c-0.366-0.46-0.732-0.915-1.098-1.37c-0.347-0.51-0.625-1.064-0.826-1.647c-0.263-0.519-0.447-1.074-0.545-1.647
				c-0.103-0.604-0.164-1.214-0.183-1.826c0-5.049,4.093-9.143,9.143-9.143s9.143,4.093,9.143,9.143
				C356.55,393.755,356.489,394.365,356.389,394.969z"/>
			<rect x="210.286" y="256" width="18.286" height="36.571"/>
			<polygon points="173.714,475.429 210.286,475.429 301.714,475.429 338.286,475.429 338.286,457.143 173.714,457.143 			"/>
			<rect x="219.429" y="493.714" width="73.143" height="18.286"/>
			<rect x="173.714" y="256" width="18.286" height="36.571"/>
		</g>
	</g>
</g>
<g>
</g>
<g>
</g>
<g>
</g>
<g>
</g>
<g>
</g>
<g>
</g>
<g>
</g>
<g>
</g>
<g>
</g>
<g>
</g>
<g>
</g>
<g>
</g>
<g>
</g>
<g>
</g>
<g>
</g>
</svg>
