<?xml version="1.0" encoding="iso-8859-1"?>
<!-- Generator: Adobe Illustrator 19.0.0, SVG Export Plug-In . SVG Version: 6.00 Build 0)  -->
<svg version="1.1" id="Capa_1" xmlns="http://www.w3.org/2000/svg" xmlns:xlink="http://www.w3.org/1999/xlink" x="0px" y="0px"
	 viewBox="0 0 512 512" style="enable-background:new 0 0 512 512;" xml:space="preserve">
<g>
	<g>
		<g>
			<path d="M396.259,73.143h-76.234L320,73.147l-0.03-0.004H115.741L41.295,246.857h429.411L396.259,73.143z M374.063,219.429
				H137.938c-8.925,0.076-17.359-4.076-22.741-11.196c-5.126-6.702-6.776-15.434-4.451-23.545l18.205-64
				c3.581-12.007,14.663-20.205,27.192-20.116h199.714c12.531-0.088,23.613,8.112,27.192,20.121l18.205,63.996
				c2.326,8.11,0.675,16.843-4.451,23.545C391.422,215.352,382.987,219.505,374.063,219.429z"/>
			<path d="M365.46,125.688c-1.329-4.157-5.24-6.939-9.603-6.83H156.143c-4.361-0.109-8.272,2.671-9.603,6.826l-18.205,64.004
				c-0.746,2.595-0.206,5.391,1.451,7.522c1.942,2.527,4.965,3.985,8.152,3.933h236.125c3.186,0.052,6.21-1.406,8.152-3.933
				c1.657-2.132,2.196-4.927,1.451-7.522L365.46,125.688z"/>
			<path d="M498.964,270.893c-1.375-3.481-4.744-5.763-8.487-5.75H21.522c-3.743-0.013-7.111,2.269-8.487,5.75l-8.674,21.679
				h503.277L498.964,270.893z"/>
			<path d="M45.714,384c-5.047,0.007-9.136,4.096-9.143,9.143v10.828c5.888-2.246,12.397-2.246,18.286,0v-10.828
				C54.851,388.096,50.761,384.007,45.714,384z"/>
			<path d="M372.141,54.857h17.136L371.442,5.321c-1.176-2.677-3.662-4.548-6.56-4.936c-2.898-0.388-5.789,0.762-7.628,3.034
				c-1.521,2.137-1.89,4.886-0.987,7.348L372.141,54.857z"/>
			<path d="M288.46,5.933c-1.349-3.561-4.754-5.921-8.562-5.933h-47.795c-3.81,0.013-7.217,2.374-8.567,5.937l-18.342,48.92h101.611
				L288.46,5.933z M265.143,36.571h-18.286c-5.049,0-9.143-4.093-9.143-9.143c0-5.049,4.093-9.143,9.143-9.143h18.286
				c5.049,0,9.143,4.093,9.143,9.143C274.286,32.478,270.192,36.571,265.143,36.571z"/>
			<path d="M155.732,10.768c0.903-2.462,0.534-5.211-0.987-7.348c-1.839-2.273-4.73-3.423-7.628-3.035
				c-2.898,0.388-5.384,2.259-6.559,4.936l-17.834,49.536h17.136L155.732,10.768z"/>
			<circle cx="45.714" cy="429.714" r="9.143"/>
			<circle cx="466.286" cy="429.714" r="9.143"/>
			<path d="M393.143,347.429H118.857c-5.047,0.007-9.136,4.096-9.143,9.143v10.828c2.928-1.084,6.021-1.654,9.143-1.685h274.286
				c3.122,0.031,6.215,0.601,9.143,1.685v-10.828C402.279,351.525,398.19,347.435,393.143,347.429z"/>
			<path d="M0,310.857v192c0.007,5.047,4.096,9.136,9.143,9.143h493.714c5.047-0.007,9.136-4.096,9.143-9.143v-192H0z
				 M73.143,429.714c0,15.148-12.28,27.429-27.429,27.429s-27.429-12.28-27.429-27.429v-36.571c0-15.148,12.28-27.429,27.429-27.429
				s27.429,12.28,27.429,27.429V429.714z M420.571,393.143v73.143c-0.017,15.142-12.287,27.412-27.429,27.429H118.857
				c-15.142-0.017-27.412-12.287-27.429-27.429V356.571c0.017-15.142,12.287-27.412,27.429-27.429h274.286
				c15.142,0.017,27.412,12.287,27.429,27.429V393.143z M493.714,429.714c0,15.148-12.28,27.429-27.429,27.429
				c-15.148,0-27.429-12.28-27.429-27.429v-36.571c0-15.148,12.28-27.429,27.429-27.429c15.148,0,27.429,12.28,27.429,27.429
				V429.714z"/>
			<path d="M466.286,384c-5.047,0.007-9.136,4.096-9.143,9.143v10.828c5.888-2.246,12.397-2.246,18.286,0v-10.828
				C475.422,388.096,471.332,384.007,466.286,384z"/>
			<path d="M393.143,384H118.857c-5.047,0.007-9.136,4.096-9.143,9.143v73.143c0.007,5.047,4.096,9.136,9.143,9.143h274.286
				c5.047-0.007,9.136-4.096,9.143-9.143v-73.143C402.279,388.096,398.19,384.007,393.143,384z M313.509,404.937
				c2.194-2.147,5.307-3.07,8.317-2.469c0.573,0.098,1.129,0.282,1.647,0.545c0.583,0.201,1.137,0.479,1.647,0.826
				c0.455,0.366,0.911,0.732,1.371,1.098c3.536,3.605,3.536,9.377,0,12.982l0.001,0c-0.46,0.366-0.915,0.732-1.371,1.094
				c-0.51,0.347-1.064,0.625-1.647,0.826c-0.519,0.262-1.074,0.448-1.647,0.549c-0.604,0.101-1.214,0.162-1.826,0.183
				c-3.697-0.015-7.024-2.245-8.442-5.66S310.909,407.566,313.509,404.937z M146.103,449.826c-0.102,0.573-0.287,1.128-0.549,1.647
				c-0.201,0.583-0.479,1.137-0.826,1.647c-0.627,0.996-1.469,1.838-2.464,2.464c-0.51,0.347-1.064,0.625-1.647,0.826
				c-0.519,0.263-1.074,0.448-1.647,0.549c-0.604,0.105-1.214,0.166-1.826,0.183c-1.196-0.014-2.378-0.263-3.478-0.732
				c-1.106-0.465-2.125-1.115-3.013-1.92c-0.393-0.434-0.76-0.892-1.098-1.371c-0.347-0.51-0.625-1.064-0.826-1.647
				c-0.263-0.519-0.447-1.074-0.545-1.647c-0.107-0.603-0.168-1.213-0.183-1.826c0.013-1.196,0.26-2.377,0.728-3.478
				c0.84-2.292,2.645-4.098,4.937-4.937c3.406-1.433,7.341-0.674,9.969,1.923c0.806,0.889,1.455,1.908,1.92,3.013
				c0.469,1.1,0.717,2.282,0.731,3.478C146.269,448.612,146.208,449.223,146.103,449.826z M146.103,413.255
				c-0.102,0.573-0.287,1.128-0.549,1.647c-0.201,0.583-0.479,1.137-0.826,1.647c-0.337,0.479-0.702,0.936-1.094,1.371
				c-0.46,0.366-0.915,0.732-1.37,1.094c-0.51,0.347-1.064,0.625-1.647,0.826c-0.519,0.262-1.074,0.448-1.647,0.549
				c-0.604,0.105-1.214,0.166-1.826,0.183c-1.196-0.014-2.378-0.263-3.478-0.732c-1.106-0.465-2.125-1.115-3.013-1.92
				c-0.393-0.434-0.76-0.892-1.098-1.37c-0.347-0.51-0.625-1.064-0.826-1.647c-0.263-0.519-0.447-1.074-0.545-1.647
				c-0.103-0.604-0.164-1.214-0.183-1.826c0.013-1.196,0.26-2.377,0.728-3.478c0.84-2.292,2.645-4.098,4.937-4.937
				c1.669-0.727,3.522-0.918,5.304-0.545c0.573,0.098,1.129,0.282,1.647,0.545c0.583,0.201,1.137,0.479,1.647,0.826
				c0.455,0.366,0.911,0.732,1.37,1.098c0.806,0.889,1.455,1.908,1.92,3.013c0.469,1.1,0.718,2.281,0.732,3.477
				C146.265,412.041,146.204,412.651,146.103,413.255z M180.206,454.491c-0.876,0.825-1.9,1.476-3.018,1.92
				c-1.085,0.512-2.274,0.763-3.474,0.731c-0.614-0.016-1.226-0.078-1.83-0.183c-0.573-0.102-1.128-0.287-1.647-0.549
				c-0.582-0.202-1.134-0.479-1.643-0.826c-0.46-0.362-0.915-0.728-1.371-1.094c-1.67-1.753-2.617-4.071-2.652-6.491
				c0.013-1.196,0.26-2.377,0.728-3.478c0.465-1.107,1.116-2.126,1.924-3.014c2.653-2.547,6.554-3.301,9.964-1.924
				c1.119,0.444,2.144,1.097,3.019,1.924c0.806,0.889,1.455,1.908,1.92,3.013c0.469,1.1,0.717,2.282,0.731,3.478
				C182.821,450.42,181.874,452.738,180.206,454.491z M182.674,413.255L182.674,413.255c-0.102,0.573-0.287,1.128-0.549,1.648
				c-0.201,0.583-0.479,1.137-0.826,1.647c-0.362,0.455-0.728,0.911-1.094,1.37c-1.754,1.668-4.071,2.615-6.491,2.651
				c-0.614-0.016-1.226-0.078-1.83-0.183c-0.573-0.102-1.128-0.287-1.647-0.549c-0.582-0.202-1.134-0.48-1.643-0.826
				c-0.48-0.334-0.938-0.7-1.371-1.094c-0.393-0.434-0.76-0.892-1.098-1.37c-0.347-0.51-0.625-1.064-0.826-1.647
				c-0.263-0.519-0.447-1.074-0.545-1.647c-0.107-0.603-0.168-1.214-0.183-1.826c0.013-1.196,0.26-2.377,0.728-3.478
				c0.465-1.107,1.116-2.126,1.924-3.014c0.455-0.366,0.911-0.732,1.37-1.098c0.509-0.346,1.061-0.624,1.643-0.826
				c0.519-0.263,1.074-0.447,1.648-0.544c3.009-0.555,6.102,0.362,8.321,2.469c0.805,0.889,1.455,1.908,1.92,3.013
				c0.469,1.1,0.718,2.282,0.732,3.478C182.841,412.041,182.779,412.651,182.674,413.255z M216.777,454.491
				c-0.46,0.366-0.915,0.732-1.371,1.094c-0.51,0.347-1.064,0.625-1.647,0.826c-0.519,0.263-1.074,0.448-1.647,0.549
				c-0.604,0.101-1.214,0.162-1.826,0.183c-3.498,0.015-6.698-1.965-8.244-5.103s-1.169-6.882,0.973-9.647
				c2.142-2.765,5.673-4.067,9.097-3.353c0.573,0.098,1.129,0.282,1.647,0.545c0.583,0.201,1.137,0.479,1.647,0.826
				c0.455,0.366,0.911,0.732,1.371,1.098C220.313,445.114,220.313,450.886,216.777,454.491L216.777,454.491z M216.777,417.92
				c-0.434,0.392-0.892,0.757-1.371,1.094c-0.51,0.347-1.064,0.625-1.647,0.826c-0.519,0.262-1.074,0.448-1.647,0.549
				c-0.604,0.101-1.214,0.162-1.826,0.183c-2.432,0.024-4.771-0.932-6.491-2.652c-1.72-1.72-2.675-4.059-2.652-6.491
				c0.013-1.196,0.26-2.377,0.728-3.478c0.443-1.118,1.096-2.142,1.924-3.014c0.455-0.366,0.911-0.732,1.37-1.098
				c0.509-0.346,1.061-0.624,1.643-0.826c0.519-0.263,1.074-0.447,1.648-0.544c1.203-0.277,2.453-0.277,3.656,0
				c0.573,0.098,1.129,0.282,1.647,0.545c0.583,0.201,1.137,0.479,1.647,0.826c0.455,0.366,0.911,0.732,1.371,1.098
				c0.826,0.873,1.477,1.896,1.92,3.013c0.469,1.1,0.718,2.282,0.732,3.478C219.392,413.849,218.445,416.166,216.777,417.92z
				 M253.349,454.491c-1.754,1.668-4.071,2.615-6.491,2.651c-0.583-0.016-1.163-0.078-1.737-0.183
				c-0.606-0.087-1.194-0.273-1.741-0.549c-0.582-0.202-1.134-0.479-1.643-0.826c-0.46-0.362-0.915-0.728-1.37-1.094
				c-1.67-1.753-2.617-4.071-2.652-6.491c0.013-1.196,0.26-2.377,0.728-3.478c0.443-1.118,1.096-2.141,1.924-3.014
				c0.455-0.366,0.911-0.732,1.37-1.098c0.509-0.346,1.061-0.624,1.643-0.826c0.546-0.277,1.134-0.461,1.741-0.545
				c2.98-0.541,6.038,0.377,8.228,2.469c0.806,0.889,1.455,1.908,1.92,3.013c0.469,1.1,0.718,2.282,0.732,3.478
				C255.963,450.42,255.017,452.738,253.349,454.491z M253.349,417.92c-1.754,1.668-4.071,2.615-6.491,2.651
				c-0.583-0.016-1.163-0.078-1.737-0.183c-0.606-0.087-1.194-0.273-1.741-0.549c-0.582-0.202-1.134-0.48-1.643-0.826
				c-0.46-0.362-0.915-0.728-1.37-1.094c-1.67-1.753-2.617-4.071-2.652-6.491c0.013-1.196,0.26-2.377,0.728-3.478
				c0.443-1.118,1.096-2.142,1.924-3.014c0.433-0.395,0.89-0.762,1.37-1.098c0.509-0.346,1.061-0.624,1.643-0.826
				c0.546-0.277,1.134-0.461,1.741-0.545c4.274-0.941,8.592,1.392,10.147,5.482c0.469,1.1,0.718,2.282,0.733,3.478
				C255.963,413.849,255.017,416.166,253.349,417.92z M292.389,449.826L292.389,449.826c-0.102,0.573-0.287,1.128-0.549,1.648
				c-0.201,0.583-0.479,1.137-0.826,1.647c-0.337,0.478-0.702,0.936-1.094,1.371c-1.754,1.668-4.071,2.615-6.491,2.651
				c-1.196-0.014-2.378-0.263-3.478-0.732c-1.106-0.465-2.125-1.115-3.013-1.92c-0.366-0.46-0.732-0.915-1.098-1.371
				c-0.347-0.51-0.625-1.064-0.826-1.647c-0.263-0.519-0.447-1.074-0.545-1.647c-0.103-0.604-0.164-1.214-0.183-1.826
				c0.034-2.421,0.981-4.739,2.651-6.491c0.888-0.808,1.907-1.459,3.013-1.924c3.412-1.379,7.316-0.626,9.969,1.924
				c1.669,1.753,2.616,4.071,2.651,6.491C292.55,448.612,292.489,449.222,292.389,449.826z M291.839,414.902L291.839,414.902
				c-0.444,1.118-1.095,2.142-1.92,3.018c-1.754,1.668-4.071,2.615-6.491,2.651c-1.201,0.032-2.392-0.219-3.478-0.732
				c-1.106-0.465-2.125-1.115-3.013-1.92c-0.827-0.874-1.48-1.899-1.924-3.018c-0.467-1.099-0.714-2.279-0.728-3.473
				c0.034-2.421,0.981-4.739,2.651-6.491c0.888-0.808,1.907-1.459,3.013-1.924c3.406-1.433,7.341-0.674,9.969,1.924
				c1.669,1.753,2.616,4.071,2.651,6.491C292.603,412.628,292.352,413.817,291.839,414.902z M326.491,454.491
				c-0.46,0.366-0.915,0.732-1.371,1.094c-0.51,0.347-1.064,0.625-1.647,0.826c-0.519,0.263-1.074,0.448-1.647,0.549
				c-0.604,0.101-1.214,0.162-1.826,0.183c-2.432,0.024-4.771-0.932-6.491-2.652s-2.675-4.059-2.652-6.491
				c0.019-0.614,0.08-1.225,0.183-1.83c0.098-0.573,0.282-1.129,0.545-1.647c0.202-0.582,0.48-1.134,0.826-1.643
				c0.366-0.46,0.732-0.915,1.098-1.37c3.666-3.384,9.316-3.384,12.982,0c0.366,0.455,0.732,0.911,1.094,1.37
				c0.346,0.509,0.624,1.061,0.826,1.643c0.263,0.519,0.448,1.074,0.549,1.647c0.101,0.605,0.162,1.217,0.183,1.83
				C329.106,450.42,328.16,452.738,326.491,454.491z M374.857,438.857h-18.286c-5.049,0-9.143-4.093-9.143-9.143
				s4.093-9.143,9.143-9.143h18.286c5.049,0,9.143,4.093,9.143,9.143S379.907,438.857,374.857,438.857z"/>
		</g>
	</g>
</g>
<g>
</g>
<g>
</g>
<g>
</g>
<g>
</g>
<g>
</g>
<g>
</g>
<g>
</g>
<g>
</g>
<g>
</g>
<g>
</g>
<g>
</g>
<g>
</g>
<g>
</g>
<g>
</g>
<g>
</g>
</svg>
