<?xml version="1.0" encoding="iso-8859-1"?>
<!-- Generator: Adobe Illustrator 19.0.0, SVG Export Plug-In . SVG Version: 6.00 Build 0)  -->
<svg version="1.1" id="Capa_1" xmlns="http://www.w3.org/2000/svg" xmlns:xlink="http://www.w3.org/1999/xlink" x="0px" y="0px"
	 viewBox="0 0 512 512" style="enable-background:new 0 0 512 512;" xml:space="preserve">
<g>
	<g>
		<g>
			<path d="M330.331,36.571h-37.76c-5.049,0-9.143-4.093-9.143-9.143c0-5.049,4.093-9.143,9.143-9.143h25.6l-4.023-6.034
				C309.056,4.604,300.479,0.007,291.291,0h-70.583c-9.188,0.007-17.765,4.604-22.857,12.251l-10.057,15.177h22.491
				c5.049,0,9.143,4.093,9.143,9.143c0,5.049-4.093,9.143-9.143,9.143h-34.743L163.383,64h185.234L330.331,36.571z"/>
			<path d="M449.646,98.011c-4.597-9.569-14.253-15.675-24.869-15.726H87.223c-10.616,0.051-20.272,6.157-24.869,15.726
				L5.303,219.429h501.394L449.646,98.011z"/>
			<path d="M420.571,411.429c0,5.049-4.093,9.143-9.143,9.143s-9.143-4.093-9.143-9.143v-9.143h-27.429v9.143
				c0,5.049-4.093,9.143-9.143,9.143s-9.143-4.093-9.143-9.143v-9.143h-27.429v9.143c0,5.049-4.093,9.143-9.143,9.143
				c-5.049,0-9.143-4.093-9.143-9.143v-9.143h-27.429v9.143c0,5.049-4.093,9.143-9.143,9.143c-5.049,0-9.143-4.093-9.143-9.143
				v-9.143h-27.429v9.143c0,5.049-4.093,9.143-9.143,9.143c-5.049,0-9.143-4.093-9.143-9.143v-9.143H192v9.143
				c0,5.049-4.093,9.143-9.143,9.143c-5.049,0-9.143-4.093-9.143-9.143v-9.143h-27.429v9.143c0,5.049-4.093,9.143-9.143,9.143
				c-5.049,0-9.143-4.093-9.143-9.143v-9.143h-27.429v9.143c0,5.049-4.093,9.143-9.143,9.143c-5.049,0-9.143-4.093-9.143-9.143
				v-9.143H45.714V512H128v-9.143c0-5.049,4.093-9.143,9.143-9.143c5.049,0,9.143,4.093,9.143,9.143V512h27.429v-9.143
				c0-5.049,4.093-9.143,9.143-9.143c5.049,0,9.143,4.093,9.143,9.143V512h27.429v-9.143c0-5.049,4.093-9.143,9.143-9.143
				c5.049,0,9.143,4.093,9.143,9.143V512h27.429v-9.143c0-5.049,4.093-9.143,9.143-9.143c5.049,0,9.143,4.093,9.143,9.143V512
				h27.429v-9.143c0-5.049,4.093-9.143,9.143-9.143c5.049,0,9.143,4.093,9.143,9.143V512h27.429v-9.143
				c0-5.049,4.093-9.143,9.143-9.143s9.143,4.093,9.143,9.143V512h32.823l58.606-58.606v-51.109h-45.714V411.429z M411.429,475.429
				c0,5.049-4.093,9.143-9.143,9.143c-5.049,0-9.143-4.093-9.143-9.143v-18.286h-18.286c0,5.049-4.093,9.143-9.143,9.143
				s-9.143-4.093-9.143-9.143h-18.286c0,5.049-4.093,9.143-9.143,9.143S320,462.192,320,457.143h-18.286
				c0,5.049-4.093,9.143-9.143,9.143c-5.049,0-9.143-4.093-9.143-9.143h-18.286c0,5.049-4.093,9.143-9.143,9.143
				s-9.143-4.093-9.143-9.143h-18.286c0,5.049-4.093,9.143-9.143,9.143s-9.143-4.093-9.143-9.143H192
				c0,5.049-4.093,9.143-9.143,9.143c-5.049,0-9.143-4.093-9.143-9.143h-18.286c0,5.049-4.093,9.143-9.143,9.143
				c-5.049,0-9.143-4.093-9.143-9.143h-18.286v18.286c0,5.049-4.093,9.143-9.143,9.143s-9.143-4.093-9.143-9.143V448
				c0.015-5.043,4.1-9.128,9.143-9.143h292.571c5.043,0.015,9.128,4.1,9.143,9.143V475.429z"/>
			<polygon points="338.286,329.143 338.286,347.429 363.154,347.429 358.583,329.143 			"/>
			<path d="M0,237.714v182.857c0.03,10.087,8.199,18.256,18.286,18.286h9.143v-45.714c0.047-0.495,0.139-0.984,0.274-1.463
				c0.021-0.492,0.082-0.981,0.183-1.463l34.469-103.406c2.506-7.468,9.494-12.507,17.371-12.526h352.549
				c7.877,0.019,14.865,5.058,17.371,12.526l34.469,103.406c0.1,0.482,0.162,0.971,0.183,1.463c0.135,0.478,0.227,0.968,0.274,1.463
				v45.714h9.143c10.087-0.03,18.256-8.199,18.286-18.286V237.714H0z"/>
			<path d="M432.274,292.571H79.726L49.28,384h413.44L432.274,292.571z M106.24,341.211l-6.126,18.286
				c-1.249,3.73-4.752,6.238-8.686,6.217c-0.991-0.025-1.974-0.178-2.926-0.457c-4.767-1.65-7.33-6.818-5.76-11.611l6.126-18.286
				c1.64-4.763,6.818-7.31,11.592-5.701C105.234,331.267,107.816,336.427,106.24,341.211z M192,356.571
				c-0.015,5.043-4.1,9.128-9.143,9.143h-45.714c-2.812,0.008-5.474-1.272-7.223-3.474c-1.705-2.239-2.31-5.128-1.646-7.863
				l9.143-36.571c0.993-4.089,4.661-6.963,8.869-6.949h36.571c5.043,0.015,9.128,4.1,9.143,9.143V356.571z M382.08,362.24
				c-1.749,2.202-4.41,3.483-7.223,3.474h-45.714c-5.043-0.015-9.128-4.1-9.143-9.143V320c0.015-5.043,4.1-9.128,9.143-9.143h36.571
				c4.208-0.014,7.876,2.86,8.869,6.949l9.143,36.571C384.39,357.112,383.785,360.001,382.08,362.24z M423.497,365.257
				c-0.951,0.279-1.935,0.432-2.926,0.457c-3.934,0.02-7.437-2.487-8.686-6.217l-6.126-18.286c-1.576-4.785,1.006-9.945,5.78-11.553
				c4.774-1.608,9.951,0.938,11.592,5.701l6.126,18.286C430.827,358.44,428.264,363.607,423.497,365.257z"/>
			<polygon points="148.846,347.429 173.714,347.429 173.714,329.143 153.417,329.143 			"/>
		</g>
	</g>
</g>
<g>
</g>
<g>
</g>
<g>
</g>
<g>
</g>
<g>
</g>
<g>
</g>
<g>
</g>
<g>
</g>
<g>
</g>
<g>
</g>
<g>
</g>
<g>
</g>
<g>
</g>
<g>
</g>
<g>
</g>
</svg>
