<?xml version="1.0" encoding="iso-8859-1"?>
<!-- Generator: Adobe Illustrator 19.0.0, SVG Export Plug-In . SVG Version: 6.00 Build 0)  -->
<svg version="1.1" id="Capa_1" xmlns="http://www.w3.org/2000/svg" xmlns:xlink="http://www.w3.org/1999/xlink" x="0px" y="0px"
	 viewBox="0 0 512 512" style="enable-background:new 0 0 512 512;" xml:space="preserve">
<g>
	<g>
		<g>
			<polygon points="82.295,137.143 82.286,45.714 63.552,45.714 58.981,137.143 82.286,137.143 			"/>
			<polygon points="27.922,310.857 73.143,310.857 73.143,237.714 73.143,155.429 36.105,155.429 			"/>
			<polygon points="40.677,137.143 45.248,45.714 26.697,45.714 19.081,137.143 27.429,137.143 			"/>
			<path d="M420.571,240.045l-43.344-79.464c-4.804-8.815-14.042-14.298-24.08-14.295H158.852
				c-10.039-0.004-19.276,5.48-24.08,14.295l-43.344,79.464v70.813h329.143V240.045z M192,164.571h128
				c5.049,0,9.143,4.093,9.143,9.143s-4.093,9.143-9.143,9.143H192c-5.049,0-9.143-4.093-9.143-9.143S186.951,164.571,192,164.571z
				 M164.571,201.143h182.857c5.049,0,9.143,4.093,9.143,9.143c0,5.049-4.093,9.143-9.143,9.143H164.571
				c-5.049,0-9.143-4.093-9.143-9.143C155.429,205.236,159.522,201.143,164.571,201.143z M374.857,256H137.143
				c-5.049,0-9.143-4.093-9.143-9.143c0-5.049,4.093-9.143,9.143-9.143h237.714c5.049,0,9.143,4.093,9.143,9.143
				C384,251.907,379.907,256,374.857,256z"/>
			<polygon points="266.542,0 245.458,0 230.217,91.429 281.783,91.429 			"/>
			<polygon points="438.857,310.857 484.078,310.857 475.895,155.429 438.857,155.429 438.857,237.714 			"/>
			<polygon points="448.448,45.714 429.714,45.714 429.714,137.143 453.019,137.143 			"/>
			<circle cx="82.286" cy="411.429" r="9.143"/>
			<path d="M310.259,119.821c-3.079-6.21-9.421-10.13-16.353-10.107h-75.813c-6.932-0.022-13.273,3.897-16.353,10.107L197.652,128
				h116.697L310.259,119.821z"/>
			<path d="M27.429,329.143v164.571c0.01,10.095,8.191,18.276,18.286,18.286h420.571c10.095-0.01,18.276-8.191,18.286-18.286
				V329.143H82.286H27.429z M429.714,384c15.142,0.017,27.412,12.287,27.429,27.429c0,15.148-12.28,27.429-27.429,27.429
				s-27.429-12.28-27.429-27.429S414.566,384,429.714,384z M134.415,366.518c5.359-6.334,13.244-9.975,21.54-9.946h200.089
				c8.297-0.029,16.182,3.612,21.541,9.946c5.161,6.095,7.367,14.158,6.026,22.031l-12.54,73.143
				c-2.366,13.335-14.02,23.009-27.563,22.88H168.491c-13.544,0.129-25.199-9.547-27.563-22.884l-12.54-73.138
				C127.048,380.676,129.254,372.613,134.415,366.518z M92.782,386.088c10.249,4.245,16.932,14.247,16.932,25.341
				c-0.017,15.142-12.287,27.412-27.429,27.429c-11.094,0-21.095-6.683-25.341-16.932s-1.899-22.047,5.946-29.891
				C70.735,384.189,82.533,381.842,92.782,386.088z"/>
			<circle cx="429.714" cy="411.429" r="9.143"/>
			<polygon points="485.303,45.714 466.752,45.714 471.323,137.143 484.571,137.143 492.919,137.143 			"/>
			<path d="M158.955,458.603c0.876,4.546,4.908,7.794,9.536,7.682h175.018c4.627,0.111,8.658-3.134,9.536-7.679l12.54-73.147
				c0.447-2.562-0.281-5.189-1.982-7.156c-1.887-2.209-4.653-3.47-7.558-3.446H155.955c-2.905-0.024-5.672,1.238-7.558,3.447
				c-1.702,1.967-2.429,4.594-1.982,7.156L158.955,458.603z M322.652,395.794c3.639-3.451,9.343-3.451,12.982,0
				c1.669,1.753,2.616,4.071,2.652,6.491c-0.015,1.194-0.263,2.374-0.732,3.473l0.001,0c-0.444,1.118-1.095,2.142-1.92,3.018
				c-1.754,1.668-4.071,2.615-6.491,2.651c-1.196-0.014-2.378-0.263-3.478-0.732c-1.117-0.443-2.14-1.094-3.013-1.92
				C319.116,405.171,319.116,399.399,322.652,395.794z M312.515,429.761c4.348,0.854,7.484,4.665,7.485,9.096
				c-0.037,2.42-0.983,4.738-2.651,6.491c-3.102,3.164-8.01,3.69-11.712,1.255c-3.702-2.435-5.164-7.149-3.489-11.251
				C303.823,431.25,308.167,428.908,312.515,429.761z M285.3,396.679c2.142-2.765,5.673-4.067,9.097-3.353
				c0.573,0.098,1.129,0.282,1.647,0.545c0.583,0.201,1.137,0.479,1.647,0.826c0.479,0.338,0.936,0.705,1.371,1.098
				c3.536,3.605,3.536,9.377,0,12.982c-0.435,0.392-0.892,0.757-1.371,1.094l0,0c-0.51,0.347-1.064,0.625-1.647,0.826
				c-0.519,0.263-1.074,0.448-1.647,0.549c-0.604,0.101-1.214,0.162-1.826,0.183c-3.498,0.015-6.698-1.965-8.244-5.103
				S283.158,399.444,285.3,396.679z M275.944,429.761c4.348,0.854,7.484,4.665,7.485,9.096c-0.037,2.42-0.983,4.738-2.651,6.491
				c-3.102,3.164-8.01,3.69-11.712,1.255c-3.702-2.435-5.164-7.149-3.489-11.251C267.252,431.25,271.596,428.908,275.944,429.761z
				 M247.585,398.808c0.443-1.118,1.096-2.141,1.924-3.014c0.857-0.847,1.884-1.503,3.013-1.924c2.227-0.911,4.723-0.911,6.951,0
				c1.13,0.422,2.159,1.078,3.019,1.924c1.669,1.753,2.616,4.071,2.651,6.491c-0.021,0.612-0.082,1.222-0.183,1.826
				c-0.102,0.573-0.287,1.128-0.549,1.647l0.001,0c-0.201,0.583-0.479,1.137-0.826,1.647c-0.337,0.478-0.702,0.936-1.094,1.37
				c-3.605,3.536-9.377,3.536-12.982,0c-0.393-0.434-0.76-0.892-1.098-1.37c-0.347-0.51-0.625-1.064-0.826-1.647
				c-0.263-0.519-0.447-1.074-0.545-1.647c-0.103-0.604-0.164-1.214-0.183-1.826C246.87,401.09,247.117,399.909,247.585,398.808z
				 M239.373,429.761c4.348,0.854,7.484,4.665,7.484,9.096c-0.037,2.42-0.983,4.738-2.651,6.491
				c-3.102,3.164-8.01,3.69-11.712,1.255c-3.702-2.435-5.164-7.149-3.489-11.251C230.68,431.25,235.025,428.908,239.373,429.761z
				 M211.013,398.808c0.443-1.118,1.096-2.141,1.924-3.014c0.888-0.808,1.907-1.459,3.013-1.924
				c3.406-1.433,7.341-0.674,9.969,1.924c1.669,1.753,2.616,4.071,2.651,6.491c-0.021,0.612-0.082,1.222-0.183,1.826
				c-0.102,0.573-0.287,1.128-0.549,1.647l0.001,0c-0.201,0.583-0.479,1.137-0.826,1.647c-0.362,0.455-0.728,0.911-1.094,1.37
				c-3.605,3.536-9.377,3.536-12.982,0c-0.366-0.46-0.732-0.915-1.098-1.37c-0.347-0.51-0.625-1.064-0.826-1.647
				c-0.263-0.519-0.447-1.074-0.545-1.647c-0.103-0.604-0.165-1.214-0.184-1.826C210.298,401.09,210.546,399.909,211.013,398.808z
				 M202.801,429.761c4.348,0.854,7.484,4.665,7.484,9.096c-0.037,2.42-0.983,4.738-2.651,6.491
				c-3.102,3.164-8.01,3.69-11.712,1.255c-3.702-2.435-5.164-7.149-3.489-11.251C194.109,431.25,198.453,428.908,202.801,429.761z
				 M176.366,395.794c0.857-0.847,1.884-1.503,3.013-1.924c3.412-1.379,7.316-0.626,9.969,1.924c0.826,0.873,1.477,1.896,1.92,3.013
				c0.469,1.1,0.718,2.282,0.731,3.478c-0.021,0.612-0.082,1.222-0.183,1.826c-0.102,0.573-0.287,1.128-0.549,1.647
				c-0.201,0.583-0.479,1.137-0.826,1.647c-0.337,0.479-0.702,0.936-1.093,1.371c-1.754,1.668-4.071,2.615-6.491,2.651
				c-1.201,0.032-2.392-0.219-3.478-0.732c-1.117-0.443-2.14-1.094-3.013-1.92c-0.393-0.434-0.76-0.892-1.098-1.37
				c-0.347-0.51-0.625-1.064-0.826-1.647c-0.263-0.519-0.447-1.074-0.545-1.647c-0.103-0.604-0.164-1.214-0.183-1.826
				C173.748,399.865,174.695,397.546,176.366,395.794z"/>
		</g>
	</g>
</g>
<g>
</g>
<g>
</g>
<g>
</g>
<g>
</g>
<g>
</g>
<g>
</g>
<g>
</g>
<g>
</g>
<g>
</g>
<g>
</g>
<g>
</g>
<g>
</g>
<g>
</g>
<g>
</g>
<g>
</g>
</svg>
