<?xml version="1.0" encoding="iso-8859-1"?>
<!-- Generator: Adobe Illustrator 19.0.0, SVG Export Plug-In . SVG Version: 6.00 Build 0)  -->
<svg version="1.1" id="Capa_1" xmlns="http://www.w3.org/2000/svg" xmlns:xlink="http://www.w3.org/1999/xlink" x="0px" y="0px"
	 viewBox="0 0 512 512" style="enable-background:new 0 0 512 512;" xml:space="preserve">
<g>
	<g>
		<g>
			<path d="M420.571,411.429c0,5.049-4.093,9.143-9.143,9.143s-9.143-4.093-9.143-9.143v-9.143h-27.429v9.143
				c0,5.049-4.093,9.143-9.143,9.143s-9.143-4.093-9.143-9.143v-9.143h-27.429v9.143c0,5.049-4.093,9.143-9.143,9.143
				c-5.049,0-9.143-4.093-9.143-9.143v-9.143h-27.429v9.143c0,5.049-4.093,9.143-9.143,9.143c-5.049,0-9.143-4.093-9.143-9.143
				v-9.143h-27.429v9.143c0,5.049-4.093,9.143-9.143,9.143c-5.049,0-9.143-4.093-9.143-9.143v-9.143H192v9.143
				c0,5.049-4.093,9.143-9.143,9.143c-5.049,0-9.143-4.093-9.143-9.143v-9.143h-27.429v9.143c0,5.049-4.093,9.143-9.143,9.143
				c-5.049,0-9.143-4.093-9.143-9.143v-9.143h-27.429v9.143c0,5.049-4.093,9.143-9.143,9.143c-5.049,0-9.143-4.093-9.143-9.143
				v-9.143H45.714v64h20.759c9.473-0.03,18.284,4.857,23.272,12.911L110.214,512H128v-9.143c0-5.049,4.093-9.143,9.143-9.143
				c5.049,0,9.143,4.093,9.143,9.143V512h27.429v-9.143c0-5.049,4.093-9.143,9.143-9.143c5.049,0,9.143,4.093,9.143,9.143V512
				h27.429v-9.143c0-5.049,4.093-9.143,9.143-9.143c5.049,0,9.143,4.093,9.143,9.143V512h27.429v-9.143
				c0-5.049,4.093-9.143,9.143-9.143c5.049,0,9.143,4.093,9.143,9.143V512h27.429v-9.143c0-5.049,4.093-9.143,9.143-9.143
				c5.049,0,9.143,4.093,9.143,9.143V512h27.429v-9.143c0-5.049,4.093-9.143,9.143-9.143s9.143,4.093,9.143,9.143V512h18.286
				l26.058-34.745c5.194-6.889,13.314-10.948,21.942-10.969h25.143v-64h-45.714V411.429z M384,466.286H128
				c-5.049,0-9.143-4.093-9.143-9.143S122.951,448,128,448h256c5.049,0,9.143,4.093,9.143,9.143S389.049,466.286,384,466.286z"/>
			<path d="M449.612,98.036c-4.548-9.594-14.204-15.721-24.821-15.75H87.21c-10.619,0.029-20.275,6.158-24.821,15.754L5.264,219.429
				h501.472L449.612,98.036z"/>
			<path d="M330.345,36.571h-37.774c-5.049,0-9.143-4.093-9.143-9.143c0-5.049,4.093-9.143,9.143-9.143h25.583l-4.047-6.071
				C309.027,4.576,300.459-0.01,291.286,0h-70.571c-9.173-0.01-17.741,4.576-22.822,12.214L187.75,27.429h22.536
				c5.049,0,9.143,4.093,9.143,9.143c0,5.049-4.093,9.143-9.143,9.143H175.56L163.369,64h185.262L330.345,36.571z"/>
			<path d="M0,237.714v182.857c0.01,10.095,8.191,18.276,18.286,18.286h9.143v-45.714c0.23-0.951,0.387-1.918,0.469-2.893
				l34.487-103.464c2.485-7.469,9.476-12.506,17.348-12.5h352.536c7.872-0.007,14.863,5.031,17.348,12.5l34.487,103.464
				c0.082,0.975,0.239,1.942,0.469,2.893v45.714h9.143c10.095-0.01,18.276-8.191,18.286-18.286V237.714H0z"/>
			<polygon points="432.265,292.571 79.735,292.571 49.262,384 462.738,384 			"/>
		</g>
	</g>
</g>
<g>
</g>
<g>
</g>
<g>
</g>
<g>
</g>
<g>
</g>
<g>
</g>
<g>
</g>
<g>
</g>
<g>
</g>
<g>
</g>
<g>
</g>
<g>
</g>
<g>
</g>
<g>
</g>
<g>
</g>
</svg>
